<?xml version="1.0" encoding="utf-8"?>
<!-- Generator: Adobe Illustrator 16.0.0, SVG Export Plug-In . SVG Version: 6.00 Build 0)  -->
<!DOCTYPE svg PUBLIC "-//W3C//DTD SVG 1.1//EN" "http://www.w3.org/Graphics/SVG/1.1/DTD/svg11.dtd">
<svg version="1.1" id="Layer_1" xmlns="http://www.w3.org/2000/svg" xmlns:xlink="http://www.w3.org/1999/xlink" x="0px" y="0px"
	 width="600px" height="600px" viewBox="0 0 600 600" enable-background="new 0 0 600 600" xml:space="preserve">
<linearGradient id="SVGID_1_" gradientUnits="userSpaceOnUse" x1="813.6709" y1="301.2393" x2="-161.0237" y2="301.2392">
	<stop  offset="0" style="stop-color:#989CA1"/>
	<stop  offset="1" style="stop-color:#586167"/>
</linearGradient>
<circle fill="url(#SVGID_1_)" cx="296.026" cy="301.24" r="286.144"/>
<path fill="#FFFFFF" d="M440.824,437.473l-136.82-272.467h-15.956L151.226,437.473h21.922l63.045-125.547h119.668l63.047,125.547
	H440.824z M296.026,192.764l49.997,99.572h-99.995L296.026,192.764z"/>
<polygon fill="#FFFFFF" points="213.663,279.866 221.338,264.515 185.392,192.934 185.392,236.598 207.116,279.866 "/>
<polygon fill="#FFFFFF" points="339.322,323.501 296.026,409.715 252.733,323.501 243.937,323.501 237.393,336.589 288.048,437.473 
	304.004,437.473 354.221,337.478 347.225,323.501 "/>
<polygon fill="#FFFFFF" points="384.923,279.866 406.557,236.801 406.557,193.149 370.512,264.934 377.971,279.866 "/>
<polygon fill="#FFFFFF" points="171.07,364.352 171.07,311.926 197.431,311.926 207.269,292.336 171.07,292.336 171.07,165.719 
	151.483,165.719 151.483,402.571 151.653,402.571 "/>
<polygon fill="#FFFFFF" points="394.024,311.926 420.379,311.926 420.379,364.352 439.795,402.571 439.964,402.571 439.964,165.719 
	420.379,165.719 420.379,292.336 384.181,292.336 "/>
</svg>
