<?xml version="1.0" encoding="utf-8"?>
<!-- Generator: Adobe Illustrator 16.0.0, SVG Export Plug-In . SVG Version: 6.00 Build 0)  -->
<!DOCTYPE svg PUBLIC "-//W3C//DTD SVG 1.1//EN" "http://www.w3.org/Graphics/SVG/1.1/DTD/svg11.dtd">
<svg version="1.1" id="Layer_1" xmlns="http://www.w3.org/2000/svg" xmlns:xlink="http://www.w3.org/1999/xlink" x="0px" y="0px"
	 width="600px" height="600px" viewBox="0 0 600 600" enable-background="new 0 0 600 600" xml:space="preserve">
<g>
	<linearGradient id="SVGID_1_" gradientUnits="userSpaceOnUse" x1="817.6445" y1="300.8535" x2="-157.0492" y2="300.8534">
		<stop  offset="0" style="stop-color:#989CA1"/>
		<stop  offset="1" style="stop-color:#586167"/>
	</linearGradient>
	<circle fill="url(#SVGID_1_)" cx="300" cy="300.854" r="286.143"/>
	<path fill-rule="evenodd" clip-rule="evenodd" fill="#FFFFFF" d="M243.827,137.795c9.229,0,18.461,0,27.697,0
		c-0.02,0.26-0.055,0.521-0.055,0.775c0,15.703,0,31.409,0,47.117c0,0.317,0.068,0.639,0.1,0.956c9.094,0,18.096,0,27.184,0
		c0-0.588,0-1.104,0-1.606c0-15.278,0-30.549,0-45.821c0-0.47-0.031-0.951-0.042-1.421c9.229,0,18.458,0,27.698,0
		c0.037,0.555,0.092,1.115,0.092,1.67c0.006,15.182,0.006,30.362,0.006,45.55c0,0.543,0,1.091,0,1.72c0.568,0,0.953-0.006,1.34,0
		c7.695,0.08,15.314,0.833,22.82,2.592c11.344,2.667,21.68,7.376,30.425,15.204c11.439,10.251,17.938,23.163,20.35,38.242
		c1.217,7.619,0.469,14.932-3.125,21.865c-3.447,6.635-8.15,12.261-13.631,17.276c-2.246,2.06-4.629,3.974-7.002,5.989
		c0.42,0.231,0.822,0.475,1.234,0.695c6.459,3.476,12.805,7.122,18.686,11.524c10.896,8.146,17.738,18.754,19.732,32.31
		c0.383,2.592,0.656,5.208,0.973,7.806c0,2.763,0,5.524,0,8.287c-0.074,0.334-0.191,0.662-0.215,1.002
		c-0.611,7.301-2.627,14.224-5.852,20.768c-7.133,14.473-18.273,25.024-32.355,32.58c-14.003,7.519-29.104,10.988-44.86,11.904
		c-2.783,0.164-5.58,0.018-8.535,0.018c0,16.613,0,32.853,0,49.099c-9.322,0-18.477,0-27.748,0c0-16.297,0-32.497,0-48.754
		c-9.137,0-18.16,0-27.299,0c0,16.291,0,32.496,0,48.771c-9.268,0-18.433,0-27.747,0c0-16.297,0-32.535,0-48.854
		c-20.774,0-41.389,0-62.004,0c0-0.176,0-0.347,0-0.516c0.088-0.231,0.212-0.47,0.271-0.707c2.508-11.049,5.038-22.081,7.503-33.142
		c0.257-1.172,0.666-1.579,1.93-1.574c9.269,0.067,18.546,0.039,27.818,0.039c0.498,0,0.999,0,1.517,0c0-53.364,0-106.555,0-159.814
		c-13.081,0-26.06,0-39.04,0c0-10.873,0-21.747,0-32.62c20.638,0,41.275,0,62.021,0c0-0.737,0-1.292,0-1.852
		c0-15.136-0.008-30.272,0-45.407C243.713,138.91,243.785,138.35,243.827,137.795z M271.537,379.108
		c0.473,0.017,0.807,0.045,1.152,0.045c14.881,0.005,29.768,0.005,44.648,0.005c6.104,0,12.148-0.56,18.057-2.173
		c6.945-1.896,13.234-4.987,18.119-10.438c5.416-6.039,7.563-13.285,7.658-21.276c0.176-13.931-6.531-24.55-19.16-30.085
		c-7.387-3.243-15.197-4.427-23.203-4.46c-15.355-0.063-30.715-0.022-46.068-0.028c-0.383,0-0.759,0.028-1.203,0.057
		C271.537,333.548,271.537,356.257,271.537,379.108z M271.539,219.344c0,20.711,0,41.264,0,61.891
		c0.454,0.022,0.827,0.067,1.203,0.067c11.816,0.006,23.636,0,35.451,0.006c5.438,0,10.752-0.792,15.836-2.733
		c11.389-4.354,19.119-11.961,20.592-24.538c1.217-10.466-1.969-19.455-10.324-26.207c-7.268-5.882-15.822-8.304-25.002-8.435
		c-12.249-0.175-24.498-0.051-36.748-0.051C272.25,219.344,271.956,219.344,271.539,219.344z"/>
</g>
</svg>
