<?xml version="1.0" encoding="utf-8"?>
<!-- Generator: Adobe Illustrator 16.0.0, SVG Export Plug-In . SVG Version: 6.00 Build 0)  -->
<!DOCTYPE svg PUBLIC "-//W3C//DTD SVG 1.1//EN" "http://www.w3.org/Graphics/SVG/1.1/DTD/svg11.dtd">
<svg version="1.1" id="Layer_1" xmlns="http://www.w3.org/2000/svg" xmlns:xlink="http://www.w3.org/1999/xlink" x="0px" y="0px"
	 width="600px" height="600px" viewBox="0 0 600 600" enable-background="new 0 0 600 600" xml:space="preserve">
<g>
	<linearGradient id="SVGID_1_" gradientUnits="userSpaceOnUse" x1="817.6445" y1="300" x2="-157.0492" y2="299.9999">
		<stop  offset="0" style="stop-color:#989CA1"/>
		<stop  offset="1" style="stop-color:#586167"/>
	</linearGradient>
	<circle fill="url(#SVGID_1_)" cx="300" cy="299.999" r="286.143"/>
	<g>
		<path fill-rule="evenodd" clip-rule="evenodd" fill="#FFFFFF" d="M208.441,283.505c28.732-44.575,56.87-88.229,85.014-131.882
			c0.181-0.276,0.391-0.536,0.608-0.785c4.438-5.14,8.906-5.156,13.248,0.062c1.264,1.518,2.244,3.272,3.32,4.941
			c25.816,40.087,51.639,80.169,77.428,120.267c1.596,2.474,3.006,5.055,4.947,8.343c-9.758,6.781-19.188,13.37-28.652,19.925
			c-19.053,13.2-38.006,26.553-57.303,39.396c-2.508,1.665-7.817,2.23-10.073,0.707C267.628,324.673,238.6,304.393,208.441,283.505z
			"/>
		<path fill-rule="evenodd" clip-rule="evenodd" fill="#FFFFFF" d="M202.967,298.387c6.17,4.194,12.359,8.354,18.504,12.589
			c23.423,16.131,47.021,32.025,70.141,48.589c7.304,5.229,12.682,5.653,20.238,0.227c25.232-18.154,51.01-35.553,76.594-53.208
			c2.82-1.947,5.768-3.697,9.77-4.319c-1.379,2.445-2.643,4.964-4.16,7.324c-28.104,43.647-56.223,87.289-84.381,130.902
			c-6.484,10.047-11.25,10.324-17.458,0.696c-29.377-45.584-58.625-91.245-87.888-136.902c-0.988-1.54-1.698-3.26-2.536-4.896
			C202.184,299.054,202.577,298.72,202.967,298.387z"/>
	</g>
</g>
</svg>
