<?xml version="1.0" encoding="utf-8"?>
<!-- Generator: Adobe Illustrator 16.0.0, SVG Export Plug-In . SVG Version: 6.00 Build 0)  -->
<!DOCTYPE svg PUBLIC "-//W3C//DTD SVG 1.1//EN" "http://www.w3.org/Graphics/SVG/1.1/DTD/svg11.dtd">
<svg version="1.1" id="Layer_1" xmlns="http://www.w3.org/2000/svg" xmlns:xlink="http://www.w3.org/1999/xlink" x="0px" y="0px"
	 width="600px" height="150px" viewBox="0 0 600 150" enable-background="new 0 0 600 150" xml:space="preserve">
<g>
	<path fill="#FFFFFF" d="M109.741,126.433L60.508,28.39h-5.741L5.534,126.433h7.888l22.686-45.177h43.06l22.685,45.177H109.741z
		 M57.638,38.38l17.991,35.828H39.647L57.638,38.38z"/>
	<polygon fill="#FFFFFF" points="28.641,69.721 31.403,64.198 18.469,38.441 18.469,54.15 26.287,69.721 	"/>
	<polygon fill="#FFFFFF" points="73.215,85.421 57.638,116.442 42.06,85.421 38.894,85.421 36.539,90.131 54.767,126.433 
		60.508,126.433 78.576,90.452 76.06,85.421 	"/>
	<polygon fill="#FFFFFF" points="88.985,69.721 96.768,54.224 96.768,38.518 83.798,64.348 86.483,69.721 	"/>
	<polygon fill="#FFFFFF" points="13.317,100.121 13.317,81.256 22.801,81.256 26.341,74.208 13.317,74.208 13.317,28.646 
		6.268,28.646 6.268,113.873 6.329,113.873 	"/>
	<polygon fill="#FFFFFF" points="92.258,81.256 101.742,81.256 101.742,100.121 108.729,113.873 108.791,113.873 108.791,28.646 
		101.742,28.646 101.742,74.208 88.718,74.208 	"/>
</g>
<g>
	<path fill="#FFFFFF" d="M169.312,62.75c3.891,3.457,5.838,8.669,5.838,15.64v26.748h-12.721v-5.838
		c-2.557,4.356-7.319,6.535-14.289,6.535c-3.603,0-6.724-0.61-9.367-1.83c-2.644-1.22-4.661-2.903-6.055-5.054
		c-1.394-2.147-2.091-4.588-2.091-7.318c0-4.356,1.641-7.783,4.923-10.281c3.281-2.497,8.35-3.746,15.204-3.746h10.804
		c0-2.963-0.901-5.242-2.701-6.84c-1.801-1.597-4.502-2.396-8.103-2.396c-2.498,0-4.953,0.392-7.362,1.176
		c-2.411,0.784-4.458,1.845-6.143,3.181l-4.879-9.497c2.555-1.8,5.62-3.194,9.192-4.182c3.572-0.987,7.246-1.481,11.022-1.481
		C159.844,57.566,165.42,59.295,169.312,62.75z M157.724,95.075c1.8-1.074,3.078-2.657,3.833-4.748v-4.792h-9.323
		c-5.576,0-8.364,1.829-8.364,5.488c0,1.743,0.682,3.123,2.047,4.139c1.364,1.018,3.238,1.525,5.62,1.525
		C153.86,96.688,155.923,96.15,157.724,95.075z"/>
	<path fill="#FFFFFF" d="M225.64,62.794c3.572,3.485,5.358,8.656,5.358,15.509v26.836h-13.592V80.395
		c0-3.717-0.814-6.492-2.44-8.321c-1.626-1.83-3.979-2.745-7.057-2.745c-3.428,0-6.158,1.061-8.19,3.18
		c-2.034,2.121-3.05,5.271-3.05,9.454v23.176h-13.592V40.489h13.592v22.653c1.8-1.8,3.978-3.18,6.535-4.139
		c2.555-0.958,5.344-1.438,8.364-1.438C217.376,57.566,222.067,59.309,225.64,62.794z"/>
	<path fill="#FFFFFF" d="M312.942,62.75c3.455,3.457,5.185,8.641,5.185,15.552v26.836h-13.593V80.395
		c0-3.717-0.771-6.492-2.309-8.321c-1.54-1.83-3.733-2.745-6.578-2.745c-3.195,0-5.722,1.032-7.581,3.093
		c-1.859,2.063-2.788,5.127-2.788,9.192v23.524h-13.592V80.395c0-7.376-2.962-11.066-8.887-11.066c-3.137,0-5.635,1.032-7.493,3.093
		c-1.859,2.063-2.788,5.127-2.788,9.192v23.524h-13.592V58.264h12.982v5.402c1.743-1.974,3.877-3.485,6.404-4.531
		c2.527-1.045,5.3-1.568,8.321-1.568c3.311,0,6.302,0.653,8.975,1.96c2.671,1.307,4.82,3.21,6.447,5.707
		c1.917-2.44,4.341-4.327,7.275-5.664c2.932-1.335,6.143-2.004,9.627-2.004C304.824,57.566,309.485,59.295,312.942,62.75z"/>
	<path fill="#999DA2" d="M356.201,102.873c-1.337,0.988-2.978,1.729-4.923,2.222c-1.946,0.493-3.994,0.741-6.143,0.741
		c-5.576,0-9.889-1.423-12.938-4.27c-3.05-2.846-4.574-7.027-4.574-12.547V69.765h-7.231V59.309h7.231V47.895h13.592v11.414h11.676
		v10.456h-11.676v19.081c0,1.976,0.508,3.5,1.525,4.574c1.016,1.075,2.453,1.612,4.313,1.612c2.148,0,3.978-0.58,5.489-1.743
		L356.201,102.873z"/>
	<path fill="#999DA2" d="M368.529,102.742c-3.921-2.061-6.985-4.922-9.192-8.582c-2.208-3.659-3.311-7.812-3.311-12.459
		c0-4.646,1.103-8.8,3.311-12.459c2.207-3.66,5.271-6.52,9.192-8.582c3.921-2.062,8.35-3.093,13.287-3.093
		c4.937,0,9.352,1.032,13.243,3.093c3.892,2.063,6.94,4.922,9.149,8.582c2.206,3.659,3.311,7.813,3.311,12.459
		c0,4.647-1.104,8.8-3.311,12.459c-2.209,3.66-5.258,6.521-9.149,8.582c-3.892,2.063-8.307,3.094-13.243,3.094
		C376.879,105.836,372.45,104.805,368.529,102.742z M390.398,91.154c2.235-2.353,3.354-5.503,3.354-9.453
		c0-3.949-1.119-7.101-3.354-9.454c-2.236-2.353-5.097-3.529-8.582-3.529s-6.36,1.176-8.626,3.529
		c-2.265,2.353-3.397,5.504-3.397,9.454c0,3.95,1.133,7.101,3.397,9.453c2.266,2.353,5.141,3.529,8.626,3.529
		S388.162,93.507,390.398,91.154z"/>
	<path fill="#999DA2" d="M432.352,86.755l-6.535,6.447v11.937h-13.592V40.489h13.592v36.594l19.865-18.819h16.206l-19.517,19.865
		l21.259,27.01h-16.467L432.352,86.755z"/>
	<path fill="#999DA2" d="M511.027,85.535h-35.461c0.638,2.904,2.147,5.198,4.53,6.883c2.381,1.686,5.344,2.526,8.887,2.526
		c2.44,0,4.604-0.362,6.491-1.089c1.887-0.726,3.645-1.873,5.271-3.441l7.231,7.842c-4.415,5.053-10.862,7.58-19.343,7.58
		c-5.286,0-9.962-1.031-14.027-3.094c-4.066-2.061-7.203-4.922-9.41-8.582c-2.208-3.659-3.311-7.812-3.311-12.459
		c0-4.588,1.089-8.727,3.268-12.416c2.178-3.688,5.169-6.563,8.974-8.625c3.804-2.062,8.06-3.093,12.765-3.093
		c4.588,0,8.741,0.988,12.46,2.962c3.716,1.976,6.635,4.807,8.756,8.495c2.12,3.689,3.181,7.972,3.181,12.851
		C511.289,82.05,511.201,83.27,511.027,85.535z M479.226,70.461c-2.092,1.743-3.37,4.125-3.834,7.145h23.089
		c-0.465-2.963-1.742-5.329-3.833-7.102c-2.092-1.771-4.648-2.657-7.668-2.657C483.9,67.848,481.316,68.719,479.226,70.461z"/>
	<path fill="#999DA2" d="M558.557,62.794c3.572,3.485,5.358,8.656,5.358,15.509v26.836h-13.593V80.395
		c0-3.717-0.813-6.492-2.439-8.321c-1.627-1.83-3.979-2.745-7.058-2.745c-3.428,0-6.157,1.061-8.189,3.18
		c-2.034,2.121-3.05,5.271-3.05,9.454v23.176h-13.592V58.264h12.982v5.489c1.8-1.974,4.036-3.499,6.708-4.574
		c2.672-1.074,5.605-1.612,8.801-1.612C550.293,57.566,554.984,59.309,558.557,62.794z"/>
</g>
</svg>
