<?xml version="1.0" encoding="utf-8"?>
<!-- Generator: Adobe Illustrator 16.0.0, SVG Export Plug-In . SVG Version: 6.00 Build 0)  -->
<!DOCTYPE svg PUBLIC "-//W3C//DTD SVG 1.1//EN" "http://www.w3.org/Graphics/SVG/1.1/DTD/svg11.dtd">
<svg version="1.1" id="Layer_1" xmlns="http://www.w3.org/2000/svg" xmlns:xlink="http://www.w3.org/1999/xlink" x="0px" y="0px"
	 width="26px" height="33px" viewBox="0 0 26 33" enable-background="new 0 0 26 33" xml:space="preserve">
<path fill="#FFFFFF" d="M13,2.174C6.16-1.775,0.593,1.437,0.593,9.339c0,7.896,5.567,17.54,12.407,21.485
	c6.843,3.953,12.408,0.737,12.408-7.161C25.407,15.764,19.843,6.123,13,2.174z M13,30.168C6.474,26.395,1.164,17.204,1.164,9.667
	c0-7.536,5.31-10.599,11.835-6.833C19.526,6.6,24.835,15.795,24.835,23.331C24.835,30.867,19.526,33.935,13,30.168z M13,7.021
	C8.476,4.41,4.793,6.537,4.793,11.762c0,5.224,3.682,11.6,8.206,14.215c4.525,2.61,8.205,0.483,8.205-4.738
	C21.204,16.014,17.524,9.635,13,7.021z M13,25.313c-4.208-2.431-7.634-8.363-7.634-13.223c0-4.859,3.426-6.837,7.634-4.406
	c4.208,2.432,7.632,8.361,7.632,13.224C20.632,25.767,17.208,27.741,13,25.313z M13,11.875c-2.207-1.272-4.005-0.238-4.005,2.312
	c0,2.548,1.798,5.659,4.005,6.935c2.208,1.276,4.003,0.238,4.003-2.31C17.003,16.26,15.208,13.15,13,11.875z M13,20.463
	c-1.893-1.093-3.432-3.762-3.432-5.943c0-2.188,1.54-3.077,3.432-1.98c1.894,1.091,3.433,3.756,3.433,5.941S14.894,21.552,13,20.463
	z"/>
</svg>
