<?xml version="1.0" encoding="utf-8"?>
<!-- Generator: Adobe Illustrator 16.0.0, SVG Export Plug-In . SVG Version: 6.00 Build 0)  -->
<!DOCTYPE svg PUBLIC "-//W3C//DTD SVG 1.1//EN" "http://www.w3.org/Graphics/SVG/1.1/DTD/svg11.dtd">
<svg version="1.1" id="Layer_1" xmlns="http://www.w3.org/2000/svg" xmlns:xlink="http://www.w3.org/1999/xlink" x="0px" y="0px"
	 width="624px" height="455px" viewBox="0 0 624 455" enable-background="new 0 0 624 455" xml:space="preserve">
<linearGradient id="SVGID_1_" gradientUnits="userSpaceOnUse" x1="981.7158" y1="193.1348" x2="1014.8668" y2="145.1393" gradientTransform="matrix(-1 0 0 1 1106.5918 0)">
	<stop  offset="0.0051" style="stop-color:#FFFFFF"/>
	<stop  offset="0.1007" style="stop-color:#F8FAFC"/>
	<stop  offset="0.2363" style="stop-color:#E6ECF4"/>
	<stop  offset="0.3959" style="stop-color:#C7D6E6"/>
	<stop  offset="0.5739" style="stop-color:#9DB6D3"/>
	<stop  offset="0.767" style="stop-color:#668EBA"/>
	<stop  offset="0.9698" style="stop-color:#245E9D"/>
	<stop  offset="1" style="stop-color:#1A5698"/>
</linearGradient>
<path fill="url(#SVGID_1_)" d="M127.816,198.949l15.791-9.118l-35.793-21.289c-3.625-2.062-8.072-2.047-11.684,0.039l-1.056,0.609
	c-3.942,2.276-3.923,7.972,0.034,10.223L127.816,198.949z"/>
<path fill="#FFE1D1" d="M119.144,116.89c-4.71-2.349-10.75-5.884-12.209-10.508c-1.958-6.202-2.259-10.237-2.281-10.602
	c-0.055-0.946,0.667-1.757,1.613-1.812c0.949-0.061,1.758,0.667,1.813,1.613c0.004,0.081,0.883,3.003,2.074,8.649
	c0.812,3.848,6.507,7.833,10.235,11.194C121.509,116.436,120.689,117.66,119.144,116.89z"/>
<path fill="#003162" d="M104.694,166.322c2.42,2.355,8.944,4.385,7.9,5.804c-1.256,1.41-9.961-1.419-11.076-2.178
	c-0.623-0.543,0.017-4.092,0.017-4.092L104.694,166.322z"/>
<path fill="#FFE1D1" d="M102.384,78.562c-0.166,4.261-0.692,7.734-4.227,7.596c-3.536-0.137-8.74-3.833-8.574-8.095
	c0.167-4.26,3.167-7.603,6.702-7.465S102.551,74.3,102.384,78.562z"/>
<path fill="#003162" d="M89.958,170.825c-0.193,0.653-0.286,1.453-0.304,2.447c-0.003,0.155,0.034,0.311,0.114,0.443
	c1.581,2.598,5.478,6.268,7.143,6.269c3.182,0-2.827-8.196-3.209-9.414C93.32,169.353,89.958,170.825,89.958,170.825z"/>
<path fill="#4D83C9" d="M89.664,121.465c0,0-0.843,11.317-0.901,24.218c-0.035,7.436,0.708,18.573,0.7,25.197
	c-0.001,1.201,4.74,1.387,4.801,0.188c0.327-6.47-0.346-18.022,0.406-25.341c0.971-9.452,3.361-17.182,3.361-17.182
	s3.925,6.731,4.656,15.14c0.582,6.693-2.047,17.786-1.729,23.05c0.068,1.126,4.521,0.615,4.484-0.513
	c-0.183-5.723,2.892-16.514,2.756-23.319c-0.236-11.866-3.624-22.173-3.624-22.173L89.664,121.465z"/>
<path fill="#FFE1D1" d="M83.33,126.729c-1.78-10.07,0.366-26.304,0.569-26.908c0.301-0.898,1.799-1.239,2.698-0.938
	c0.903,0.297,1.382,1.273,1.082,2.172c-0.046,0.138-1.703,16.749-1.854,25.818C85.799,128.384,83.63,128.429,83.33,126.729z"/>
<path fill="#112433" d="M96.349,73.542c2.863,0.294,5.38,2.063,6.238-0.181c1.293-3.381-1.746-6.509-4.386-7.14
	c-2.33-0.557-5.271-0.169-6.496,2.469c-1.559,0.292-2.89,1.365-3.605,2.746c-1.532,2.96-1.473,6.941,2.677,10.351
	c-0.774-2.825-0.237-4.028,0.316-4.132c1.074-0.2,1.273,0.657,1.787,0.728c1.138,0.159,0.61-1.683,0.402-2.746
	C93.084,74.622,95.044,73.409,96.349,73.542z"/>
<path fill="#264D70" d="M93.458,87.938c0,0-6.348,3.553-8.534,6.026c-1.621,1.834-2.351,6.315-2.34,7.518
	c-0.129,1.844,5.517,2.242,6.001,0.982c0.483-1.948,0.573-4.125,0.573-4.125s-0.756,15.821,0.107,23.053
	c4.078,2.563,13.685,1.319,15.891-0.926c0.248-10.036-0.453-23.118-0.453-23.118s4.101-1.166,4.11-2.582
	c0.015-2.369-1.038-6.224-2.981-6.922c-2.151-0.772-7.439-0.604-7.439-0.604L93.458,87.938z"/>
<path fill="#FFE1D1" d="M98.45,89.063c-1.242,1.792-5.345,1.161-5.383-0.901c-0.023-1.263,0.599-4.003,0.599-4.003l4.889,0.86
	C98.555,85.019,98.943,88.352,98.45,89.063z"/>
<g>
	<path fill="#D4ECFC" d="M283.993,143.947c1.123-0.795,2.32-1.565,3.593-2.305c1.051-0.611,2.134-1.191,3.245-1.739
		c0.981-0.534,1.619-1.503,1.667-2.53l-0.016-7.797c-0.052-0.988-0.724-1.373-1.674-0.957c-1.111,0.548-2.193,1.127-3.245,1.739
		c-1.272,0.74-2.47,1.51-3.591,2.305c-0.784,0.608-1.293,1.656-1.331,2.733l0.017,7.797
		C282.705,144.387,283.407,144.346,283.993,143.947L283.993,143.947z"/>
	<path fill="#D4ECFC" d="M283.96,127.646c1.122-0.795,2.318-1.565,3.591-2.305c1.051-0.611,2.134-1.191,3.245-1.739
		c0.981-0.534,1.62-1.503,1.667-2.531l-0.016-7.797c-0.052-0.988-0.726-1.373-1.675-0.957c-1.11,0.548-2.194,1.127-3.245,1.739
		c-1.272,0.74-2.47,1.51-3.592,2.305c-0.783,0.609-1.292,1.655-1.33,2.732l0.017,7.798
		C282.671,128.085,283.373,128.044,283.96,127.646L283.96,127.646z"/>
	<path fill="#D4ECFC" d="M283.925,111.344c1.123-0.795,2.32-1.565,3.593-2.306c1.051-0.611,2.135-1.191,3.245-1.738
		c0.966-0.526,1.62-1.523,1.667-2.539l-0.017-7.79c-0.052-0.988-0.724-1.372-1.674-0.957c-1.111,0.548-2.192,1.128-3.245,1.739
		c-1.272,0.74-2.469,1.509-3.591,2.305c-0.784,0.609-1.293,1.656-1.33,2.733l0.016,7.79
		C282.637,111.781,283.34,111.742,283.925,111.344L283.925,111.344z"/>
	<path fill="#D4ECFC" d="M283.892,95.042c1.122-0.796,2.319-1.565,3.591-2.305c1.052-0.612,2.134-1.191,3.245-1.739
		c0.965-0.526,1.62-1.522,1.667-2.538l-0.015-7.797c-0.053-1-0.711-1.372-1.675-0.95c-1.11,0.548-2.193,1.128-3.245,1.739
		c-1.272,0.74-2.47,1.51-3.591,2.306c-0.784,0.608-1.293,1.652-1.331,2.725l0.017,7.798
		C282.603,95.479,283.305,95.439,283.892,95.042L283.892,95.042z"/>
	<path fill="#D4ECFC" d="M299.215,136.523c2.708-0.875,5.517-1.597,8.387-2.162c1.135-0.274,1.873-1.077,1.927-2.096l-0.017-7.797
		c-0.059-1.013-0.817-1.559-1.933-1.391c-2.871,0.565-5.678,1.287-8.386,2.162c-1.044,0.391-1.751,1.316-1.803,2.359l0.016,7.798
		C297.468,136.532,298.359,136.781,299.215,136.523L299.215,136.523z"/>
	<path fill="#D4ECFC" d="M299.146,103.92c2.708-0.875,5.516-1.597,8.386-2.163c1.135-0.274,1.873-1.08,1.927-2.104l-0.016-7.79
		c-0.059-1.013-0.818-1.559-1.934-1.392c-2.87,0.566-5.677,1.287-8.386,2.164c-1.044,0.39-1.751,1.316-1.803,2.359l0.017,7.79
		C297.4,103.925,298.292,104.177,299.146,103.92L299.146,103.92z"/>
	<path fill="#D4ECFC" d="M317.033,116.766c2.965-0.233,5.957-0.312,8.938-0.238c1.175-0.021,1.942-0.659,1.998-1.667l-0.017-7.798
		c-0.061-1.024-0.848-1.739-2.006-1.821c-2.98-0.075-5.971,0.004-8.938,0.238c-1.146,0.143-1.922,0.899-1.978,1.927l0.017,7.797
		C315.116,116.358,316.095,116.82,317.033,116.766L317.033,116.766z"/>
	<path fill="#D4ECFC" d="M316.965,84.162c2.966-0.233,5.957-0.313,8.938-0.238c1.176-0.021,1.941-0.663,1.997-1.674l-0.016-7.798
		c-0.061-1.021-0.849-1.732-2.007-1.813c-2.98-0.075-5.971,0.004-8.937,0.237c-1.146,0.142-1.921,0.896-1.979,1.919l0.018,7.797
		C315.049,83.751,316.026,84.216,316.965,84.162L316.965,84.162z"/>
	<path fill="#D4ECFC" d="M335.547,117.307c2.918,0.406,5.788,0.966,8.574,1.678c1.089,0.229,1.797-0.247,1.849-1.24l-0.018-7.798
		c-0.056-1.039-0.784-1.921-1.854-2.247c-2.788-0.712-5.657-1.271-8.576-1.678c-1.137-0.105-1.908,0.482-1.965,1.498l0.017,7.798
		C333.644,116.484,334.614,117.157,335.547,117.307L335.547,117.307z"/>
	<path fill="#D4ECFC" d="M335.513,101.005c2.919,0.406,5.788,0.965,8.574,1.678c1.089,0.229,1.797-0.25,1.849-1.248l-0.017-7.791
		c-0.058-1.039-0.785-1.92-1.855-2.246c-2.786-0.713-5.656-1.272-8.575-1.679c-1.137-0.105-1.907,0.482-1.963,1.497l0.016,7.791
		C333.609,100.179,334.581,100.855,335.513,101.005L335.513,101.005z"/>
	<path fill="#D4ECFC" d="M335.479,84.703c2.919,0.406,5.788,0.966,8.574,1.678c1.089,0.229,1.797-0.25,1.849-1.248l-0.017-7.797
		c-0.056-1.035-0.784-1.914-1.855-2.239c-2.786-0.712-5.656-1.272-8.573-1.679c-1.139-0.106-1.91,0.479-1.967,1.49l0.017,7.798
		C333.576,83.877,334.546,84.553,335.479,84.703L335.479,84.703z"/>
	<path fill="#D4ECFC" d="M351.083,127.914c0.105-1.04,0.672-1.391,1.73-1.073c2.564,1.042,5.009,2.236,7.296,3.583
		c0.605,0.43,0.875,0.756,1.249,1.518l0.021,9.774c-0.364,0.283-0.643,0.281-1.246-0.007c-2.287-1.347-4.731-2.542-7.297-3.583
		C351.183,137.292,350.626,137.011,351.083,127.914L351.083,127.914z"/>
	<path fill="#D4ECFC" d="M351.048,111.611c0.106-1.039,0.673-1.391,1.729-1.072c2.566,1.042,5.01,2.236,7.298,3.582
		c0.605,0.43,0.874,0.756,1.25,1.519l0.021,9.773c-0.365,0.283-0.646,0.282-1.248-0.007c-2.287-1.347-4.731-2.542-7.296-3.583
		C351.148,120.99,350.592,120.709,351.048,111.611L351.048,111.611z"/>
	<path fill="#D4ECFC" d="M350.979,79c0.107-1.035,0.673-1.384,1.73-1.065c2.566,1.042,5.01,2.236,7.296,3.583
		c0.607,0.43,0.877,0.755,1.251,1.514l0.021,9.773c-0.37,0.29-0.637,0.29-1.247-0.002c-2.286-1.346-4.731-2.541-7.296-3.583
		C351.08,88.384,350.522,88.103,350.979,79L350.979,79z"/>
</g>
<linearGradient id="SVGID_2_" gradientUnits="userSpaceOnUse" x1="175.2983" y1="233.5898" x2="115.8804" y2="138.6986">
	<stop  offset="0.0051" style="stop-color:#FFFFFF"/>
	<stop  offset="0.1394" style="stop-color:#F8FAFC"/>
	<stop  offset="0.3298" style="stop-color:#E6EBF3"/>
	<stop  offset="0.5539" style="stop-color:#C7D3E4"/>
	<stop  offset="0.8014" style="stop-color:#9DB1D0"/>
	<stop  offset="1" style="stop-color:#7692BD"/>
</linearGradient>
<path fill="url(#SVGID_2_)" d="M159.2,271.107l101.236-58.448l-90.434-50.603c-2.919-1.633-6.484-1.609-9.382,0.063l-90.91,52.486
	c-2.493,1.439-2.469,5.045,0.043,6.451L159.2,271.107z"/>
<linearGradient id="SVGID_3_" gradientUnits="userSpaceOnUse" x1="401.748" y1="368.9082" x2="318.9609" y2="236.6959" gradientTransform="matrix(1 6.000000e-004 -6.000000e-004 1 0.3262 -0.3159)">
	<stop  offset="0.0051" style="stop-color:#FFFFFF"/>
	<stop  offset="0.1007" style="stop-color:#F8FAFC"/>
	<stop  offset="0.2363" style="stop-color:#E6ECF4"/>
	<stop  offset="0.3959" style="stop-color:#C7D6E6"/>
	<stop  offset="0.5739" style="stop-color:#9DB6D3"/>
	<stop  offset="0.767" style="stop-color:#668EBA"/>
	<stop  offset="0.9698" style="stop-color:#245E9D"/>
	<stop  offset="1" style="stop-color:#1A5698"/>
</linearGradient>
<polygon fill="url(#SVGID_3_)" points="406.631,406.539 496.783,354.564 364.061,278.336 273.908,330.309 "/>
<linearGradient id="SVGID_4_" gradientUnits="userSpaceOnUse" x1="208.0054" y1="407.6113" x2="165.7394" y2="340.112" gradientTransform="matrix(1 6.000000e-004 -6.000000e-004 1 0.3262 -0.3159)">
	<stop  offset="0.0051" style="stop-color:#FFFFFF"/>
	<stop  offset="0.1007" style="stop-color:#F8FAFC"/>
	<stop  offset="0.2363" style="stop-color:#E6ECF4"/>
	<stop  offset="0.3959" style="stop-color:#C7D6E6"/>
	<stop  offset="0.5739" style="stop-color:#9DB6D3"/>
	<stop  offset="0.767" style="stop-color:#668EBA"/>
	<stop  offset="0.9698" style="stop-color:#245E9D"/>
	<stop  offset="1" style="stop-color:#1A5698"/>
</linearGradient>
<polygon fill="url(#SVGID_4_)" points="210.526,426.671 256.553,400.136 188.792,361.217 142.766,387.753 "/>
<linearGradient id="SVGID_5_" gradientUnits="userSpaceOnUse" x1="564.9004" y1="222.2837" x2="526.0488" y2="160.2371" gradientTransform="matrix(1 6.000000e-004 -6.000000e-004 1 0.3262 -0.3159)">
	<stop  offset="0.0051" style="stop-color:#FFFFFF"/>
	<stop  offset="0.1007" style="stop-color:#F8FAFC"/>
	<stop  offset="0.2363" style="stop-color:#E6ECF4"/>
	<stop  offset="0.3959" style="stop-color:#C7D6E6"/>
	<stop  offset="0.5739" style="stop-color:#9DB6D3"/>
	<stop  offset="0.767" style="stop-color:#668EBA"/>
	<stop  offset="0.9698" style="stop-color:#245E9D"/>
	<stop  offset="1" style="stop-color:#1A5698"/>
</linearGradient>
<polygon fill="url(#SVGID_5_)" points="586.371,229.896 591.979,226.657 528.32,189.939 522.714,193.181 "/>
<linearGradient id="SVGID_6_" gradientUnits="userSpaceOnUse" x1="258.8794" y1="312.2266" x2="386.8779" y2="312.2266" gradientTransform="matrix(1 6.000000e-004 -6.000000e-004 1 0.3262 -0.3159)">
	<stop  offset="0" style="stop-color:#1A3E55"/>
	<stop  offset="1" style="stop-color:#0F334A"/>
</linearGradient>
<path fill="url(#SVGID_6_)" d="M387.036,280.207l-0.019,27.153c0.097,9.486-6.099,18.995-18.634,26.19
	c-24.918,14.367-65.429,14.291-90.506-0.209c-6.238-3.605-10.928-7.768-14.071-12.209c-3.143-4.44-4.738-9.159-4.785-13.853
	l0.017-27.382c0.096,9.412,6.38,18.828,18.856,26.064c25.078,14.5,65.587,14.574,90.506,0.209
	C380.835,299.026,387.03,289.619,387.036,280.207z"/>
<linearGradient id="SVGID_7_" gradientUnits="userSpaceOnUse" x1="276.1528" y1="222.167" x2="369.6064" y2="222.167" gradientTransform="matrix(1 6.000000e-004 -6.000000e-004 1 0.3262 -0.3159)">
	<stop  offset="0" style="stop-color:#74777A"/>
	<stop  offset="1" style="stop-color:#C0C1C2"/>
</linearGradient>
<path fill="url(#SVGID_7_)" d="M369.799,222.072v0.168c-0.004,6.87-4.528,13.739-13.605,18.956
	c-18.193,10.488-47.77,10.433-66.08-0.153c-9.107-5.283-13.697-12.158-13.767-19.028c-0.069-6.926,4.455-13.85,13.587-19.123
	c18.193-10.489,47.789-10.433,66.08,0.153C365.141,208.329,369.729,215.202,369.799,222.072z"/>
<linearGradient id="SVGID_8_" gradientUnits="userSpaceOnUse" x1="277.0625" y1="268.9541" x2="359.6338" y2="268.2484" gradientTransform="matrix(1 6.000000e-004 -6.000000e-004 1 0.3262 -0.3159)">
	<stop  offset="0" style="stop-color:#74777A"/>
	<stop  offset="1" style="stop-color:#C0C1C2"/>
</linearGradient>
<path fill="url(#SVGID_8_)" d="M385.944,273.421h0.009l-16.262-53.008l-93.273-0.059l-16.269,52.458
	c-0.003,0.01-0.006,0.021-0.011,0.033l-0.155,0.5h0.014c-0.652,2.167-0.982,4.36-0.96,6.554c0.096,9.412,6.38,18.828,18.856,26.064
	c25.078,14.5,65.587,14.574,90.506,0.209c12.435-7.146,18.63-16.553,18.636-25.965v-0.228
	C387.014,277.783,386.64,275.59,385.944,273.421z"/>
<linearGradient id="SVGID_9_" gradientUnits="userSpaceOnUse" x1="371.625" y1="216.4526" x2="228.713" y2="216.9819" gradientTransform="matrix(1 6.000000e-004 -6.000000e-004 1 0.3262 -0.3159)">
	<stop  offset="0" style="stop-color:#1A3E55"/>
	<stop  offset="1" style="stop-color:#0F334A"/>
</linearGradient>
<path fill="url(#SVGID_9_)" d="M369.58,219.618l12.26-34.314l-117.613-1.046l12.191,36.097h0.011
	c-0.053,0.552-0.088,1.106-0.083,1.661c0.07,6.87,4.659,13.745,13.767,19.028c18.311,10.586,47.887,10.642,66.079,0.153
	c9.078-5.217,13.603-12.086,13.606-18.956v-0.168c-0.009-0.818-0.085-1.637-0.222-2.454H369.58z"/>
<path fill="#C0C1C2" d="M382.387,180.468v0.211c-0.005,8.719-5.745,17.433-17.264,24.053c-23.084,13.309-60.612,13.238-83.845-0.193
	c-11.557-6.704-17.379-15.426-17.468-24.145c-0.088-8.789,5.651-17.574,17.24-24.264c23.085-13.31,60.637-13.24,83.846,0.193
	C376.477,163.028,382.299,171.75,382.387,180.468z"/>
<linearGradient id="SVGID_10_" gradientUnits="userSpaceOnUse" x1="328.7158" y1="212.7373" x2="317.071" y2="148.5142" gradientTransform="matrix(1 6.000000e-004 -6.000000e-004 1 0.3262 -0.3159)">
	<stop  offset="0" style="stop-color:#1A3E55"/>
	<stop  offset="1" style="stop-color:#0F334A"/>
</linearGradient>
<path fill="url(#SVGID_10_)" d="M323.42,210.431c-15.167-0.011-29.38-3.405-40.022-9.558c-9.822-5.699-15.276-12.988-15.353-20.521
	c-0.076-7.581,5.294-14.881,15.123-20.554c10.49-6.048,24.551-9.375,39.596-9.365c15.171,0.009,29.38,3.402,40.011,9.556
	c9.841,5.696,15.302,12.984,15.378,20.522v0.166c-0.005,7.538-5.381,14.776-15.138,20.383
	C352.518,207.112,338.458,210.438,323.42,210.431z"/>
<linearGradient id="SVGID_11_" gradientUnits="userSpaceOnUse" x1="274.3589" y1="151.7656" x2="371.4063" y2="151.7656" gradientTransform="matrix(1 6.000000e-004 -6.000000e-004 1 0.3262 -0.3159)">
	<stop  offset="0" style="stop-color:#1A3E55"/>
	<stop  offset="1" style="stop-color:#0F334A"/>
</linearGradient>
<path fill="url(#SVGID_11_)" d="M371.653,131.348l-0.009,12.809c0.073,7.193-4.624,14.402-14.128,19.858
	c-18.894,10.893-49.607,10.835-68.621-0.158c-4.729-2.734-8.286-5.891-10.668-9.258c-2.383-3.367-3.592-6.945-3.629-10.503
	l0.008-12.981c0.073,7.135,4.838,14.273,14.297,19.76c19.013,10.993,49.727,11.051,68.621,0.158
	C366.952,145.615,371.648,138.483,371.653,131.348z"/>
<linearGradient id="SVGID_12_" gradientUnits="userSpaceOnUse" x1="342.6113" y1="149.2314" x2="299.3032" y2="109.8061" gradientTransform="matrix(1 6.000000e-004 -6.000000e-004 1 0.3262 -0.3159)">
	<stop  offset="0" style="stop-color:#74777A"/>
	<stop  offset="1" style="stop-color:#C0C1C2"/>
</linearGradient>
<path fill="url(#SVGID_12_)" d="M371.653,131.174v0.173c-0.005,7.135-4.701,14.268-14.129,19.685
	c-18.894,10.893-49.607,10.835-68.621-0.158c-9.459-5.487-14.224-12.625-14.297-19.76c-0.073-7.193,4.625-14.383,14.11-19.858
	c18.893-10.893,49.626-10.836,68.62,0.158C366.815,116.901,371.58,124.04,371.653,131.174z"/>
<linearGradient id="SVGID_13_" gradientUnits="userSpaceOnUse" x1="289.4189" y1="147.1147" x2="353.1116" y2="116.9445" gradientTransform="matrix(1 6.000000e-004 -6.000000e-004 1 0.3262 -0.3159)">
	<stop  offset="0" style="stop-color:#1A3E55"/>
	<stop  offset="1" style="stop-color:#0F334A"/>
</linearGradient>
<path fill="url(#SVGID_13_)" d="M368.479,131.204v0.137c-0.001,0.709-0.054,1.418-0.172,2.117
	c-0.882,5.504-5.193,10.71-12.362,14.823c-8.643,4.981-20.192,7.715-32.558,7.707c-12.459-0.007-24.145-2.798-32.896-7.864
	c-7.281-4.218-11.66-9.523-12.546-15.083c-0.106-0.646-0.159-1.302-0.168-1.958c-0.06-6.32,4.39-12.383,12.523-17.078
	c8.63-4.97,20.193-7.715,32.557-7.708c12.459,0.007,24.145,2.799,32.886,7.864C363.893,118.878,368.408,124.936,368.479,131.204z"/>
<linearGradient id="SVGID_14_" gradientUnits="userSpaceOnUse" x1="363.5205" y1="133.3828" x2="295.7703" y2="133.3828" gradientTransform="matrix(1 6.000000e-004 -6.000000e-004 1 0.3262 -0.3159)">
	<stop  offset="0" style="stop-color:#1A3E55"/>
	<stop  offset="1" style="stop-color:#0F334A"/>
</linearGradient>
<path fill="url(#SVGID_14_)" d="M368.308,133.458c-0.882,5.504-5.193,10.71-12.362,14.823c-8.643,4.981-20.192,7.715-32.558,7.707
	c-12.459-0.007-24.145-2.798-32.896-7.864c-7.281-4.218-11.66-9.523-12.546-15.083c0.893-5.483,5.193-10.667,12.353-14.802
	c8.631-4.97,20.192-7.715,32.558-7.708c12.459,0.008,24.144,2.799,32.885,7.865C363.032,122.614,367.413,127.91,368.308,133.458z"/>
<path fill="#98ACB7" d="M375.456,283.339c-3.053,3.788-7.289,7.332-12.712,10.452c-4.172,2.411-8.788,4.408-13.701,6.005
	l-6.264-23.219c-1.119-3.813-0.651-7.783,1.087-11.126c1.271-2.478,3.253-4.613,5.806-6.084l2.542-1.47
	c7.115-4.104,16.185-0.467,18.509,7.421L375.456,283.339z"/>
<linearGradient id="SVGID_15_" gradientUnits="userSpaceOnUse" x1="343.6992" y1="269.8633" x2="375.2998" y2="269.8633" gradientTransform="matrix(1 6.000000e-004 -6.000000e-004 1 0.3262 -0.3159)">
	<stop  offset="0" style="stop-color:#1A3E55"/>
	<stop  offset="1" style="stop-color:#0F334A"/>
</linearGradient>
<path fill="url(#SVGID_15_)" d="M375.456,283.339l-31.59-17.888c1.271-2.478,3.253-4.613,5.806-6.084l2.542-1.47
	c7.115-4.104,16.185-0.467,18.509,7.421L375.456,283.339z"/>
<g>
	<path fill="#82B0D3" d="M282.561,289.183l-0.829-0.492c-2.938-1.749-4.363-6.242-3.18-10.034l5.437-17.438
		c1.182-3.794,4.523-5.453,7.463-3.703l0.829,0.491c2.938,1.75,4.362,6.243,3.18,10.035l-5.437,17.438
		C288.841,289.273,285.501,290.932,282.561,289.183z"/>
	<path fill="#FFFFFF" d="M287.01,262.587c0.542-1.732,2.245-2.386,3.806-1.458c1.561,0.929,2.388,3.087,1.848,4.819
		c-0.541,1.735-2.244,2.389-3.805,1.46C287.297,266.48,286.47,264.321,287.01,262.587z"/>
	<path fill="#0069B0" d="M285.627,271.694c0.306-0.979,1.27-1.348,2.151-0.822c0.883,0.524,1.35,1.744,1.045,2.726
		c-0.306,0.979-1.27,1.349-2.152,0.824C285.789,273.897,285.32,272.677,285.627,271.694z"/>
	<path fill="#FFFFFF" d="M284.102,276.587c0.305-0.98,1.269-1.349,2.151-0.825c0.883,0.525,1.351,1.747,1.044,2.727
		c-0.305,0.98-1.269,1.349-2.15,0.824C284.264,278.788,283.797,277.566,284.102,276.587z"/>
</g>
<path fill="#FFE1D1" d="M274.326,299.721c1.909,3.404,9.971,8.463,15.51,9.455c1.302,0.234,0.58,2.312-1.378,2.102
	c-4.663-0.501-10.783-1.613-15.611-7.735C269.33,299.08,274.326,299.721,274.326,299.721z"/>
<path fill="#FFE1D1" d="M263.563,290.735c3.888-0.316,11.848-5.535,15.061-10.156c0.756-1.086,2.343,0.436,1.334,2.13
	c-2.399,4.03-5.962,9.128-13.54,10.963C260.896,295.009,263.563,290.735,263.563,290.735z"/>
<linearGradient id="SVGID_16_" gradientUnits="userSpaceOnUse" x1="809.0742" y1="403.8584" x2="857.7573" y2="333.376" gradientTransform="matrix(-1 -6.000000e-004 -6.000000e-004 1 1106.9189 0.7202)">
	<stop  offset="0.0051" style="stop-color:#FFFFFF"/>
	<stop  offset="0.1007" style="stop-color:#F8FAFC"/>
	<stop  offset="0.2363" style="stop-color:#E6ECF4"/>
	<stop  offset="0.3959" style="stop-color:#C7D6E6"/>
	<stop  offset="0.5739" style="stop-color:#9DB6D3"/>
	<stop  offset="0.767" style="stop-color:#668EBA"/>
	<stop  offset="0.9698" style="stop-color:#245E9D"/>
	<stop  offset="1" style="stop-color:#1A5698"/>
</linearGradient>
<path fill="url(#SVGID_16_)" d="M306.661,410.196l15.796-9.105l-55.67-32.97c-3.624-2.063-8.071-2.051-11.684,0.031l-1.056,0.61
	c-3.944,2.272-3.929,7.97,0.027,10.222L306.661,410.196z"/>
<path fill="#FFE1D1" d="M248.979,292.951c0.342,2.602,0.674,5.566,2.351,7.219c0.994,0.98,1.819,1.627,2.863,2.665l0.493-7.274
	l0.381,0.025c-0.437-1.199-0.725-2.446-0.782-3.587c0.004-0.056-0.002-0.135-0.009-0.203c-0.187-1.397-1.471-2.387-2.879-2.2
	C249.998,289.784,248.793,291.555,248.979,292.951z"/>
<path fill="#003162" d="M263.564,373.059c0,0-1.062,2.613-0.481,3.827c0.718,1.188,8.479-0.47,10.984-1.926
	c0.407-0.234-0.032-1.224-0.032-1.224c-0.462-0.796-2.287-0.959-3.125-0.961c-1.927,0-4.594,0.322-4.594,0.322L263.564,373.059z"/>
<path fill="#003162" d="M253.275,367.812c0,0-0.271,1.451,0.015,2.928c0.206,1.063,1.157,1.157,1.567,1.021
	c1.739-0.572,4.944-2.917,6.803-4.354c0.372-0.288-0.155-0.932-0.155-0.932c-0.397-0.411-0.959-0.845-1.906-0.595
	c-2.042,0.535-4.086,1.708-4.086,1.708L253.275,367.812z"/>
<polygon fill="#FFE1D1" points="262.717,288.472 257.35,286.107 257.354,280.401 262.231,280.403 "/>
<g>
	<path fill-rule="evenodd" clip-rule="evenodd" fill="#FFFFFF" d="M292.236,129.34c1.66-0.322,3.165-0.616,4.674-0.905
		c12.458-2.399,24.917-4.796,37.371-7.202c0.505-0.098,0.799-0.031,1.213,0.151c1.149,0.505,1.272,1.021,0.793,1.83
		c-4.552,7.674-9.011,15.367-13.497,23.054c-0.089,0.151-0.196,0.299-0.338,0.514c-0.75-0.433-1.441-0.811-2.078-1.218
		c-0.119-0.077-0.082-0.282-0.01-0.407c1.158-2.012,2.333-4.02,3.505-6.028c0.907-1.555,1.804-3.111,2.736-4.66
		c0.171-0.283,0.082-0.453-0.278-0.66c-3.861-2.215-7.711-4.437-11.546-6.667c-0.36-0.209-0.651-0.25-1.141-0.155
		c-6.109,1.188-12.229,2.354-18.336,3.547c-0.592,0.115-0.957,0.066-1.354-0.195C293.449,130.009,292.882,129.713,292.236,129.34z
		 M327.862,132.284c1.769-3.031,3.492-5.984,5.275-9.044c-5.335,1.027-10.47,2.016-15.703,3.024
		C320.948,128.293,324.352,130.258,327.862,132.284z"/>
	<path fill-rule="evenodd" clip-rule="evenodd" fill="#FFFFFF" d="M313.626,124.103c-1.059,0.202-1.96,0.386-2.876,0.539
		c-0.149,0.024-0.407-0.063-0.546-0.14c-0.665-0.365-1.324-0.735-1.947-1.123c-0.338-0.211-0.56-0.198-0.898,0.002
		c-1.469,0.865-2.949,1.725-4.456,2.566c-0.348,0.194-0.792,0.362-1.245,0.455c-1.683,0.347-3.388,0.656-5.166,0.921
		c0.093-0.069,0.174-0.146,0.279-0.207c7.957-4.596,15.919-9.191,23.871-13.791c0.33-0.192,0.566-0.23,0.903-0.013
		c0.408,0.263,0.885,0.491,1.275,0.761c0.108,0.075,0.064,0.254,0.005,0.37c-0.045,0.084-0.232,0.146-0.354,0.217
		c-4.019,2.322-8.031,4.644-12.063,6.956c-0.417,0.239-0.467,0.386-0.015,0.631C311.457,122.826,312.468,123.435,313.626,124.103z"
		/>
	<path fill-rule="evenodd" clip-rule="evenodd" fill="#FFFFFF" d="M325.862,144.408c0.067-0.161,0.096-0.255,0.147-0.344
		c0.518-0.898,1.006-1.803,1.581-2.688c0.205-0.317,0.55-0.627,0.955-0.874c1.356-0.823,2.755-1.623,4.169-2.412
		c0.425-0.237,0.404-0.384-0.017-0.604c-0.617-0.32-1.168-0.681-1.773-1.009c-0.282-0.152-0.331-0.293-0.2-0.5
		c0.298-0.468,0.555-0.946,0.873-1.5c0.923,0.532,1.736,1.002,2.55,1.473c1.128,0.651,1.128,0.651,2.238,0.01
		c3.865-2.231,7.728-4.462,11.592-6.692c0.597-0.345,0.599-0.344,1.212,0.01c0.475,0.273,0.948,0.547,1.439,0.831
		C342.355,134.887,334.155,139.62,325.862,144.408z"/>
	<path fill-rule="evenodd" clip-rule="evenodd" fill="#FFFFFF" d="M310.204,136.476c1.574-0.304,2.999-0.577,4.421-0.852
		c2.857-0.552,5.722-1.098,8.571-1.665c0.479-0.096,0.749-0.026,1.085,0.16c0.338,0.187,0.341,0.347,0.251,0.598
		c-0.241,0.66-0.886,0.975-2.016,1.181c-4.478,0.817-8.921,1.698-13.365,2.573c-0.587,0.116-0.93,0.058-1.433-0.167
		c-1.108-0.497-1.168-0.995-0.711-1.738c1.572-2.555,3.004-5.138,4.462-7.715c0.154-0.272,0.375-0.436,0.859-0.492
		c0.255-0.031,0.507-0.082,0.746-0.143c0.461-0.118,0.813-0.112,1.217,0.125c0.395,0.231,0.314,0.422,0.169,0.674
		c-1.35,2.333-2.685,4.668-4.024,7.003C310.369,136.138,310.314,136.258,310.204,136.476z"/>
	<path fill-rule="evenodd" clip-rule="evenodd" fill="#FFFFFF" d="M321.422,116.897c-0.541,0.943-1.08,1.885-1.622,2.828
		c-0.626,1.088-1.268,2.173-1.867,3.267c-0.136,0.25-0.361,0.379-0.781,0.437c-0.296,0.042-0.589,0.099-0.867,0.169
		c-0.443,0.112-0.776,0.099-1.161-0.12c-0.398-0.225-0.329-0.419-0.18-0.672c0.605-1.025,1.17-2.06,1.788-3.082
		c0.138-0.228,0.376-0.457,0.665-0.63c1.148-0.691,2.334-1.362,3.51-2.039c0.118-0.068,0.252-0.13,0.378-0.193
		C321.33,116.872,321.375,116.885,321.422,116.897z"/>
	<path fill-rule="evenodd" clip-rule="evenodd" fill="#FFFFFF" d="M344.038,130.042c-0.877,0.506-1.802,0.987-2.617,1.524
		c-1.085,0.716-2.357,1.197-3.971,1.431c-1.311,0.189-2.579,0.479-3.854,0.744c-0.4,0.084-0.647,0.024-0.921-0.139
		c-0.261-0.155-0.364-0.281-0.28-0.524c0.256-0.741,0.922-1.128,2.229-1.348c2.956-0.497,5.854-1.111,8.776-1.675
		c0.182-0.035,0.368-0.062,0.554-0.092C343.982,129.989,344.012,130.015,344.038,130.042z"/>
</g>
<path fill="#FFE1D1" d="M267.298,275.684c0.41,4.029-1.198,8.274-4.373,7.899c-4.505-0.528-6.737-2.699-7.147-6.729
	c-0.409-4.03,1.837-7.559,5.019-7.882C263.978,268.647,266.889,271.653,267.298,275.684z"/>
<path fill="#4D83C9" d="M251.545,319.839c0,0-0.886,3.372-0.08,9.854c1.36,10.939,0.619,31.279,1.419,37.949
	c0.106,0.881,3.66-0.257,3.66-0.484c0.005-7.951,2.515-36.997,2.515-36.997s4.651,7.079,5.601,16.514
	c0.82,8.135-0.381,19.136-1.483,26.131c-0.147,0.936,3.55,0.92,3.793,0.002c1.543-5.811,4.025-18.251,3.95-25.261
	c-0.145-13.666-4.449-25.526-4.449-25.526L251.545,319.839z"/>
<defs>
	<filter id="Adobe_OpacityMaskFilter" filterUnits="userSpaceOnUse" x="266.341" y="65.745" width="110.161" height="144.686">
		<feColorMatrix  type="matrix" values="1 0 0 0 0  0 1 0 0 0  0 0 1 0 0  0 0 0 1 0"/>
	</filter>
</defs>
<mask maskUnits="userSpaceOnUse" x="266.341" y="65.745" width="110.161" height="144.686" id="SVGID_17_">
	<g filter="url(#Adobe_OpacityMaskFilter)">
		
			<linearGradient id="SVGID_18_" gradientUnits="userSpaceOnUse" x1="321.1777" y1="214.1777" x2="321.1777" y2="62.5931" gradientTransform="matrix(1 6.000000e-004 -6.000000e-004 1 0.3262 -0.3159)">
			<stop  offset="0" style="stop-color:#FFFFFF"/>
			<stop  offset="0.7727" style="stop-color:#000000"/>
		</linearGradient>
		<path fill="url(#SVGID_18_)" d="M376.461,95.042c-0.434-7.258-5.838-14.243-15.336-19.742c-10.631-6.153-24.84-9.546-40.012-9.555
			c-15.044-0.01-29.106,3.317-39.596,9.364c-9.53,5.501-14.853,12.532-15.098,19.865h-0.022l0,0.629c0,0.021-0.002,0.04-0.002,0.061
			c0,0.013,0.002,0.024,0.002,0.037l-0.052,84.591c0,0.02-0.003,0.04-0.003,0.06c0.001,0.013,0.003,0.025,0.003,0.038v0.098h0.005
			c0.14,7.487,5.583,14.722,15.346,20.386c10.642,6.153,24.855,9.547,40.021,9.558c15.037,0.008,29.098-3.318,39.594-9.371
			c9.758-5.607,15.135-12.846,15.139-20.383v-0.122v-0.044l0.053-84.522v-0.166v-0.78H376.461z"/>
	</g>
</mask>
<linearGradient id="SVGID_19_" gradientUnits="userSpaceOnUse" x1="334.8154" y1="213.4443" x2="307.5953" y2="63.3207" gradientTransform="matrix(1 6.000000e-004 -6.000000e-004 1 0.3262 -0.3159)">
	<stop  offset="0" style="stop-color:#1A3E55"/>
	<stop  offset="1" style="stop-color:#0F334A"/>
</linearGradient>
<path mask="url(#SVGID_17_)" fill="url(#SVGID_19_)" d="M376.461,95.042c-0.434-7.258-5.838-14.243-15.336-19.742
	c-10.631-6.153-24.84-9.546-40.012-9.555c-15.044-0.01-29.106,3.317-39.596,9.364c-9.53,5.501-14.853,12.532-15.098,19.865h-0.022
	l0,0.629c0,0.021-0.002,0.04-0.002,0.061c0,0.013,0.002,0.024,0.002,0.037l-0.052,84.591c0,0.02-0.003,0.04-0.003,0.06
	c0.001,0.013,0.003,0.025,0.003,0.038v0.098h0.005c0.14,7.487,5.583,14.722,15.346,20.386c10.642,6.153,24.855,9.547,40.021,9.558
	c15.037,0.008,29.098-3.318,39.594-9.371c9.758-5.607,15.135-12.846,15.139-20.383v-0.122v-0.044l0.053-84.522v-0.166v-0.78H376.461
	z"/>
<path fill="#112433" d="M256.327,281.132c1.193,1.257,2.884-2.771,1.983-4.876c-0.9-2.104,1.019-2.562,1.92-1.059
	c0.368,0.615,0.599,1.344,0.991,1.458c0.61,0.174,1.141-4.839,1.359-5.278c0.544-1.097,2.218-0.96,3.347-1.861
	c1.513-1.21-1.96-5.407-6.761-5.479c-3.548-0.055-7.792,2.457-7.753,7.668C251.444,275.993,254.309,279.006,256.327,281.132z"/>
<path fill="#264D70" d="M262.588,286.329c2.559,0.672,9.996,3.52,11.732,7.98c0.9,2.308,1.928,4.182,1.951,5.141
	c0.018,0.699-0.755,1.331-1.387,1.629c-1.151,0.544-2.558,1.26-3.966,0.978c-0.568-0.115-1.15-1.268-1.833-2.282
	c0,0-0.866-1.738-1.558-2.81c1.335,5.898-0.524,24.399-0.524,24.399c-0.001,1.537-1.445,2.135-3.745,2.269
	c-5.311,0.31-12.152,0.463-12.402-3.976l0.12-24.768c0,0-1.721-0.563-2.033-2.283c-0.424-2.341,0.819-5.132,2.452-6.117
	c1.428-0.864,3.839-1.955,5.957-1.736C258.846,286.86,262.588,286.329,262.588,286.329z"/>
<linearGradient id="SVGID_20_" gradientUnits="userSpaceOnUse" x1="139.106" y1="69.8594" x2="34.3039" y2="190.2759">
	<stop  offset="0" style="stop-color:#1A3E55"/>
	<stop  offset="1" style="stop-color:#0F334A"/>
</linearGradient>
<path fill="url(#SVGID_20_)" d="M168.071,68.411c-5.634-3.274-13.437-2.813-22.051,2.161l-72.583,41.906
	c-17.113,9.88-30.943,33.836-30.888,53.501c0.028,9.771,3.477,16.645,9.038,19.878l2.984,1.734
	c-5.562-3.232-9.011-10.106-9.038-19.878c-0.056-19.665,13.775-43.62,30.889-53.501l72.583-41.906
	c8.614-4.973,16.417-5.435,22.051-2.16L168.071,68.411z"/>
<linearGradient id="SVGID_21_" gradientUnits="userSpaceOnUse" x1="45.5327" y1="128.8672" x2="180.0947" y2="128.8672">
	<stop  offset="0" style="stop-color:#74777A"/>
	<stop  offset="1" style="stop-color:#C0C1C2"/>
</linearGradient>
<path fill="url(#SVGID_21_)" d="M149.004,72.306c17.121-9.884,31.035-1.947,31.091,17.718c0.055,19.672-13.769,43.616-30.889,53.5
	L76.624,185.43c-17.114,9.88-31.035,1.955-31.091-17.717c-0.056-19.665,13.775-43.62,30.889-53.501L149.004,72.306z"/>
<path fill="#264D70" d="M148.612,86.569c10.131-5.849,18.354-1.16,18.354,10.464c0,11.636-8.223,25.809-18.354,31.658
	c-10.139,5.854-18.354,1.17-18.354-10.465l18.354-10.596V86.569z"/>
<path fill="#BEDAF7" d="M146.434,90.327v16.06l-13.997,8.081C132.437,105.604,138.701,94.791,146.434,90.327z"/>
<g>
	<path fill="#BEDAF7" d="M87.091,136.691l26.083-15.059c0.768-0.444,1.39-1.633,1.39-2.657l0,0c0-1.024-0.622-1.495-1.39-1.051
		l-26.083,15.059c-0.768,0.443-1.39,1.632-1.39,2.656l0,0C85.702,136.664,86.324,137.134,87.091,136.691z"/>
	<path fill="#BEDAF7" d="M78.796,141.48l3.243-1.872c0.768-0.443,1.39-1.632,1.39-2.656l0,0c0-1.024-0.623-1.494-1.39-1.051
		l-3.243,1.873c-0.768,0.442-1.39,1.632-1.39,2.656l0,0C77.406,141.453,78.028,141.923,78.796,141.48z"/>
</g>
<g>
	<path fill="#BEDAF7" d="M104.879,130.632l-26.083,15.059c-0.768,0.443-1.39,1.633-1.39,2.656l0,0c0,1.024,0.622,1.494,1.39,1.051
		l26.083-15.059c0.768-0.443,1.39-1.632,1.39-2.656l0,0C106.269,130.66,105.646,130.189,104.879,130.632z"/>
	<path fill="#BEDAF7" d="M113.174,125.843l-3.242,1.872c-0.768,0.444-1.39,1.633-1.39,2.656l0,0c0,1.024,0.623,1.494,1.39,1.051
		l3.242-1.872c0.768-0.444,1.39-1.633,1.39-2.657l0,0C114.564,125.87,113.942,125.399,113.174,125.843z"/>
</g>
<g>
	<path fill="#BEDAF7" d="M87.091,152.644l26.083-15.059c0.768-0.443,1.39-1.632,1.39-2.656l0,0c0-1.023-0.622-1.494-1.39-1.051
		l-26.083,15.059c-0.768,0.443-1.39,1.632-1.39,2.657l0,0C85.702,152.616,86.324,153.087,87.091,152.644z"/>
	<path fill="#BEDAF7" d="M78.796,157.434l3.243-1.872c0.768-0.443,1.39-1.633,1.39-2.657l0,0c0-1.023-0.623-1.495-1.39-1.051
		l-3.243,1.872c-0.768,0.443-1.39,1.633-1.39,2.656l0,0C77.406,157.406,78.028,157.876,78.796,157.434z"/>
</g>
<g>
	<linearGradient id="SVGID_22_" gradientUnits="userSpaceOnUse" x1="233.7124" y1="237.8271" x2="174.4302" y2="195.8356">
		<stop  offset="0.0051" style="stop-color:#FFFFFF"/>
		<stop  offset="0.1007" style="stop-color:#F8FAFC"/>
		<stop  offset="0.2363" style="stop-color:#E6ECF4"/>
		<stop  offset="0.3959" style="stop-color:#C7D6E6"/>
		<stop  offset="0.5739" style="stop-color:#9DB6D3"/>
		<stop  offset="0.767" style="stop-color:#668EBA"/>
		<stop  offset="0.9698" style="stop-color:#245E9D"/>
		<stop  offset="1" style="stop-color:#1A5698"/>
	</linearGradient>
	<path fill="url(#SVGID_22_)" d="M241.192,240.72l2.307-1.333c8.173-4.718,7.149-12.959-2.289-18.41l-26.21-15.132l-31.905,18.422
		l26.21,15.13C218.742,244.847,233.019,245.438,241.192,240.72z"/>
	<g>
		<g>
			<linearGradient id="SVGID_23_" gradientUnits="userSpaceOnUse" x1="174.9956" y1="217.7021" x2="221.7471" y2="217.7021">
				<stop  offset="0" style="stop-color:#1A3E55"/>
				<stop  offset="1" style="stop-color:#0F334A"/>
			</linearGradient>
			<path fill="url(#SVGID_23_)" d="M221.747,207.91v6.171c0.037,3.465-2.224,6.939-6.8,9.571
				c-9.099,5.252-23.894,5.232-33.058-0.056c-2.279-1.317-3.993-2.837-5.141-4.458c-1.149-1.621-1.733-3.343-1.751-5.058v-6.253
				c0.037,3.436,2.335,6.874,6.893,9.514c9.164,5.291,23.959,5.31,33.058,0.056C219.485,214.784,221.747,211.349,221.747,207.91z"/>
			<linearGradient id="SVGID_24_" gradientUnits="userSpaceOnUse" x1="207.8745" y1="216.4805" x2="187.0127" y2="197.489">
				<stop  offset="0" style="stop-color:#74777A"/>
				<stop  offset="1" style="stop-color:#C0C1C2"/>
			</linearGradient>
			<path fill="url(#SVGID_24_)" d="M221.747,207.828v0.083c0,3.438-2.261,6.874-6.8,9.487c-9.099,5.254-23.894,5.235-33.058-0.056
				c-4.558-2.64-6.855-6.078-6.893-9.514c-0.037-3.465,2.224-6.931,6.792-9.571c9.098-5.254,23.903-5.235,33.057,0.056
				C219.411,200.953,221.709,204.39,221.747,207.828z"/>
		</g>
		<path fill="#FFFFFF" d="M204.368,211.791c0.138-0.63-0.078-1.281-0.662-1.923c0.951,0.186,1.867,0.207,2.781,0.087
			c0.897-0.13,1.722-0.403,2.442-0.819c1.174-0.678,1.628-1.491,1.341-2.446c-0.233-0.803-1.012-1.638-2.319-2.494l2.158-1.245
			l-2.578-1.489l-2.122,1.226l-1.589-0.918l2.123-1.226l-2.595-1.497l-2.123,1.225l-1.324-0.764h0l-1.625-0.938l-2.568,1.482
			l1.625,0.938l-9.6,5.542l-1.625-0.938l-2.568,1.482l2.949,1.703l-1.175,0.678l2.595,1.499l1.175-0.678l1.296,0.748l0,0
			l0.293,0.168l-1.176,0.68l2.577,1.488l1.193-0.69c1.765,0.979,3.44,1.54,5.007,1.715c1.708,0.176,3.22-0.105,4.5-0.843
			C203.688,213.019,204.212,212.43,204.368,211.791z M204.154,204.922c0.494,0.285,0.865,0.561,1.096,0.834
			c0.194,0.172,0.336,0.356,0.39,0.529c0.161,0.417-0.066,0.792-0.646,1.125c-0.579,0.335-1.211,0.455-1.951,0.373
			c-0.299-0.031-0.634-0.102-0.934-0.214c-0.458-0.144-0.935-0.358-1.429-0.644l-1.307-0.754l-1.589-0.917l-0.512-0.296l3.466-2.001
			l1.808,1.044l0.008-0.004l0.292,0.169L204.154,204.922z M197.627,211.727c-0.546-0.072-1.163-0.246-1.78-0.542
			c-0.229-0.112-0.459-0.223-0.706-0.366l-1.906-1.102l-0.293-0.168l0.007-0.003l-1.809-1.044l3.643-2.103l0.512,0.296l1.589,0.916
			l1.907,1.102c0.247,0.142,0.441,0.275,0.636,0.407c1.236,0.876,1.311,1.608,0.258,2.215
			C199.052,211.7,198.367,211.83,197.627,211.727z"/>
	</g>
	<g>
		<g>
			<linearGradient id="SVGID_25_" gradientUnits="userSpaceOnUse" x1="174.9956" y1="206.3091" x2="221.7471" y2="206.3091">
				<stop  offset="0" style="stop-color:#1A3E55"/>
				<stop  offset="1" style="stop-color:#0F334A"/>
			</linearGradient>
			<path fill="url(#SVGID_25_)" d="M221.747,196.518v6.17c0.037,3.465-2.224,6.94-6.8,9.571c-9.099,5.253-23.894,5.234-33.058-0.056
				c-2.279-1.315-3.993-2.835-5.141-4.456c-1.149-1.622-1.733-3.346-1.751-5.06v-6.254c0.037,3.438,2.335,6.874,6.893,9.516
				c9.164,5.29,23.959,5.309,33.058,0.055C219.485,203.392,221.747,199.954,221.747,196.518z"/>
			<linearGradient id="SVGID_26_" gradientUnits="userSpaceOnUse" x1="207.876" y1="205.0889" x2="187.0131" y2="186.0965">
				<stop  offset="0" style="stop-color:#74777A"/>
				<stop  offset="1" style="stop-color:#C0C1C2"/>
			</linearGradient>
			<path fill="url(#SVGID_26_)" d="M221.747,196.434v0.084c0,3.436-2.261,6.875-6.8,9.486c-9.099,5.254-23.894,5.235-33.058-0.055
				c-4.558-2.642-6.855-6.078-6.893-9.516c-0.037-3.465,2.224-6.93,6.792-9.57c9.098-5.253,23.903-5.235,33.057,0.056
				C219.411,189.559,221.709,192.997,221.747,196.434z"/>
		</g>
		<path fill="#FFFFFF" d="M204.368,200.396c0.138-0.628-0.078-1.28-0.662-1.921c0.951,0.184,1.867,0.207,2.781,0.087
			c0.897-0.131,1.722-0.403,2.442-0.819c1.174-0.679,1.628-1.491,1.341-2.446c-0.233-0.805-1.012-1.638-2.319-2.494l2.158-1.247
			l-2.578-1.487l-2.122,1.225l-1.589-0.917l2.123-1.225l-2.595-1.499l-2.123,1.226l-1.324-0.765h0l-1.625-0.938l-2.568,1.482
			l1.625,0.939l-9.6,5.542l-1.625-0.938l-2.568,1.483l2.949,1.703l-1.175,0.678l2.595,1.498l1.175-0.679l1.296,0.749v-0.001
			l0.293,0.169l-1.176,0.678l2.577,1.489l1.193-0.688c1.765,0.979,3.44,1.541,5.007,1.716c1.708,0.176,3.22-0.106,4.5-0.846
			C203.688,201.625,204.212,201.037,204.368,200.396z M204.154,193.528c0.494,0.286,0.865,0.56,1.096,0.835
			c0.194,0.173,0.336,0.356,0.39,0.529c0.161,0.417-0.066,0.792-0.646,1.127c-0.579,0.334-1.211,0.455-1.951,0.372
			c-0.299-0.031-0.634-0.104-0.934-0.215c-0.458-0.143-0.935-0.357-1.429-0.643l-1.307-0.755l-1.589-0.916l-0.512-0.296l3.466-2.001
			l1.808,1.044l0.008-0.004l0.292,0.168L204.154,193.528z M197.627,200.334c-0.546-0.072-1.163-0.246-1.78-0.542
			c-0.229-0.112-0.459-0.225-0.706-0.368l-1.906-1.1l-0.293-0.169l0.007-0.003l-1.809-1.044l3.643-2.104l0.512,0.295l1.589,0.918
			l1.907,1.1c0.247,0.143,0.441,0.276,0.636,0.408c1.236,0.876,1.311,1.608,0.258,2.215
			C199.052,200.305,198.367,200.437,197.627,200.334z"/>
	</g>
</g>
<linearGradient id="SVGID_27_" gradientUnits="userSpaceOnUse" x1="187.5439" y1="265.2559" x2="128.2618" y2="223.2643">
	<stop  offset="0.0051" style="stop-color:#FFFFFF"/>
	<stop  offset="0.1007" style="stop-color:#F8FAFC"/>
	<stop  offset="0.2363" style="stop-color:#E6ECF4"/>
	<stop  offset="0.3959" style="stop-color:#C7D6E6"/>
	<stop  offset="0.5739" style="stop-color:#9DB6D3"/>
	<stop  offset="0.767" style="stop-color:#668EBA"/>
	<stop  offset="0.9698" style="stop-color:#245E9D"/>
	<stop  offset="1" style="stop-color:#1A5698"/>
</linearGradient>
<path fill="url(#SVGID_27_)" d="M195.024,268.149l2.307-1.332c8.173-4.719,7.148-12.962-2.29-18.41l-26.21-15.133l-31.905,18.42
	l26.21,15.134C172.574,272.275,186.851,272.869,195.024,268.149z"/>
<g>
	<linearGradient id="SVGID_28_" gradientUnits="userSpaceOnUse" x1="128.8276" y1="245.1309" x2="175.5786" y2="245.1309">
		<stop  offset="0" style="stop-color:#1A3E55"/>
		<stop  offset="1" style="stop-color:#0F334A"/>
	</linearGradient>
	<path fill="url(#SVGID_28_)" d="M175.578,235.34v6.17c0.037,3.466-2.223,6.938-6.8,9.571c-9.098,5.253-23.894,5.235-33.057-0.057
		c-2.279-1.314-3.993-2.834-5.142-4.455s-1.733-3.346-1.751-5.06v-6.255c0.037,3.438,2.334,6.875,6.893,9.517
		c9.163,5.29,23.959,5.31,33.057,0.056C173.317,242.215,175.578,238.776,175.578,235.34z"/>
	<linearGradient id="SVGID_29_" gradientUnits="userSpaceOnUse" x1="161.7075" y1="243.9102" x2="140.8452" y2="224.9182">
		<stop  offset="0" style="stop-color:#74777A"/>
		<stop  offset="1" style="stop-color:#C0C1C2"/>
	</linearGradient>
	<path fill="url(#SVGID_29_)" d="M175.578,235.255v0.085c0,3.437-2.261,6.875-6.8,9.487c-9.098,5.254-23.894,5.234-33.057-0.056
		c-4.559-2.642-6.856-6.078-6.893-9.517c-0.037-3.465,2.223-6.928,6.791-9.568c9.098-5.254,23.904-5.235,33.058,0.056
		C173.243,228.381,175.541,231.818,175.578,235.255z"/>
</g>
<linearGradient id="SVGID_30_" gradientUnits="userSpaceOnUse" x1="481.0127" y1="165.5469" x2="441.4913" y2="9.5786">
	<stop  offset="0" style="stop-color:#74777A"/>
	<stop  offset="1" style="stop-color:#C0C1C2"/>
</linearGradient>
<path fill="url(#SVGID_30_)" d="M529.577,101.55v86.668c0,1.344-0.445,2.287-1.144,2.71l-0.064,0.031l-3.631,2.117
	c0.614-0.455,0.996-1.344,1.006-2.583v-86.7c0-2.477-1.503-5.357-3.365-6.437L386.845,19.116l-6.489-3.747l-0.477-0.276
	c-0.772-0.444-1.481-0.508-2.044-0.243l-0.01-0.01l3.705-2.17c0.582-0.328,1.345-0.296,2.181,0.19L526.21,95.125
	C528.073,96.193,529.577,99.073,529.577,101.55z"/>
<path fill="#82B0D3" d="M525.744,103.794v86.7c-0.01,1.238-0.392,2.127-1.006,2.583l-0.158,0.095
	c-0.594,0.349-1.355,0.318-2.201-0.17l-142.5-82.274c-1.853-1.069-3.355-3.949-3.355-6.426V17.634c0-1.45,0.518-2.435,1.312-2.784
	c0.563-0.265,1.271-0.201,2.044,0.243l0.477,0.276l6.489,3.747l135.534,78.242C524.241,98.438,525.744,101.317,525.744,103.794z"/>
<path fill="#FFFFFF" d="M380.188,65.731c0-1.634,1.156-2.292,2.579-1.47c1.425,0.823,2.579,2.814,2.579,4.448
	c0,1.634-1.154,2.292-2.579,1.47C381.344,69.357,380.188,67.366,380.188,65.731z"/>
<linearGradient id="SVGID_31_" gradientUnits="userSpaceOnUse" x1="391.3164" y1="72.0928" x2="538.6436" y2="72.0928" gradientTransform="matrix(0.866 0.5 0 1.1547 51.0098 -210.2148)">
	<stop  offset="0" style="stop-color:#1A3E55"/>
	<stop  offset="1" style="stop-color:#0F334A"/>
</linearGradient>
<polygon fill="url(#SVGID_31_)" points="517.475,183.623 389.89,109.961 389.89,27.418 517.475,101.079 "/>
<g>
	<g>
		<path fill="#264D70" d="M421.864,112.97l-14.673-8.471c-2.014-1.163-3.647-4.283-3.647-6.969V56.508
			c0-2.686,1.634-3.921,3.647-2.757l14.673,8.471c2.014,1.163,3.646,4.283,3.646,6.969v41.021
			C425.511,112.898,423.878,114.133,421.864,112.97z"/>
		<path fill="#264D70" d="M446.885,127.416l-14.671-8.471c-2.016-1.163-3.648-4.284-3.648-6.969V70.954
			c0-2.686,1.633-3.92,3.648-2.757l14.671,8.471c2.016,1.163,3.648,4.283,3.648,6.97v41.021
			C450.533,127.345,448.9,128.579,446.885,127.416z"/>
	</g>
</g>
<linearGradient id="SVGID_32_" gradientUnits="userSpaceOnUse" x1="94.0596" y1="214.1104" x2="131.1055" y2="160.4759" gradientTransform="matrix(-1 0 0 1 549.5605 0)">
	<stop  offset="0.0051" style="stop-color:#FFFFFF"/>
	<stop  offset="0.1007" style="stop-color:#F8FAFC"/>
	<stop  offset="0.2363" style="stop-color:#E6ECF4"/>
	<stop  offset="0.3959" style="stop-color:#C7D6E6"/>
	<stop  offset="0.5739" style="stop-color:#9DB6D3"/>
	<stop  offset="0.767" style="stop-color:#668EBA"/>
	<stop  offset="0.9698" style="stop-color:#245E9D"/>
	<stop  offset="1" style="stop-color:#1A5698"/>
</linearGradient>
<path fill="url(#SVGID_32_)" d="M459.775,220.102l16.078-9.283l-40.627-24.168c-3.69-2.1-8.219-2.084-11.896,0.039l-1.076,0.62
	c-4.014,2.318-3.994,8.117,0.034,10.409L459.775,220.102z"/>
<path fill="#F7D7CE" d="M438.134,119.939c0.073,1.446,0.563,3.077,1.261,4.517c0.69,1.44,1.695,2.786,2.764,3.449
	c0.805,0.596,2.651,0.574,4.343,0.393c1.723-0.188,3.528-0.565,5.218-1.018l0.05-0.014c0.784-0.21,1.588,0.255,1.799,1.039
	c0.2,0.75-0.222,1.521-0.944,1.77c-1.865,0.638-3.685,1.149-5.643,1.506c-0.979,0.17-1.979,0.303-3.055,0.321l-0.83-0.023
	c-0.288-0.024-0.588-0.068-0.882-0.106c-0.307-0.058-0.638-0.156-0.952-0.243c-0.296-0.118-0.596-0.241-0.877-0.379
	c-2.191-1.193-3.512-2.959-4.581-4.762c-1.036-1.84-1.815-3.784-2.109-6.048c-0.161-1.222,0.699-2.342,1.922-2.502
	c1.222-0.161,2.342,0.7,2.502,1.921C438.126,119.818,438.131,119.882,438.134,119.939z"/>
<polygon fill="#F7D7CE" points="429.037,111.655 423.669,109.296 423.669,103.589 428.548,103.589 "/>
<path fill="#003162" d="M419.335,185.93c0,0-0.222,2.768,0.267,4.021c0.626,1.241,4.901-1.914,7.492-3.458
	c0.686-0.409,1.059-0.95,1.059-0.95c-0.21-0.705-1.989-0.866-2.561-0.836c-2.556,0.132-4.019,0.997-4.019,0.997L419.335,185.93z"/>
<path fill="#003162" d="M430.08,190.935c0,0-0.239,2.999,0.29,4.356c0.678,1.344,5.352-1.093,8.157-2.765
	c0.742-0.444,1.104-1.088,1.104-1.088c-0.229-0.766-2.154-0.881-2.773-0.907c-2.685-0.115-4.354,0.16-4.354,0.16L430.08,190.935z"/>
<path fill="#4D83C9" d="M417.886,138.795c0,0,0.145,36.327,1.449,47.134c0.107,0.881,2.717,0.03,2.717-0.198
	c0-7.952,2.876-37.243,2.876-37.243s3.179,9.753,4.424,20.173c1.115,9.333,0.283,19.226,0.702,22.72
	c0.066,0.559,2.82,0.173,2.902-0.772c0.519-6.065,1.397-14.456,1.459-22.537c0.107-13.959-1.602-27.104-1.602-27.104
	L417.886,138.795z"/>
<path fill="#F7D7CE" d="M420.449,114.226c-0.684,1.407-1.066,3.208-1.154,4.936c-0.095,1.724,0.158,3.521,0.824,4.705
	c0.452,0.983,2.214,1.923,3.911,2.631c1.731,0.716,3.638,1.298,5.475,1.748l0.054,0.014c0.851,0.208,1.372,1.068,1.164,1.919
	c-0.2,0.815-1,1.327-1.814,1.187c-2.101-0.366-4.089-0.827-6.131-1.506c-1.015-0.348-2.033-0.743-3.062-1.285l-0.773-0.454
	c-0.261-0.173-0.522-0.37-0.781-0.559c-0.262-0.214-0.522-0.479-0.776-0.726c-0.219-0.265-0.438-0.538-0.633-0.814
	c-1.455-2.271-1.79-4.629-1.865-6.894c-0.026-2.283,0.248-4.529,1.146-6.827c0.483-1.241,1.881-1.855,3.122-1.372
	c1.241,0.483,1.855,1.88,1.371,3.121C420.503,114.106,420.475,114.17,420.449,114.226z"/>
<path fill="#BEDAF7" d="M439.484,122.903c0.022,0.698-0.243,1.174-0.909,1.397c-1.123,0.37-1.822,0.773-3.23,0.498
	c-0.56-0.117-1.229-0.272-1.473-1.194l-1.057-3.973c0,0,0.159,1.715-0.169,3.642c-0.37,2.212-1.884,4.647-1.493,7.083
	c0.054,0.381,0.158,0.762,0.329,1.132c0.179,0.402,0.339,0.805,0.497,1.197c2.456,6.086,2.868,10.935,2.445,17.583
	c-3.441,5.526-15.815,3.715-17.288,0.031c-1.724-5.028-3.565-9.854,1.567-18.028c0.128-0.201,0.244-0.413,0.34-0.624
	c0.359-0.72,0.581-1.503,0.698-2.297c0.74-4.933-1.799-9.324-1.799-9.324s-3.949,0.729-3.765-1.958
	c0.22-3.221,1.467-8.494,3.097-9.489c1.429-0.857,4.275-0.857,6.393-0.635c1.493,2.106,3.506,2.89,5.367,1.726
	c5.527,1.652,7.273,3.239,9.021,7.696C438.956,119.674,439.464,121.95,439.484,122.903z"/>
<path fill="#F7D7CE" d="M433.623,99.519c-0.354,4.035-1.474,7.892-4.522,6.928c-4.325-1.367-7.367-3.908-7.013-7.942
	c0.354-4.035,3.225-7.079,6.41-6.799C431.683,91.986,433.978,95.483,433.623,99.519z"/>
<path fill="#112433" d="M435.289,95.337c0.246,2.541-3.005,2.542-5.438,1.615c-2.435-0.926-3.849,3.059-3.38,4.265
	c1.217,3.145-1.156,3.372-1.078,6.189c0.054,1.935,2.015,5.291,0.496,7.438c-5.25,7.424-11.114,1.172-11.334-4.054
	c-0.072-1.703,1.575-5.764,2.424-8.354c1.668-5.085,0.039-9.573,7.654-12.51C429.619,88.005,434.979,92.125,435.289,95.337z"/>
<path fill="#4D83C9" d="M431.979,132.685c-1.726,0.529-8.205,2.223-12.936-1.038c0.359-0.72,0.581-1.503,0.698-2.297
	c1.144,0.412,6.202,2.805,11.411,1.005c0.054,0.381,0.158,0.762,0.329,1.132C431.661,131.891,431.821,132.293,431.979,132.685z"/>
<g>
	<path fill="#BEDAF7" d="M496.292,149.742l-26.383-15.232c-1.474-0.851-2.681-3.156-2.681-5.121l0,0
		c0-1.965,1.207-2.877,2.681-2.026l26.383,15.233c1.475,0.85,2.681,3.155,2.681,5.121l0,0
		C498.973,149.681,497.767,150.593,496.292,149.742z"/>
	<path fill="#4D83C9" d="M483.101,138.713c0-1.38,0.976-1.937,2.18-1.242c1.203,0.695,2.178,2.377,2.178,3.758
		c0,1.38-0.975,1.937-2.178,1.242C484.076,141.776,483.101,140.094,483.101,138.713z"/>
</g>
<g>
	<path fill="#BEDAF7" d="M496.292,139.222l-26.383-15.232c-1.474-0.852-2.681-3.156-2.681-5.121l0,0
		c0-1.965,1.207-2.877,2.681-2.026l26.383,15.233c1.475,0.851,2.681,3.155,2.681,5.121l0,0
		C498.973,139.161,497.767,140.073,496.292,139.222z"/>
	<path fill="#4D83C9" d="M493.582,134.229c0-1.381,0.975-1.938,2.179-1.243c1.203,0.694,2.179,2.378,2.179,3.758
		c0,1.381-0.976,1.937-2.179,1.242C494.557,137.292,493.582,135.609,493.582,134.229z"/>
</g>
<g>
	<path fill="#BEDAF7" d="M496.292,128.702l-26.383-15.232c-1.474-0.852-2.681-3.156-2.681-5.121l0,0
		c0-1.966,1.207-2.877,2.681-2.026l26.383,15.232c1.475,0.851,2.681,3.155,2.681,5.121l0,0
		C498.973,128.641,497.767,129.553,496.292,128.702z"/>
	<path fill="#4D83C9" d="M479.69,115.698c0-1.381,0.976-1.937,2.179-1.242c1.203,0.694,2.179,2.377,2.179,3.757
		c0,1.381-0.976,1.937-2.179,1.242C480.666,118.761,479.69,117.078,479.69,115.698z"/>
</g>
<g>
	<path fill="#BEDAF7" d="M496.292,118.182l-26.383-15.231c-1.474-0.852-2.681-3.156-2.681-5.122l0,0
		c0-1.965,1.207-2.877,2.681-2.025l26.383,15.231c1.475,0.852,2.681,3.156,2.681,5.122l0,0
		C498.973,118.122,497.767,119.033,496.292,118.182z"/>
	<path fill="#4D83C9" d="M468.087,98.324c0-1.381,0.976-1.937,2.179-1.243c1.204,0.695,2.179,2.377,2.179,3.758
		s-0.975,1.937-2.179,1.242C469.063,101.387,468.087,99.705,468.087,98.324z"/>
</g>
<linearGradient id="SVGID_33_" gradientUnits="userSpaceOnUse" x1="488.8086" y1="421.6025" x2="418.2344" y2="266.6922">
	<stop  offset="0.0051" style="stop-color:#FFFFFF"/>
	<stop  offset="0.1007" style="stop-color:#F8FAFC"/>
	<stop  offset="0.2363" style="stop-color:#E6ECF4"/>
	<stop  offset="0.3959" style="stop-color:#C7D6E6"/>
	<stop  offset="0.5739" style="stop-color:#9DB6D3"/>
	<stop  offset="0.767" style="stop-color:#668EBA"/>
	<stop  offset="0.9698" style="stop-color:#245E9D"/>
	<stop  offset="1" style="stop-color:#1A5698"/>
</linearGradient>
<path fill="url(#SVGID_33_)" d="M530.489,378.627c4.179,2.413,4.201,6.32,0.049,8.73l-51.588,29.98
	c-4.151,2.413-10.896,2.413-15.076,0l-51.925-29.978c-4.179-2.413-4.201-6.32-0.049-8.733l51.588-29.98
	c4.151-2.411,10.896-2.411,15.075,0L530.489,378.627z"/>
<linearGradient id="SVGID_34_" gradientUnits="userSpaceOnUse" x1="408.7676" y1="364.4102" x2="533.6377" y2="364.4102">
	<stop  offset="0" style="stop-color:#1A3E55"/>
	<stop  offset="1" style="stop-color:#0F334A"/>
</linearGradient>
<path fill="url(#SVGID_34_)" d="M530.538,345.014l-51.588,29.98c-4.151,2.413-10.896,2.413-15.076,0l-51.925-29.979
	c-2.103-1.214-3.153-2.808-3.149-4.397l-0.032,11.401c-0.004,1.589,1.046,3.182,3.148,4.396l51.926,29.979
	c4.179,2.411,10.926,2.411,15.075,0l51.588-29.979c2.063-1.199,3.095-2.767,3.099-4.336l0.034-11.399
	C533.634,342.249,532.6,343.816,530.538,345.014z"/>
<linearGradient id="SVGID_35_" gradientUnits="userSpaceOnUse" x1="408.8008" y1="340.6494" x2="533.6377" y2="340.6494">
	<stop  offset="0" style="stop-color:#74777A"/>
	<stop  offset="1" style="stop-color:#C0C1C2"/>
</linearGradient>
<path fill="url(#SVGID_35_)" d="M530.489,336.282c4.179,2.413,4.201,6.32,0.049,8.731l-51.588,29.98
	c-4.151,2.413-10.896,2.413-15.076,0l-51.925-29.979c-4.179-2.413-4.201-6.32-0.049-8.733l51.588-29.98
	c4.151-2.41,10.896-2.41,15.075,0L530.489,336.282z"/>
<g>
	<linearGradient id="SVGID_36_" gradientUnits="userSpaceOnUse" x1="476.3721" y1="337.1543" x2="484.1494" y2="337.1543">
		<stop  offset="0" style="stop-color:#74777A"/>
		<stop  offset="1" style="stop-color:#C0C1C2"/>
	</linearGradient>
	<path fill="url(#SVGID_36_)" d="M484.149,334.901l-7.462,4.336c-0.103,0.06-0.208,0.117-0.315,0.171l7.459-4.336
		C483.94,335.019,484.046,334.961,484.149,334.901z"/>
</g>
<g>
	<path fill="#5D88A9" d="M531.839,315.141l-0.529-0.916l38.669-22.325c1.04-0.602,1.615-1.37,1.615-2.165
		c0-0.804-0.584-1.584-1.645-2.196l-5.211-3.01c-1.402-0.809-2.171-1.912-2.171-3.112c0-1.188,0.761-2.282,2.143-3.08l37.474-21.516
		c1.04-0.602,1.613-1.368,1.613-2.165c0-0.804-0.584-1.583-1.643-2.195l-47.491-28.184l0.54-0.909l47.485,28.182
		c1.395,0.803,2.167,1.909,2.167,3.106c0,1.189-0.761,2.285-2.145,3.081l-37.473,21.518c-1.039,0.6-1.612,1.369-1.612,2.162
		c0,0.805,0.583,1.585,1.642,2.196l5.212,3.011c1.401,0.808,2.173,1.912,2.173,3.111c0,1.188-0.761,2.283-2.145,3.081
		L531.839,315.141z"/>
</g>
<path fill="#5D88A9" d="M533.647,316.965c1.56-0.899,1.551-2.365-0.019-3.271c-1.568-0.906-4.105-0.912-5.667-0.012
	c-1.559,0.902-1.551,2.366,0.019,3.271C529.55,317.862,532.086,317.866,533.647,316.965z"/>
<path fill="#5D88A9" d="M96.587,334.527c1.561-0.901,1.553-2.365-0.018-3.273c-1.57-0.905-4.106-0.91-5.667-0.01
	c-1.56,0.901-1.552,2.367,0.018,3.271C92.49,335.422,95.027,335.426,96.587,334.527z"/>
<g>
	<linearGradient id="SVGID_37_" gradientUnits="userSpaceOnUse" x1="103.6372" y1="372.4043" x2="195.6538" y2="372.4043">
		<stop  offset="0" style="stop-color:#1A3E55"/>
		<stop  offset="1" style="stop-color:#0F334A"/>
	</linearGradient>
	<path fill="url(#SVGID_37_)" d="M193.37,358.109l-38.016,22.093c-3.059,1.778-8.03,1.778-11.109,0l-38.264-22.091
		c-1.549-0.896-2.323-2.069-2.32-3.239l-0.024,8.398c-0.003,1.172,0.771,2.348,2.32,3.24l38.264,22.092
		c3.08,1.778,8.051,1.778,11.109,0l38.016-22.092c1.52-0.883,2.281-2.039,2.284-3.194l0.023-8.401
		C195.651,356.071,194.89,357.228,193.37,358.109z"/>
	<linearGradient id="SVGID_38_" gradientUnits="userSpaceOnUse" x1="103.6606" y1="354.8926" x2="195.6538" y2="354.8926">
		<stop  offset="0" style="stop-color:#74777A"/>
		<stop  offset="1" style="stop-color:#C0C1C2"/>
	</linearGradient>
	<path fill="url(#SVGID_38_)" d="M193.334,351.676c3.08,1.778,3.095,4.656,0.036,6.434l-38.016,22.093
		c-3.059,1.778-8.03,1.778-11.109,0l-38.264-22.091c-3.079-1.777-3.096-4.657-0.037-6.436l38.016-22.093
		c3.059-1.777,8.03-1.777,11.109,0L193.334,351.676z"/>
</g>
<g>
	<linearGradient id="SVGID_39_" gradientUnits="userSpaceOnUse" x1="103.6372" y1="361.7344" x2="195.6538" y2="361.7344">
		<stop  offset="0" style="stop-color:#1A3E55"/>
		<stop  offset="1" style="stop-color:#0F334A"/>
	</linearGradient>
	<path fill="url(#SVGID_39_)" d="M193.37,347.441l-38.016,22.092c-3.059,1.778-8.03,1.778-11.109,0l-38.264-22.092
		c-1.549-0.894-2.323-2.068-2.32-3.24l-0.024,8.4c-0.003,1.172,0.771,2.346,2.32,3.24l38.264,22.092
		c3.08,1.778,8.051,1.778,11.109,0l38.016-22.092c1.52-0.883,2.281-2.039,2.284-3.196l0.023-8.398
		C195.651,345.402,194.89,346.559,193.37,347.441z"/>
	<linearGradient id="SVGID_40_" gradientUnits="userSpaceOnUse" x1="103.6606" y1="344.2246" x2="195.6538" y2="344.2246">
		<stop  offset="0" style="stop-color:#74777A"/>
		<stop  offset="1" style="stop-color:#C0C1C2"/>
	</linearGradient>
	<path fill="url(#SVGID_40_)" d="M193.334,341.007c3.08,1.778,3.095,4.656,0.036,6.435l-38.016,22.092
		c-3.059,1.778-8.03,1.778-11.109,0l-38.264-22.092c-3.079-1.778-3.096-4.656-0.037-6.435l38.016-22.092
		c3.059-1.778,8.03-1.778,11.109,0L193.334,341.007z"/>
</g>
<g>
	<linearGradient id="SVGID_41_" gradientUnits="userSpaceOnUse" x1="103.6372" y1="351.0645" x2="195.6538" y2="351.0645">
		<stop  offset="0" style="stop-color:#1A3E55"/>
		<stop  offset="1" style="stop-color:#0F334A"/>
	</linearGradient>
	<path fill="url(#SVGID_41_)" d="M193.37,336.772l-38.016,22.092c-3.059,1.778-8.03,1.778-11.109,0l-38.264-22.092
		c-1.549-0.896-2.323-2.068-2.32-3.24l-0.024,8.4c-0.003,1.17,0.771,2.345,2.32,3.24l38.264,22.09c3.08,1.778,8.051,1.778,11.109,0
		l38.016-22.092c1.52-0.883,2.281-2.036,2.284-3.194l0.023-8.4C195.651,334.734,194.89,335.888,193.37,336.772z"/>
	<linearGradient id="SVGID_42_" gradientUnits="userSpaceOnUse" x1="103.6606" y1="333.5547" x2="195.6538" y2="333.5547">
		<stop  offset="0" style="stop-color:#74777A"/>
		<stop  offset="1" style="stop-color:#C0C1C2"/>
	</linearGradient>
	<path fill="url(#SVGID_42_)" d="M193.334,330.338c3.08,1.776,3.095,4.656,0.036,6.435l-38.016,22.092
		c-3.059,1.778-8.03,1.778-11.109,0l-38.264-22.092c-3.079-1.778-3.096-4.658-0.037-6.435l38.016-22.092
		c3.059-1.778,8.03-1.778,11.109,0L193.334,330.338z"/>
</g>
<g>
	<linearGradient id="SVGID_43_" gradientUnits="userSpaceOnUse" x1="103.6372" y1="340.3955" x2="195.6538" y2="340.3955">
		<stop  offset="0" style="stop-color:#1A3E55"/>
		<stop  offset="1" style="stop-color:#0F334A"/>
	</linearGradient>
	<path fill="url(#SVGID_43_)" d="M193.37,326.102l-38.016,22.092c-3.059,1.778-8.03,1.778-11.109,0l-38.264-22.09
		c-1.549-0.896-2.323-2.07-2.32-3.24l-0.024,8.398c-0.003,1.173,0.771,2.348,2.32,3.24l38.264,22.092
		c3.08,1.778,8.051,1.778,11.109,0l38.016-22.092c1.52-0.883,2.281-2.038,2.284-3.194l0.023-8.4
		C195.651,324.065,194.89,325.219,193.37,326.102z"/>
	<linearGradient id="SVGID_44_" gradientUnits="userSpaceOnUse" x1="103.6606" y1="322.8848" x2="195.6538" y2="322.8848">
		<stop  offset="0" style="stop-color:#74777A"/>
		<stop  offset="1" style="stop-color:#C0C1C2"/>
	</linearGradient>
	<path fill="url(#SVGID_44_)" d="M193.334,319.667c3.08,1.778,3.095,4.658,0.036,6.435l-38.016,22.092
		c-3.059,1.778-8.03,1.778-11.109,0l-38.264-22.09c-3.079-1.778-3.096-4.658-0.037-6.437l38.016-22.092
		c3.059-1.778,8.03-1.778,11.109,0L193.334,319.667z"/>
</g>
<linearGradient id="SVGID_45_" gradientUnits="userSpaceOnUse" x1="103.6372" y1="329.7256" x2="195.6538" y2="329.7256">
	<stop  offset="0" style="stop-color:#1A3E55"/>
	<stop  offset="1" style="stop-color:#0F334A"/>
</linearGradient>
<path fill="url(#SVGID_45_)" d="M193.37,315.433l-38.016,22.093c-3.059,1.777-8.03,1.777-11.109,0l-38.264-22.093
	c-1.549-0.894-2.323-2.067-2.32-3.24l-0.024,8.401c-0.003,1.172,0.771,2.344,2.32,3.239l38.264,22.093
	c3.08,1.777,8.051,1.777,11.109,0l38.016-22.093c1.52-0.882,2.281-2.038,2.284-3.196l0.023-8.398
	C195.651,313.395,194.89,314.55,193.37,315.433z"/>
<linearGradient id="SVGID_46_" gradientUnits="userSpaceOnUse" x1="103.6606" y1="312.2148" x2="195.6538" y2="312.2148">
	<stop  offset="0" style="stop-color:#74777A"/>
	<stop  offset="1" style="stop-color:#C0C1C2"/>
</linearGradient>
<path fill="url(#SVGID_46_)" d="M193.334,308.998c3.08,1.778,3.095,4.656,0.036,6.435l-38.016,22.093
	c-3.059,1.777-8.03,1.777-11.109,0l-38.264-22.093c-3.079-1.778-3.096-4.656-0.037-6.435l38.016-22.092
	c3.059-1.778,8.03-1.778,11.109,0L193.334,308.998z"/>
<linearGradient id="SVGID_47_" gradientUnits="userSpaceOnUse" x1="157.1875" y1="317" x2="126.2236" y2="297.3278">
	<stop  offset="0" style="stop-color:#1A3E55"/>
	<stop  offset="1" style="stop-color:#0F334A"/>
</linearGradient>
<polygon fill="url(#SVGID_47_)" points="127.865,312.177 149.52,299.593 171.451,312.255 149.52,324.838 "/>
<g>
	<path fill="#FFFFFF" d="M192.615,341.549c0,0.825-0.584,1.832-1.303,2.247c-0.72,0.415-1.304,0.083-1.304-0.742
		c0-0.827,0.583-1.834,1.304-2.249C192.031,340.389,192.615,340.722,192.615,341.549z"/>
	<g>
		<g>
			<linearGradient id="SVGID_48_" gradientUnits="userSpaceOnUse" x1="154.9995" y1="353.0225" x2="191.0542" y2="353.0225">
				<stop  offset="0.3535" style="stop-color:#5D88A9"/>
				<stop  offset="0.5717" style="stop-color:#91AEC4"/>
				<stop  offset="1" style="stop-color:#FFFFFF"/>
			</linearGradient>
			<polygon fill="url(#SVGID_48_)" points="155.529,363.735 155,362.819 190.525,342.31 191.054,343.226 			"/>
		</g>
	</g>
</g>
<g>
	<path fill="#FFFFFF" d="M192.615,330.962c0,0.825-0.584,1.832-1.303,2.248c-0.72,0.416-1.304,0.082-1.304-0.742
		c0-0.827,0.583-1.834,1.304-2.25C192.031,329.802,192.615,330.136,192.615,330.962z"/>
	<g>
		<g>
			<linearGradient id="SVGID_49_" gradientUnits="userSpaceOnUse" x1="154.9995" y1="342.4355" x2="191.0542" y2="342.4355">
				<stop  offset="0.3535" style="stop-color:#5D88A9"/>
				<stop  offset="0.5717" style="stop-color:#91AEC4"/>
				<stop  offset="1" style="stop-color:#FFFFFF"/>
			</linearGradient>
			<polygon fill="url(#SVGID_49_)" points="155.529,353.149 155,352.234 190.525,331.723 191.054,332.639 			"/>
		</g>
	</g>
</g>
<path fill="#FFFFFF" d="M192.615,320.18c0,0.827-0.584,1.834-1.303,2.249c-0.72,0.417-1.304,0.083-1.304-0.741
	c0-0.828,0.583-1.835,1.304-2.25C192.031,319.022,192.615,319.355,192.615,320.18z"/>
<g>
	<g>
		<linearGradient id="SVGID_50_" gradientUnits="userSpaceOnUse" x1="154.9995" y1="331.6563" x2="191.0542" y2="331.6563">
			<stop  offset="0.3535" style="stop-color:#5D88A9"/>
			<stop  offset="0.5717" style="stop-color:#91AEC4"/>
			<stop  offset="1" style="stop-color:#FFFFFF"/>
		</linearGradient>
		<polygon fill="url(#SVGID_50_)" points="155.529,342.369 155,341.454 190.525,320.942 191.054,321.858 		"/>
	</g>
</g>
<g>
	<path fill="#5D88A9" d="M92.242,332.885l-63.447-36.631c-1.401-0.809-2.172-1.913-2.172-3.112c0-1.188,0.761-2.282,2.143-3.081
		l4.847-2.797c1.041-0.602,1.614-1.37,1.614-2.165c0-0.804-0.583-1.583-1.642-2.195L9.194,268.82
		c-1.4-0.809-2.171-1.912-2.171-3.111c0-1.188,0.761-2.283,2.143-3.08l61.413-36.301l0.539,0.912L9.7,263.543
		c-1.045,0.604-1.619,1.372-1.619,2.166c0,0.805,0.583,1.584,1.642,2.196l24.391,14.082c1.401,0.809,2.171,1.912,2.171,3.111
		c0,1.189-0.761,2.283-2.143,3.081l-4.847,2.797c-1.041,0.602-1.614,1.371-1.614,2.165c0,0.805,0.583,1.585,1.643,2.196
		l63.447,36.631L92.242,332.885z"/>
</g>
<linearGradient id="SVGID_51_" gradientUnits="userSpaceOnUse" x1="165.749" y1="319.8926" x2="142.8122" y2="309.0417">
	<stop  offset="0" style="stop-color:#1A3E55"/>
	<stop  offset="1" style="stop-color:#0F334A"/>
</linearGradient>
<polygon fill="url(#SVGID_51_)" points="149.52,299.593 149.52,324.838 171.451,312.255 "/>
<linearGradient id="SVGID_52_" gradientUnits="userSpaceOnUse" x1="501.7559" y1="363.501" x2="474.0428" y2="319.2429" gradientTransform="matrix(1 6.000000e-004 -6.000000e-004 1 0.3262 -0.3159)">
	<stop  offset="0.0051" style="stop-color:#FFFFFF"/>
	<stop  offset="0.1007" style="stop-color:#F8FAFC"/>
	<stop  offset="0.2363" style="stop-color:#E6ECF4"/>
	<stop  offset="0.3959" style="stop-color:#C7D6E6"/>
	<stop  offset="0.5739" style="stop-color:#9DB6D3"/>
	<stop  offset="0.767" style="stop-color:#668EBA"/>
	<stop  offset="0.9698" style="stop-color:#245E9D"/>
	<stop  offset="1" style="stop-color:#1A5698"/>
</linearGradient>
<polygon fill="url(#SVGID_52_)" points="514.674,370.179 523.013,365.356 478.003,339.124 469.664,343.942 "/>
<linearGradient id="SVGID_53_" gradientUnits="userSpaceOnUse" x1="443.1602" y1="307.833" x2="496.3379" y2="307.833">
	<stop  offset="0" style="stop-color:#1A3E55"/>
	<stop  offset="1" style="stop-color:#0F334A"/>
</linearGradient>
<path fill-rule="evenodd" clip-rule="evenodd" fill="url(#SVGID_53_)" d="M496.338,322.597c0,8.037-2.673,13.808-7.048,16.754
	c-0.364,0.244-0.735,0.467-1.123,0.672l-4.563,2.731l0.135-1.315c-4.063,0.561-8.857-0.526-13.989-3.49
	c-14.687-8.477-26.589-29.097-26.589-46.053c0-5.897,1.438-10.574,3.935-13.811c-0.734-0.236-1.271-0.413-1.271-0.413l5.611-3.279
	l0.027,0.006c4.766-2.462,11.203-1.942,18.286,2.145C484.433,285.022,496.338,305.641,496.338,322.597z"/>
<path fill-rule="evenodd" clip-rule="evenodd" fill="#BBBABA" d="M490.653,325.971c0,16.957-11.903,23.832-26.591,15.353
	c-14.684-8.479-26.588-29.097-26.588-46.054c0-16.958,11.904-23.829,26.588-15.352C478.75,288.396,490.653,309.015,490.653,325.971z
	"/>
<linearGradient id="SVGID_54_" gradientUnits="userSpaceOnUse" x1="441.9912" y1="310.6211" x2="486.1367" y2="310.6211">
	<stop  offset="0" style="stop-color:#1A3E55"/>
	<stop  offset="1" style="stop-color:#0F334A"/>
</linearGradient>
<path fill-rule="evenodd" clip-rule="evenodd" fill="url(#SVGID_54_)" d="M464.065,285.132
	c-12.192-7.037-22.074-1.332-22.074,12.745c0,14.076,9.882,31.193,22.074,38.231c12.188,7.038,22.071,1.333,22.071-12.744
	S476.254,292.172,464.065,285.132z M464.948,334.454c-11.501-6.641-20.823-22.786-20.823-36.066s9.322-18.662,20.823-12.021
	c11.502,6.637,20.825,22.787,20.825,36.067C485.773,335.712,476.45,341.096,464.948,334.454z"/>
<g>
	<path fill-rule="evenodd" clip-rule="evenodd" fill="#FFFFFF" d="M451.443,317.083c0.461-0.805,0.877-1.535,1.298-2.263
		c3.467-6.013,6.938-12.021,10.399-18.04c0.141-0.246,0.311-0.23,0.616-0.103c0.844,0.355,1.27,0.974,1.654,2.103
		c3.651,10.715,7.356,21.431,11.043,32.147c0.073,0.211,0.135,0.422,0.23,0.726c-0.627-0.362-1.189-0.67-1.749-1.025
		c-0.106-0.069-0.239-0.335-0.299-0.509c-0.973-2.8-1.936-5.602-2.898-8.401c-0.745-2.165-1.497-4.333-2.227-6.498
		c-0.134-0.395-0.294-0.588-0.594-0.759c-3.216-1.845-6.433-3.701-9.649-5.569c-0.301-0.177-0.451-0.157-0.585,0.079
		c-1.694,2.962-3.408,5.901-5.096,8.867c-0.163,0.286-0.351,0.313-0.706,0.082C452.435,317.628,451.982,317.393,451.443,317.083z
		 M468.456,312.179c-1.455-4.223-2.871-8.341-4.34-12.606c-1.483,2.576-2.914,5.053-4.372,7.577
		C462.68,308.846,465.523,310.486,468.456,312.179z"/>
	<path fill-rule="evenodd" clip-rule="evenodd" fill="#FFFFFF" d="M456.59,305.359c-0.296,0.509-0.54,0.955-0.812,1.369
		c-0.046,0.065-0.217,0.018-0.331-0.044c-0.542-0.298-1.085-0.604-1.625-0.939c-0.293-0.181-0.379-0.111-0.375,0.221
		c0.014,1.438,0.018,2.872-0.004,4.292c-0.004,0.326-0.067,0.643-0.19,0.87c-0.452,0.837-0.939,1.638-1.49,2.4
		c-0.012-0.111-0.035-0.226-0.035-0.328c-0.001-7.682,0-15.356-0.006-23.04c0-0.318,0.069-0.426,0.367-0.233
		c0.363,0.231,0.726,0.401,1.085,0.646c0.1,0.067,0.21,0.302,0.27,0.462c0.044,0.118,0.009,0.237,0.009,0.358
		c0,3.876,0.006,7.757-0.006,11.626c-0.002,0.4,0.085,0.595,0.45,0.793C454.759,304.281,455.623,304.802,456.59,305.359z"/>
	<path fill-rule="evenodd" clip-rule="evenodd" fill="#FFFFFF" d="M476.393,327.857c-0.088-0.22-0.145-0.344-0.188-0.469
		c-0.433-1.25-0.883-2.501-1.284-3.748c-0.144-0.449-0.225-0.922-0.232-1.327c-0.028-1.358-0.023-2.698-0.004-4.028
		c0.006-0.397-0.107-0.578-0.443-0.751c-0.489-0.253-0.981-0.574-1.472-0.836c-0.229-0.126-0.351-0.29-0.444-0.579
		c-0.216-0.659-0.452-1.32-0.722-2.091c0.771,0.445,1.449,0.838,2.129,1.231c0.943,0.543,0.943,0.543,0.943-0.528
		c0-3.728,0-7.455,0-11.184c0.002-0.574,0.002-0.574,0.515-0.278c0.396,0.229,0.792,0.457,1.202,0.692
		C476.393,311.944,476.393,319.855,476.393,327.857z"/>
	<path fill-rule="evenodd" clip-rule="evenodd" fill="#FFFFFF" d="M464.111,321.691c0.439-0.761,0.835-1.447,1.232-2.134
		c0.793-1.382,1.596-2.756,2.374-4.154c0.131-0.235,0.295-0.213,0.569-0.062c0.277,0.152,0.396,0.355,0.537,0.69
		c0.377,0.883,0.337,1.435,0.016,1.967c-1.282,2.102-2.501,4.279-3.724,6.446c-0.162,0.287-0.346,0.298-0.718,0.139
		c-0.823-0.355-1.208-0.966-1.556-2.006c-1.192-3.58-2.462-7.164-3.717-10.745c-0.133-0.381-0.16-0.639,0.003-0.824
		c0.084-0.1,0.152-0.227,0.208-0.359c0.107-0.258,0.258-0.336,0.598-0.136c0.333,0.195,0.438,0.453,0.561,0.803
		c1.122,3.25,2.254,6.498,3.385,9.746C463.938,321.229,464.001,321.392,464.111,321.691z"/>
	<path fill-rule="evenodd" clip-rule="evenodd" fill="#FFFFFF" d="M454.633,294.448c0.455,1.312,0.913,2.624,1.368,3.938
		c0.525,1.514,1.042,3.029,1.584,4.542c0.122,0.346,0.122,0.563-0.012,0.736c-0.094,0.122-0.175,0.264-0.24,0.422
		c-0.104,0.246-0.252,0.311-0.57,0.13c-0.331-0.187-0.44-0.447-0.562-0.801c-0.49-1.43-1.002-2.86-1.484-4.292
		c-0.107-0.32-0.173-0.666-0.177-0.952c-0.021-1.144-0.01-2.269-0.01-3.4c0-0.115,0.012-0.223,0.018-0.334
		C454.577,294.44,454.604,294.444,454.633,294.448z"/>
	<path fill-rule="evenodd" clip-rule="evenodd" fill="#FFFFFF" d="M473.591,305.467c0,0.846-0.038,1.673,0.008,2.543
		c0.065,1.158-0.118,2.067-0.623,2.75c-0.411,0.553-0.731,1.223-1.071,1.86c-0.106,0.203-0.253,0.187-0.484,0.048
		c-0.222-0.13-0.355-0.265-0.496-0.589c-0.429-0.988-0.431-1.638-0.044-2.227c0.875-1.334,1.642-2.804,2.454-4.217
		c0.051-0.088,0.108-0.165,0.164-0.248C473.528,305.413,473.56,305.439,473.591,305.467z"/>
</g>
<g>
	<path fill-rule="evenodd" clip-rule="evenodd" fill="#FFFFFF" d="M433.485,86.862c0.192-0.336,0.367-0.642,0.543-0.946
		c1.45-2.516,2.903-5.029,4.351-7.547c0.058-0.103,0.131-0.096,0.258-0.042c0.353,0.148,0.531,0.407,0.691,0.879
		c1.528,4.483,3.078,8.966,4.62,13.448c0.03,0.088,0.058,0.177,0.096,0.304c-0.261-0.151-0.496-0.28-0.731-0.429
		c-0.043-0.028-0.099-0.14-0.124-0.213c-0.407-1.17-0.81-2.343-1.213-3.514c-0.311-0.906-0.626-1.813-0.931-2.719
		c-0.056-0.165-0.123-0.245-0.249-0.317c-1.346-0.771-2.691-1.548-4.036-2.33c-0.126-0.074-0.189-0.065-0.246,0.034
		c-0.709,1.239-1.425,2.469-2.131,3.709c-0.068,0.12-0.147,0.132-0.296,0.035C433.9,87.09,433.711,86.992,433.485,86.862z
		 M440.602,84.811c-0.607-1.767-1.201-3.489-1.815-5.274c-0.62,1.078-1.219,2.114-1.828,3.17
		C438.186,83.416,439.376,84.103,440.602,84.811z"/>
	<path fill-rule="evenodd" clip-rule="evenodd" fill="#FFFFFF" d="M435.638,81.958c-0.122,0.214-0.225,0.4-0.339,0.573
		c-0.019,0.028-0.092,0.008-0.139-0.018c-0.226-0.125-0.452-0.253-0.681-0.393c-0.121-0.076-0.156-0.047-0.155,0.091
		c0.005,0.602,0.007,1.202-0.001,1.795c-0.002,0.138-0.029,0.27-0.081,0.365c-0.188,0.351-0.393,0.685-0.623,1.004
		c-0.006-0.046-0.014-0.094-0.014-0.137c-0.001-3.213,0-6.424-0.003-9.638c-0.001-0.133,0.028-0.178,0.154-0.098
		c0.15,0.097,0.303,0.168,0.452,0.271c0.042,0.028,0.09,0.126,0.114,0.193c0.017,0.049,0.003,0.1,0.003,0.149
		c0,1.622,0.003,3.245-0.002,4.865c-0.001,0.167,0.035,0.249,0.188,0.332C434.873,81.506,435.234,81.725,435.638,81.958z"/>
	<path fill-rule="evenodd" clip-rule="evenodd" fill="#FFFFFF" d="M443.923,91.37c-0.036-0.092-0.06-0.144-0.079-0.195
		c-0.181-0.523-0.369-1.047-0.536-1.568c-0.06-0.188-0.094-0.386-0.098-0.556c-0.012-0.568-0.01-1.128-0.001-1.685
		c0.003-0.167-0.046-0.242-0.186-0.315c-0.205-0.106-0.411-0.24-0.616-0.35c-0.096-0.053-0.146-0.121-0.187-0.242
		c-0.09-0.276-0.189-0.553-0.302-0.874c0.323,0.186,0.606,0.35,0.892,0.515c0.395,0.227,0.395,0.227,0.395-0.221
		c0-1.559,0-3.119,0-4.679c0-0.24,0-0.24,0.215-0.116c0.166,0.095,0.331,0.19,0.503,0.29
		C443.923,84.713,443.923,88.022,443.923,91.37z"/>
	<path fill-rule="evenodd" clip-rule="evenodd" fill="#FFFFFF" d="M438.784,88.79c0.185-0.318,0.35-0.606,0.516-0.893
		c0.333-0.578,0.668-1.153,0.994-1.738c0.055-0.098,0.125-0.089,0.238-0.026c0.115,0.064,0.165,0.149,0.225,0.289
		c0.157,0.369,0.141,0.601,0.006,0.822c-0.534,0.88-1.045,1.791-1.557,2.697c-0.068,0.12-0.145,0.125-0.301,0.058
		c-0.344-0.149-0.505-0.404-0.65-0.839c-0.499-1.499-1.03-2.998-1.556-4.496c-0.055-0.159-0.066-0.267,0.001-0.345
		c0.036-0.042,0.064-0.094,0.088-0.15c0.045-0.108,0.108-0.141,0.25-0.057c0.139,0.082,0.183,0.189,0.232,0.336
		c0.472,1.359,0.944,2.718,1.417,4.077C438.713,88.597,438.739,88.665,438.784,88.79z"/>
	<path fill-rule="evenodd" clip-rule="evenodd" fill="#FFFFFF" d="M434.82,77.394c0.19,0.548,0.381,1.097,0.571,1.646
		c0.22,0.633,0.437,1.267,0.664,1.9c0.05,0.145,0.049,0.235-0.007,0.308c-0.039,0.052-0.071,0.112-0.099,0.176
		c-0.045,0.104-0.105,0.13-0.24,0.055c-0.138-0.078-0.184-0.186-0.233-0.334c-0.205-0.599-0.419-1.198-0.621-1.796
		c-0.044-0.134-0.072-0.278-0.074-0.398c-0.009-0.479-0.005-0.949-0.005-1.422c0-0.048,0.006-0.094,0.008-0.14
		C434.796,77.391,434.808,77.392,434.82,77.394z"/>
	<path fill-rule="evenodd" clip-rule="evenodd" fill="#FFFFFF" d="M442.751,82.003c0,0.354-0.017,0.7,0.004,1.064
		c0.026,0.484-0.05,0.864-0.261,1.15c-0.172,0.231-0.306,0.511-0.448,0.778c-0.045,0.084-0.105,0.078-0.203,0.02
		c-0.093-0.055-0.148-0.111-0.208-0.247c-0.179-0.414-0.18-0.685-0.019-0.931c0.366-0.559,0.688-1.173,1.027-1.765
		c0.02-0.037,0.044-0.069,0.067-0.103C442.725,81.98,442.737,81.992,442.751,82.003z"/>
</g>
<path fill-rule="evenodd" clip-rule="evenodd" fill="#FFFFFF" d="M412.507,62.869c0.336,0.194,0.673,0.389,1.007,0.583
	c0,0.01-0.001,0.021-0.001,0.032c0,0.66,0,1.32,0,1.98c0,0.013,0.003,0.029,0.005,0.042c0.33,0.191,0.659,0.38,0.989,0.571
	c0-0.024,0-0.046,0-0.067c0-0.642,0-1.284,0-1.927c0-0.02-0.002-0.04-0.002-0.06c0.336,0.193,0.672,0.387,1.009,0.582
	c0.001,0.024,0.002,0.048,0.002,0.072c0.001,0.638,0.001,1.276,0.001,1.915c0,0.023,0,0.046,0,0.073
	c0.021,0.012,0.035,0.02,0.049,0.028c0.281,0.165,0.559,0.357,0.831,0.589c0.414,0.351,0.789,0.766,1.107,1.279
	c0.417,0.671,0.653,1.351,0.741,2.035c0.044,0.345,0.017,0.638-0.113,0.854c-0.127,0.206-0.297,0.344-0.496,0.439
	c-0.083,0.039-0.169,0.07-0.256,0.104c0.016,0.019,0.03,0.038,0.046,0.055c0.233,0.282,0.466,0.568,0.68,0.877
	c0.396,0.572,0.646,1.161,0.718,1.773c0.016,0.117,0.024,0.232,0.036,0.349c0,0.116,0,0.232,0,0.348
	c-0.002,0.012-0.006,0.024-0.009,0.038c-0.021,0.294-0.095,0.543-0.212,0.75c-0.259,0.458-0.665,0.668-1.178,0.689
	c-0.511,0.022-1.06-0.15-1.634-0.442c-0.102-0.052-0.204-0.117-0.312-0.178c0,0.698,0,1.38,0,2.063
	c-0.339-0.197-0.671-0.388-1.01-0.583c0-0.685,0-1.366,0-2.049c-0.331-0.192-0.66-0.382-0.994-0.574c0,0.685,0,1.366,0,2.051
	c-0.336-0.195-0.67-0.388-1.011-0.583c0-0.685,0-1.368,0-2.054c-0.757-0.437-1.506-0.87-2.256-1.303c0-0.008,0-0.015,0-0.022
	c0.003-0.009,0.007-0.015,0.009-0.024c0.093-0.412,0.185-0.822,0.272-1.236c0.012-0.043,0.025-0.052,0.071-0.025
	c0.338,0.198,0.676,0.391,1.013,0.586c0.019,0.01,0.038,0.021,0.056,0.032c0-2.244,0-4.48,0-6.718
	c-0.475-0.276-0.949-0.548-1.421-0.821c0-0.457,0-0.914,0-1.371c0.751,0.434,1.501,0.867,2.257,1.303c0-0.031,0-0.054,0-0.078
	c0-0.636,0-1.273,0-1.909C412.502,62.914,412.506,62.892,412.507,62.869z M413.516,73.596c0.018,0.011,0.03,0.02,0.042,0.026
	c0.542,0.313,1.084,0.626,1.625,0.94c0.224,0.128,0.442,0.231,0.657,0.287c0.253,0.067,0.482,0.069,0.661-0.057
	c0.196-0.141,0.274-0.4,0.278-0.734c0.006-0.582-0.238-1.169-0.698-1.668c-0.27-0.292-0.553-0.505-0.844-0.675
	c-0.56-0.326-1.119-0.647-1.678-0.969c-0.014-0.009-0.027-0.015-0.044-0.024C413.516,71.681,413.516,72.636,413.516,73.596z
	 M413.516,66.88c0,0.87,0,1.734,0,2.602c0.017,0.01,0.03,0.021,0.044,0.028c0.431,0.249,0.86,0.496,1.291,0.745
	c0.198,0.114,0.391,0.193,0.576,0.218c0.415,0.056,0.696-0.101,0.749-0.599c0.045-0.414-0.07-0.859-0.374-1.319
	c-0.266-0.4-0.577-0.682-0.911-0.881c-0.445-0.264-0.893-0.516-1.339-0.773C413.541,66.895,413.531,66.889,413.516,66.88z"/>
<g>
	<path fill-rule="evenodd" clip-rule="evenodd" fill="#FFFFFF" d="M409.666,92.139c0.965-1.171,1.91-2.318,2.855-3.465
		c0.006-0.007,0.013-0.014,0.021-0.02c0.148-0.112,0.299-0.027,0.445,0.259c0.042,0.084,0.075,0.171,0.11,0.256
		c0.867,2.056,1.734,4.11,2.601,6.165c0.054,0.126,0.102,0.254,0.165,0.419c-0.327,0.074-0.645,0.146-0.961,0.217
		c-0.641,0.143-1.275,0.293-1.924,0.417c-0.085,0.017-0.263-0.065-0.339-0.167C411.654,94.883,410.68,93.534,409.666,92.139z"/>
	<path fill-rule="evenodd" clip-rule="evenodd" fill="#FFFFFF" d="M409.483,92.61c0.206,0.283,0.415,0.564,0.621,0.847
		c0.787,1.08,1.578,2.153,2.356,3.243c0.243,0.345,0.425,0.466,0.678,0.401c0.848-0.214,1.714-0.39,2.572-0.578
		c0.095-0.021,0.194-0.031,0.328,0.022c-0.048,0.068-0.089,0.142-0.141,0.204c-0.942,1.148-1.888,2.294-2.832,3.439
		c-0.219,0.264-0.379,0.182-0.587-0.312c-0.987-2.337-1.968-4.674-2.951-7.012c-0.033-0.079-0.058-0.16-0.085-0.24
		C409.456,92.621,409.471,92.616,409.483,92.61z"/>
</g>
<g>
	<path fill-rule="evenodd" clip-rule="evenodd" fill="#FFFFFF" d="M145.936,229.938c5.098-0.637,10.09-1.259,15.082-1.882
		c0.032-0.004,0.064-0.006,0.098-0.008c0.666-0.029,0.977,0.151,0.916,0.533c-0.018,0.112-0.071,0.224-0.113,0.333
		c-0.992,2.645-1.984,5.292-2.978,7.936c-0.062,0.163-0.143,0.324-0.236,0.533c-1.15-0.118-2.264-0.233-3.377-0.349
		c-2.243-0.236-4.49-0.462-6.724-0.721c-0.291-0.032-0.699-0.223-0.75-0.373C147.19,233.966,146.581,231.987,145.936,229.938z"/>
	<path fill-rule="evenodd" clip-rule="evenodd" fill="#FFFFFF" d="M144.521,230.314c0.137,0.415,0.278,0.831,0.411,1.248
		c0.508,1.589,1.043,3.174,1.499,4.767c0.144,0.502,0.489,0.735,1.392,0.82c3.016,0.285,6.019,0.62,9.025,0.938
		c0.332,0.037,0.658,0.085,0.979,0.22c-0.266,0.044-0.528,0.093-0.798,0.128c-4.99,0.625-9.979,1.247-14.969,1.867
		c-1.149,0.143-1.5-0.038-1.262-0.674c1.126-3.009,2.268-6.015,3.407-9.023c0.039-0.102,0.108-0.199,0.164-0.297
		C144.42,230.311,144.471,230.313,144.521,230.314z"/>
</g>
<g>
	<polygon opacity="0.35" fill="#5D88A9" points="32.907,349.894 46.824,357.93 32.907,365.962 	"/>
	<polygon opacity="0.2" fill="#5D88A9" points="8.724,349.894 22.64,357.93 8.724,365.962 	"/>
	<polygon opacity="0.5" fill="#5D88A9" points="55.062,349.894 68.979,357.93 55.062,365.962 	"/>
	<polygon fill="#5D88A9" points="77.154,349.894 91.07,357.93 77.154,365.962 	"/>
</g>
<g>
	<polygon opacity="0.35" fill="#5D88A9" points="527.243,250.135 515.664,256.82 527.243,263.505 	"/>
	<polygon opacity="0.2" fill="#5D88A9" points="547.362,250.135 535.784,256.82 547.362,263.505 	"/>
	<polygon opacity="0.5" fill="#5D88A9" points="508.81,250.135 497.231,256.82 508.81,263.505 	"/>
	<polygon fill="#5D88A9" points="490.432,250.135 478.853,256.82 490.432,263.505 	"/>
</g>
<g>
	<polygon opacity="0.35" fill="#5D88A9" points="37.033,133.271 32.504,125.431 27.979,133.271 	"/>
	<polygon opacity="0.2" fill="#5D88A9" points="37.033,146.895 32.504,139.055 27.979,146.895 	"/>
	<polygon opacity="0.5" fill="#5D88A9" points="37.033,120.791 32.504,112.95 27.979,120.791 	"/>
	<polygon fill="#5D88A9" points="37.033,108.346 32.504,100.506 27.979,108.346 	"/>
	<path fill="#5D88A9" d="M32.213,88.022c-2.215,0-4.012,1.796-4.012,4.014s1.797,4.014,4.012,4.014c2.219,0,4.016-1.796,4.016-4.014
		S34.433,88.022,32.213,88.022z"/>
</g>
<path opacity="0.5" fill="#5D88A9" d="M582.328,212.241c-19.28-11.129-34.968-38.301-34.966-60.564
	c-0.001-22.266,15.685-31.322,34.968-20.189c19.28,11.132,34.968,38.3,34.968,60.565S601.61,223.373,582.328,212.241z
	 M582.328,133.163c-18.48-10.671-33.519-1.99-33.518,19.352c0.001,21.339,15.037,47.384,33.519,58.054
	c18.482,10.671,33.52,1.989,33.52-19.35C615.849,169.876,600.811,143.833,582.328,133.163z"/>
<path opacity="0.5" fill="#5D88A9" d="M591.066,209.105l-1.256-5.204c10.035,2.042,16.776-4.776,16.775-16.967l0.001-0.097
	l4.075,2.353v0.097C610.662,203.527,602.787,211.49,591.066,209.105z M558.072,158.975l-4.075-2.361
	c-0.002-14.256,7.856-22.222,19.552-19.868l1.264,5.205c-10.013-2.015-16.74,4.807-16.74,16.974l0,0V158.975z"/>
<path opacity="0.5" fill="#5D88A9" d="M582.328,190.505c-8.392-4.847-15.219-16.673-15.218-26.362c0-9.689,6.827-13.63,15.218-8.786
	c8.393,4.844,15.222,16.669,15.221,26.36C597.549,191.407,590.722,195.349,582.328,190.505z M582.328,156.086
	c-8.043-4.644-14.587-0.866-14.587,8.421c0.001,9.291,6.544,20.625,14.589,25.268c8.044,4.647,14.588,0.868,14.588-8.421
	S590.374,160.731,582.328,156.086z"/>
<g opacity="0.1">
	<path fill="#D4ECFC" d="M371.84,94.789c-1.213,1.652-2.679,3.258-4.397,4.793c-0.687,0.663-1.151,1.731-1.184,2.722l0.017,7.637
		c0.039,0.965,0.517,1.244,1.192,0.693c1.719-1.536,3.184-3.141,4.395-4.793c0.547-0.807,0.757-1.991,0.774-2.83l-0.018-7.637
		c-0.031-1.266-0.521-0.868-0.617-0.775C371.948,94.65,371.884,94.729,371.84,94.789L371.84,94.789z"/>
	<path fill="#D4ECFC" d="M371.909,126.72c-1.213,1.653-2.678,3.258-4.396,4.793c-0.686,0.664-1.15,1.734-1.184,2.73l0.018,7.637
		c0.037,0.961,0.518,1.236,1.191,0.686c1.718-1.536,3.184-3.141,4.396-4.793c0.545-0.806,0.757-1.986,0.772-2.822l-0.017-7.637
		c-0.031-1.271-0.521-0.874-0.618-0.782C372.019,126.582,371.955,126.66,371.909,126.72L371.909,126.72z"/>
	<path fill="#D4ECFC" d="M371.946,142.686c-1.214,1.653-2.679,3.258-4.398,4.794c-0.686,0.663-1.15,1.734-1.182,2.729l0.016,7.637
		c0.037,0.96,0.517,1.236,1.191,0.685c1.719-1.536,3.185-3.141,4.396-4.794c0.545-0.806,0.757-1.986,0.772-2.821l-0.017-7.637
		c-0.031-1.271-0.521-0.875-0.619-0.782C372.053,142.548,371.99,142.626,371.946,142.686L371.946,142.686z"/>
	<path fill="#D4ECFC" d="M371.981,158.651c-1.213,1.652-2.679,3.257-4.396,4.793c-0.688,0.663-1.152,1.734-1.185,2.729l0.017,7.637
		c0.037,0.96,0.518,1.237,1.19,0.686c1.719-1.537,3.185-3.141,4.397-4.794c0.546-0.806,0.758-1.986,0.773-2.822l-0.018-7.637
		c-0.031-1.271-0.521-0.875-0.618-0.783C372.089,158.514,372.025,158.592,371.981,158.651L371.981,158.651z"/>
	<path fill="#D4ECFC" d="M361.036,120.256c-0.515,0.311-1.043,0.617-1.585,0.918c-1.835,1.023-3.763,1.956-5.767,2.8
		c-1.019,0.478-1.709,1.43-1.757,2.424l0.017,7.629c0.056,0.983,0.748,1.375,1.765,0.999c2.004-0.845,3.931-1.777,5.767-2.8
		c0.542-0.301,1.07-0.607,1.585-0.919c0.868-0.575,1.433-1.586,1.474-2.639l-0.018-7.629
		C362.463,119.864,361.686,119.882,361.036,120.256L361.036,120.256z"/>
	<path fill="#D4ECFC" d="M361.071,136.222c-0.515,0.311-1.043,0.617-1.584,0.918c-1.837,1.022-3.764,1.955-5.767,2.8
		c-1.019,0.478-1.708,1.429-1.758,2.422l0.016,7.638c0.057,0.979,0.749,1.368,1.767,0.992c2.004-0.845,3.931-1.778,5.767-2.8
		c0.542-0.301,1.068-0.607,1.585-0.918c0.867-0.575,1.432-1.583,1.473-2.631l-0.017-7.637
		C362.498,135.829,361.721,135.848,361.071,136.222L361.071,136.222z"/>
	<path fill="#D4ECFC" d="M361.143,168.154c-0.515,0.31-1.044,0.617-1.585,0.917c-1.837,1.022-3.764,1.956-5.767,2.8
		c-1.019,0.478-1.709,1.43-1.759,2.424l0.018,7.636c0.056,0.979,0.748,1.369,1.766,0.992c2.003-0.845,3.93-1.777,5.767-2.8
		c0.541-0.301,1.07-0.607,1.585-0.918c0.867-0.575,1.431-1.583,1.473-2.631l-0.017-7.637
		C362.569,167.76,361.792,167.779,361.143,168.154L361.143,168.154z"/>
	<path fill="#D4ECFC" d="M361.178,184.119c-0.515,0.311-1.044,0.618-1.584,0.918c-1.837,1.023-3.765,1.955-5.767,2.801
		c-1.019,0.478-1.709,1.429-1.759,2.423l0.016,7.637c0.056,0.979,0.749,1.367,1.767,0.991c2.003-0.844,3.931-1.777,5.767-2.799
		c0.541-0.302,1.069-0.608,1.586-0.918c0.866-0.574,1.431-1.583,1.472-2.632l-0.017-7.637
		C362.604,183.726,361.827,183.745,361.178,184.119L361.178,184.119z"/>
	<path fill="#D4ECFC" d="M344.852,111.028c-2.824,0.771-5.739,1.394-8.707,1.868c-1.171,0.236-1.934,1.002-1.99,1.999l0.017,7.637
		c0.062,0.993,0.846,1.549,1.999,1.416c2.967-0.474,5.882-1.096,8.707-1.868c1.09-0.349,1.829-1.233,1.882-2.252l-0.017-7.637
		C346.677,111.077,345.745,110.803,344.852,111.028L344.852,111.028z"/>
	<path fill="#D4ECFC" d="M344.958,158.925c-2.824,0.771-5.739,1.394-8.707,1.868c-1.171,0.237-1.935,1.005-1.991,2.007l0.018,7.637
		c0.061,0.989,0.845,1.542,1.999,1.409c2.966-0.475,5.882-1.097,8.706-1.868c1.09-0.349,1.83-1.23,1.883-2.245l-0.018-7.636
		C346.782,158.977,345.852,158.702,344.958,158.925L344.958,158.925z"/>
	<path fill="#D4ECFC" d="M345.03,190.857c-2.826,0.771-5.74,1.394-8.709,1.867c-1.172,0.238-1.934,1.007-1.99,2.008l0.019,7.637
		c0.06,0.989,0.844,1.541,1.996,1.409c2.969-0.475,5.883-1.099,8.708-1.869c1.091-0.348,1.828-1.229,1.882-2.245l-0.017-7.637
		C346.854,190.907,345.923,190.632,345.03,190.857L345.03,190.857z"/>
	<path fill="#D4ECFC" d="M326.466,145.844c-3.045,0.155-6.106,0.161-9.149,0.02c-1.199-0.006-1.98,0.605-2.039,1.594l0.018,7.637
		c0.063,1,0.865,1.715,2.046,1.821c3.043,0.141,6.104,0.135,9.149-0.02c1.176-0.11,1.972-0.828,2.03-1.829l-0.017-7.637
		C328.434,146.294,327.429,145.815,326.466,145.844L326.466,145.844z"/>
	<path fill="#D4ECFC" d="M326.535,177.775c-3.043,0.154-6.105,0.161-9.147,0.02c-1.201-0.006-1.981,0.605-2.039,1.595l0.017,7.636
		c0.063,1.001,0.865,1.716,2.046,1.821c3.044,0.141,6.104,0.134,9.148-0.02c1.178-0.11,1.975-0.828,2.031-1.829l-0.018-7.637
		C328.504,178.226,327.499,177.747,326.535,177.775L326.535,177.775z"/>
	<path fill="#D4ECFC" d="M307.496,112.959c-2.962-0.459-5.871-1.066-8.688-1.82c-1.101-0.246-1.817,0.206-1.869,1.178l0.018,7.637
		c0.057,1.019,0.793,1.897,1.875,2.238c2.818,0.753,5.727,1.36,8.688,1.82c1.156,0.127,1.94-0.433,1.997-1.425l-0.018-7.637
		C309.43,113.806,308.443,113.125,307.496,112.959L307.496,112.959z"/>
	<path fill="#D4ECFC" d="M307.532,128.925c-2.964-0.459-5.871-1.066-8.688-1.82c-1.1-0.246-1.816,0.208-1.869,1.185l0.018,7.63
		c0.058,1.019,0.793,1.897,1.877,2.237c2.816,0.754,5.724,1.36,8.688,1.82c1.156,0.128,1.939-0.432,1.996-1.424l-0.017-7.629
		C309.465,129.774,308.479,129.092,307.532,128.925L307.532,128.925z"/>
	<path fill="#D4ECFC" d="M307.567,144.89c-2.962-0.459-5.87-1.066-8.688-1.819c-1.1-0.245-1.816,0.208-1.867,1.185l0.016,7.637
		c0.057,1.015,0.793,1.891,1.877,2.231c2.815,0.753,5.725,1.36,8.688,1.82c1.156,0.128,1.94-0.428,1.997-1.417l-0.017-7.637
		C309.5,145.74,308.514,145.057,307.567,144.89L307.567,144.89z"/>
	<path fill="#D4ECFC" d="M307.602,160.856c-2.962-0.459-5.87-1.066-8.688-1.82c-1.1-0.246-1.814,0.209-1.867,1.186l0.018,7.637
		c0.056,1.015,0.791,1.89,1.875,2.229c2.816,0.754,5.725,1.361,8.688,1.82c1.156,0.127,1.939-0.428,1.998-1.417l-0.019-7.637
		C309.537,161.706,308.549,161.023,307.602,160.856L307.602,160.856z"/>
	<path fill="#D4ECFC" d="M307.639,176.822c-2.965-0.459-5.871-1.066-8.689-1.82c-1.1-0.245-1.814,0.209-1.867,1.186l0.018,7.636
		c0.055,1.015,0.791,1.89,1.875,2.231c2.816,0.754,5.725,1.36,8.688,1.82c1.155,0.127,1.938-0.429,1.996-1.417l-0.017-7.637
		C309.572,177.671,308.585,176.989,307.639,176.822L307.639,176.822z"/>
	<path fill="#D4ECFC" d="M307.673,192.788c-2.962-0.459-5.87-1.067-8.688-1.819c-1.1-0.246-1.815,0.208-1.867,1.185l0.018,7.637
		c0.055,1.014,0.792,1.89,1.875,2.23c2.816,0.753,5.725,1.36,8.688,1.819c1.156,0.128,1.939-0.428,1.998-1.416l-0.018-7.638
		C309.607,193.638,308.619,192.955,307.673,192.788L307.673,192.788z"/>
	<path fill="#D4ECFC" d="M290.086,124.154c-2.582-1.07-5.037-2.287-7.328-3.649c-0.898-0.486-1.461-0.195-1.503,0.779l0.017,7.629
		c0.047,1.037,0.639,2.075,1.51,2.644c2.293,1.362,4.747,2.579,7.329,3.648c1.009,0.366,1.693-0.033,1.743-1.017l-0.016-7.629
		C291.775,125.401,290.912,124.517,290.086,124.154L290.086,124.154z"/>
	<path fill="#D4ECFC" d="M290.121,140.12c-2.582-1.07-5.037-2.287-7.328-3.649c-0.898-0.486-1.461-0.194-1.503,0.78l0.017,7.637
		c0.047,1.033,0.639,2.067,1.512,2.636c2.291,1.362,4.745,2.579,7.328,3.649c1.008,0.366,1.693-0.03,1.742-1.01l-0.017-7.637
		C291.811,141.367,290.947,140.482,290.121,140.12L290.121,140.12z"/>
	<path fill="#D4ECFC" d="M290.227,188.017c-2.582-1.07-5.035-2.287-7.328-3.649c-0.899-0.486-1.461-0.195-1.502,0.779l0.017,7.637
		c0.047,1.048,0.626,2.059,1.511,2.636c2.291,1.362,4.745,2.578,7.328,3.649c1.008,0.366,1.693-0.03,1.742-1.01l-0.017-7.636
		C291.916,189.264,291.054,188.38,290.227,188.017L290.227,188.017z"/>
	<path fill="#D4ECFC" d="M276.18,99.823c-1.742-1.538-3.226-3.143-4.453-4.796c-0.622-0.779-0.746,0.087-0.765,0.269
		c-0.01,0.097-0.013,0.225-0.015,0.321l0.018,7.637c0.02,0.839,0.236,2.021,0.787,2.825c1.227,1.654,2.711,3.259,4.451,4.796
		c0.688,0.553,1.172,0.276,1.207-0.688l-0.018-7.637C277.343,101.229,276.606,100.215,276.18,99.823L276.18,99.823z"/>
	<path fill="#D4ECFC" d="M276.25,131.755c-1.742-1.538-3.226-3.143-4.453-4.797c-0.622-0.777-0.746,0.094-0.764,0.276
		c-0.011,0.096-0.014,0.225-0.015,0.321l0.017,7.637c0.02,0.835,0.236,2.015,0.787,2.817c1.227,1.654,2.711,3.259,4.453,4.796
		c0.686,0.554,1.17,0.28,1.205-0.681l-0.018-7.637C277.42,133.334,276.805,132.263,276.25,131.755L276.25,131.755z"/>
	<path fill="#D4ECFC" d="M276.32,163.686c-1.74-1.538-3.225-3.143-4.452-4.796c-0.622-0.778-0.747,0.093-0.765,0.276
		c-0.01,0.096-0.013,0.226-0.015,0.322l0.017,7.636c0.02,0.835,0.237,2.015,0.787,2.817c1.227,1.654,2.711,3.259,4.453,4.797
		c0.687,0.553,1.171,0.279,1.205-0.681l-0.016-7.636C277.49,165.266,276.875,164.193,276.32,163.686L276.32,163.686z"/>
	<path fill="#D4ECFC" d="M276.355,179.651c-1.741-1.537-3.225-3.143-4.452-4.796c-0.622-0.777-0.746,0.094-0.765,0.277
		c-0.01,0.095-0.012,0.224-0.015,0.321l0.017,7.637c0.02,0.836,0.236,2.015,0.787,2.818c1.227,1.653,2.711,3.259,4.453,4.796
		c0.687,0.554,1.172,0.28,1.206-0.68l-0.018-7.637C277.525,181.231,276.91,180.159,276.355,179.651L276.355,179.651z"/>
</g>
</svg>
