<?xml version="1.0" encoding="utf-8"?>
<!-- Generator: Adobe Illustrator 21.0.0, SVG Export Plug-In . SVG Version: 6.00 Build 0)  -->
<svg version="1.1" id="Layer_1" xmlns="http://www.w3.org/2000/svg" xmlns:xlink="http://www.w3.org/1999/xlink" x="0px" y="0px"
	 viewBox="0 0 150 150" style="enable-background:new 0 0 150 150;" xml:space="preserve">
<style type="text/css">
	.st0{fill:#B2DCF1;}
	.st1{fill:#FEFEFE;}
	.st2{fill:#FDFDFD;}
	.st3{fill:#FE0000;}
	.st4{fill:#FE2929;}
	.st5{fill:#FE2A2A;}
</style>
<path class="st0" d="M149.5,75c0,7.5-1.1,14.7-3.2,21.5c0,0,0,0,0,0c0,0,0,0,0,0c0,0,0,0,0,0c-1.8,6-4.4,11.8-7.6,17
	c0,0.1,0,0.1-0.1,0.1c-4,6.5-9,12.4-14.7,17.4c-13.1,11.4-30.2,18.3-48.9,18.3s-35.8-6.9-48.9-18.3c-5.7-5-10.7-10.8-14.7-17.4
	c0,0-0.1-0.1-0.1-0.1c-3.2-5.3-5.8-11-7.6-17c0,0,0,0,0,0c0,0,0,0,0,0c0,0,0,0,0,0c-0.8-2.8-1.5-5.7-2-8.6c0,0,0-0.1,0-0.1
	C0.9,83.6,0.5,79.4,0.5,75c0-1.7,0.1-3.3,0.2-5c0,0,0-0.1,0-0.1c0.2-2.6,0.5-5.2,0.9-7.7v0c0,0,0,0,0,0s0,0,0,0c1-6,2.8-11.7,5.2-17
	c0,0,0-0.1,0.1-0.1c2.8-6.2,6.3-12,10.6-17.2C31.1,11.1,51.8,0.5,75,0.5s43.9,10.6,57.5,27.2c4.3,5.2,7.9,11,10.6,17.2
	c0,0,0.1,0.1,0.1,0.1c2.4,5.4,4.1,11.1,5.2,17c0,0,0,0,0,0s0,0,0,0v0C149.1,66.3,149.5,70.6,149.5,75z"/>
<g>
	<path class="st1" d="M143.2,45H6.8c0,0,0-0.1,0.1-0.1c2.8-6.2,6.3-12,10.6-17.2c38.4,0,76.7,0,115.1,0c4.3,5.2,7.9,11,10.6,17.2
		C143.2,44.9,143.2,45,143.2,45z"/>
	<path class="st1" d="M138.7,113.7c0,0.1,0,0.1-0.1,0.1c-4,6.5-9,12.4-14.7,17.4c-32.6,0-65.2,0-97.8,0c-5.7-5-10.7-10.8-14.7-17.4
		c0,0-0.1-0.1-0.1-0.1H138.7z"/>
	<path class="st1" d="M149.5,75c0,7.5-1.1,14.7-3.2,21.5c0,0,0,0,0,0c0,0,0,0,0,0c0,0,0,0,0,0H3.7c0,0,0,0,0,0c0,0,0,0,0,0
		c0,0,0,0,0,0c-0.8-2.8-1.5-5.7-2-8.6c0,0,0-0.1,0-0.1c2.7-2.7,5.4-5.4,8.1-8.1c0.1-0.1,0.2-0.2,0.3-0.3c0,0,0,0,0,0c0,0,0,0,0,0
		c-0.1-0.1-0.2-0.2-0.3-0.3c-3-3-6-6-9-9c0,0,0-0.1,0-0.1c0.2-2.6,0.5-5.2,0.9-7.7v0c0,0,0,0,0,0s0,0,0,0h146.8c0,0,0,0,0,0s0,0,0,0
		v0C149.1,66.3,149.5,70.6,149.5,75z"/>
	<path class="st0" d="M148.4,62.1H1.6c0,0,0,0,0,0s0,0,0,0c1-6,2.8-11.7,5.2-17c0,0,0-0.1,0.1-0.1h136.3c0,0,0.1,0.1,0.1,0.1
		C145.6,50.4,147.3,56.1,148.4,62.1C148.4,62.1,148.4,62.1,148.4,62.1C148.4,62.1,148.4,62.1,148.4,62.1z"/>
	<path class="st0" d="M146.3,96.6C146.3,96.6,146.3,96.6,146.3,96.6C146.3,96.6,146.3,96.6,146.3,96.6c-1.9,6.1-4.4,11.8-7.7,17.1
		c0,0.1,0,0.1-0.1,0.1H11.4c0,0-0.1-0.1-0.1-0.1c-3.2-5.3-5.8-11-7.6-17c0,0,0,0,0,0c0,0,0,0,0,0H146.3z"/>
	<path class="st2" d="M10.1,79.3L10.1,79.3c0,0.1-0.1,0.2-0.2,0.3c-2.8,2.7-5.5,5.5-8.3,8.3c0,0,0-0.1,0-0.1
		C0.9,83.6,0.5,79.4,0.5,75c0-1.7,0.1-3.3,0.2-5c0,0,0-0.1,0-0.1C3.7,73,6.8,76,9.9,79.1C10,79.2,10,79.3,10.1,79.3z"/>
	<path class="st2" d="M148.4,62.1L148.4,62.1l-146.8,0v0c0,0,0,0,0,0L148.4,62.1C148.4,62.1,148.4,62.1,148.4,62.1z"/>
	<path class="st2" d="M146.3,96.5C146.3,96.6,146.3,96.6,146.3,96.5C146.3,96.6,146.3,96.6,146.3,96.5L3.7,96.6c0,0,0,0,0,0
		c0,0,0,0,0,0H146.3z"/>
	<path class="st3" d="M90.2,66.5c0.3,1.2,0.6,2.4,1,3.6c0.4,1.6,0.9,3.3,1.3,4.9c0.1,0.3,0.2,0.2,0.4,0.2c1.8-0.5,3.6-1,5.5-1.5
		c0.9-0.2,1.8-0.5,2.7-0.7c0.1,0,0.1,0,0.2,0c0,0.2-0.2,0.2-0.3,0.3c-1.9,1.9-3.9,3.9-5.8,5.8c-0.2,0.2-0.2,0.3,0,0.5
		c2,2,4.1,4.1,6.1,6.1c-0.6,0-1.1-0.2-1.6-0.4c-1.6-0.4-3.3-0.9-4.9-1.3c-0.7-0.2-1.4-0.4-2.1-0.6c-0.2-0.1-0.2,0.1-0.3,0.2
		c-0.5,1.9-1,3.8-1.5,5.7c-0.2,0.9-0.5,1.8-0.8,2.8c-0.3-0.9-0.5-1.7-0.7-2.5c-0.3-1.2-0.7-2.5-1-3.7c-0.2-0.8-0.4-1.6-0.6-2.3
		c-0.1-0.3-0.2-0.2-0.3-0.2c-0.4,0.1-0.7,0.2-1.1,0.3c-1.2,0.3-2.5,0.7-3.7,1c-1.2,0.3-2.4,0.6-3.7,1c0-0.2,0.1-0.3,0.2-0.4
		c1.9-1.9,3.9-3.9,5.8-5.8c0.2-0.2,0.2-0.3,0-0.5c-1.9-1.9-3.9-3.9-5.8-5.8c-0.1-0.1-0.2-0.2-0.3-0.3c0.3,0,0.6,0.1,0.9,0.2
		c2.5,0.7,5,1.4,7.5,2c0.2,0.1,0.3,0,0.4-0.3c0.4-1.7,0.9-3.3,1.4-5C89.5,68.8,89.8,67.7,90.2,66.5C90.1,66.6,90.1,66.5,90.2,66.5z"
		/>
	<path class="st3" d="M48.8,85.7c0.3-0.3,0.6-0.6,0.9-0.9c1.5-1.5,2.9-2.9,4.4-4.4c0.3-0.3,0.6-0.7,1-1c0.1-0.1,0.1-0.1,0-0.2
		c-0.1-0.1-0.1-0.1-0.2-0.2c-2-2-4-4-6.1-6.1c0.8,0.2,1.5,0.4,2.3,0.6c2.1,0.6,4.2,1.1,6.3,1.7c0.2,0,0.3,0.1,0.3-0.2
		c0.3-1.2,0.7-2.4,1-3.7c0.3-1.3,0.7-2.6,1-3.9c0.1-0.3,0.1-0.6,0.3-0.9c0.2,0.9,0.5,1.8,0.7,2.7c0.5,1.9,1,3.8,1.5,5.7
		c0.1,0.3,0.2,0.3,0.4,0.2c2.7-0.7,5.4-1.5,8.1-2.2c0.1,0,0.1,0,0.2,0c0,0.2-0.2,0.2-0.3,0.3c-1.9,1.9-3.9,3.9-5.8,5.8
		c-0.2,0.2-0.2,0.3,0,0.5c2,2,4,4,6.1,6.1c0,0,0,0,0,0.1c-0.7-0.1-1.4-0.3-2.1-0.5c-1.2-0.3-2.4-0.7-3.6-1c-0.9-0.2-1.8-0.5-2.7-0.7
		c-0.3-0.1-0.3,0-0.3,0.2c-0.5,2-1.1,4-1.6,6c-0.2,0.8-0.4,1.6-0.7,2.4c-0.3-0.5-0.3-1.1-0.5-1.6c-0.4-1.3-0.7-2.7-1.1-4
		c-0.2-0.9-0.5-1.8-0.7-2.7c-0.1-0.5-0.1-0.5-0.6-0.4c-1.4,0.4-2.7,0.7-4.1,1.1c-1.1,0.3-2.2,0.6-3.3,0.9
		C49.4,85.7,49.2,85.7,48.8,85.7C48.9,85.7,48.8,85.7,48.8,85.7z"/>
	<path class="st3" d="M131.4,73.1c-0.1,0.1-0.2,0.1-0.3,0.2c-1.9,1.9-3.9,3.9-5.8,5.8c-0.2,0.2-0.2,0.4,0,0.6
		c1.9,1.9,3.9,3.9,5.8,5.8c0.1,0.1,0.1,0.2,0.3,0.2c0,0.1-0.1,0.1-0.2,0.1c-1.1-0.3-2.3-0.6-3.4-0.9c-1.5-0.4-3-0.9-4.6-1.2
		c-0.6-0.1-0.6-0.1-0.8,0.6c-0.7,2.6-1.4,5.2-2.1,7.8c0,0,0,0.1-0.1,0.2c-0.2-0.9-0.5-1.7-0.7-2.5c-0.5-1.7-0.9-3.5-1.4-5.2
		c-0.1-0.2-0.2-0.5-0.2-0.7c0-0.3-0.2-0.3-0.4-0.3c-0.8,0.2-1.6,0.4-2.3,0.6c-1.4,0.4-2.8,0.8-4.2,1.1c-0.5,0.1-1,0.3-1.6,0.4
		c-0.1,0-0.3,0-0.2-0.2c0.8-0.8,1.6-1.6,2.4-2.4c1.2-1.2,2.4-2.4,3.5-3.5c0.2-0.2,0.2-0.3,0-0.5c-1.9-1.9-3.9-3.9-5.8-5.8
		c-0.1-0.1-0.2-0.2-0.3-0.3c0.3-0.1,0.4,0,0.6,0.1c2.6,0.7,5.2,1.4,7.8,2.1c0.2,0.1,0.3,0.1,0.4-0.2c0.6-2.2,1.2-4.3,1.8-6.5
		c0.2-0.6,0.4-1.3,0.6-1.9c0.2,0.6,0.3,1.2,0.5,1.8c0.6,2.2,1.2,4.3,1.7,6.5c0.1,0.3,0.2,0.4,0.5,0.3c2.6-0.7,5.3-1.4,7.9-2.1
		c0.1,0,0.2-0.1,0.2-0.1C131.3,72.9,131.4,72.9,131.4,73.1z"/>
	<path class="st3" d="M40.6,85.7c-1.4-0.4-2.9-0.8-4.3-1.2c-1.3-0.3-2.5-0.7-3.8-1c-0.3-0.1-0.3,0-0.4,0.2c-0.5,1.8-1,3.6-1.5,5.4
		c-0.2,0.9-0.5,1.8-0.7,2.7c0,0.1-0.1,0.2-0.1,0.4c-0.2-0.6-0.3-1.2-0.5-1.7c-0.4-1.5-0.8-3-1.2-4.5c-0.2-0.8-0.4-1.5-0.6-2.3
		c-0.1-0.3-0.2-0.3-0.4-0.2c-1.5,0.4-2.9,0.8-4.4,1.2c-1.2,0.3-2.5,0.6-3.7,1c0,0-0.1,0-0.1,0.1c-0.1,0.1-0.2,0-0.2-0.1
		c2.1-2.1,4.2-4.2,6.4-6.3c-2.1-2.1-4.3-4.2-6.4-6.3c0-0.1,0.1-0.1,0.2-0.1c0.9,0.3,1.8,0.5,2.7,0.8c1.8,0.5,3.7,1,5.5,1.5
		c0.3,0.1,0.3,0,0.4-0.2c0.5-2,1.1-4.1,1.6-6.1c0.2-0.8,0.4-1.5,0.7-2.3c0.2,0.6,0.3,1.2,0.5,1.7c0.6,2.2,1.2,4.4,1.8,6.6
		c0.1,0.3,0.1,0.3,0.4,0.3c2.7-0.7,5.4-1.5,8.1-2.2c0.1,0,0.2,0,0.3,0c-2.2,2.1-4.3,4.3-6.4,6.4c2,2,4,4,6,6
		c0.1,0.1,0.2,0.2,0.3,0.3C40.8,85.8,40.6,85.7,40.6,85.7z"/>
	<path class="st4" d="M109.3,85.5c0,0.1,0.1,0.1,0.2,0.2c-0.1,0-0.2,0-0.4,0C109.2,85.6,109.3,85.6,109.3,85.5z"/>
	<path class="st5" d="M40.6,85.7c0.1,0,0.2-0.1,0.2-0.1c0.1,0,0.2,0.1,0.1,0.2c0,0.1-0.1,0-0.2,0C40.7,85.8,40.6,85.8,40.6,85.7z"/>
	<path class="st2" d="M18.9,73c-0.1,0-0.2,0-0.2,0.1c0,0-0.1-0.1-0.1-0.1C18.8,72.9,18.8,72.9,18.9,73z"/>
	<path class="st2" d="M131.4,73.1c0-0.1-0.1-0.1-0.2-0.1c0.1-0.1,0.2-0.1,0.2,0C131.5,73,131.4,73,131.4,73.1z"/>
	<path class="st2" d="M18.7,85.7c0,0.1,0.1,0.1,0.2,0.1c-0.1,0.1-0.2,0.1-0.2,0C18.7,85.8,18.7,85.7,18.7,85.7z"/>
	<path class="st2" d="M131.2,85.8c0.1,0,0.2,0.1,0.2-0.1c0,0,0.1,0.1,0.1,0.1C131.4,85.9,131.3,85.9,131.2,85.8z"/>
</g>
</svg>
