<svg xmlns="http://www.w3.org/2000/svg" viewBox="0 0 23 17.25">
  <defs>
    <style>
      .cls-1 {
        opacity: 0.2;
      }

      .cls-2 {
        fill: #fff;
      }
    </style>
  </defs>
  <g id="envelope" class="cls-1" transform="translate(0 -64)">
    <g id="Group_43" data-name="Group 43" transform="translate(0 64)">
      <g id="Group_42" data-name="Group 42">
        <path id="Path_30" data-name="Path 30" class="cls-2" d="M7.083,65.4c3.157,2.673,8.7,7.377,10.324,8.843a.962.962,0,0,0,1.391,0c1.629-1.468,7.168-6.172,10.325-8.845a.479.479,0,0,0,.067-.661,1.9,1.9,0,0,0-1.5-.738H8.52a1.9,1.9,0,0,0-1.5.738A.479.479,0,0,0,7.083,65.4Z" transform="translate(-6.603 -64)"/>
        <path id="Path_31" data-name="Path 31" class="cls-2" d="M22.722,126.456a.477.477,0,0,0-.511.069c-3.5,2.968-7.969,6.772-9.374,8.038a1.94,1.94,0,0,1-2.675,0c-1.5-1.35-6.516-5.615-9.373-8.037a.479.479,0,0,0-.789.365v12.05a1.919,1.919,0,0,0,1.917,1.917H21.083A1.919,1.919,0,0,0,23,138.941v-12.05A.479.479,0,0,0,22.722,126.456Z" transform="translate(0 -123.608)"/>
      </g>
    </g>
  </g>
</svg>
