<?xml version="1.0" encoding="utf-8"?>
<!-- Generator: Adobe Illustrator 21.0.0, SVG Export Plug-In . SVG Version: 6.00 Build 0)  -->
<svg version="1.1" id="Layer_1" xmlns="http://www.w3.org/2000/svg" xmlns:xlink="http://www.w3.org/1999/xlink" x="0px" y="0px"
	 viewBox="0 0 50 50" style="enable-background:new 0 0 50 50;" xml:space="preserve">
<style type="text/css">
	.st0{fill:#FFFFFF;}
</style>
<g>
	<g>
		<g>
			<path class="st0" d="M23.4,43.1L23.4,43.1C23.4,42.9,23.4,42.9,23.4,43.1C23.4,43,23.4,43,23.4,43.1L23.4,43.1v-0.2l0,0l0,0l0,0
				l0,0l0,0l0,0l0,0l0,0l0,0l-3-2.4c-0.3-0.2-0.6-0.2-0.9,0.1c-0.2,0.3-0.2,0.6,0.1,0.9l1.5,1.1c-3.7-0.4-7.2-2-9.9-4.4
				C8,35.1,6.3,31.2,6.3,27c0-0.3-0.3-0.6-0.6-0.6S5.1,26.7,5.1,27c0,4.5,1.7,8.7,4.9,11.8c2.8,2.8,6.5,4.4,10.7,4.8l-1.3,0.9
				c-0.3,0.2-0.4,0.6-0.2,0.9c0.1,0.2,0.3,0.3,0.5,0.3c0.1,0,0.2,0,0.3-0.1l3.1-2l0,0c0,0,0,0,0.1,0l0,0l0,0l0,0l0,0l0,0l0,0l0,0
				c0,0,0-0.1,0.1-0.1l0,0c0,0,0,0,0-0.1C23.4,43.1,23.4,43.1,23.4,43.1L23.4,43.1L23.4,43.1L23.4,43.1L23.4,43.1z"/>
		</g>
	</g>
	<g>
		<g>
			<path class="st0" d="M28.1,6L28.1,6C28.1,6.2,28.1,6.2,28.1,6C28.1,6.1,28.1,6.1,28.1,6L28.1,6v0.2l0,0l0,0l0,0l0,0l0,0l0,0l0,0
				l0,0l0,0l3,2.4c0.3,0.2,0.6,0.2,0.9-0.1c0.2-0.3,0.2-0.6-0.1-0.9l-1.5-1.1c3.7,0.4,7.2,2,9.9,4.4c3.2,3.1,4.9,7,4.9,11.2
				c0,0.3,0.3,0.6,0.6,0.6s0.6-0.3,0.6-0.6c0-4.5-1.7-8.7-4.9-11.8C38.7,7.5,35,5.9,30.8,5.5l1.3-0.9c0.3-0.2,0.4-0.6,0.2-0.9
				c-0.1-0.2-0.3-0.3-0.5-0.3c-0.1,0-0.2,0-0.3,0.1l-3.1,2l0,0c0,0,0,0-0.1,0l0,0l0,0l0,0l0,0l0,0l0,0l0,0c0,0,0,0.1-0.1,0.1l0,0
				c0,0,0,0,0,0.1C28.1,6,28.1,6,28.1,6L28.1,6L28.1,6L28.1,6L28.1,6z"/>
		</g>
	</g>
	<g>
		<g>
			<path class="st0" d="M15.2,3.5C8.7,3.5,3.5,8.7,3.5,15.2s5.2,11.7,11.7,11.7s11.7-5.2,11.7-11.7S21.6,3.5,15.2,3.5z M15.2,25.6
				c-5.8,0-10.4-4.7-10.4-10.4S9.4,4.7,15.2,4.7s10.4,4.7,10.4,10.4C25.6,20.9,20.9,25.6,15.2,25.6z"/>
		</g>
	</g>
	<g>
		<g>
			<path class="st0" d="M24,16.3c-0.3-0.1-0.6,0.2-0.7,0.5c-0.3,1.6-1.1,3.1-2.2,4.3c-1.5,1.5-3.7,2.5-5.8,2.5s-4.3-0.9-5.8-2.5
				c-1.2-1.2-2.1-2.8-2.3-4.3c-0.1-0.3-0.4-0.5-0.7-0.5C6,16.4,5.8,16.7,5.8,17c0.4,1.8,1.3,3.6,2.7,4.9c1.8,1.8,4.2,2.8,6.8,2.8
				s4.9-1,6.8-2.8c1.3-1.3,2.2-3.1,2.7-4.9C24.6,16.7,24.4,16.3,24,16.3z"/>
		</g>
	</g>
	<g>
		<g>
			<path class="st0" d="M24.4,12.8c-0.4-1.6-1.2-3.2-2.5-4.4c-1.8-1.8-4.2-2.8-6.8-2.8s-4.8,1-6.7,2.8c-1.2,1.2-2.1,2.7-2.5,4.4
				c-0.1,0.3,0.1,0.7,0.4,0.7C6.7,13.6,7,13.4,7,13c0.4-1.4,1.2-2.7,2.2-3.7c1.5-1.5,3.7-2.5,5.8-2.5s4.3,0.9,5.8,2.5
				c1,1,1.8,2.3,2.1,3.8c0.1,0.3,0.3,0.5,0.6,0.5c0,0,0.1,0,0.2,0C24.3,13.4,24.5,13.1,24.4,12.8z"/>
		</g>
	</g>
	<g>
		<g>
			<path class="st0" d="M34.8,23.2c-6.4,0-11.7,5.2-11.7,11.7s5.2,11.6,11.7,11.6s11.7-5.2,11.7-11.7S41.3,23.2,34.8,23.2z
				 M34.8,45.3c-5.8,0-10.4-4.7-10.4-10.4s4.7-10.4,10.4-10.4s10.4,4.7,10.4,10.4S40.6,45.3,34.8,45.3z"/>
		</g>
	</g>
	<g>
		<g>
			<path class="st0" d="M44.2,32.6c-0.4-1.7-1.3-3.3-2.6-4.5c-1.8-1.8-4.2-2.8-6.8-2.8s-4.9,1-6.8,2.8c-1.2,1.2-2.1,2.8-2.6,4.5
				c-0.1,0.3,0.1,0.7,0.4,0.7c0.3,0.1,0.7-0.1,0.7-0.4c0.4-1.5,1.1-2.8,2.1-3.9c1.5-1.5,3.7-2.5,5.8-2.5c2.2,0,4.3,0.9,5.8,2.5
				c1.1,1.1,1.8,2.5,2.2,3.9c0.1,0.3,0.3,0.5,0.6,0.5h0.1C44,33.3,44.3,33,44.2,32.6z"/>
		</g>
	</g>
	<g>
		<g>
			<path class="st0" d="M43.7,36.1c-0.3-0.2-0.7,0.1-0.7,0.5c-0.3,1.6-1.1,3.1-2.2,4.2c-1.5,1.5-3.7,2.5-5.8,2.5s-4.3-0.9-5.8-2.5
				c-1.1-1.1-2-2.6-2.2-4.2c-0.1-0.3-0.4-0.5-0.7-0.5c-0.3,0.1-0.5,0.4-0.5,0.7c0.4,1.8,1.2,3.4,2.6,4.8c1.8,1.8,4.2,2.8,6.8,2.8
				c2.6,0,4.9-1,6.8-2.8c1.3-1.3,2.2-3,2.6-4.8C44.3,36.4,44,36.1,43.7,36.1z"/>
		</g>
	</g>
	<polygon class="st0" points="32.2,35.7 33.2,36.3 33.2,37.3 34.4,38 34.4,35.5 32.2,34.3 	"/>
	<polygon class="st0" points="33.2,39.1 30.7,37.7 30.7,34.8 31.7,35.4 31.7,34 29.5,32.7 29.5,38.4 34.4,41.2 34.4,38.4 33.2,37.7 
			"/>
	<polygon class="st0" points="35.2,38 36.4,37.3 36.4,36.3 37.4,35.7 37.4,34.3 35.2,35.5 	"/>
	<polygon class="st0" points="37.9,34 37.9,35.4 38.9,34.8 38.9,37.7 36.4,39.1 36.4,37.7 35.2,38.4 35.2,41.2 40.2,38.4 40.2,32.7 
			"/>
	<path class="st0" d="M33.2,32.5L32.3,32l0.6-0.3c-0.3-0.3-0.5-0.6-0.6-1l-2.4,1.4l2,1.2L33.2,32.5z"/>
	<path class="st0" d="M37.7,33.2l2-1.2l-2.4-1.4c-0.2,0.4-0.4,0.8-0.6,1l0.6,0.3l-0.9,0.5L37.7,33.2z"/>
	<polygon class="st0" points="36,32.7 34.8,33.4 33.6,32.7 32.3,33.4 34.8,34.8 37.3,33.4 	"/>
	<g>
		<path class="st0" d="M34.8,28c-1,0-1.9,0.9-1.9,1.9c0,0.7,0.9,1.7,1.4,2.2c0.1,0.1,0.2,0.2,0.3,0.3c0.2,0.2,0.2,0.2,0.2,0.2
			s0.1-0.1,0.2-0.2c0.1-0.1,0.2-0.2,0.3-0.3c0.5-0.6,1.4-1.6,1.4-2.2C36.7,28.8,35.8,28,34.8,28z M34.8,30.6c-0.4,0-0.8-0.3-0.8-0.8
			c0-0.4,0.3-0.8,0.8-0.8c0.4,0,0.8,0.3,0.8,0.8C35.6,30.2,35.2,30.6,34.8,30.6z"/>
	</g>
	<g>
		<path class="st0" d="M12.4,14.8v2.8c0,0.2-0.2,0.4-0.4,0.4h-0.8L11,19.2h1.4c0.1,0,0.2,0,0.4,0s0.3,0,0.4,0V21h1.1v-1.7
			c0.2,0,0.5,0,0.8,0V21h1.1v-1.8c0.4,0,0.7-0.1,1-0.1c0.3-0.1,0.6-0.1,0.8-0.2c0.3-0.1,0.5-0.2,0.7-0.4c0.2-0.2,0.3-0.4,0.4-0.6
			s0.2-0.5,0.2-0.9c0.1-0.6,0-1.1-0.3-1.5c-0.3-0.3-0.7-0.6-1.2-0.7c0.7-0.4,1-0.9,0.9-1.8c0-0.3-0.1-0.6-0.3-0.8
			c-0.1-0.2-0.3-0.4-0.6-0.5c-0.2-0.1-0.5-0.2-0.8-0.3s-0.6-0.1-1-0.2V9.4h-1v1.7c-0.2,0-0.5,0-0.8,0V9.4h-1.1v1.7
			c-0.2,0-0.4,0-0.7,0h-1.5v1.1h0.8c0.4,0,0.6,0.2,0.6,0.5L12.4,14.8 M14.2,12.4c0,0,0.1,0,0.3,0c0.1,0,0.3,0,0.4,0
			c0.1,0,0.2,0,0.4,0s0.3,0,0.4,0.1c0.1,0,0.2,0.1,0.4,0.1c0.1,0.1,0.3,0.1,0.3,0.2c0.1,0.1,0.2,0.2,0.2,0.3
			c0.1,0.1,0.1,0.3,0.1,0.4c0,0.1,0,0.2-0.1,0.4c0,0.1-0.1,0.2-0.2,0.3s-0.2,0.1-0.3,0.2c-0.1,0.1-0.2,0.1-0.3,0.1s-0.3,0.1-0.4,0.1
			c-0.1,0-0.2,0-0.4,0s-0.3,0-0.3,0c-0.1,0-0.2,0-0.3,0s-0.2,0-0.2,0S14.2,12.4,14.2,12.4z M17.1,17.1c0,0.1-0.1,0.2-0.2,0.3
			c-0.1,0.1-0.2,0.1-0.3,0.2c-0.1,0.1-0.2,0.1-0.3,0.1c-0.1,0-0.2,0.1-0.4,0.1c-0.2,0-0.3,0-0.4,0.1c-0.1,0-0.2,0-0.4,0
			s-0.3,0-0.4,0c-0.1,0-0.2,0-0.3,0s-0.2,0-0.3,0v-2.3c0,0,0.1,0,0.3,0s0.3,0,0.4,0s0.3,0,0.5,0s0.4,0,0.5,0.1
			c0.1,0,0.3,0.1,0.5,0.1c0.2,0.1,0.3,0.1,0.4,0.2c0.1,0.1,0.2,0.2,0.3,0.3c0.1,0.1,0.1,0.3,0.1,0.4C17.2,16.9,17.2,17,17.1,17.1z"
			/>
	</g>
</g>
</svg>
