<?xml version="1.0" encoding="utf-8"?>
<!-- Generator: Adobe Illustrator 21.0.0, SVG Export Plug-In . SVG Version: 6.00 Build 0)  -->
<svg version="1.1" id="Layer_1" xmlns="http://www.w3.org/2000/svg" xmlns:xlink="http://www.w3.org/1999/xlink" x="0px" y="0px"
	 viewBox="0 0 50 50" style="enable-background:new 0 0 50 50;" xml:space="preserve">
<style type="text/css">
	.st0{fill:#FFFFFF;}
</style>
<g>
	<g>
		<g>
			<path class="st0" d="M22.9,13.6c-2.3,0-4.1,1.9-4.1,4.1v2.9c0,2.3,1.9,4.1,4.1,4.1s4.1-1.9,4.1-4.1v-2.9
				C27.2,15.4,25.3,13.6,22.9,13.6z M22.9,23.2c-1.4,0-2.6-1-2.7-2.5c0.7,0.6,1.6,0.9,2.7,0.9s2-0.4,2.7-0.9
				C25.5,22.2,24.4,23.2,22.9,23.2z M22.9,20.4c-1.4,0-2.7-1.2-2.7-2.7s1.2-2.7,2.7-2.7s2.7,1.2,2.7,2.7S24.5,20.4,22.9,20.4z"/>
		</g>
	</g>
	<g>
		<g>
			<path class="st0" d="M36.1,4.8c-3.6,0-6.6,3-6.6,6.6v2.9l0,0c0,3.6,3,6.6,6.6,6.6s6.6-3,6.6-6.6l0,0v-2.9
				C42.7,7.7,39.7,4.8,36.1,4.8z M36.1,19.4c-2.4,0-4.3-1.5-4.9-3.7c1.2,1.3,3,2.2,4.9,2.2s3.7-0.8,4.9-2.2
				C40.5,17.9,38.5,19.4,36.1,19.4z M36.1,16.4c-2.8,0-5.2-2.3-5.2-5.2S33.2,6,36.1,6s5.2,2.3,5.2,5.2S39,16.4,36.1,16.4z"/>
		</g>
	</g>
	<g>
		<g>
			<path class="st0" d="M49.5,29.5c-1-1.8-3.2-2.4-4.9-1.3c-0.3,0.2-4.3,2.2-7.7,3.5c-0.4,0.2-0.5,0.6-0.4,0.9
				c0.2,0.4,0.6,0.5,0.9,0.4c3.5-1.4,7.7-3.6,7.8-3.6l0,0c1-0.6,2.4-0.2,3,0.8c0.7,1.2-0.4,2.6-0.9,3.1
				c-3.6,2.9-13.7,10.4-17.1,10.4c-3.7,0-14.2-2.3-16.8-2.8V29c5.1-0.7,7.8,0.2,13.5,2.2c1.8,0.6,3.7,1.2,6.1,2.1
				c0.3,0.2,1.3,0.7,0.9,2c-0.2,0.7-0.9,1.4-2.1,1.2c-1.4-0.3-9.9-1.4-10.3-1.4c-0.4-0.1-0.7,0.2-0.8,0.6c-0.1,0.4,0.2,0.7,0.6,0.8
				c0.1,0,8.8,1.2,10.2,1.4c0.2,0,0.4,0.1,0.6,0.1c1.5,0,2.7-1.1,3.1-2.4c0.4-1.3,0-3-1.9-3.7l0,0l0,0l0,0l0,0
				c-2.4-0.7-4.3-1.4-6.1-2.1c-5.7-2-8.7-3-13.9-2.3V27c0-0.4-0.3-0.7-0.7-0.7h-2.2v-0.7c0-0.4-0.3-0.7-0.7-0.7h-9
				c-0.4,0-0.7,0.3-0.7,0.7v16.1c0,0.4,0.3,0.7,0.7,0.7s0.7-0.3,0.7-0.7V26.2H9v17.5H7.6V43c0-0.4-0.3-0.7-0.7-0.7
				c-0.4,0-0.7,0.3-0.7,0.7v0.7H0.8c-0.4,0-0.7,0.3-0.7,0.7s0.3,0.7,0.7,0.7h9.1c0.4,0,0.7-0.3,0.7-0.7v-0.7h2.2
				c0.4,0,0.7-0.3,0.7-0.7v-0.5c3.1,0.6,13,2.8,16.8,2.8c2,0,5.6-1.8,10.8-5.5c3.8-2.7,7.1-5.4,7.2-5.4c0,0,0,0,0.1,0
				C50,32.8,50.5,31,49.5,29.5z M12,41.5L12,41.5v0.7h-1.4l0,0V27.7H12V41.5L12,41.5z"/>
		</g>
	</g>
	<g>
		<path class="st0" d="M38.7,11.2c-0.2-0.2-0.5-0.4-0.8-0.5c0.5-0.2,0.7-0.6,0.6-1.2c0-0.2-0.1-0.4-0.2-0.5
			c-0.1-0.2-0.2-0.3-0.4-0.4c-0.2-0.1-0.3-0.2-0.5-0.2S37,8.3,36.7,8.3V7.1H36v1.2c-0.1,0-0.3,0-0.6,0V7.1h-0.7v1.2
			c-0.1,0-0.3,0-0.5,0h-1v0.8h0.5c0.2,0,0.4,0.1,0.4,0.3v1.4h0.1h-0.1v1.9c0,0.2-0.1,0.2-0.3,0.2h-0.5l-0.1,0.9h0.9
			c0.1,0,0.1,0,0.3,0c0.1,0,0.2,0,0.3,0V15h0.7v-1.2c0.1,0,0.3,0,0.6,0V15h0.7v-1.2c0.3,0,0.5,0,0.7-0.1c0.2,0,0.4-0.1,0.6-0.2
			c0.2-0.1,0.3-0.2,0.5-0.3c0.1-0.1,0.2-0.2,0.3-0.4s0.1-0.4,0.2-0.6C39,11.8,38.9,11.5,38.7,11.2z M35.5,9.1c0,0,0.1,0,0.2,0
			c0.1,0,0.2,0,0.3,0s0.2,0,0.3,0s0.2,0,0.3,0s0.2,0,0.3,0.1c0.1,0,0.2,0.1,0.2,0.1c-0.1,0.1-0.1,0.2,0,0.3c0,0.1,0.1,0.2,0.1,0.3
			s0,0.2,0,0.2c0,0.1-0.1,0.1-0.1,0.2c-0.1,0-0.1,0.1-0.2,0.1c-0.1,0-0.1,0.1-0.2,0.1c-0.1,0-0.2,0-0.2,0.1c-0.1,0-0.2,0-0.3,0
			s-0.2,0-0.2,0c-0.1,0-0.1,0-0.2,0c-0.1,0-0.1,0-0.2,0L35.5,9.1L35.5,9.1L35.5,9.1z M37.4,12.3c0,0.1-0.1,0.1-0.1,0.2
			c0,0.1-0.1,0.1-0.2,0.1c-0.1,0-0.2,0.1-0.2,0.1c-0.1,0-0.2,0-0.3,0.1c-0.1,0-0.2,0-0.3,0s-0.2,0-0.3,0s-0.2,0-0.2,0
			c-0.1,0-0.1,0-0.2,0c-0.1,0-0.1,0-0.2,0v-1.6c0,0,0.1,0,0.2,0c0.1,0,0.2,0,0.3,0s0.2,0,0.3,0s0.3,0,0.3,0c0.1,0,0.2,0,0.3,0.1
			c0.1,0,0.2,0.1,0.3,0.1c0.1,0.1,0.1,0.1,0.2,0.2c0,0.1,0.1,0.2,0.1,0.3C37.5,12.2,37.5,12.3,37.4,12.3z"/>
	</g>
	<g>
		<g>
			<path class="st0" d="M23,18h-0.5v1.3h-0.7V16H23c0.7,0,1.1,0.4,1.1,1l0,0C24.2,17.6,23.6,18,23,18z M23.5,16.9
				c0-0.3-0.2-0.4-0.5-0.4h-0.5v0.9H23C23.3,17.4,23.5,17.2,23.5,16.9L23.5,16.9z"/>
		</g>
		<rect x="21" y="16.7" class="st0" width="3.9" height="0.2"/>
		<rect x="21" y="17" class="st0" width="3.9" height="0.2"/>
	</g>
</g>
</svg>
