<svg xmlns="http://www.w3.org/2000/svg" viewBox="0 0 21 22.8">
  <defs>
    <style>
      .cls-1 {
        opacity: 0.2;
      }

      .cls-2 {
        fill: #fff;
      }
    </style>
  </defs>
  <g id="location" class="cls-1" transform="translate(-1.5)">
    <path id="Path_29" data-name="Path 29" class="cls-2" d="M22.5,8.6c0,6.416-7.66,13.652-7.985,13.957a.9.9,0,0,1-1.21.017c-.044-.04-.233-.208-.517-.478C14.516,20.371,20.3,14.177,20.3,8.6A8.608,8.608,0,0,0,12.8.079,8.543,8.543,0,0,1,22.5,8.6Zm-3.8,0c0,6.416-7.66,13.652-7.985,13.957a.9.9,0,0,1-1.21.017c-.327-.288-8-7.147-8-13.975a8.6,8.6,0,0,1,17.2,0Zm-4.5,0a4.1,4.1,0,1,0-4.1,4.1A4.1,4.1,0,0,0,14.2,8.6Z"/>
  </g>
</svg>
