<?xml version="1.0" encoding="utf-8"?>
<!-- Generator: Adobe Illustrator 16.0.0, SVG Export Plug-In . SVG Version: 6.00 Build 0)  -->
<!DOCTYPE svg PUBLIC "-//W3C//DTD SVG 1.1//EN" "http://www.w3.org/Graphics/SVG/1.1/DTD/svg11.dtd">
<svg version="1.1" id="Layer_1" xmlns="http://www.w3.org/2000/svg" xmlns:xlink="http://www.w3.org/1999/xlink" x="0px" y="0px"
	 width="1366px" height="673px" viewBox="0 0 1366 673" enable-background="new 0 0 1366 673" xml:space="preserve">
<g id="Layer_2" display="none">
	<rect display="inline" fill="#0B012C" width="1366" height="673.327"/>
</g>
<g opacity="0.7">
	
		<radialGradient id="SVGID_1_" cx="-679.2759" cy="515.8105" r="286.0964" gradientTransform="matrix(1 0 0 -1 861 680)" gradientUnits="userSpaceOnUse">
		<stop  offset="0.1478" style="stop-color:#082387"/>
		<stop  offset="1" style="stop-color:#082387;stop-opacity:0"/>
	</radialGradient>
	<circle fill="url(#SVGID_1_)" cx="181.724" cy="164.189" r="286.096"/>
</g>
<g opacity="0.4">
	<circle opacity="0.3" fill="#4C7FCF" enable-background="new    " cx="299.218" cy="642.502" r="1.714"/>
	<g opacity="0.3">
		<circle fill="#4C7FCF" cx="393.588" cy="587.863" r="2.332"/>
		<polyline fill="none" stroke="#4C7FCF" stroke-miterlimit="10" points="217.675,520.604 157.66,506.136 157.66,451.651 
			110.469,505.539 110.476,587.863 157.66,560.621 		"/>
		<polyline fill="none" stroke="#4C7FCF" stroke-miterlimit="10" points="204.846,587.863 252.033,615.105 299.217,587.863 
			299.217,642.349 393.588,587.863 315.442,533.08 346.401,451.652 299.217,478.893 204.846,479.571 		"/>
		<polyline fill="none" stroke="#4C7FCF" stroke-miterlimit="10" points="299.217,478.893 266.906,532.53 204.846,479.571 		"/>
		<path fill="none" stroke="#231F20" stroke-miterlimit="10" d="M299.217,587.863"/>
		<polyline fill="none" stroke="#4C7FCF" stroke-miterlimit="10" points="217.675,520.604 204.846,587.863 266.906,532.53 
			299.217,587.863 266.906,532.53 204.846,587.863 		"/>
		<polygon fill="none" stroke="#4C7FCF" stroke-miterlimit="10" points="157.66,560.621 157.66,506.136 110.469,505.539 		"/>
		<line fill="none" stroke="#4C7FCF" stroke-miterlimit="10" x1="204.846" y1="587.863" x2="157.66" y2="615.105"/>
		<path fill="none" stroke="#231F20" stroke-miterlimit="10" d="M157.66,560.621"/>
		<path fill="none" stroke="#231F20" stroke-miterlimit="10" d="M315.442,533.08"/>
		<line fill="none" stroke="#4C7FCF" stroke-miterlimit="10" x1="346.405" y1="615.105" x2="299.217" y2="587.863"/>
		<circle fill="#4C7FCF" cx="204.846" cy="479.571" r="3.708"/>
		<circle fill="#4C7FCF" cx="157.66" cy="451.651" r="2.026"/>
		<circle fill="#4C7FCF" cx="157.66" cy="506.136" r="2.838"/>
		<circle fill="#4C7FCF" cx="157.66" cy="560.621" r="2.799"/>
		<circle fill="#4C7FCF" cx="157.66" cy="615.105" r="2.838"/>
		<circle fill="#4C7FCF" cx="204.846" cy="587.863" r="3.708"/>
		<circle fill="#4C7FCF" cx="217.675" cy="519.757" r="2.943"/>
		<circle fill="#4C7FCF" cx="266.906" cy="532.53" r="2.295"/>
		<circle fill="#4C7FCF" cx="299.217" cy="587.863" r="3.708"/>
		<circle fill="#4C7FCF" cx="299.217" cy="479.571" r="3.708"/>
		<circle fill="#4C7FCF" cx="346.404" cy="451.651" r="2.494"/>
		<circle fill="#4C7FCF" cx="315.443" cy="533.08" r="3.708"/>
		<circle fill="#4C7FCF" cx="346.405" cy="615.105" r="2.447"/>
		<circle fill="#4C7FCF" cx="252.03" cy="615.105" r="1.878"/>
		<circle fill="#4C7FCF" cx="110.648" cy="587.863" r="2.603"/>
		<circle fill="#4C7FCF" cx="110.469" cy="505.837" r="2.581"/>
		<line fill="none" stroke="#4C7FCF" stroke-miterlimit="10" x1="157.66" y1="560.621" x2="157.66" y2="615.105"/>
		<g opacity="0.7">
			
				<radialGradient id="SVGID_2_" cx="-514.5967" cy="228.3477" r="8.4568" gradientTransform="matrix(1 0 0 -1 861 680)" gradientUnits="userSpaceOnUse">
				<stop  offset="0.1478" style="stop-color:#5BEAF0"/>
				<stop  offset="1" style="stop-color:#5BEAF0;stop-opacity:0"/>
			</radialGradient>
			
				<radialGradient id="SVGID_3_" cx="59.4033" cy="251.8477" r="8.9568" gradientTransform="matrix(1 0 0 -1 287 703.5)" gradientUnits="userSpaceOnUse">
				<stop  offset="0.1478" style="stop-color:#082387"/>
				<stop  offset="1" style="stop-color:#082387;stop-opacity:0"/>
			</radialGradient>
			<circle fill="url(#SVGID_2_)" stroke="url(#SVGID_3_)" stroke-miterlimit="10" cx="346.403" cy="451.652" r="8.457"/>
		</g>
		<g opacity="0.7">
			
				<radialGradient id="SVGID_4_" cx="-594.0938" cy="147.4692" r="13.0278" gradientTransform="matrix(1 0 0 -1 861 680)" gradientUnits="userSpaceOnUse">
				<stop  offset="0.1478" style="stop-color:#5BEAF0"/>
				<stop  offset="1" style="stop-color:#5BEAF0;stop-opacity:0"/>
			</radialGradient>
			
				<radialGradient id="SVGID_5_" cx="-20.0938" cy="170.9692" r="13.5278" gradientTransform="matrix(1 0 0 -1 287 703.5)" gradientUnits="userSpaceOnUse">
				<stop  offset="0.1478" style="stop-color:#082387"/>
				<stop  offset="1" style="stop-color:#082387;stop-opacity:0"/>
			</radialGradient>
			<circle fill="url(#SVGID_4_)" stroke="url(#SVGID_5_)" stroke-miterlimit="10" cx="266.906" cy="532.531" r="13.028"/>
		</g>
		<g opacity="0.7">
			
				<radialGradient id="SVGID_6_" cx="-750.3521" cy="92.1367" r="9.3809" gradientTransform="matrix(1 0 0 -1 861 680)" gradientUnits="userSpaceOnUse">
				<stop  offset="0.1478" style="stop-color:#5BEAF0"/>
				<stop  offset="1" style="stop-color:#5BEAF0;stop-opacity:0"/>
			</radialGradient>
			
				<radialGradient id="SVGID_7_" cx="-176.3521" cy="115.6367" r="9.8809" gradientTransform="matrix(1 0 0 -1 287 703.5)" gradientUnits="userSpaceOnUse">
				<stop  offset="0.1478" style="stop-color:#082387"/>
				<stop  offset="1" style="stop-color:#082387;stop-opacity:0"/>
			</radialGradient>
			<circle fill="url(#SVGID_6_)" stroke="url(#SVGID_7_)" stroke-miterlimit="10" cx="110.648" cy="587.863" r="9.381"/>
		</g>
		<g opacity="0.7">
			
				<radialGradient id="SVGID_8_" cx="-514.5947" cy="64.895" r="8.7007" gradientTransform="matrix(1 0 0 -1 861 680)" gradientUnits="userSpaceOnUse">
				<stop  offset="0.1478" style="stop-color:#5BEAF0"/>
				<stop  offset="1" style="stop-color:#5BEAF0;stop-opacity:0"/>
			</radialGradient>
			
				<radialGradient id="SVGID_9_" cx="59.4053" cy="88.395" r="9.2007" gradientTransform="matrix(1 0 0 -1 287 703.5)" gradientUnits="userSpaceOnUse">
				<stop  offset="0.1478" style="stop-color:#082387"/>
				<stop  offset="1" style="stop-color:#082387;stop-opacity:0"/>
			</radialGradient>
			<circle fill="url(#SVGID_8_)" stroke="url(#SVGID_9_)" stroke-miterlimit="10" cx="346.405" cy="615.105" r="8.701"/>
		</g>
		<g opacity="0.7">
			
				<radialGradient id="SVGID_10_" cx="-703.689" cy="228.6768" r="7.8281" gradientTransform="matrix(1 0 0 -1 861 680)" gradientUnits="userSpaceOnUse">
				<stop  offset="0.1478" style="stop-color:#5BEAF0"/>
				<stop  offset="1" style="stop-color:#5BEAF0;stop-opacity:0"/>
			</radialGradient>
			
				<radialGradient id="SVGID_11_" cx="-129.689" cy="252.1768" r="8.3281" gradientTransform="matrix(1 0 0 -1 287 703.5)" gradientUnits="userSpaceOnUse">
				<stop  offset="0.1478" style="stop-color:#082387"/>
				<stop  offset="1" style="stop-color:#082387;stop-opacity:0"/>
			</radialGradient>
			<circle fill="url(#SVGID_10_)" stroke="url(#SVGID_11_)" stroke-miterlimit="10" cx="157.311" cy="451.323" r="7.828"/>
		</g>
	</g>
</g>
<g opacity="0.4">
	<circle opacity="0.3" fill="#4C7FCF" enable-background="new    " cx="1009.298" cy="32.816" r="2.045"/>
	<circle opacity="0.3" fill="#4C7FCF" enable-background="new    " cx="1102.041" cy="32.816" r="2.365"/>
	<circle opacity="0.3" fill="#4C7FCF" enable-background="new    " cx="870.186" cy="166.676" r="1.533"/>
	<g opacity="0.3">
		
			<radialGradient id="SVGID_12_" cx="9.187" cy="513.3242" r="7.5969" gradientTransform="matrix(1 0 0 -1 861 680)" gradientUnits="userSpaceOnUse">
			<stop  offset="0.1478" style="stop-color:#5BEAF0"/>
			<stop  offset="1" style="stop-color:#5BEAF0;stop-opacity:0"/>
		</radialGradient>
		
			<radialGradient id="SVGID_13_" cx="583.187" cy="536.8242" r="8.0969" gradientTransform="matrix(1 0 0 -1 287 703.5)" gradientUnits="userSpaceOnUse">
			<stop  offset="0.1478" style="stop-color:#082387"/>
			<stop  offset="1" style="stop-color:#082387;stop-opacity:0"/>
		</radialGradient>
		<circle fill="url(#SVGID_12_)" stroke="url(#SVGID_13_)" stroke-miterlimit="10" cx="870.188" cy="166.676" r="7.597"/>
	</g>
	<circle opacity="0.5" fill="#4C7FCF" enable-background="new    " cx="1190.364" cy="92.083" r="2.103"/>
	<g>
		<polyline opacity="0.3" fill="none" stroke="#4C7FCF" stroke-miterlimit="10" enable-background="new    " points="
			1055.669,166.676 1009.297,246.993 1009.298,193.448 962.928,220.221 870.188,166.676 916.556,139.905 916.558,86.36 
			962.928,59.587 1009.298,32.816 1009.298,139.905 1055.669,113.131 1102.04,86.359 1102.04,32.816 1190.364,91.791 
			1148.41,166.676 1102.04,139.905 		"/>
		<polyline opacity="0.3" fill="none" stroke="#4C7FCF" stroke-miterlimit="10" enable-background="new    " points="
			962.928,59.587 962.928,113.131 1009.298,32.816 		"/>
		
			<line opacity="0.3" fill="none" stroke="#4C7FCF" stroke-miterlimit="10" enable-background="new    " x1="1009.3" y1="139.905" x2="962.928" y2="166.676"/>
		<polyline opacity="0.3" fill="none" stroke="#4C7FCF" stroke-miterlimit="10" enable-background="new    " points="
			1055.669,113.131 1055.669,166.676 962.928,113.131 962.928,166.676 1009.298,193.448 1055.669,166.676 		"/>
		<polygon opacity="0.3" fill="none" stroke="#4C7FCF" stroke-miterlimit="10" enable-background="new    " points="
			1102.04,139.905 1102.04,86.359 1190.364,91.791 		"/>
		
			<line opacity="0.3" fill="none" stroke="#4C7FCF" stroke-miterlimit="10" enable-background="new    " x1="1055.669" y1="166.676" x2="1102.04" y2="193.447"/>
		<path opacity="0.3" fill="none" stroke="#231F20" stroke-miterlimit="10" enable-background="new    " d="M1102.04,139.905"/>
		<polygon opacity="0.3" fill="none" stroke="#4C7FCF" stroke-miterlimit="10" enable-background="new    " points="
			916.556,139.905 916.556,193.447 962.928,166.676 		"/>
		<circle opacity="0.3" fill="#4C7FCF" enable-background="new    " cx="1102.041" cy="86.359" r="3.033"/>
		<circle opacity="0.3" fill="#4C7FCF" enable-background="new    " cx="1102.041" cy="139.905" r="2.69"/>
		<circle opacity="0.3" fill="#4C7FCF" enable-background="new    " cx="1102.04" cy="193.448" r="2.379"/>
		<circle opacity="0.3" fill="#4C7FCF" enable-background="new    " cx="1055.669" cy="166.676" r="2.69"/>
		<circle opacity="0.3" fill="#4C7FCF" enable-background="new    " cx="1055.669" cy="112.299" r="2.595"/>
		<circle opacity="0.3" fill="#4C7FCF" enable-background="new    " cx="1009.3" cy="139.905" r="2.418"/>
		<circle opacity="0.3" fill="#4C7FCF" enable-background="new    " cx="962.927" cy="113.131" r="1.939"/>
		<circle opacity="0.3" fill="#4C7FCF" enable-background="new    " cx="962.927" cy="60.254" r="2.623"/>
		<circle opacity="0.3" fill="#4C7FCF" enable-background="new    " cx="916.556" cy="86.359" r="2.006"/>
		<circle opacity="0.3" fill="#4C7FCF" enable-background="new    " cx="916.556" cy="140.119" r="2.041"/>
		<circle opacity="0.3" fill="#4C7FCF" enable-background="new    " cx="916.555" cy="193.447" r="2.431"/>
		<circle opacity="0.3" fill="#4C7FCF" enable-background="new    " cx="962.927" cy="166.676" r="2.542"/>
		<circle opacity="0.3" fill="#4C7FCF" enable-background="new    " cx="962.928" cy="220.372" r="2.55"/>
		<circle opacity="0.3" fill="#4C7FCF" enable-background="new    " cx="1009.298" cy="193.447" r="2.111"/>
		<circle opacity="0.3" fill="#4C7FCF" enable-background="new    " cx="1009.3" cy="246.993" r="1.64"/>
		<circle opacity="0.3" fill="#4C7FCF" enable-background="new    " cx="1148.24" cy="166.676" r="1.991"/>
		
			<line opacity="0.3" fill="none" stroke="#4C7FCF" stroke-miterlimit="10" enable-background="new    " x1="1102.04" y1="139.905" x2="1102.04" y2="193.448"/>
		<g opacity="0.3">
			
				<radialGradient id="SVGID_14_" cx="101.9282" cy="619.7461" r="9.6409" gradientTransform="matrix(1 0 0 -1 861 680)" gradientUnits="userSpaceOnUse">
				<stop  offset="0.1478" style="stop-color:#5BEAF0"/>
				<stop  offset="1" style="stop-color:#5BEAF0;stop-opacity:0"/>
			</radialGradient>
			
				<radialGradient id="SVGID_15_" cx="675.9282" cy="643.2461" r="10.1409" gradientTransform="matrix(1 0 0 -1 287 703.5)" gradientUnits="userSpaceOnUse">
				<stop  offset="0.1478" style="stop-color:#082387"/>
				<stop  offset="1" style="stop-color:#082387;stop-opacity:0"/>
			</radialGradient>
			<circle fill="url(#SVGID_14_)" stroke="url(#SVGID_15_)" stroke-miterlimit="10" cx="962.928" cy="60.254" r="9.641"/>
		</g>
		<g opacity="0.3">
			
				<radialGradient id="SVGID_16_" cx="148.3003" cy="539.8828" r="9.8459" gradientTransform="matrix(1 0 0 -1 861 680)" gradientUnits="userSpaceOnUse">
				<stop  offset="0.1478" style="stop-color:#5BEAF0"/>
				<stop  offset="1" style="stop-color:#5BEAF0;stop-opacity:0"/>
			</radialGradient>
			
				<radialGradient id="SVGID_17_" cx="722.3008" cy="563.3828" r="10.3457" gradientTransform="matrix(1 0 0 -1 287 703.5)" gradientUnits="userSpaceOnUse">
				<stop  offset="0.1478" style="stop-color:#082387"/>
				<stop  offset="1" style="stop-color:#082387;stop-opacity:0"/>
			</radialGradient>
			<circle fill="url(#SVGID_16_)" stroke="url(#SVGID_17_)" stroke-miterlimit="10" cx="1009.3" cy="140.118" r="9.846"/>
		</g>
		<g opacity="0.3">
			
				<radialGradient id="SVGID_18_" cx="148.3003" cy="433.0078" r="6.3459" gradientTransform="matrix(1 0 0 -1 861 680)" gradientUnits="userSpaceOnUse">
				<stop  offset="0.1478" style="stop-color:#5BEAF0"/>
				<stop  offset="1" style="stop-color:#5BEAF0;stop-opacity:0"/>
			</radialGradient>
			
				<radialGradient id="SVGID_19_" cx="722.3008" cy="456.5078" r="6.8457" gradientTransform="matrix(1 0 0 -1 287 703.5)" gradientUnits="userSpaceOnUse">
				<stop  offset="0.1478" style="stop-color:#082387"/>
				<stop  offset="1" style="stop-color:#082387;stop-opacity:0"/>
			</radialGradient>
			<circle fill="url(#SVGID_18_)" stroke="url(#SVGID_19_)" stroke-miterlimit="10" cx="1009.3" cy="246.993" r="6.346"/>
		</g>
		<g opacity="0.3">
			
				<radialGradient id="SVGID_20_" cx="241.04" cy="486.5518" r="9.8447" gradientTransform="matrix(1 0 0 -1 861 680)" gradientUnits="userSpaceOnUse">
				<stop  offset="0.1478" style="stop-color:#5BEAF0"/>
				<stop  offset="1" style="stop-color:#5BEAF0;stop-opacity:0"/>
			</radialGradient>
			
				<radialGradient id="SVGID_21_" cx="815.04" cy="510.0518" r="10.3447" gradientTransform="matrix(1 0 0 -1 287 703.5)" gradientUnits="userSpaceOnUse">
				<stop  offset="0.1478" style="stop-color:#082387"/>
				<stop  offset="1" style="stop-color:#082387;stop-opacity:0"/>
			</radialGradient>
			<circle fill="url(#SVGID_20_)" stroke="url(#SVGID_21_)" stroke-miterlimit="10" cx="1102.04" cy="193.448" r="9.845"/>
		</g>
		<g opacity="0.5">
			
				<radialGradient id="SVGID_22_" cx="329.3643" cy="587.917" r="8.6191" gradientTransform="matrix(1 0 0 -1 861 680)" gradientUnits="userSpaceOnUse">
				<stop  offset="0.1478" style="stop-color:#5BEAF0"/>
				<stop  offset="1" style="stop-color:#5BEAF0;stop-opacity:0"/>
			</radialGradient>
			
				<radialGradient id="SVGID_23_" cx="903.3643" cy="611.417" r="9.1191" gradientTransform="matrix(1 0 0 -1 287 703.5)" gradientUnits="userSpaceOnUse">
				<stop  offset="0.1478" style="stop-color:#082387"/>
				<stop  offset="1" style="stop-color:#082387;stop-opacity:0"/>
			</radialGradient>
			<circle fill="url(#SVGID_22_)" stroke="url(#SVGID_23_)" stroke-miterlimit="10" cx="1190.364" cy="92.083" r="8.619"/>
		</g>
	</g>
</g>
<g opacity="0.3">
	<g opacity="0.3">
		
			<radialGradient id="SVGID_24_" cx="119.3921" cy="105.6421" r="9.8452" gradientTransform="matrix(1 0 0 -1 861 680)" gradientUnits="userSpaceOnUse">
			<stop  offset="0.1478" style="stop-color:#5BEAF0"/>
			<stop  offset="1" style="stop-color:#5BEAF0;stop-opacity:0"/>
		</radialGradient>
		
			<radialGradient id="SVGID_25_" cx="693.3926" cy="129.1421" r="10.345" gradientTransform="matrix(1 0 0 -1 287 703.5)" gradientUnits="userSpaceOnUse">
			<stop  offset="0.1478" style="stop-color:#082387"/>
			<stop  offset="1" style="stop-color:#082387;stop-opacity:0"/>
		</radialGradient>
		<circle fill="url(#SVGID_24_)" stroke="url(#SVGID_25_)" stroke-miterlimit="10" cx="980.393" cy="574.358" r="9.845"/>
	</g>
	<g opacity="0.3">
		
			<radialGradient id="SVGID_26_" cx="209.1528" cy="56.5405" r="14.3457" gradientTransform="matrix(1 0 0 -1 861 680)" gradientUnits="userSpaceOnUse">
			<stop  offset="0.1478" style="stop-color:#5BEAF0"/>
			<stop  offset="1" style="stop-color:#5BEAF0;stop-opacity:0"/>
		</radialGradient>
		
			<radialGradient id="SVGID_27_" cx="783.1523" cy="80.0405" r="14.8459" gradientTransform="matrix(1 0 0 -1 287 703.5)" gradientUnits="userSpaceOnUse">
			<stop  offset="0.1478" style="stop-color:#082387"/>
			<stop  offset="1" style="stop-color:#082387;stop-opacity:0"/>
		</radialGradient>
		<path fill="url(#SVGID_26_)" stroke="url(#SVGID_27_)" stroke-miterlimit="10" d="M1070.153,609.114
			c7.924,0,14.346,6.422,14.346,14.348c0,7.92-6.422,14.343-14.346,14.343c-7.923,0-14.347-6.423-14.347-14.343
			C1055.808,615.536,1062.23,609.114,1070.153,609.114z"/>
	</g>
	<g opacity="0.3">
		
			<radialGradient id="SVGID_28_" cx="407.187" cy="54.1333" r="14.3457" gradientTransform="matrix(1 0 0 -1 861 680)" gradientUnits="userSpaceOnUse">
			<stop  offset="0.1478" style="stop-color:#5BEAF0"/>
			<stop  offset="1" style="stop-color:#5BEAF0;stop-opacity:0"/>
		</radialGradient>
		
			<radialGradient id="SVGID_29_" cx="981.1875" cy="77.6333" r="14.8455" gradientTransform="matrix(1 0 0 -1 287 703.5)" gradientUnits="userSpaceOnUse">
			<stop  offset="0.1478" style="stop-color:#082387"/>
			<stop  offset="1" style="stop-color:#082387;stop-opacity:0"/>
		</radialGradient>
		<path fill="url(#SVGID_28_)" stroke="url(#SVGID_29_)" stroke-miterlimit="10" d="M1268.188,611.521
			c7.924,0,14.346,6.422,14.346,14.348c0,7.92-6.422,14.343-14.346,14.343s-14.347-6.423-14.347-14.343
			C1253.841,617.942,1260.264,611.521,1268.188,611.521z"/>
	</g>
	<g opacity="0.3">
		
			<radialGradient id="SVGID_30_" cx="404.9121" cy="194.3765" r="14.3455" gradientTransform="matrix(1 0 0 -1 861 680)" gradientUnits="userSpaceOnUse">
			<stop  offset="0.1478" style="stop-color:#5BEAF0"/>
			<stop  offset="1" style="stop-color:#5BEAF0;stop-opacity:0"/>
		</radialGradient>
		
			<radialGradient id="SVGID_31_" cx="978.9121" cy="217.8765" r="14.8455" gradientTransform="matrix(1 0 0 -1 287 703.5)" gradientUnits="userSpaceOnUse">
			<stop  offset="0.1478" style="stop-color:#082387"/>
			<stop  offset="1" style="stop-color:#082387;stop-opacity:0"/>
		</radialGradient>
		<path fill="url(#SVGID_30_)" stroke="url(#SVGID_31_)" stroke-miterlimit="10" d="M1265.912,471.278
			c7.924,0,14.346,6.422,14.346,14.348c0,7.92-6.422,14.343-14.346,14.343c-7.923,0-14.346-6.423-14.346-14.343
			C1251.566,477.7,1257.989,471.278,1265.912,471.278z"/>
	</g>
	<g opacity="0.3">
		
			<radialGradient id="SVGID_32_" cx="462.3501" cy="281.1616" r="14.3457" gradientTransform="matrix(1 0 0 -1 861 680)" gradientUnits="userSpaceOnUse">
			<stop  offset="0.1478" style="stop-color:#5BEAF0"/>
			<stop  offset="1" style="stop-color:#5BEAF0;stop-opacity:0"/>
		</radialGradient>
		
			<radialGradient id="SVGID_33_" cx="1036.3496" cy="304.6616" r="14.8459" gradientTransform="matrix(1 0 0 -1 287 703.5)" gradientUnits="userSpaceOnUse">
			<stop  offset="0.1478" style="stop-color:#082387"/>
			<stop  offset="1" style="stop-color:#082387;stop-opacity:0"/>
		</radialGradient>
		<path fill="url(#SVGID_32_)" stroke="url(#SVGID_33_)" stroke-miterlimit="10" d="M1323.35,384.493
			c7.924,0,14.347,6.422,14.347,14.348c0,7.92-6.423,14.343-14.347,14.343c-7.923,0-14.346-6.423-14.346-14.343
			C1309.004,390.915,1315.427,384.493,1323.35,384.493z"/>
	</g>
	<g opacity="0.3">
		<polygon fill="none" stroke="#4C7FCF" stroke-miterlimit="10" points="1373.149,657.943 1373.149,657.632 1321.14,651.045 
			1320.964,651.021 1321.367,673.327 1321.675,673.327 1321.279,651.373 		"/>
	</g>
	<g opacity="0.3">
		<path fill="none" stroke="#4C7FCF" stroke-miterlimit="10" d="M1321.056,651.337l-53.229-25.044l-0.024-0.036l-32.466-49.327
			l0.229-0.2l85.653,74.353L1321.056,651.337z M1268.034,626.054l52.146,24.532l-83.973-72.894L1268.034,626.054z"/>
	</g>
	<g opacity="0.3">
		<polygon fill="none" stroke="#4C7FCF" stroke-miterlimit="10" points="1252.263,673.327 1253.729,667.808 1259.563,673.327 
			1260.009,673.327 1253.566,667.229 1251.944,673.327 		"/>
	</g>
	<g opacity="0.3">
		<polygon fill="none" stroke="#4C7FCF" stroke-miterlimit="10" points="1205.146,673.327 1194.362,657.532 1253.458,667.64 
			1251.944,673.327 1252.263,673.327 1253.798,667.556 1253.843,667.392 1194.055,657.164 1193.694,657.104 1204.771,673.327 		"/>
	</g>
	<g opacity="0.3">
		<polygon fill="none" stroke="#4C7FCF" stroke-miterlimit="10" points="1094.671,673.327 1099.771,619.063 1193.655,657.332 
			1161.253,673.327 1161.948,673.327 1194.099,657.456 1194.402,657.304 1099.695,618.699 1099.503,618.624 1094.36,673.327 		"/>
	</g>
	<g opacity="0.3">
		<polygon fill="none" stroke="#4C7FCF" stroke-miterlimit="10" points="1015.888,673.327 1070.067,623.56 1082.449,673.327 
			1082.77,673.327 1070.243,622.979 1015.432,673.327 		"/>
	</g>
	<g opacity="0.3">
		<path fill="none" stroke="#4C7FCF" stroke-miterlimit="10" d="M961.344,628.56l-0.154-0.071l-57.396-27.445l77.082-26.123
			l-0.111,0.3L961.344,628.56z M904.61,601.09l56.562,27.046l19.192-52.717L904.61,601.09z"/>
	</g>
	<g opacity="0.3">
		<polygon fill="none" stroke="#4C7FCF" stroke-miterlimit="10" points="1373.149,657.632 1321.188,651.053 1236.568,577.597 
			1373.149,649.351 1373.149,649.003 1235.537,576.71 1235.365,576.961 1321.02,651.313 1321.056,651.345 1373.149,657.943 		"/>
	</g>
	<g opacity="0.3">
		<polygon fill="none" stroke="#4C7FCF" stroke-miterlimit="10" points="1260.009,673.327 1253.962,667.6 1320.972,651.393 
			1321.367,673.327 1321.675,673.327 1321.275,651.197 1321.271,651.005 1253.339,667.432 1259.563,673.327 		"/>
	</g>
	<g opacity="0.3">
		<path fill="none" stroke="#4C7FCF" stroke-miterlimit="10" d="M1253.411,667.731l14.428-41.771l0.156,0.071l53.588,25.212
			l-0.428,0.104L1253.411,667.731z M1268.02,626.385l-14.134,40.915l66.773-16.146L1268.02,626.385z"/>
	</g>
	<g opacity="0.3">
		<polygon fill="none" stroke="#4C7FCF" stroke-miterlimit="10" points="1187.899,673.327 1194.067,657.644 1204.771,673.327 
			1205.142,673.327 1194.155,657.232 1193.991,656.988 1187.567,673.327 		"/>
	</g>
	<g opacity="0.3">
		<path fill="none" stroke="#4C7FCF" stroke-miterlimit="10" d="M1253.755,667.691l-0.133-0.023l-60.14-10.288l74.703-31.481
			L1253.755,667.691z M1194.574,657.252l58.972,10.092l14.125-40.895L1194.574,657.252z"/>
	</g>
	<g opacity="0.3">
		<path fill="none" stroke="#4C7FCF" stroke-miterlimit="10" d="M1193.694,657.624l0.195-0.376l41.56-80.71l0.144,0.224
			l32.57,49.483l-0.172,0.072L1193.694,657.624z M1235.48,577.149l-41.123,79.858l73.341-30.902L1235.48,577.149z"/>
	</g>
	<g opacity="0.3">
		<path fill="none" stroke="#4C7FCF" stroke-miterlimit="10" d="M1194.298,657.592l-0.327-0.132l-94.587-38.553l0.136-0.164
			l55.313-65.498L1194.298,657.592z M1099.892,618.779l93.867,38.261l-39.032-103.196L1099.892,618.779z"/>
	</g>
	<g opacity="0.3">
		<polygon fill="none" stroke="#4C7FCF" stroke-miterlimit="10" points="1161.948,673.327 1193.739,657.632 1187.567,673.327 
			1187.899,673.327 1194.171,657.372 1194.318,657 1161.253,673.327 		"/>
	</g>
	<g opacity="0.3">
		<path fill="none" stroke="#4C7FCF" stroke-miterlimit="10" d="M1099.46,619.295l0.022-0.46l5.053-89.415l0.204,0.096
			l50.286,23.978L1099.46,619.295z M1104.814,529.896l-4.995,88.495l54.715-64.791L1104.814,529.896z"/>
	</g>
	<g opacity="0.3">
		<polygon fill="none" stroke="#4C7FCF" stroke-miterlimit="10" points="1082.77,673.327 1070.347,623.396 1099.468,619.027 
			1094.36,673.327 1094.671,673.327 1099.813,618.663 1070.132,623.116 1069.964,623.14 1082.449,673.327 		"/>
	</g>
	<g opacity="0.3">
		<path fill="none" stroke="#4C7FCF" stroke-miterlimit="10" d="M1069.919,623.46l34.608-93.856l0.3,0.062l-5.044,89.312
			l-0.124,0.021L1069.919,623.46z M1104.464,530.675l-34.076,92.401l29.104-4.364L1104.464,530.675z"/>
	</g>
	<g opacity="0.3">
		<polygon fill="none" stroke="#4C7FCF" stroke-miterlimit="10" points="1010.819,673.327 961.636,628.483 1069.739,623.443 
			1015.432,673.327 1015.888,673.327 1070.259,623.384 1070.571,623.096 961.252,628.191 960.876,628.212 1010.364,673.327 		"/>
	</g>
	<g opacity="0.3">
		<path fill="none" stroke="#4C7FCF" stroke-miterlimit="10" d="M961.032,628.512l19.504-53.563l0.156,0.084l90.025,48.364
			l-0.556,0.027L961.032,628.512z M980.704,575.387l-19.222,52.797l108.104-5.044L980.704,575.387z"/>
	</g>
	<g opacity="0.3">
		<path fill="none" stroke="#4C7FCF" stroke-miterlimit="10" d="M1070.388,623.571l-0.305-0.168l-89.691-48.186l0.102-0.14
			l57.394-79.8L1070.388,623.571z M980.848,575.115l89.071,47.853l-32.174-126.969L980.848,575.115z"/>
	</g>
	<g opacity="0.3">
		<polygon fill="none" stroke="#4C7FCF" stroke-miterlimit="10" points="945.833,673.327 961.323,628.619 1010.364,673.327 
			1010.819,673.327 961.36,628.231 961.188,628.076 945.505,673.327 		"/>
	</g>
	<g opacity="0.3">
		<polygon fill="none" stroke="#4C7FCF" stroke-miterlimit="10" points="883.347,673.327 960.977,628.688 945.505,673.327 
			945.833,673.327 961.54,628.008 882.729,673.327 		"/>
	</g>
	<g opacity="0.3">
		<path fill="none" stroke="#4C7FCF" stroke-miterlimit="10" d="M980.572,575.499l-0.098-0.28l-32.541-94.016l90.15,14.324
			L980.572,575.499z M948.39,481.591l32.278,93.244l56.874-79.084L948.39,481.591z"/>
	</g>
	<g opacity="0.3">
		<path fill="none" stroke="#4C7FCF" stroke-miterlimit="10" d="M980.5,575.267l-53.784-64.398l21.498-29.8l0.097,0.278
			l32.454,93.772L980.5,575.267z M927.104,510.851l53.098,63.572l-32.086-92.691L927.104,510.851z"/>
	</g>
	<g opacity="0.3">
		<polyline fill="none" stroke="#4C7FCF" stroke-miterlimit="10" points="904.278,601.273 960.924,628.359 882.729,673.327 
			883.347,673.327 961.331,628.479 961.587,628.336 904.271,600.926 904.13,600.858 		"/>
	</g>
	<g opacity="0.3">
		<path fill="none" stroke="#4C7FCF" stroke-miterlimit="10" d="M903.986,601.302l0.066-0.271l22.782-90.503l0.196,0.23
			l53.852,64.484l-0.216,0.071L903.986,601.302z M926.982,511.19l-22.562,89.64l75.935-25.735L926.982,511.19z"/>
	</g>
	<g opacity="0.3">
		<g>
			<polygon fill="none" stroke="#4C7FCF" stroke-miterlimit="10" points="1373.149,362.813 1322.931,398.966 1154.61,404.877 
				1373.149,345.273 1373.149,344.954 1153.248,404.929 1153.292,405.233 1322.985,399.273 1323.034,399.27 1373.149,363.19 			"/>
		</g>
		<g>
			<polygon fill="none" stroke="#4C7FCF" stroke-miterlimit="10" points="1373.149,450.852 1323.214,399.142 1373.149,363.19 
				1373.149,362.813 1322.89,398.998 1322.746,399.102 1373.149,451.292 			"/>
		</g>
		<g>
			<path fill="none" stroke="#4C7FCF" stroke-miterlimit="10" d="M1239.188,426.144l-0.041-0.008l-85.895-20.911l0.032-0.304
				l169.688-5.955l0.058,0.304L1239.188,426.144z M1154.411,405.192l84.768,20.632l82.696-26.512L1154.411,405.192z"/>
		</g>
		<g>
			<polygon fill="none" stroke="#4C7FCF" stroke-miterlimit="10" points="1373.149,601.21 1306.46,561.71 1373.149,512.686 
				1373.149,512.302 1306.088,561.598 1305.899,561.737 1373.149,601.569 			"/>
		</g>
		<g>
			<polygon fill="none" stroke="#4C7FCF" stroke-miterlimit="10" points="1373.149,486.559 1266.005,485.695 1323.002,399.366 
				1373.149,451.292 1373.149,450.852 1323.09,399.014 1322.958,398.874 1265.589,485.76 1265.433,485.999 1373.149,486.87 			"/>
		</g>
		<g>
			<polygon fill="none" stroke="#4C7FCF" stroke-miterlimit="10" points="1373.149,512.302 1306.23,561.494 1265.976,486.003 
				1373.149,486.87 1373.149,486.559 1265.721,485.691 1265.46,485.688 1306.044,561.794 1306.128,561.953 1373.149,512.686 			"/>
		</g>
		<g>
			<polygon fill="none" stroke="#4C7FCF" stroke-miterlimit="10" points="1373.149,618.632 1330.112,673.327 1330.504,673.327 
				1373.149,619.131 			"/>
		</g>
		<g>
			<path fill="none" stroke="#4C7FCF" stroke-miterlimit="10" d="M1265.692,486.167l-0.115-0.256l-26.607-60.021l84.38-27.054
				l-0.238,0.368L1265.692,486.167z M1239.395,426.08l26.352,59.447l56.865-86.131L1239.395,426.08z"/>
		</g>
		<g>
			<polygon fill="none" stroke="#4C7FCF" stroke-miterlimit="10" points="1373.149,601.569 1373.149,601.21 1306.26,561.59 
				1305.96,561.414 1328.462,673.327 1328.773,673.327 1306.399,562.029 			"/>
			<polygon fill="none" stroke="#4C7FCF" stroke-miterlimit="10" points="1373.149,618.632 1330.112,673.327 1330.504,673.327 
				1373.149,619.131 			"/>
		</g>
		<g>
			<polygon fill="none" stroke="#4C7FCF" stroke-miterlimit="10" points="1321.831,673.327 1237.352,654.942 1306.1,562.094 
				1328.462,673.327 1328.773,673.327 1306.331,561.689 1306.264,561.35 1236.964,654.95 1236.819,655.142 1320.38,673.327 			"/>
		</g>
		<g>
			<path fill="none" stroke="#4C7FCF" stroke-miterlimit="10" d="M1306.476,561.945l-0.327-0.071l-116.533-26.287l0.304-0.2
				l75.854-49.763l0.079,0.151L1306.476,561.945z M1190.39,535.443l115.498,26.055l-40.227-75.431L1190.39,535.443z"/>
		</g>
		<g>
			<path fill="none" stroke="#4C7FCF" stroke-miterlimit="10" d="M1237.044,655.357l-0.1-0.261l-47.194-119.799l0.284,0.064
				l116.409,26.259l-0.141,0.19L1237.044,655.357z M1190.25,535.73l46.878,118.995l68.788-92.904L1190.25,535.73z"/>
		</g>
		<g>
			<polygon fill="none" stroke="#4C7FCF" stroke-miterlimit="10" points="1236.686,673.327 1237.235,655.229 1320.38,673.327 
				1321.831,673.327 1237.12,654.89 1236.938,654.851 1236.376,673.327 			"/>
		</g>
		<g>
			<path fill="none" stroke="#4C7FCF" stroke-miterlimit="10" d="M1189.646,535.935l0.216-0.482l49.319-109.843l26.729,60.295
				l-0.112,0.071L1189.646,535.935z M1239.183,426.364l-48.823,108.73l75.166-49.305L1239.183,426.364z"/>
		</g>
		<g>
			<path fill="none" stroke="#4C7FCF" stroke-miterlimit="10" d="M1189.97,535.967l-0.114-0.412l-36.787-130.688l86.33,21.015
				l-0.076,0.168L1189.97,535.967z M1153.508,405.289l36.526,129.773l48.932-108.972L1153.508,405.289z"/>
		</g>
		<g>
			<polygon fill="none" stroke="#4C7FCF" stroke-miterlimit="10" points="1111.938,673.327 1047.598,589.759 1189.734,535.778 
				1137.604,673.327 1137.933,673.327 1190.146,535.571 1190.266,535.247 1047.294,589.547 1047.099,589.619 1111.546,673.327 			
				"/>
		</g>
		<g>
			<path fill="none" stroke="#4C7FCF" stroke-miterlimit="10" d="M1047.206,589.911l-0.012-0.212l-6.231-128.064l0.235,0.12
				l149.188,73.78L1047.206,589.911z M1041.299,462.146l6.194,127.324l142.121-53.977L1041.299,462.146z"/>
		</g>
		<g>
			<polygon fill="none" stroke="#4C7FCF" stroke-miterlimit="10" points="1137.933,673.327 1190.006,535.942 1236.884,654.954 
				1188.459,673.327 1189.327,673.327 1237.14,655.186 1237.288,655.13 1189.998,535.087 1137.604,673.327 			"/>
		</g>
		<g>
			<polygon fill="none" stroke="#4C7FCF" stroke-miterlimit="10" points="1189.327,673.327 1236.924,655.266 1236.376,673.327 
				1236.686,673.327 1237.239,655.046 1237.247,654.814 1188.459,673.327 			"/>
		</g>
		<g>
			<path fill="none" stroke="#4C7FCF" stroke-miterlimit="10" d="M1047.526,590.143l-0.298-0.352l-85.625-103.017l0.22-0.072
				l79.451-25.021l0.008,0.2L1047.526,590.143z M962.136,486.931l85.034,102.306l-6.183-127.138L962.136,486.931z"/>
		</g>
		<g>
			<polygon fill="none" stroke="#4C7FCF" stroke-miterlimit="10" points="1015.919,673.327 1019.7,624.895 1094.096,673.327 
				1094.663,673.327 1019.652,624.495 1019.433,624.354 1015.607,673.327 			"/>
		</g>
		<g>
			<polygon fill="none" stroke="#4C7FCF" stroke-miterlimit="10" points="1094.663,673.327 1019.792,624.587 1047.346,589.938 
				1111.546,673.327 1111.938,673.327 1047.35,589.439 1019.444,624.526 1019.341,624.663 1094.096,673.327 			"/>
		</g>
		<g>
			<path fill="none" stroke="#4C7FCF" stroke-miterlimit="10" d="M1019.523,624.923l-0.1-0.24L961.729,486.91l0.26-0.159
				l85.559,102.937l-0.076,0.101L1019.523,624.923z M962.411,487.742l57.197,136.581l27.541-34.632L962.411,487.742z"/>
		</g>
		<g>
			<polygon fill="none" stroke="#4C7FCF" stroke-miterlimit="10" points="972.155,673.327 1019.38,625.034 1015.607,673.327 
				1015.919,673.327 1019.72,624.635 1019.753,624.215 971.724,673.327 			"/>
		</g>
		<g>
			<polyline fill="none" stroke="#4C7FCF" stroke-miterlimit="10" points="1019.069,624.914 971.724,673.327 972.155,673.327 
				1019.677,624.73 1020.067,624.335 			"/>
		</g>
	</g>
	<g>
		<path fill="#4C7FCF" d="M1322.604,651.197c0,0.818-0.664,1.481-1.482,1.481c-0.816,0-1.479-0.663-1.479-1.481
			c0-0.815,0.663-1.479,1.479-1.479S1322.604,650.382,1322.604,651.197z"/>
		<path fill="#4C7FCF" d="M1238.003,576.846c0,1.398-1.139,2.538-2.538,2.538c-1.402,0-2.538-1.14-2.538-2.538
			c0-1.402,1.136-2.538,2.538-2.538C1236.864,574.308,1238.003,575.442,1238.003,576.846z"/>
		<path fill="#4C7FCF" d="M1324.311,651.197c0,1.763-1.429,3.188-3.189,3.188c-1.76,0-3.186-1.427-3.186-3.188
			c0-1.759,1.426-3.187,3.186-3.187C1322.882,648.012,1324.311,649.438,1324.311,651.197z"/>
		<circle fill="#4C7FCF" cx="1321.12" cy="651.197" r="3.286"/>
		<path fill="#4C7FCF" d="M1270.241,626.173c0,1.279-1.035,2.314-2.312,2.314c-1.279,0-2.311-1.035-2.311-2.314
			c0-1.273,1.031-2.31,2.311-2.31C1269.206,623.863,1270.241,624.898,1270.241,626.173z"/>
		<path fill="#4C7FCF" d="M1237.239,576.846c0,0.979-0.795,1.774-1.774,1.774c-0.982,0-1.773-0.796-1.773-1.774
			c0-0.982,0.791-1.773,1.773-1.773C1236.444,575.071,1237.239,575.862,1237.239,576.846z"/>
		<path fill="#4C7FCF" d="M1254.941,667.516c0,0.717-0.579,1.291-1.291,1.291c-0.717,0-1.291-0.574-1.291-1.291
			c0-0.711,0.574-1.291,1.291-1.291C1254.362,666.225,1254.941,666.805,1254.941,667.516z"/>
		<circle fill="#4C7FCF" cx="1321.122" cy="651.197" r="2.392"/>
		<circle fill="#4C7FCF" cx="1253.648" cy="667.516" r="4.63"/>
		<circle fill="#4C7FCF" cx="1321.122" cy="651.197" r="3.091"/>
		<circle fill="#4C7FCF" cx="1253.65" cy="667.516" r="2.565"/>
		<path fill="#4C7FCF" d="M1270.855,626.173c0,1.615-1.311,2.926-2.926,2.926c-1.619,0-2.926-1.311-2.926-2.926
			c0-1.614,1.307-2.925,2.926-2.925C1269.546,623.248,1270.855,624.559,1270.855,626.173z"/>
		<path fill="#4C7FCF" d="M1198.663,657.316c0,2.558-2.074,4.636-4.637,4.636c-2.559,0-4.632-2.078-4.632-4.636
			c0-2.56,2.073-4.634,4.632-4.634C1196.589,652.684,1198.663,654.758,1198.663,657.316z"/>
		<path fill="#4C7FCF" d="M1256.483,667.516c0,1.567-1.271,2.838-2.833,2.838c-1.567,0-2.838-1.271-2.838-2.838
			c0-1.565,1.271-2.833,2.838-2.833C1255.213,664.683,1256.483,665.949,1256.483,667.516z"/>
		<circle fill="#4C7FCF" cx="1194.027" cy="657.316" r="2.55"/>
		<path fill="#4C7FCF" d="M1257.146,667.516c0,1.936-1.565,3.501-3.496,3.501c-1.936,0-3.501-1.565-3.501-3.501
			c0-1.931,1.565-3.497,3.501-3.497C1255.581,664.019,1257.146,665.585,1257.146,667.516z"/>
		<path fill="#4C7FCF" d="M1196.736,657.316c0,1.493-1.211,2.71-2.71,2.71c-1.494,0-2.705-1.217-2.705-2.71
			c0-1.495,1.211-2.706,2.705-2.706C1195.525,654.61,1196.736,655.821,1196.736,657.316z"/>
		<circle fill="#4C7FCF" cx="1267.931" cy="626.173" r="1.004"/>
		<circle fill="#4C7FCF" cx="1267.931" cy="626.173" r="1.322"/>
		<circle fill="#4C7FCF" cx="1194.027" cy="657.316" r="2.218"/>
		<circle fill="#4C7FCF" cx="1235.465" cy="576.846" r="1.862"/>
		<path fill="#4C7FCF" d="M1195.917,657.316c0,1.043-0.848,1.886-1.891,1.886c-1.039,0-1.888-0.843-1.888-1.886
			c0-1.04,0.849-1.888,1.888-1.888C1195.069,655.43,1195.917,656.276,1195.917,657.316z"/>
		<path fill="#4C7FCF" d="M1101.042,618.843c0,0.775-0.627,1.407-1.406,1.407c-0.774,0-1.407-0.632-1.407-1.407
			c0-0.773,0.633-1.405,1.407-1.405C1100.415,617.438,1101.042,618.068,1101.042,618.843z"/>
		<path fill="#4C7FCF" d="M1195.609,657.316c0,0.875-0.708,1.582-1.583,1.582c-0.871,0-1.578-0.707-1.578-1.582
			c0-0.872,0.707-1.579,1.578-1.579C1194.901,655.737,1195.609,656.444,1195.609,657.316z"/>
		<path fill="#4C7FCF" d="M1101.514,618.843c0,1.035-0.839,1.875-1.878,1.875c-1.03,0-1.871-0.84-1.871-1.875
			s0.841-1.874,1.871-1.874C1100.675,616.969,1101.514,617.808,1101.514,618.843z"/>
		<path fill="#4C7FCF" d="M1156.501,553.544c0,0.951-0.771,1.723-1.723,1.723s-1.72-0.771-1.72-1.723
			c0-0.947,0.769-1.718,1.72-1.718C1155.729,551.826,1156.501,552.597,1156.501,553.544z"/>
		<path fill="#4C7FCF" d="M1195.458,657.316c0,0.791-0.641,1.431-1.432,1.431c-0.787,0-1.427-0.64-1.427-1.431
			c0-0.788,0.64-1.428,1.427-1.428C1194.817,655.89,1195.458,656.528,1195.458,657.316z"/>
		<path fill="#4C7FCF" d="M1158.464,553.544c0,2.035-1.649,3.687-3.686,3.687c-2.034,0-3.682-1.65-3.682-3.687
			c0-2.034,1.646-3.681,3.682-3.681C1156.813,549.863,1158.464,551.51,1158.464,553.544z"/>
		<path fill="#4C7FCF" d="M1100.847,618.843c0,0.668-0.54,1.212-1.211,1.212c-0.664,0-1.207-0.544-1.207-1.212
			c0-0.667,0.543-1.211,1.207-1.211C1100.307,617.632,1100.847,618.176,1100.847,618.843z"/>
		<path fill="#4C7FCF" d="M1105.966,529.655c0,0.716-0.579,1.291-1.295,1.291c-0.711,0-1.287-0.575-1.287-1.291
			c0-0.711,0.576-1.291,1.287-1.291C1105.387,528.364,1105.966,528.944,1105.966,529.655z"/>
		<path fill="#4C7FCF" d="M1073.585,623.268c0,1.896-1.535,3.431-3.43,3.431c-1.896,0-3.431-1.535-3.431-3.431
			c0-1.891,1.535-3.429,3.431-3.429C1072.05,619.839,1073.585,621.377,1073.585,623.268z"/>
		<circle fill="#4C7FCF" cx="1070.153" cy="623.268" r="4.091"/>
		<circle fill="#4C7FCF" cx="1099.635" cy="618.843" r="2.534"/>
		<path fill="#4C7FCF" d="M1101.25,618.843c0,0.893-0.72,1.611-1.614,1.611c-0.888,0-1.61-0.72-1.61-1.611
			c0-0.891,0.724-1.614,1.61-1.614C1100.53,617.229,1101.25,617.952,1101.25,618.843z"/>
		<circle fill="#4C7FCF" cx="1070.155" cy="623.268" r="2.798"/>
		<path fill="#4C7FCF" d="M1107.245,529.655c0,1.419-1.15,2.569-2.574,2.569c-1.414,0-2.564-1.15-2.564-2.569
			c0-1.418,1.15-2.569,2.564-2.569C1106.095,527.086,1107.245,528.237,1107.245,529.655z"/>
		<circle fill="#4C7FCF" cx="1070.155" cy="623.268" r="3.725"/>
		<path fill="#4C7FCF" d="M964.378,628.348c0,1.724-1.399,3.121-3.118,3.121c-1.727,0-3.126-1.397-3.126-3.121
			c0-1.723,1.399-3.122,3.126-3.122C962.979,625.226,964.378,626.625,964.378,628.348z"/>
		<circle fill="#4C7FCF" cx="1070.153" cy="623.268" r="2.229"/>
		<path fill="#4C7FCF" d="M962.827,628.348c0,0.863-0.704,1.566-1.567,1.566c-0.871,0-1.57-0.703-1.57-1.566
			c0-0.866,0.699-1.57,1.57-1.57C962.123,626.776,962.827,627.48,962.827,628.348z"/>
		<circle fill="#4C7FCF" cx="980.62" cy="575.167" r="1.375"/>
		<circle fill="#4C7FCF" cx="1070.155" cy="623.268" r="4.269"/>
		<circle fill="#4C7FCF" cx="980.62" cy="575.167" r="0.848"/>
		<path fill="#4C7FCF" d="M1039.636,495.64c0,1.003-0.813,1.818-1.821,1.818c-1.004,0-1.814-0.815-1.814-1.818
			c0-1.008,0.813-1.817,1.814-1.817C1038.821,493.821,1039.636,494.632,1039.636,495.64z"/>
		<path fill="#4C7FCF" d="M1014.568,673.327c-0.415-0.26-0.907-0.412-1.432-0.412c-0.526,0-1.02,0.152-1.436,0.412H1014.568z"/>
		<path fill="#4C7FCF" d="M1014.433,673.327c-0.384-0.216-0.827-0.34-1.295-0.34c-0.472,0-0.916,0.124-1.299,0.34H1014.433z"/>
		<path fill="#4C7FCF" d="M963.882,628.348c0,1.446-1.176,2.622-2.622,2.622c-1.449,0-2.626-1.176-2.626-2.622
			c0-1.45,1.177-2.622,2.626-2.622C962.706,625.726,963.882,626.896,963.882,628.348z"/>
		<path fill="#4C7FCF" d="M962.463,628.348c0,0.663-0.54,1.203-1.203,1.203c-0.667,0-1.207-0.54-1.207-1.203
			c0-0.667,0.54-1.207,1.207-1.207C961.923,627.141,962.463,627.681,962.463,628.348z"/>
		<path fill="#4C7FCF" d="M1040.284,495.64c0,1.362-1.104,2.471-2.471,2.471c-1.363,0-2.471-1.107-2.471-2.471
			c0-1.362,1.106-2.471,2.471-2.471C1039.181,493.169,1040.284,494.276,1040.284,495.64z"/>
		<path fill="#4C7FCF" d="M982.698,575.167c0,1.146-0.933,2.078-2.078,2.078c-1.144,0-2.074-0.933-2.074-2.078
			c0-1.147,0.933-2.074,2.074-2.074C981.768,573.093,982.698,574.02,982.698,575.167z"/>
		<path fill="#4C7FCF" d="M949.854,481.395c0,0.937-0.756,1.695-1.689,1.695c-0.932,0-1.691-0.76-1.691-1.695
			c0-0.931,0.761-1.687,1.691-1.687C949.098,479.708,949.854,480.464,949.854,481.395z"/>
		<circle fill="#4C7FCF" cx="980.62" cy="575.167" r="1.375"/>
		<circle fill="#4C7FCF" cx="926.911" cy="510.859" r="2.59"/>
		<path fill="#4C7FCF" d="M950.028,481.395c0,1.031-0.83,1.871-1.865,1.871c-1.031,0-1.867-0.84-1.867-1.871
			c0-1.029,0.836-1.861,1.867-1.861C949.198,479.532,950.028,480.364,950.028,481.395z"/>
		<path fill="#4C7FCF" d="M962.962,628.348c0,0.939-0.768,1.702-1.702,1.702c-0.943,0-1.706-0.763-1.706-1.702
			c0-0.942,0.763-1.701,1.706-1.701C962.194,626.646,962.962,627.404,962.962,628.348z"/>
		<circle fill="#4C7FCF" cx="904.202" cy="601.065" r="3.27"/>
		<path fill="#4C7FCF" d="M964.201,628.348c0,1.627-1.319,2.945-2.941,2.945c-1.631,0-2.949-1.318-2.949-2.945
			s1.318-2.949,2.949-2.949C962.882,625.396,964.201,626.721,964.201,628.348z"/>
		<circle fill="#4C7FCF" cx="904.204" cy="601.065" r="2.184"/>
		<path fill="#4C7FCF" d="M982.319,575.167c0,0.939-0.765,1.698-1.699,1.698s-1.699-0.759-1.699-1.698
			c0-0.936,0.765-1.699,1.699-1.699S982.319,574.231,982.319,575.167z"/>
		<circle fill="#4C7FCF" cx="980.62" cy="575.167" r="2.37"/>
		<path fill="#4C7FCF" d="M907.977,601.065c0,2.087-1.688,3.772-3.773,3.772c-2.082,0-3.773-1.687-3.773-3.772
			c0-2.082,1.691-3.772,3.773-3.772C906.288,597.293,907.977,598.983,907.977,601.065z"/>
		<path fill="#4C7FCF" d="M928.599,510.859c0,0.931-0.756,1.687-1.688,1.687c-0.935,0-1.687-0.756-1.687-1.687
			c0-0.933,0.752-1.688,1.687-1.688C927.843,509.173,928.599,509.928,928.599,510.859z"/>
		<path fill="#4C7FCF" d="M1325.36,399.118c0,1.317-1.063,2.382-2.38,2.382c-1.313,0-2.381-1.063-2.381-2.382
			c0-1.313,1.066-2.383,2.381-2.383C1324.297,396.735,1325.36,397.807,1325.36,399.118z"/>
		<circle fill="#4C7FCF" cx="1153.288" cy="405.077" r="2.386"/>
		<circle fill="#4C7FCF" cx="1322.98" cy="399.118" r="2.604"/>
		<path fill="#4C7FCF" d="M1324.968,399.118c0,1.099-0.891,1.99-1.985,1.99c-1.1,0-1.99-0.893-1.99-1.99
			c0-1.096,0.892-1.986,1.99-1.986C1324.077,397.132,1324.968,398.022,1324.968,399.118z"/>
		<path fill="#4C7FCF" d="M1241.854,425.983c0,1.476-1.195,2.67-2.671,2.67s-2.666-1.194-2.666-2.67c0-1.472,1.19-2.665,2.666-2.665
			C1240.657,423.318,1241.854,424.513,1241.854,425.983z"/>
		<circle fill="#4C7FCF" cx="1153.288" cy="405.077" r="2.614"/>
		<circle fill="#4C7FCF" cx="1306.18" cy="561.722" r="2.326"/>
		<path fill="#4C7FCF" d="M1266.8,485.848c0,0.596-0.483,1.079-1.084,1.079c-0.595,0-1.078-0.483-1.078-1.079
			c0-0.6,0.483-1.079,1.078-1.079C1266.314,484.769,1266.8,485.248,1266.8,485.848z"/>
		<circle fill="#4C7FCF" cx="1322.982" cy="399.118" r="2.622"/>
		<path fill="#4C7FCF" d="M1308.642,561.722c0,1.359-1.104,2.462-2.462,2.462c-1.357,0-2.458-1.103-2.458-2.462
			c0-1.358,1.101-2.458,2.458-2.458C1307.538,559.264,1308.642,560.362,1308.642,561.722z"/>
		<circle fill="#4C7FCF" cx="1265.719" cy="485.848" r="1.405"/>
		<path fill="#4C7FCF" d="M1329.716,673.327c-0.229-0.104-0.485-0.16-0.755-0.16c-0.268,0-0.523,0.057-0.755,0.16H1329.716z"/>
		<path fill="#4C7FCF" d="M1326.083,399.118c0,1.719-1.391,3.104-3.103,3.104c-1.714,0-3.104-1.387-3.104-3.104
			c0-1.711,1.392-3.103,3.104-3.103C1324.692,396.017,1326.083,397.407,1326.083,399.118z"/>
		<circle fill="#4C7FCF" cx="1265.719" cy="485.848" r="3.935"/>
		<circle fill="#4C7FCF" cx="1239.182" cy="425.983" r="0.983"/>
		<circle fill="#4C7FCF" cx="1306.18" cy="561.722" r="2.462"/>
		<circle fill="#4C7FCF" cx="1306.18" cy="561.722" r="2.913"/>
		<path fill="#4C7FCF" d="M1330.823,673.327c-0.463-0.504-1.123-0.823-1.862-0.823s-1.399,0.319-1.862,0.823H1330.823z"/>
		<path fill="#4C7FCF" d="M1238.194,655.042c0,0.611-0.495,1.107-1.106,1.107c-0.616,0-1.111-0.496-1.111-1.107
			s0.495-1.111,1.111-1.111C1237.699,653.931,1238.194,654.431,1238.194,655.042z"/>
		<path fill="#4C7FCF" d="M1310.072,561.722c0,2.15-1.742,3.894-3.894,3.894c-2.146,0-3.894-1.742-3.894-3.894
			c0-2.15,1.747-3.889,3.894-3.889C1308.33,557.833,1310.072,559.571,1310.072,561.722z"/>
		<circle fill="#4C7FCF" cx="1190.002" cy="535.515" r="3.909"/>
		<path fill="#4C7FCF" d="M1268.318,485.848c0,1.436-1.163,2.599-2.604,2.599c-1.434,0-2.598-1.163-2.598-2.599
			c0-1.438,1.164-2.603,2.598-2.603C1267.155,483.245,1268.318,484.408,1268.318,485.848z"/>
		<path fill="#4C7FCF" d="M1308.638,561.722c0,1.359-1.1,2.458-2.458,2.458c-1.354,0-2.454-1.099-2.454-2.458
			c0-1.354,1.101-2.454,2.454-2.454C1307.538,559.268,1308.638,560.367,1308.638,561.722z"/>
		<path fill="#4C7FCF" d="M1240.386,655.042c0,1.818-1.479,3.297-3.298,3.297c-1.823,0-3.298-1.479-3.298-3.297
			c0-1.822,1.475-3.297,3.298-3.297C1238.906,651.745,1240.386,653.22,1240.386,655.042z"/>
		<circle fill="#4C7FCF" cx="1190.002" cy="535.515" r="1.479"/>
		<path fill="#4C7FCF" d="M1333.09,673.327c-0.671-1.619-2.267-2.762-4.129-2.762s-3.457,1.143-4.128,2.762H1333.09z"/>
		<path fill="#4C7FCF" d="M1240.021,655.042c0,1.623-1.315,2.934-2.935,2.934c-1.623,0-2.938-1.311-2.938-2.934
			s1.314-2.938,2.938-2.938C1238.706,652.104,1240.021,653.419,1240.021,655.042z"/>
		<path fill="#4C7FCF" d="M1268.306,485.848c0,1.432-1.157,2.59-2.59,2.59c-1.426,0-2.586-1.158-2.586-2.59
			c0-1.431,1.16-2.59,2.586-2.59C1267.146,483.258,1268.306,484.417,1268.306,485.848z"/>
		<circle fill="#4C7FCF" cx="1190.002" cy="535.515" r="2.046"/>
		<path fill="#4C7FCF" d="M1240.78,425.983c0,0.884-0.715,1.6-1.599,1.6s-1.596-0.716-1.596-1.6c0-0.88,0.712-1.595,1.596-1.595
			C1240.064,424.39,1240.78,425.104,1240.78,425.983z"/>
		<path fill="#4C7FCF" d="M1239.945,425.983c0,0.424-0.345,0.768-0.764,0.768c-0.42,0-0.764-0.344-0.764-0.768
			c0-0.419,0.344-0.76,0.764-0.76C1239.602,425.225,1239.945,425.564,1239.945,425.983z"/>
		<path fill="#4C7FCF" d="M1193.399,535.515c0,1.88-1.523,3.401-3.397,3.401c-1.878,0-3.4-1.521-3.4-3.401
			c0-1.878,1.522-3.399,3.4-3.399C1191.876,532.114,1193.399,533.637,1193.399,535.515z"/>
		<circle fill="#4C7FCF" cx="1153.287" cy="405.077" r="3.405"/>
		<circle fill="#4C7FCF" cx="1190.002" cy="535.515" r="1.499"/>
		<path fill="#4C7FCF" d="M1049.548,589.691c0,1.215-0.981,2.201-2.198,2.201c-1.219,0-2.206-0.986-2.206-2.201
			c0-1.221,0.987-2.202,2.206-2.202C1048.564,587.489,1049.548,588.472,1049.548,589.691z"/>
		<circle fill="#4C7FCF" cx="1190" cy="535.515" r="3.483"/>
		<path fill="#4C7FCF" d="M1048.444,589.691c0,0.604-0.495,1.095-1.096,1.095c-0.606,0-1.095-0.491-1.095-1.095
			c0-0.604,0.487-1.097,1.095-1.097C1047.949,588.596,1048.444,589.088,1048.444,589.691z"/>
		<circle fill="#4C7FCF" cx="1041.131" cy="461.891" r="2.733"/>
		<path fill="#4C7FCF" d="M1241.872,655.042c0,2.642-2.144,4.784-4.784,4.784c-2.646,0-4.784-2.144-4.784-4.784
			s2.14-4.784,4.784-4.784C1239.729,650.258,1241.872,652.4,1241.872,655.042z"/>
		<circle fill="#4C7FCF" cx="1190.002" cy="535.515" r="2.519"/>
		<path fill="#4C7FCF" d="M1238.994,655.042c0,1.055-0.855,1.91-1.906,1.91c-1.056,0-1.911-0.855-1.911-1.91s0.855-1.91,1.911-1.91
			C1238.139,653.132,1238.994,653.987,1238.994,655.042z"/>
		<path fill="#4C7FCF" d="M1043.601,461.891c0,1.367-1.104,2.471-2.47,2.471s-2.47-1.104-2.47-2.471c0-1.365,1.104-2.47,2.47-2.47
			S1043.601,460.524,1043.601,461.891z"/>
		<path fill="#4C7FCF" d="M1048.311,589.691c0,0.53-0.433,0.963-0.961,0.963c-0.534,0-0.967-0.433-0.967-0.963
			c0-0.532,0.433-0.965,0.967-0.965C1047.878,588.729,1048.311,589.159,1048.311,589.691z"/>
		<path fill="#4C7FCF" d="M963.442,486.854c0,0.863-0.703,1.566-1.575,1.566c-0.863,0-1.566-0.703-1.566-1.566
			c0-0.87,0.703-1.573,1.566-1.573C962.739,485.28,963.442,485.983,963.442,486.854z"/>
		<path fill="#4C7FCF" d="M1021.827,624.622c0,1.252-1.017,2.263-2.263,2.263c-1.247,0-2.26-1.011-2.26-2.263
			c0-1.246,1.013-2.258,2.26-2.258C1020.811,622.364,1021.827,623.376,1021.827,624.622z"/>
		<path fill="#4C7FCF" d="M1021.411,624.622c0,1.02-0.824,1.847-1.847,1.847c-1.016,0-1.848-0.827-1.848-1.847
			c0-1.019,0.832-1.842,1.848-1.842C1020.587,622.78,1021.411,623.604,1021.411,624.622z"/>
		<path fill="#4C7FCF" d="M1051.339,589.691c0,2.201-1.791,3.987-3.989,3.987c-2.206,0-3.988-1.786-3.988-3.987
			c0-2.202,1.782-3.989,3.988-3.989C1049.548,585.702,1051.339,587.489,1051.339,589.691z"/>
		<circle fill="#4C7FCF" cx="1047.348" cy="589.691" r="3.607"/>
		<path fill="#4C7FCF" d="M1020.808,624.622c0,0.688-0.556,1.243-1.243,1.243c-0.684,0-1.238-0.557-1.238-1.243
			c0-0.683,0.556-1.238,1.238-1.238C1020.252,623.384,1020.808,623.939,1020.808,624.622z"/>
		<path fill="#4C7FCF" d="M964.55,486.854c0,1.479-1.198,2.679-2.683,2.679c-1.479,0-2.678-1.199-2.678-2.679
			c0-1.481,1.198-2.686,2.678-2.686C963.352,484.169,964.55,485.372,964.55,486.854z"/>
		<path fill="#4C7FCF" d="M1021.146,624.622c0,0.876-0.707,1.587-1.582,1.587c-0.871,0-1.584-0.711-1.584-1.587
			c0-0.871,0.713-1.582,1.584-1.582C1020.439,623.04,1021.146,623.751,1021.146,624.622z"/>
		<path fill="#4C7FCF" d="M1021.136,624.622c0,0.868-0.704,1.571-1.571,1.571c-0.862,0-1.566-0.703-1.566-1.571
			c0-0.863,0.704-1.566,1.566-1.566C1020.432,623.056,1021.136,623.759,1021.136,624.622z"/>
		<path fill="#4C7FCF" d="M1021.962,624.622c0,1.327-1.07,2.402-2.397,2.402c-1.322,0-2.396-1.075-2.396-2.402
			c0-1.322,1.074-2.397,2.396-2.397C1020.893,622.225,1021.962,623.3,1021.962,624.622z"/>
	</g>
</g>
</svg>
