<?xml version="1.0" encoding="utf-8"?>
<!-- Generator: Adobe Illustrator 16.0.0, SVG Export Plug-In . SVG Version: 6.00 Build 0)  -->
<!DOCTYPE svg PUBLIC "-//W3C//DTD SVG 1.1//EN" "http://www.w3.org/Graphics/SVG/1.1/DTD/svg11.dtd">
<svg version="1.1" id="Layer_1" xmlns="http://www.w3.org/2000/svg" xmlns:xlink="http://www.w3.org/1999/xlink" x="0px" y="0px"
	 width="50px" height="50px" viewBox="0 0 50 50" enable-background="new 0 0 50 50" xml:space="preserve">
<g>
	<path fill="#BAB7C7" d="M46.412,19.989C43.641,8.163,31.802,0.83,19.989,3.588C8.162,6.36,0.829,18.2,3.588,30.014
		C6.36,41.838,18.186,49.171,30.012,46.412C41.838,43.643,49.171,31.802,46.412,19.989z M29.232,43.081
		C19.251,45.416,9.255,39.216,6.92,29.232C4.585,19.251,10.785,9.255,20.767,6.92s19.979,3.865,22.313,13.847
		C45.416,30.749,39.216,40.746,29.232,43.081z"/>
	<path fill="#BAB7C7" d="M28.455,28.359c0,1.283-1.516,2.322-3.4,2.322h-2.226v-4.658h2.226
		C26.939,26.023,28.455,27.049,28.455,28.359z"/>
	<path fill="#BAB7C7" d="M28.455,21.067c0,1.284-1.516,2.335-3.4,2.335h-2.226v-4.669h2.226
		C26.939,18.733,28.455,19.756,28.455,21.067z"/>
	<path fill="#BAB7C7" d="M25,9.392C16.383,9.392,9.392,16.383,9.392,25c0,8.616,6.992,15.607,15.608,15.607S40.607,33.616,40.607,25
		C40.607,16.383,33.616,9.392,25,9.392z M31.827,31.352c-0.531,0.765-1.257,1.338-2.198,1.68c-0.669,0.26-1.583,0.438-2.759,0.505
		v3.674h-2.458v-3.647h-1.583v3.647h-2.472v-3.647h-3.004v-2.047h0.642c0.71,0,1.229-0.205,1.516-0.684
		c0.191-0.271,0.301-0.887,0.301-1.855v-7.868c0-1.051-0.123-1.707-0.355-1.993c-0.341-0.354-0.819-0.546-1.461-0.546h-0.642v-1.967
		h3.004v-3.81h2.472v3.81h1.583v-3.81h2.458v3.919c0.41,0.041,0.793,0.095,1.105,0.19c1.271,0.301,2.198,0.834,2.869,1.584
		c0.668,0.765,1.01,1.639,1.01,2.649c0,0.833-0.287,1.598-0.791,2.28c-0.521,0.669-1.285,1.161-2.295,1.502
		c1.174,0.232,2.063,0.644,2.649,1.188c0.817,0.778,1.228,1.721,1.228,2.826C32.646,29.768,32.359,30.572,31.827,31.352z"/>
</g>
<path fill="#231F20" d="M74.829,9.324c-8.655,2.027-14.032,10.691-12.005,19.347c2.027,8.655,10.689,14.031,19.347,12.005
	c8.655-2.027,14.031-10.691,12.005-19.346C92.148,12.674,83.484,7.297,74.829,9.324z M81.602,38.241
	c-7.313,1.712-14.631-2.828-16.344-10.142c-1.712-7.312,2.83-14.629,10.143-16.342c7.312-1.712,14.629,2.83,16.342,10.142
	C93.454,29.211,88.913,36.529,81.602,38.241z"/>
<circle fill="#231F20" cx="78.5" cy="25" r="11.426"/>
<path fill="#92278F" d="M83.202,25.813c-0.437-0.406-1.079-0.704-1.938-0.875c0.735-0.251,1.299-0.611,1.674-1.097
	c0.377-0.5,0.578-1.064,0.578-1.675c0-0.735-0.248-1.377-0.734-1.94c-0.485-0.548-1.174-0.94-2.098-1.158
	c-0.234-0.063-0.516-0.11-0.813-0.142v-2.864h-1.8v2.786h-1.16v-2.786h-1.814v2.786h-2.191v1.44h0.471
	c0.468,0,0.813,0.141,1.063,0.408c0.174,0.203,0.267,0.688,0.267,1.456v5.761c0,0.704-0.078,1.157-0.22,1.362
	c-0.219,0.342-0.594,0.5-1.109,0.5h-0.471v1.5h2.191v2.666h1.814v-2.666h1.16v2.666h1.799v-2.694
	c0.861-0.046,1.535-0.171,2.02-0.361c0.688-0.25,1.221-0.672,1.613-1.233c0.391-0.566,0.594-1.159,0.594-1.771
	C84.096,27.064,83.799,26.378,83.202,25.813z M78.539,29.163H76.91V25.75h1.629c1.377,0,2.488,0.753,2.488,1.709
	C81.027,28.396,79.916,29.163,78.539,29.163z M78.539,23.826H76.91v-3.413h1.629c1.377,0,2.488,0.751,2.488,1.706
	C81.027,23.058,79.916,23.826,78.539,23.826z"/>
</svg>
