<?xml version="1.0" encoding="utf-8"?>
<!-- Generator: Adobe Illustrator 16.0.0, SVG Export Plug-In . SVG Version: 6.00 Build 0)  -->
<!DOCTYPE svg PUBLIC "-//W3C//DTD SVG 1.1//EN" "http://www.w3.org/Graphics/SVG/1.1/DTD/svg11.dtd">
<svg version="1.1" xmlns="http://www.w3.org/2000/svg" xmlns:xlink="http://www.w3.org/1999/xlink" x="0px" y="0px" width="378px"
	 height="199px" viewBox="0 0 378 199" enable-background="new 0 0 378 199" xml:space="preserve">
<g id="Layer_2" display="none">
	<rect x="-21" y="-26" display="inline" fill="#514735" stroke="#231F20" stroke-miterlimit="10" width="437.5" height="257.5"/>
</g>
<g id="Layer_1">
	<path fill="#231F20" d="M294.584,89.779v19.106c0,0.679-0.021,1.369-0.055,2.049h-0.012c-0.328,6.274-2.221,12.526-5.676,18.54
		v0.012c-5.311,9.265-14.336,17.973-27.055,25.312c-43.729,25.244-115.292,25.244-159.031,0
		c-21.869-12.628-32.809-29.275-32.809-45.912h-0.08V89.259h0.08c0,16.637,10.94,33.273,32.809,45.902
		c43.739,25.254,115.302,25.254,159.031,0c12.719-7.351,21.744-16.049,27.055-25.324h0.012
		C292.592,103.336,294.494,96.564,294.584,89.779z"/>
	<path fill="#231F20" d="M288.842,109.837c-5.311,9.275-14.336,17.974-27.055,25.324c-43.729,25.254-115.292,25.254-159.031,0
		c-21.869-12.629-32.809-29.266-32.809-45.902h112.325L288.842,109.837z"/>
	<path fill="#474747" d="M288.842,109.837c-5.311,9.275-14.336,17.974-27.055,25.324c-43.729,25.254-115.292,25.254-159.031,0
		c-21.869-12.629-32.809-29.266-32.809-45.902h112.325L288.842,109.837z"/>
	<path fill="#FCE963" d="M182.272,89.259H69.947c0-10.057,3.987-20.103,11.959-29.265l17.374,5.073h0.011L182.272,89.259z"/>
	<path fill="#2785E4" d="M182.272,24.41v64.849l-82.98-24.191H99.28l-17.374-5.073c5.232-6.013,12.187-11.653,20.85-16.648
		C124.626,30.719,153.448,24.41,182.272,24.41z"/>
	<path fill="#781F97" d="M265.615,45.667l-19.027,9.955h-0.012l-64.304,33.637V24.41c28.822,0,57.646,6.309,79.515,18.936
		C263.1,44.104,264.379,44.876,265.615,45.667z"/>
	<path fill="#F7B023" d="M294.584,89.259v0.521c-0.09,6.785-1.992,13.557-5.73,20.058h-0.012l-106.57-20.578l64.304-33.637h0.012
		l19.027-9.955c17.314,11.021,26.852,24.735,28.641,38.733c0.215,1.619,0.318,3.239,0.318,4.858H294.584z"/>
	<path fill="#CC8E1F" d="M294.584,89.779v19.106c0,0.679-0.021,1.369-0.055,2.049h-0.012c-0.328,6.274-2.221,12.526-5.676,18.54
		l0.012-19.638C292.592,103.336,294.494,96.564,294.584,89.779z"/>
	<g opacity="0.3">
		<path fill="#C17D10" d="M288.854,109.837c0,0,0.174-0.276,0.435-0.783c0.282-0.494,0.62-1.234,1.046-2.111
			c0.227-0.433,0.413-0.928,0.635-1.44c0.209-0.518,0.464-1.05,0.665-1.625c0.199-0.576,0.405-1.17,0.615-1.774
			c0.227-0.599,0.406-1.223,0.561-1.854c0.177-0.625,0.353-1.25,0.526-1.866c0.199-0.609,0.264-1.24,0.393-1.834
			c0.113-0.598,0.223-1.177,0.326-1.726c0.125-0.546,0.172-1.072,0.206-1.559c0.191-1.943,0.319-3.238,0.319-3.238
			s-0.074,1.301-0.186,3.253c-0.026,0.489-0.065,1.018-0.181,1.568c-0.096,0.552-0.196,1.135-0.301,1.738
			c-0.12,0.6-0.174,1.235-0.364,1.85c-0.165,0.621-0.332,1.252-0.499,1.883c-0.166,0.632-0.356,1.256-0.594,1.854
			c-0.221,0.604-0.438,1.197-0.647,1.771c-0.211,0.574-0.476,1.105-0.693,1.621c-0.23,0.511-0.426,1.005-0.66,1.435
			c-0.437,0.876-0.832,1.589-1.131,2.075C289.04,109.569,288.854,109.837,288.854,109.837z"/>
	</g>
	<g>
		<text transform="matrix(1 0 0 1 68.2485 8.9492)"><tspan x="0" y="0" fill="#FFFFFF" font-family="'Montserrat-Regular'" font-size="9.5929">Company Reserve</tspan><tspan x="31.91" y="11.511" fill="#FFFFFF" font-family="'Montserrat-Regular'" font-size="9.5929">20%</tspan></text>
	</g>
	<g>
		<text transform="matrix(1 0 0 1 197.0977 8.9492)"><tspan x="0" y="0" fill="#FFFFFF" font-family="'Montserrat-Regular'" font-size="9.5929">Pre Sale Phase</tspan><tspan x="25.234" y="11.511" fill="#FFFFFF" font-family="'Montserrat-Regular'" font-size="9.5929">15%</tspan></text>
	</g>
	<g>
		<text transform="matrix(1 0 0 1 297.2402 74.626)"><tspan x="0" y="0" fill="#FFFFFF" font-family="'Montserrat-Regular'" font-size="9.5929">Main Crowdsale</tspan><tspan x="23.607" y="11.511" fill="#FFFFFF" font-family="'Montserrat-Regular'" font-size="9.5929">Phase</tspan><tspan x="28.529" y="23.023" fill="#FFFFFF" font-family="'Montserrat-Regular'" font-size="9.5929">15%</tspan></text>
	</g>
	<text transform="matrix(1 0 0 1 89.1392 182.9707)"><tspan x="0" y="0" fill="#FFFFFF" font-family="'Montserrat-Regular'" font-size="9.5929">Post Sale Phase</tspan><tspan x="26.605" y="11.512" fill="#FFFFFF" font-family="'Montserrat-Regular'" font-size="9.5929">45%</tspan></text>
	<g>
		<text transform="matrix(1 0 0 1 5.2739 59.9932)"><tspan x="0" y="0" fill="#FFFFFF" font-family="'Montserrat-Regular'" font-size="9.5929">Bounty and</tspan><tspan x="3.329" y="11.511" fill="#FFFFFF" font-family="'Montserrat-Regular'" font-size="9.5929">Marketing</tspan><tspan x="19.972" y="23.023" fill="#FFFFFF" font-family="'Montserrat-Regular'" font-size="9.5929">5%</tspan></text>
	</g>
</g>
</svg>
