<svg xmlns="http://www.w3.org/2000/svg" viewBox="0 0 20.999 20.999">
  <defs>
    <style>
      .cls-1 {
        opacity: 0.2;
      }

      .cls-2 {
        fill: #fff;
      }
    </style>
  </defs>
  <g id="call" class="cls-1">
    <g id="Group_44" data-name="Group 44">
      <path id="Path_32" data-name="Path 32" class="cls-2" d="M19.314,13.783a11.922,11.922,0,0,1-3.744-.6,1.711,1.711,0,0,0-1.664.351L11.544,15.32A13.048,13.048,0,0,1,5.678,9.455l1.73-2.3a1.7,1.7,0,0,0,.418-1.72,11.941,11.941,0,0,1-.6-3.75A1.687,1.687,0,0,0,5.541,0H1.685A1.687,1.687,0,0,0,0,1.685,19.336,19.336,0,0,0,19.314,21,1.687,1.687,0,0,0,21,19.314V15.468A1.687,1.687,0,0,0,19.314,13.783Z"/>
    </g>
  </g>
</svg>
