<?xml version="1.0" encoding="utf-8"?>
<!-- Generator: Adobe Illustrator 21.0.0, SVG Export Plug-In . SVG Version: 6.00 Build 0)  -->
<svg version="1.1" id="Layer_1" xmlns="http://www.w3.org/2000/svg" xmlns:xlink="http://www.w3.org/1999/xlink" x="0px" y="0px"
	 viewBox="0 0 378 199" style="enable-background:new 0 0 378 199;" xml:space="preserve">
<style type="text/css">
	.st0{display:none;}
	.st1{display:inline;fill:#514735;stroke:#231F20;stroke-miterlimit:10;}
	.st2{fill:#231F20;}
	.st3{fill:#474747;}
	.st4{fill:#FCE963;}
	.st5{fill:#2785E4;}
	.st6{fill:#781F97;}
	.st7{fill:#F7B023;}
	.st8{fill:#CC8E1F;}
	.st9{opacity:0.3;}
	.st10{fill:#C17D10;}
	.st11{fill:#FFFFFF;}
	.st12{font-family:'Montserrat-Regular';}
	.st13{font-size:9.8598px;}
	.st14{opacity:0.5;fill:#4D4D4D;}
	.st15{fill:#39B54A;}
</style>
<g id="Layer_2" class="st0">
	<rect x="-21" y="-26" class="st1" width="437.5" height="257.5"/>
</g>
<path class="st2" d="M-214.9,192.4v19.1c0,0.7,0,1.4-0.1,2l0,0c-0.3,6.3-2.2,12.5-5.7,18.5l0,0c-5.3,9.3-14.3,18-27.1,25.3
	c-43.7,25.2-115.3,25.2-159,0c-21.9-12.6-32.8-29.3-32.8-45.9h-0.1v-19.5h0.1c0,16.6,10.9,33.3,32.8,45.9
	c43.7,25.3,115.3,25.3,159,0c12.7-7.4,21.7-16,27.1-25.3l0,0C-216.9,206-215,199.2-214.9,192.4z"/>
<path class="st2" d="M-220.7,212.5c-5.3,9.3-14.3,18-27.1,25.3c-43.7,25.3-115.3,25.3-159,0c-21.9-12.6-32.8-29.3-32.8-45.9h112.3
	L-220.7,212.5z"/>
<path class="st3" d="M-220.7,212.5c-5.3,9.3-14.3,18-27.1,25.3c-43.7,25.3-115.3,25.3-159,0c-21.9-12.6-32.8-29.3-32.8-45.9h112.3
	L-220.7,212.5z"/>
<path class="st4" d="M-327.3,191.9h-112.3c0-10.1,4-20.1,12-29.3l17.4,5.1l0,0L-327.3,191.9z"/>
<path class="st5" d="M-327.3,127.1v64.8l-83-24.2l0,0l-17.4-5.1c5.2-6,12.2-11.7,20.8-16.6C-384.9,133.4-356.1,127.1-327.3,127.1z"
	/>
<path class="st6" d="M-243.9,148.3l-19,10l0,0l-64.4,33.6v-64.8c28.8,0,57.6,6.3,79.5,18.9C-246.4,146.8-245.1,147.5-243.9,148.3z"
	/>
<path class="st7" d="M-214.9,191.9v0.5c-0.1,6.8-2,13.6-5.7,20.1l0,0l-106.7-20.6l64.3-33.6l0,0l19-10c17.3,11,26.9,24.7,28.6,38.7
	C-215.1,188.7-214.9,190.3-214.9,191.9L-214.9,191.9z"/>
<path class="st8" d="M-214.9,192.4v19.1c0,0.7,0,1.4-0.1,2l0,0c-0.3,6.3-2.2,12.5-5.7,18.5v-19.6C-216.9,206-215,199.2-214.9,192.4z
	"/>
<g class="st9">
	<path class="st10" d="M-220.7,212.5c0,0,0.2-0.3,0.4-0.8c0.3-0.5,0.6-1.2,1-2.1c0.2-0.4,0.4-0.9,0.6-1.4c0.2-0.5,0.5-1,0.7-1.6
		s0.4-1.2,0.6-1.8c0.2-0.6,0.4-1.2,0.6-1.9c0.2-0.6,0.4-1.3,0.5-1.9c0.2-0.6,0.3-1.2,0.4-1.8c0.1-0.6,0.2-1.2,0.3-1.7
		s0.2-1.1,0.2-1.6c0.2-1.9,0.3-3.2,0.3-3.2s-0.1,1.3-0.2,3.3c0,0.5-0.1,1-0.2,1.6c-0.1,0.6-0.2,1.1-0.3,1.7s-0.2,1.2-0.4,1.9
		c-0.2,0.6-0.3,1.3-0.5,1.9s-0.4,1.3-0.6,1.9c-0.2,0.6-0.4,1.2-0.6,1.8c-0.2,0.6-0.5,1.1-0.7,1.6s-0.4,1-0.7,1.4
		c-0.4,0.9-0.8,1.6-1.1,2.1C-220.5,212.2-220.7,212.5-220.7,212.5z"/>
</g>
<g>
	<text transform="matrix(1 0 0 1 -441.2316 111.6168)" class="st11 st12" style="font-size:9.5929px;">Company Reserve</text>
	<text transform="matrix(1 0 0 1 -409.3217 123.1278)" class="st11 st12" style="font-size:9.5929px;">20%</text>
</g>
<g>
	<text transform="matrix(1 0 0 1 -312.3824 111.6168)" class="st11 st12" style="font-size:9.5929px;">Pre Sale Phase</text>
	<text transform="matrix(1 0 0 1 -287.1484 123.1278)" class="st11 st12" style="font-size:9.5929px;">15%</text>
</g>
<g>
	<text transform="matrix(1 0 0 1 -212.2397 177.2936)" class="st11 st12" style="font-size:9.5929px;">Main Crowdsale</text>
	<text transform="matrix(1 0 0 1 -188.6329 188.8046)" class="st11 st12" style="font-size:9.5929px;">Phase</text>
	<text transform="matrix(1 0 0 1 -183.7109 200.3167)" class="st11 st12" style="font-size:9.5929px;">15%</text>
</g>
<text transform="matrix(1 0 0 1 -420.3409 285.6383)" class="st11 st12" style="font-size:9.5929px;">Post Sale Phase</text>
<text transform="matrix(1 0 0 1 -393.736 297.1503)" class="st11 st12" style="font-size:9.5929px;">45%</text>
<g>
	<text transform="matrix(1 0 0 1 -504.2062 162.6608)" class="st11 st12" style="font-size:9.5929px;">Bounty and</text>
	<text transform="matrix(1 0 0 1 -500.8772 174.1718)" class="st11 st12" style="font-size:9.5929px;">Marketing</text>
	<text transform="matrix(1 0 0 1 -484.2343 185.6838)" class="st11 st12" style="font-size:9.5929px;">5%</text>
</g>
<g>
	<g>
		<text transform="matrix(1 0 0 1 91.5245 11.1869)" class="st11 st12 st13">Company Reserve</text>
		<text transform="matrix(1 0 0 1 124.3228 23.0184)" class="st11 st12 st13">15.00%</text>
	</g>
	<g>
		<text transform="matrix(1 0 0 1 39.5543 42.891)" class="st11 st12 st13">Management</text>
		<text transform="matrix(1 0 0 1 54.3824 54.7054)" class="st11 st12 st13">10.00%</text>
	</g>
	<g>
		<text transform="matrix(1 0 0 1 14.4718 71.6127)" class="st11 st12 st13">Bounty and</text>
		<text transform="matrix(1 0 0 1 17.8473 83.4271)" class="st11 st12 st13">Marketing</text>
		<text transform="matrix(1 0 0 1 27.0094 95.2411)" class="st11 st12 st13">5.00%</text>
	</g>
	<g>
		<text transform="matrix(1 0 0 1 205.4571 11.1869)" class="st11 st12 st13">Pre Sale Phase</text>
		<text transform="matrix(1 0 0 1 223.42 23.0013)" class="st11 st12 st13">15.00%</text>
	</g>
	<g>
		<text transform="matrix(1 0 0 1 286.1202 54.7054)" class="st11 st12 st13">Main Crowdsale</text>
		<text transform="matrix(1 0 0 1 310.3517 66.5194)" class="st11 st12 st13">Phase</text>
		<text transform="matrix(1 0 0 1 307.4581 78.3334)" class="st11 st12 st13">15.00%</text>
	</g>
	<g>
		<text transform="matrix(1 0 0 1 146.526 180.555)" class="st11 st12 st13">Post Sale Phase</text>
		<text transform="matrix(1 0 0 1 165.3321 192.3685)" class="st11 st12 st13">40.00%</text>
	</g>
	<path class="st2" d="M291,87v17.8c0,0.1,0,0.1,0,0.1c-0.1,11.4-6.3,21.9-17,30.7c-18.5,15.3-50.4,25.4-86.6,25.4
		c-36.2,0-68-10.1-86.6-25.4c-10.7-8.9-17-19.5-17-30.9c0-0.1,0-0.1,0-0.1h0V86.8c0,0.2,0,0.4,0,0.6c0.1,2.8,0.5,5.6,1.3,8.3
		c0.9,3,2.2,6,4,8.8c8.1,13.2,24.9,24.2,46.7,31c15.2,4.7,32.8,7.5,51.6,7.5c18.8,0,36.4-2.7,51.6-7.5c21.7-6.8,38.4-17.7,46.5-30.7
		c1.8-2.9,3.2-6,4.1-9.1C290.5,92.9,291,90,291,87L291,87z"/>
	<path class="st14" d="M291,104.7v0.1h0C291,104.8,291,104.8,291,104.7z"/>
	<path class="st3" d="M291,86.8c0,0.1,0,0.1,0,0.1c0,3-0.5,5.9-1.3,8.8c-0.9,3.1-2.3,6.2-4.1,9.1c-8.1,13.1-24.9,24-46.5,30.7
		c-15.2,4.7-32.8,7.5-51.6,7.5c-18.8,0-36.4-2.7-51.6-7.5c-21.8-6.8-38.7-17.8-46.7-31c-1.7-2.8-3.1-5.8-4-8.8
		c-0.8-2.7-1.2-5.5-1.3-8.3c0-0.2,0-0.4,0-0.6c0-0.1,0-0.1,0-0.1l103.5-13.7L291,86.7C291,86.7,291,86.8,291,86.8z"/>
	<path class="st4" d="M187.4,72.9L83.9,86.7c0-5.2,1.4-10.3,3.8-15L187.4,72.9z"/>
	<path class="st5" d="M187.4,30.6v42.4L118,45.1c1.6-0.8,3.3-1.6,5-2.3c0,0,0,0,0.1,0C140.8,35.1,163.1,30.6,187.4,30.6z"/>
	<path class="st6" d="M259.4,46.4l-72,26.6V30.6c23.3,0,44.8,4.2,62.1,11.2c0,0,0,0,0,0C253,43.2,256.3,44.7,259.4,46.4z"/>
	<path class="st7" d="M291,86.7L187.4,72.9l72-26.6C278.8,56.6,290.9,70.8,291,86.7z"/>
	<path class="st15" d="M187.4,72.9l-99.7-1.3c0.8-1.5,1.7-3,2.7-4.5c5.9-8.5,15.4-16.1,27.6-22L187.4,72.9z"/>
</g>
</svg>
