<svg xmlns="http://www.w3.org/2000/svg" viewBox="0 0 17.5 20">
  <defs>
    <style>
      .cls-1 {
        fill: #33b1f8;
      }
    </style>
  </defs>
  <g id="login-1" transform="translate(-32)">
    <g id="Group_2" data-name="Group 2" transform="translate(32)">
      <g id="Group_1" data-name="Group 1">
        <circle id="Ellipse_1" data-name="Ellipse 1" class="cls-1" cx="0.781" cy="0.781" r="0.781" transform="translate(12.422 12.734)"/>
        <path id="Path_2" data-name="Path 2" class="cls-1" d="M48.719,14.141a.781.781,0,0,0,.781-.781V10.469a3.129,3.129,0,0,0-3.125-3.125h-.939V4.589a4.689,4.689,0,0,0-9.375,0V7.344h-.936A3.129,3.129,0,0,0,32,10.469v6.406A3.129,3.129,0,0,0,35.125,20h11.25A3.129,3.129,0,0,0,49.5,16.875a.781.781,0,0,0-1.562,0,1.564,1.564,0,0,1-1.562,1.563H35.125a1.564,1.564,0,0,1-1.562-1.562V10.469a1.564,1.564,0,0,1,1.563-1.562h11.25a1.564,1.564,0,0,1,1.563,1.563v2.891A.781.781,0,0,0,48.719,14.141Zm-4.845-6.8h-6.25V4.589a3.127,3.127,0,0,1,6.25,0Z" transform="translate(-32)"/>
        <circle id="Ellipse_2" data-name="Ellipse 2" class="cls-1" cx="0.781" cy="0.781" r="0.781" transform="translate(6.523 12.734)"/>
        <circle id="Ellipse_3" data-name="Ellipse 3" class="cls-1" cx="0.781" cy="0.781" r="0.781" transform="translate(3.594 12.734)"/>
        <circle id="Ellipse_4" data-name="Ellipse 4" class="cls-1" cx="0.781" cy="0.781" r="0.781" transform="translate(9.453 12.734)"/>
      </g>
    </g>
  </g>
</svg>
