<?xml version="1.0" encoding="utf-8"?>
<!-- Generator: Adobe Illustrator 16.0.0, SVG Export Plug-In . SVG Version: 6.00 Build 0)  -->
<!DOCTYPE svg PUBLIC "-//W3C//DTD SVG 1.1//EN" "http://www.w3.org/Graphics/SVG/1.1/DTD/svg11.dtd">
<svg version="1.1" id="Layer_1" xmlns="http://www.w3.org/2000/svg" xmlns:xlink="http://www.w3.org/1999/xlink" x="0px" y="0px"
	 width="189px" height="60px" viewBox="0 0 189 60" enable-background="new 0 0 189 60" xml:space="preserve">
<g>
	<path fill="#FFFFFF" d="M60.175,22.586h3.837v13.648h7.286v3.352H60.175V22.586z"/>
	<path fill="#FFFFFF" d="M86.135,23.46c1.392,0.761,2.49,1.81,3.291,3.145c0.802,1.335,1.202,2.822,1.202,4.458
		c0,1.637-0.4,3.123-1.202,4.469c-0.801,1.343-1.898,2.398-3.291,3.169c-1.393,0.771-2.938,1.153-4.638,1.153
		c-1.7,0-3.247-0.385-4.639-1.153c-1.393-0.771-2.489-1.821-3.29-3.156c-0.802-1.336-1.202-2.83-1.202-4.479
		c0-1.635,0.4-3.123,1.202-4.458c0.801-1.335,1.894-2.384,3.278-3.145c1.384-0.761,2.934-1.142,4.651-1.142
		C83.197,22.319,84.743,22.7,86.135,23.46z M78.923,26.387c-0.81,0.478-1.449,1.129-1.919,1.954
		c-0.469,0.826-0.704,1.732-0.704,2.722c0,1.002,0.238,1.918,0.716,2.742c0.478,0.825,1.117,1.48,1.919,1.969
		c0.801,0.484,1.672,0.729,2.611,0.729c0.938,0,1.801-0.241,2.586-0.718c0.785-0.479,1.408-1.135,1.87-1.967
		c0.461-0.836,0.692-1.754,0.692-2.758c0-0.987-0.23-1.895-0.692-2.721c-0.462-0.825-1.085-1.477-1.87-1.954
		c-0.785-0.478-1.647-0.716-2.586-0.716C80.607,25.671,79.732,25.91,78.923,26.387z"/>
	<path fill="#FFFFFF" d="M108.916,39.586h-4.59l-4.906-6.97l-2.43,2.694v4.273h-3.836v-17h3.836v7.917l7.043-7.917h4.469
		l-6.41,7.067L108.916,39.586z"/>
	<path fill="#FFFFFF" d="M113.342,39.586h-4.426l8.762-17l8.877,17h-4.473l-4.404-9.362L113.342,39.586"/>
	<path fill="#FFFFFF" d="M129.484,22.586h3.836v13.648h7.287v3.352h-11.123V22.586z"/>
	<path fill="#775BFB" d="M143.42,22.586h3.836v17h-3.836V22.586z"/>
	<path fill="#775BFB" d="M150.881,22.586h14.354v2.575l-9.498,11.219h9.646l-0.023,3.206H150.57v-2.598l9.518-11.197h-9.203v-3.205
		H150.881z"/>
	<path fill="#775BFB" d="M168.268,22.586h12.945v3.181h-9.111v3.692h8.188v3.182h-8.188v3.765h9.375v3.182h-13.209V22.586
		L168.268,22.586z"/>
	
		<linearGradient id="SVGID_1_" gradientUnits="userSpaceOnUse" x1="8.064" y1="756.7568" x2="53.1652" y2="787.3188" gradientTransform="matrix(1 0 0 1 0 -731)">
		<stop  offset="0" style="stop-color:#2FB6F8"/>
		<stop  offset="0.3942" style="stop-color:#468AD8"/>
		<stop  offset="1" style="stop-color:#6C40A1"/>
	</linearGradient>
	<polygon fill="url(#SVGID_1_)" points="18.668,34.461 23.087,37.011 23.087,41.342 28.198,44.293 28.198,33.995 18.668,28.493 	"/>
	
		<linearGradient id="SVGID_2_" gradientUnits="userSpaceOnUse" x1="4.293" y1="762.3301" x2="49.3878" y2="792.8878" gradientTransform="matrix(1 0 0 1 0 -731)">
		<stop  offset="0" style="stop-color:#2FB6F8"/>
		<stop  offset="0.3942" style="stop-color:#468AD8"/>
		<stop  offset="1" style="stop-color:#6C40A1"/>
	</linearGradient>
	<polygon fill="url(#SVGID_2_)" points="23.087,48.917 12.691,42.948 12.691,31.008 17.019,33.508 17.019,27.54 7.523,22.057 
		7.523,45.934 28.198,57.868 28.198,46.204 23.087,43.252 	"/>
	
		<linearGradient id="SVGID_3_" gradientUnits="userSpaceOnUse" x1="12.0498" y1="750.877" x2="57.143" y2="781.4335" gradientTransform="matrix(1 0 0 1 0 -731)">
		<stop  offset="0" style="stop-color:#2FB6F8"/>
		<stop  offset="0.3942" style="stop-color:#468AD8"/>
		<stop  offset="1" style="stop-color:#6C40A1"/>
	</linearGradient>
	<polygon fill="url(#SVGID_3_)" points="31.659,44.293 36.827,41.309 36.827,36.979 41.186,34.461 41.186,28.493 31.659,33.995 	"/>
	
		<linearGradient id="SVGID_4_" gradientUnits="userSpaceOnUse" x1="12.1396" y1="750.7305" x2="57.2458" y2="781.2958" gradientTransform="matrix(1 0 0 1 0 -731)">
		<stop  offset="0" style="stop-color:#2FB6F8"/>
		<stop  offset="0.3942" style="stop-color:#468AD8"/>
		<stop  offset="1" style="stop-color:#6C40A1"/>
	</linearGradient>
	<polygon fill="url(#SVGID_4_)" points="42.838,27.54 42.838,33.508 47.168,31.008 47.168,42.948 36.827,48.917 36.827,43.218 
		31.659,46.204 31.659,57.868 52.333,45.934 52.333,22.057 	"/>
	
		<linearGradient id="SVGID_5_" gradientUnits="userSpaceOnUse" x1="14.4722" y1="747.3057" x2="59.5618" y2="777.8597" gradientTransform="matrix(1 0 0 1 0 -731)">
		<stop  offset="0" style="stop-color:#2FB6F8"/>
		<stop  offset="0.3942" style="stop-color:#468AD8"/>
		<stop  offset="1" style="stop-color:#6C40A1"/>
	</linearGradient>
	<path fill="url(#SVGID_5_)" d="M23.053,21.124l-3.463-1.999l2.502-1.443c-1.221-1.22-2.158-2.725-2.706-4.405L9.252,19.125
		l8.633,4.984L23.053,21.124z"/>
	
		<linearGradient id="SVGID_6_" gradientUnits="userSpaceOnUse" x1="21.8984" y1="736.3467" x2="66.9939" y2="766.9047" gradientTransform="matrix(1 0 0 1 0 -731)">
		<stop  offset="0" style="stop-color:#2FB6F8"/>
		<stop  offset="0.3942" style="stop-color:#468AD8"/>
		<stop  offset="1" style="stop-color:#6C40A1"/>
	</linearGradient>
	<path fill="url(#SVGID_6_)" d="M41.972,24.108l8.633-4.984l-10.133-5.849c-0.548,1.681-1.486,3.185-2.707,4.405l2.502,1.443
		l-3.463,1.999L41.972,24.108z"/>
	
		<linearGradient id="SVGID_7_" gradientUnits="userSpaceOnUse" x1="15.2686" y1="746.127" x2="60.3624" y2="776.684" gradientTransform="matrix(1 0 0 1 0 -731)">
		<stop  offset="0" style="stop-color:#2FB6F8"/>
		<stop  offset="0.3942" style="stop-color:#468AD8"/>
		<stop  offset="1" style="stop-color:#6C40A1"/>
	</linearGradient>
	<polygon fill="url(#SVGID_7_)" points="35.154,22.078 29.93,25.095 24.703,22.078 19.534,25.061 29.93,31.063 40.323,25.061 	"/>
	<g>
		<path fill="#FFFFFF" d="M29.929,2.132c-4.321,0-7.825,3.503-7.825,7.827c0,2.894,3.508,7.12,5.825,9.597
			c0.454,0.48,0.858,0.897,1.184,1.223c0.503,0.503,0.815,0.794,0.815,0.794s0.313-0.291,0.816-0.794
			c0.325-0.326,0.73-0.742,1.183-1.223c2.317-2.477,5.826-6.703,5.826-9.597C37.753,5.635,34.25,2.132,29.929,2.132z M29.929,13.131
			c-1.787,0-3.236-1.448-3.236-3.235c0-1.788,1.449-3.236,3.236-3.236c1.788,0,3.236,1.448,3.236,3.236
			C33.165,11.683,31.716,13.131,29.929,13.131z"/>
	</g>
	<polygon fill="#FFFFFF" points="116.162,39.586 117.684,36.016 119.309,39.586 	"/>
</g>
<g>
	<path fill="#FFFFFF" d="M108.331,48.141h-1.116l-0.552-1.627h-2.413l-0.529,1.627h-1.113l2.297-6.391h1.146L108.331,48.141z
		 M106.395,45.648l-0.853-2.549c-0.024-0.082-0.054-0.217-0.081-0.4h-0.018c-0.025,0.17-0.055,0.303-0.086,0.4l-0.842,2.549H106.395
		z"/>
	<path fill="#FFFFFF" d="M109.979,48.141V41.75h1.771c2.262,0,3.393,1.038,3.393,3.115c0,0.984-0.313,1.777-0.94,2.377
		c-0.627,0.599-1.47,0.896-2.522,0.896h-1.701V48.141z M110.992,42.65v4.594h0.813c0.717,0,1.272-0.205,1.672-0.615
		c0.396-0.409,0.597-0.988,0.597-1.736c0-1.494-0.743-2.242-2.229-2.242H110.992L110.992,42.65z"/>
	<path fill="#FFFFFF" d="M123.654,48.141h-1.008v-4.136c0-0.339,0.02-0.753,0.06-1.243h-0.019c-0.063,0.279-0.117,0.479-0.166,0.603
		l-1.83,4.776h-0.701l-1.836-4.74c-0.051-0.141-0.104-0.354-0.162-0.639h-0.018c0.022,0.256,0.034,0.674,0.034,1.252v4.127h-0.94
		V41.75h1.433l1.612,4.256c0.123,0.326,0.203,0.57,0.24,0.73h0.021c0.104-0.336,0.19-0.586,0.257-0.75l1.643-4.236h1.381V48.141z"/>
	<path fill="#FFFFFF" d="M127.016,48.141h-1.049V41.75h1.049V48.141z"/>
	<path fill="#FFFFFF" d="M134.531,48.141h-1.112l-2.93-4.697c-0.074-0.117-0.136-0.241-0.185-0.369h-0.025
		c0.023,0.137,0.035,0.43,0.035,0.878v4.188h-0.984V41.75h1.186l2.832,4.585c0.119,0.19,0.195,0.321,0.229,0.394h0.019
		c-0.029-0.17-0.043-0.457-0.043-0.86V41.75h0.979V48.141L134.531,48.141z"/>
	<path fill="#FFFFFF" d="M137.898,48.141h-1.047V41.75h1.047V48.141z"/>
	<path fill="#FFFFFF" d="M139.934,47.886v-1.092c0.094,0.089,0.205,0.17,0.336,0.241c0.129,0.07,0.268,0.131,0.412,0.18
		c0.146,0.049,0.291,0.087,0.437,0.114c0.146,0.026,0.278,0.04,0.401,0.04c0.428,0,0.746-0.074,0.957-0.223
		c0.209-0.149,0.313-0.364,0.313-0.646c0-0.15-0.035-0.283-0.104-0.395s-0.168-0.213-0.293-0.306s-0.272-0.181-0.442-0.266
		c-0.171-0.084-0.353-0.173-0.546-0.265c-0.207-0.117-0.401-0.233-0.582-0.354c-0.18-0.118-0.336-0.25-0.467-0.395
		c-0.133-0.145-0.237-0.307-0.313-0.487c-0.076-0.183-0.112-0.394-0.112-0.638c0-0.301,0.063-0.562,0.193-0.781
		c0.13-0.223,0.301-0.404,0.514-0.549s0.454-0.25,0.725-0.32c0.271-0.069,0.549-0.104,0.83-0.104c0.643,0,1.109,0.074,1.402,0.228
		v1.047c-0.348-0.262-0.795-0.394-1.343-0.394c-0.151,0-0.302,0.017-0.451,0.045c-0.149,0.029-0.284,0.08-0.401,0.146
		c-0.119,0.068-0.215,0.156-0.289,0.264c-0.073,0.106-0.11,0.235-0.11,0.389c0,0.143,0.028,0.266,0.085,0.369
		c0.059,0.104,0.141,0.199,0.251,0.285c0.108,0.086,0.243,0.17,0.401,0.252s0.342,0.17,0.55,0.266
		c0.214,0.115,0.416,0.236,0.604,0.365c0.189,0.127,0.356,0.269,0.5,0.423c0.146,0.153,0.258,0.325,0.344,0.515
		c0.084,0.188,0.125,0.403,0.125,0.645c0,0.324-0.063,0.598-0.188,0.82s-0.294,0.403-0.507,0.543
		c-0.212,0.14-0.457,0.24-0.733,0.303c-0.275,0.063-0.568,0.094-0.877,0.094c-0.103,0-0.229-0.008-0.379-0.023
		c-0.148-0.017-0.303-0.041-0.459-0.072c-0.156-0.03-0.306-0.067-0.445-0.112C140.133,47.993,140.02,47.941,139.934,47.886z"/>
	<path fill="#FFFFFF" d="M149.641,42.65h-1.764v5.488h-1.018V42.65h-1.758v-0.9h4.537v0.9H149.641z"/>
	<path fill="#FFFFFF" d="M156.082,48.141h-1.189l-0.979-1.711c-0.088-0.158-0.174-0.293-0.258-0.404
		c-0.086-0.11-0.17-0.201-0.258-0.272c-0.086-0.071-0.182-0.124-0.285-0.155c-0.102-0.033-0.217-0.05-0.346-0.05h-0.41v2.593h-1.015
		v-6.39h2.019c0.289,0,0.555,0.036,0.797,0.106c0.242,0.072,0.453,0.18,0.633,0.324c0.18,0.144,0.32,0.322,0.422,0.539
		c0.102,0.215,0.15,0.467,0.15,0.754c0,0.227-0.031,0.434-0.096,0.623c-0.063,0.188-0.154,0.355-0.273,0.502
		c-0.118,0.147-0.262,0.272-0.428,0.377s-0.354,0.185-0.563,0.24v0.018c0.11,0.065,0.209,0.139,0.291,0.218
		c0.083,0.078,0.161,0.159,0.235,0.241c0.074,0.084,0.146,0.179,0.221,0.283c0.072,0.105,0.152,0.229,0.241,0.367L156.082,48.141z
		 M152.355,42.609v2.076h0.848c0.156,0,0.302-0.024,0.436-0.074c0.133-0.051,0.246-0.125,0.344-0.219
		c0.098-0.096,0.172-0.211,0.228-0.349c0.054-0.137,0.081-0.289,0.081-0.459c0-0.306-0.093-0.545-0.277-0.717
		c-0.187-0.173-0.453-0.259-0.801-0.259H152.355L152.355,42.609z"/>
	<path fill="#FFFFFF" d="M162.643,48.141h-1.117l-0.551-1.627h-2.414l-0.529,1.627h-1.112l2.297-6.391h1.146L162.643,48.141z
		 M160.704,45.648l-0.853-2.549c-0.024-0.082-0.053-0.217-0.08-0.4h-0.019c-0.024,0.17-0.054,0.303-0.085,0.4l-0.843,2.549H160.704z
		"/>
	<path fill="#FFFFFF" d="M167.874,42.65h-1.763v5.488h-1.019V42.65h-1.758v-0.9h4.538L167.874,42.65L167.874,42.65z"/>
	<path fill="#FFFFFF" d="M172.021,48.246c-0.885,0-1.592-0.298-2.125-0.896c-0.53-0.597-0.797-1.373-0.797-2.33
		c0-1.026,0.271-1.848,0.813-2.459s1.277-0.918,2.207-0.918c0.861,0,1.555,0.297,2.081,0.892s0.788,1.37,0.788,2.331
		c0,1.042-0.27,1.865-0.807,2.473C173.643,47.943,172.921,48.246,172.021,48.246z M172.066,42.574c-0.562,0-1.019,0.219-1.371,0.654
		c-0.352,0.437-0.527,1.013-0.527,1.726c0,0.71,0.171,1.28,0.514,1.715c0.342,0.435,0.791,0.651,1.344,0.651
		c0.588,0,1.051-0.207,1.391-0.62c0.339-0.412,0.509-0.99,0.509-1.732c0-0.764-0.165-1.354-0.493-1.77
		C173.102,42.782,172.646,42.574,172.066,42.574z"/>
	<path fill="#FFFFFF" d="M181.658,48.141h-1.189l-0.979-1.711c-0.088-0.158-0.174-0.293-0.258-0.404
		c-0.086-0.11-0.17-0.201-0.258-0.272c-0.086-0.071-0.182-0.124-0.285-0.155c-0.103-0.033-0.217-0.05-0.346-0.05h-0.41v2.593h-1.015
		v-6.39h2.019c0.289,0,0.555,0.036,0.797,0.106c0.242,0.072,0.453,0.18,0.633,0.324c0.18,0.144,0.32,0.322,0.422,0.539
		c0.102,0.215,0.15,0.467,0.15,0.754c0,0.227-0.031,0.434-0.096,0.623c-0.064,0.188-0.154,0.355-0.273,0.502
		c-0.118,0.147-0.262,0.272-0.428,0.377s-0.354,0.185-0.563,0.24v0.018c0.11,0.065,0.209,0.139,0.291,0.218
		c0.083,0.078,0.161,0.159,0.235,0.241c0.074,0.084,0.146,0.179,0.221,0.283c0.072,0.105,0.152,0.229,0.24,0.367L181.658,48.141z
		 M177.934,42.609v2.076h0.846c0.158,0,0.303-0.024,0.436-0.074c0.133-0.051,0.247-0.125,0.346-0.219
		c0.097-0.096,0.172-0.211,0.227-0.349c0.054-0.137,0.081-0.289,0.081-0.459c0-0.306-0.093-0.545-0.278-0.717
		c-0.186-0.173-0.451-0.259-0.8-0.259H177.934L177.934,42.609z"/>
</g>
</svg>
