<?xml version="1.0" encoding="utf-8"?>
<!-- Generator: Adobe Illustrator 16.0.0, SVG Export Plug-In . SVG Version: 6.00 Build 0)  -->
<!DOCTYPE svg PUBLIC "-//W3C//DTD SVG 1.1//EN" "http://www.w3.org/Graphics/SVG/1.1/DTD/svg11.dtd">
<svg version="1.1" id="Layer_1" xmlns="http://www.w3.org/2000/svg" xmlns:xlink="http://www.w3.org/1999/xlink" x="0px" y="0px"
	 width="189px" height="60px" viewBox="0 0 189 60" enable-background="new 0 0 189 60" xml:space="preserve">
<g>
	<path fill="#FFFFFF" d="M60.175,22.586h3.837v13.648h7.286v3.352H60.175V22.586z"/>
	<path fill="#FFFFFF" d="M86.135,23.46c1.392,0.761,2.49,1.81,3.291,3.145c0.802,1.335,1.202,2.822,1.202,4.457
		c0,1.636-0.4,3.124-1.202,4.468c-0.801,1.343-1.898,2.4-3.291,3.169c-1.393,0.771-2.938,1.154-4.638,1.154
		c-1.7,0-3.247-0.384-4.639-1.154c-1.393-0.769-2.489-1.821-3.29-3.156c-0.802-1.336-1.202-2.83-1.202-4.48
		c0-1.635,0.4-3.122,1.202-4.457c0.801-1.335,1.894-2.384,3.278-3.145c1.384-0.761,2.934-1.142,4.651-1.142
		C83.197,22.319,84.743,22.7,86.135,23.46z M78.923,26.387c-0.81,0.478-1.449,1.129-1.919,1.954
		c-0.469,0.826-0.704,1.732-0.704,2.721c0,1.003,0.238,1.918,0.716,2.743s1.117,1.48,1.919,1.968
		c0.801,0.485,1.672,0.729,2.611,0.729c0.938,0,1.801-0.241,2.586-0.718c0.785-0.478,1.408-1.134,1.87-1.966
		c0.461-0.835,0.692-1.754,0.692-2.757c0-0.989-0.23-1.895-0.692-2.721c-0.462-0.825-1.085-1.477-1.87-1.954
		c-0.785-0.478-1.647-0.716-2.586-0.716C80.607,25.671,79.732,25.91,78.923,26.387z"/>
	<path fill="#FFFFFF" d="M108.916,39.586h-4.59l-4.906-6.97l-2.43,2.694v4.275h-3.836v-17h3.836v7.917l7.043-7.917h4.469
		l-6.41,7.067L108.916,39.586z"/>
	<path fill="#FFFFFF" d="M113.342,39.586h-4.426l8.762-17l8.877,17h-4.473l-4.404-9.362L113.342,39.586"/>
	<path fill="#FFFFFF" d="M129.484,22.586h3.836v13.648h7.287v3.352h-11.123V22.586z"/>
	<path fill="#775BFB" d="M143.42,22.586h3.836v17h-3.836V22.586z"/>
	<path fill="#775BFB" d="M150.881,22.586h14.354v2.575l-9.498,11.219h9.645l-0.025,3.206h-14.789v-2.598l9.518-11.197h-9.203V22.586
		z"/>
	<path fill="#775BFB" d="M168.268,22.586h12.945v3.181h-9.111v3.692h8.186v3.181h-8.186v3.764h9.375v3.182h-13.209V22.586z"/>
	<linearGradient id="SVGID_1_" gradientUnits="userSpaceOnUse" x1="8.0645" y1="25.7568" x2="53.1631" y2="56.3171">
		<stop  offset="0" style="stop-color:#2FB6F8"/>
		<stop  offset="0.3942" style="stop-color:#468AD8"/>
		<stop  offset="1" style="stop-color:#6C40A1"/>
	</linearGradient>
	<polygon fill="url(#SVGID_1_)" points="18.668,34.461 23.087,37.011 23.087,41.342 28.198,44.293 28.198,33.995 18.668,28.493 	"/>
	<linearGradient id="SVGID_2_" gradientUnits="userSpaceOnUse" x1="4.292" y1="31.3291" x2="49.3868" y2="61.8868">
		<stop  offset="0" style="stop-color:#2FB6F8"/>
		<stop  offset="0.3942" style="stop-color:#468AD8"/>
		<stop  offset="1" style="stop-color:#6C40A1"/>
	</linearGradient>
	<polygon fill="url(#SVGID_2_)" points="23.087,48.917 12.691,42.948 12.691,31.008 17.019,33.508 17.019,27.54 7.523,22.057 
		7.523,45.933 28.198,57.868 28.198,46.204 23.087,43.252 	"/>
	<linearGradient id="SVGID_3_" gradientUnits="userSpaceOnUse" x1="12.0513" y1="19.8789" x2="57.1445" y2="50.4355">
		<stop  offset="0" style="stop-color:#2FB6F8"/>
		<stop  offset="0.3942" style="stop-color:#468AD8"/>
		<stop  offset="1" style="stop-color:#6C40A1"/>
	</linearGradient>
	<polygon fill="url(#SVGID_3_)" points="31.659,44.293 36.827,41.309 36.827,36.979 41.186,34.461 41.186,28.493 31.659,33.995 	"/>
	<linearGradient id="SVGID_4_" gradientUnits="userSpaceOnUse" x1="12.1445" y1="19.7344" x2="57.2434" y2="50.2948">
		<stop  offset="0" style="stop-color:#2FB6F8"/>
		<stop  offset="0.3942" style="stop-color:#468AD8"/>
		<stop  offset="1" style="stop-color:#6C40A1"/>
	</linearGradient>
	<polygon fill="url(#SVGID_4_)" points="42.838,27.54 42.838,33.508 47.168,31.008 47.168,42.948 36.827,48.917 36.827,43.218 
		31.659,46.204 31.659,57.868 52.333,45.933 52.333,22.057 	"/>
	<linearGradient id="SVGID_5_" gradientUnits="userSpaceOnUse" x1="14.4731" y1="16.3042" x2="59.5662" y2="46.8607">
		<stop  offset="0" style="stop-color:#2FB6F8"/>
		<stop  offset="0.3942" style="stop-color:#468AD8"/>
		<stop  offset="1" style="stop-color:#6C40A1"/>
	</linearGradient>
	<path fill="url(#SVGID_5_)" d="M23.053,21.124l-3.463-1.999l2.502-1.443c-1.221-1.22-2.158-2.725-2.706-4.405L9.252,19.125
		l8.633,4.984L23.053,21.124z"/>
	<linearGradient id="SVGID_6_" gradientUnits="userSpaceOnUse" x1="21.8979" y1="5.3472" x2="66.9933" y2="35.9052">
		<stop  offset="0" style="stop-color:#2FB6F8"/>
		<stop  offset="0.3942" style="stop-color:#468AD8"/>
		<stop  offset="1" style="stop-color:#6C40A1"/>
	</linearGradient>
	<path fill="url(#SVGID_6_)" d="M41.972,24.108l8.633-4.984l-10.133-5.849c-0.548,1.681-1.486,3.185-2.707,4.405l2.502,1.443
		l-3.463,1.999L41.972,24.108z"/>
	<linearGradient id="SVGID_7_" gradientUnits="userSpaceOnUse" x1="15.27" y1="15.1279" x2="60.3638" y2="45.6849">
		<stop  offset="0" style="stop-color:#2FB6F8"/>
		<stop  offset="0.3942" style="stop-color:#468AD8"/>
		<stop  offset="1" style="stop-color:#6C40A1"/>
	</linearGradient>
	<polygon fill="url(#SVGID_7_)" points="35.154,22.078 29.93,25.095 24.703,22.078 19.534,25.061 29.93,31.063 40.323,25.061 	"/>
	<g>
		<path fill="#FFFFFF" d="M29.929,2.132c-4.321,0-7.825,3.503-7.825,7.827c0,2.894,3.508,7.12,5.825,9.597
			c0.454,0.48,0.858,0.897,1.184,1.223c0.503,0.503,0.815,0.794,0.815,0.794s0.313-0.291,0.816-0.794
			c0.325-0.326,0.73-0.742,1.183-1.223c2.317-2.477,5.826-6.703,5.826-9.597C37.753,5.635,34.25,2.132,29.929,2.132z M29.929,13.131
			c-1.787,0-3.236-1.448-3.236-3.235c0-1.788,1.449-3.236,3.236-3.236c1.788,0,3.236,1.448,3.236,3.236
			C33.165,11.683,31.716,13.131,29.929,13.131z"/>
	</g>
	<polygon fill="#FFFFFF" points="116.162,39.586 117.684,36.015 119.309,39.586 	"/>
</g>
</svg>
