<?xml version="1.0" encoding="utf-8"?>
<!-- Generator: Adobe Illustrator 16.0.0, SVG Export Plug-In . SVG Version: 6.00 Build 0)  -->
<!DOCTYPE svg PUBLIC "-//W3C//DTD SVG 1.1//EN" "http://www.w3.org/Graphics/SVG/1.1/DTD/svg11.dtd">
<svg version="1.1" id="Layer_1" xmlns="http://www.w3.org/2000/svg" xmlns:xlink="http://www.w3.org/1999/xlink" x="0px" y="0px"
	 width="50px" height="50px" viewBox="0 0 50 50" enable-background="new 0 0 50 50" xml:space="preserve">
<path fill="#BAB7C7" d="M46.412,19.988C43.643,8.163,31.803,0.83,19.989,3.588C8.163,6.36,0.83,18.2,3.587,30.011
	c2.774,11.826,14.599,19.159,26.425,16.4C41.839,43.641,49.172,31.801,46.412,19.988z M29.234,43.08
	C19.252,45.415,9.255,39.216,6.92,29.232C4.584,19.251,10.785,9.255,20.766,6.92c9.983-2.335,19.98,3.865,22.315,13.847
	C45.417,30.749,39.217,40.745,29.234,43.08z"/>
<path fill="#BAB7C7" d="M25.001,14.854c-0.778,0-1.407,0.628-1.407,1.406c0,0.778,0.629,1.407,1.407,1.407
	c0.776,0,1.405-0.629,1.405-1.407C26.406,15.482,25.777,14.854,25.001,14.854z M25.001,14.854c-0.778,0-1.407,0.628-1.407,1.406
	c0,0.778,0.629,1.407,1.407,1.407c0.776,0,1.405-0.629,1.405-1.407C26.406,15.482,25.777,14.854,25.001,14.854z M25.001,14.854
	c-0.778,0-1.407,0.628-1.407,1.406c0,0.778,0.629,1.407,1.407,1.407c0.776,0,1.405-0.629,1.405-1.407
	C26.406,15.482,25.777,14.854,25.001,14.854z M25.001,14.854c-0.778,0-1.407,0.628-1.407,1.406c0,0.778,0.629,1.407,1.407,1.407
	c0.776,0,1.405-0.629,1.405-1.407C26.406,15.482,25.777,14.854,25.001,14.854z M25.001,14.854c-0.778,0-1.407,0.628-1.407,1.406
	c0,0.778,0.629,1.407,1.407,1.407c0.776,0,1.405-0.629,1.405-1.407C26.406,15.482,25.777,14.854,25.001,14.854z M25.001,14.854
	c-0.778,0-1.407,0.628-1.407,1.406c0,0.778,0.629,1.407,1.407,1.407c0.776,0,1.405-0.629,1.405-1.407
	C26.406,15.482,25.777,14.854,25.001,14.854z M25.001,9.392c-8.617,0-15.609,6.992-15.609,15.609
	c0,8.616,6.992,15.606,15.609,15.606c8.616,0,15.606-6.99,15.606-15.606C40.607,16.384,33.617,9.392,25.001,9.392z M29.59,17.722
	l4.396,2.555l-3.742,2.157l-2.252-1.298l1.502-0.859l-1.08-0.629C28.947,19.115,29.344,18.46,29.59,17.722z M25.001,12.874
	c1.883,0,3.399,1.53,3.399,3.414c0,1.257-1.529,3.086-2.527,4.165c-0.203,0.219-0.382,0.396-0.519,0.532
	C25.137,21.204,25,21.339,25,21.339s-0.139-0.136-0.355-0.354c-0.137-0.136-0.315-0.313-0.519-0.532
	c-0.998-1.079-2.527-2.908-2.527-4.165C21.6,14.404,23.117,12.874,25.001,12.874z M20.413,17.722
	c0.244,0.738,0.655,1.394,1.174,1.926l-1.078,0.629l1.501,0.859l-2.253,1.298l-3.741-2.157L20.413,17.722z M24.25,37.127
	l-8.998-5.203V21.546l4.137,2.39v2.593l-1.885-1.091v5.189l4.52,2.607v-2.471l2.227,1.282L24.25,37.127L24.25,37.127z M24.25,31.213
	l-2.227-1.281v-1.885l-1.925-1.107v-2.594l4.151,2.389L24.25,31.213L24.25,31.213z M20.481,22.856l2.253-1.298l2.268,1.312
	l2.28-1.312l2.237,1.298l-4.518,2.607L20.481,22.856z M29.889,24.345v2.594l-1.885,1.093v1.885l-2.252,1.297v-4.479L29.889,24.345z
	 M34.75,31.924l-8.999,5.203v-5.08l2.252-1.297v2.484l4.494-2.607v-5.189l-1.886,1.091v-2.593l4.138-2.39L34.75,31.924L34.75,31.924
	z M26.406,16.261c0-0.778-0.629-1.406-1.405-1.406c-0.778,0-1.407,0.628-1.407,1.406c0,0.778,0.629,1.407,1.407,1.407
	C25.777,17.668,26.406,17.039,26.406,16.261z M25.001,14.854c-0.778,0-1.407,0.628-1.407,1.406c0,0.778,0.629,1.407,1.407,1.407
	c0.776,0,1.405-0.629,1.405-1.407C26.406,15.482,25.777,14.854,25.001,14.854z M25.001,14.854c-0.778,0-1.407,0.628-1.407,1.406
	c0,0.778,0.629,1.407,1.407,1.407c0.776,0,1.405-0.629,1.405-1.407C26.406,15.482,25.777,14.854,25.001,14.854z M25.001,14.854
	c-0.778,0-1.407,0.628-1.407,1.406c0,0.778,0.629,1.407,1.407,1.407c0.776,0,1.405-0.629,1.405-1.407
	C26.406,15.482,25.777,14.854,25.001,14.854z M25.001,14.854c-0.778,0-1.407,0.628-1.407,1.406c0,0.778,0.629,1.407,1.407,1.407
	c0.776,0,1.405-0.629,1.405-1.407C26.406,15.482,25.777,14.854,25.001,14.854z M25.001,14.854c-0.778,0-1.407,0.628-1.407,1.406
	c0,0.778,0.629,1.407,1.407,1.407c0.776,0,1.405-0.629,1.405-1.407C26.406,15.482,25.777,14.854,25.001,14.854z M25.001,14.854
	c-0.778,0-1.407,0.628-1.407,1.406c0,0.778,0.629,1.407,1.407,1.407c0.776,0,1.405-0.629,1.405-1.407
	C26.406,15.482,25.777,14.854,25.001,14.854z"/>
<path fill="#231F20" d="M21.329,55.93C12.674,57.957,7.297,66.621,9.324,75.275c2.027,8.656,10.69,14.031,19.347,12.006
	c8.655-2.027,14.031-10.691,12.005-19.346C38.648,59.279,29.984,53.902,21.329,55.93z M28.102,84.848
	c-7.313,1.711-14.63-2.828-16.344-10.142c-1.712-7.312,2.83-14.63,10.142-16.343c7.312-1.711,14.629,2.83,16.342,10.143
	C39.954,75.816,35.413,83.135,28.102,84.848z"/>
<circle fill="#231F20" cx="25" cy="71.605" r="11.426"/>
<g>
	<path fill="#FFF200" d="M28.837,69.729l2.748-1.586l-3.228-1.863c-0.174,0.535-0.473,1.015-0.862,1.402l0.799,0.461l-1.104,0.637
		L28.837,69.729z"/>
	<g>
		<polygon fill="#FFF200" points="21.414,73.027 22.821,73.838 22.821,75.219 24.449,76.158 24.449,72.877 21.414,71.125 		"/>
		<polygon fill="#FFF200" points="22.821,77.631 19.511,75.729 19.511,71.928 20.889,72.723 20.889,70.822 17.864,69.075 
			17.864,76.68 24.449,80.482 24.449,76.766 22.821,75.826 		"/>
		<polygon fill="#FFF200" points="25.551,76.158 27.198,75.207 27.198,73.828 28.585,73.027 28.585,71.125 25.551,72.877 		"/>
		<polygon fill="#FFF200" points="29.111,70.822 29.111,72.723 30.491,71.928 30.491,75.729 27.198,77.631 27.198,75.816 
			25.551,76.766 25.551,80.482 32.137,76.68 32.137,69.075 		"/>
		<path fill="#FFF200" d="M22.811,68.777l-1.104-0.637l0.797-0.459c-0.389-0.39-0.687-0.867-0.862-1.404l-3.227,1.863l2.749,1.588
			L22.811,68.777z"/>
		<polygon fill="#FFF200" points="26.665,69.082 25,70.043 23.336,69.082 21.689,70.033 25,71.943 28.313,70.033 		"/>
		<g>
			<path fill="#FFF200" d="M25,62.729c-1.377,0-2.492,1.117-2.492,2.494c0,0.922,1.118,2.269,1.855,3.057
				c0.145,0.152,0.273,0.285,0.377,0.39c0.16,0.16,0.26,0.254,0.26,0.254s0.1-0.094,0.26-0.254c0.104-0.104,0.233-0.235,0.377-0.39
				c0.737-0.788,1.856-2.135,1.856-3.057C27.493,63.846,26.376,62.729,25,62.729z M25,66.232c-0.569,0-1.031-0.461-1.031-1.029
				c0-0.57,0.462-1.031,1.031-1.031c0.568,0,1.029,0.461,1.029,1.031C26.029,65.771,25.568,66.232,25,66.232z"/>
		</g>
	</g>
</g>
</svg>
