<?xml version="1.0" encoding="utf-8"?>
<!-- Generator: Adobe Illustrator 21.0.0, SVG Export Plug-In . SVG Version: 6.00 Build 0)  -->
<svg version="1.1" id="Layer_1" xmlns="http://www.w3.org/2000/svg" xmlns:xlink="http://www.w3.org/1999/xlink" x="0px" y="0px"
	 viewBox="0 0 50 50" style="enable-background:new 0 0 50 50;" xml:space="preserve">
<style type="text/css">
	.st0{fill:url(#SVGID_1_);}
	.st1{fill:url(#SVGID_2_);}
	.st2{fill:url(#SVGID_3_);}
	.st3{fill:url(#SVGID_4_);}
	.st4{fill:url(#SVGID_5_);}
	.st5{fill:url(#SVGID_6_);}
	.st6{fill:url(#SVGID_7_);}
	.st7{fill:#FFFFFF;}
</style>
<g>
	
		<linearGradient id="SVGID_1_" gradientUnits="userSpaceOnUse" x1="5.4833" y1="30.7876" x2="45.7409" y2="3.5077" gradientTransform="matrix(1 0 0 -1 0 52)">
		<stop  offset="0" style="stop-color:#2FB6F8"/>
		<stop  offset="0.3942" style="stop-color:#468AD8"/>
		<stop  offset="1" style="stop-color:#6C40A1"/>
	</linearGradient>
	<polygon class="st0" points="14.9,29 18.9,31.3 18.9,35.1 23.5,37.8 23.5,28.6 14.9,23.7 	"/>
	
		<linearGradient id="SVGID_2_" gradientUnits="userSpaceOnUse" x1="2.1156" y1="25.8132" x2="42.3698" y2="-1.4644" gradientTransform="matrix(1 0 0 -1 0 52)">
		<stop  offset="0" style="stop-color:#2FB6F8"/>
		<stop  offset="0.3942" style="stop-color:#468AD8"/>
		<stop  offset="1" style="stop-color:#6C40A1"/>
	</linearGradient>
	<polygon class="st1" points="18.9,41.9 9.6,36.6 9.6,25.9 13.5,28.1 13.5,22.8 5,17.9 5,39.2 23.5,49.9 23.5,39.5 18.9,36.8 	"/>
	
		<linearGradient id="SVGID_3_" gradientUnits="userSpaceOnUse" x1="9.0425" y1="36.0351" x2="49.2953" y2="8.7585" gradientTransform="matrix(1 0 0 -1 0 52)">
		<stop  offset="0" style="stop-color:#2FB6F8"/>
		<stop  offset="0.3942" style="stop-color:#468AD8"/>
		<stop  offset="1" style="stop-color:#6C40A1"/>
	</linearGradient>
	<polygon class="st2" points="26.5,37.8 31.2,35.1 31.2,31.2 35,29 35,23.7 26.5,28.6 	"/>
	
		<linearGradient id="SVGID_4_" gradientUnits="userSpaceOnUse" x1="9.1255" y1="36.1638" x2="49.3834" y2="8.8838" gradientTransform="matrix(1 0 0 -1 0 52)">
		<stop  offset="0" style="stop-color:#2FB6F8"/>
		<stop  offset="0.3942" style="stop-color:#468AD8"/>
		<stop  offset="1" style="stop-color:#6C40A1"/>
	</linearGradient>
	<polygon class="st3" points="36.5,22.8 36.5,28.1 40.4,25.9 40.4,36.6 31.2,41.9 31.2,36.8 26.5,39.5 26.5,49.9 45,39.2 45,17.9 	
		"/>
	
		<linearGradient id="SVGID_5_" gradientUnits="userSpaceOnUse" x1="11.2036" y1="39.2249" x2="51.4563" y2="11.9484" gradientTransform="matrix(1 0 0 -1 0 52)">
		<stop  offset="0" style="stop-color:#2FB6F8"/>
		<stop  offset="0.3942" style="stop-color:#468AD8"/>
		<stop  offset="1" style="stop-color:#6C40A1"/>
	</linearGradient>
	<path class="st4" d="M18.9,17.1l-3.1-1.8L18,14c-1.1-1.1-1.9-2.4-2.4-3.9l-9,5.2l7.7,4.4L18.9,17.1z"/>
	
		<linearGradient id="SVGID_6_" gradientUnits="userSpaceOnUse" x1="17.8323" y1="49.0071" x2="58.0871" y2="21.7293" gradientTransform="matrix(1 0 0 -1 0 52)">
		<stop  offset="0" style="stop-color:#2FB6F8"/>
		<stop  offset="0.3942" style="stop-color:#468AD8"/>
		<stop  offset="1" style="stop-color:#6C40A1"/>
	</linearGradient>
	<path class="st5" d="M35.8,19.7l7.7-4.4l-9-5.2c-0.5,1.5-1.3,2.8-2.4,3.9l2.2,1.3l-3.1,1.8L35.8,19.7z"/>
	
		<linearGradient id="SVGID_7_" gradientUnits="userSpaceOnUse" x1="11.9154" y1="40.2757" x2="52.1687" y2="12.9987" gradientTransform="matrix(1 0 0 -1 0 52)">
		<stop  offset="0" style="stop-color:#2FB6F8"/>
		<stop  offset="0.3942" style="stop-color:#468AD8"/>
		<stop  offset="1" style="stop-color:#6C40A1"/>
	</linearGradient>
	<polygon class="st6" points="29.7,17.9 25,20.6 20.3,17.9 15.7,20.6 25,25.9 34.3,20.6 	"/>
	<g>
		<path class="st7" d="M25,0.1c-3.9,0-7,3.1-7,7c0,2.6,3.1,6.4,5.2,8.6c0.4,0.4,0.8,0.8,1.1,1.1c0.4,0.4,0.7,0.7,0.7,0.7
			s0.3-0.3,0.7-0.7c0.3-0.3,0.7-0.7,1.1-1.1c2.1-2.2,5.2-6,5.2-8.6C32,3.3,28.9,0.1,25,0.1z M25,9.9c-1.6,0-2.9-1.3-2.9-2.9
			c0-1.6,1.3-2.9,2.9-2.9c1.6,0,2.9,1.3,2.9,2.9C27.9,8.6,26.6,9.9,25,9.9z"/>
	</g>
</g>
</svg>
