<svg xmlns="http://www.w3.org/2000/svg" xmlns:xlink="http://www.w3.org/1999/xlink" viewBox="0 0 495.29 375.81"><defs><style>.cls-1{fill:none;}.cls-2{fill:url(#linear-gradient);}.cls-3{fill:#23175e;}.cls-4{fill:#090222;}.cls-5{fill:#3b3184;}.cls-6{fill:#14253f;}.cls-7{fill:#0e0d1e;}.cls-8{fill:url(#linear-gradient-2);}.cls-9{font-size:9.87px;}.cls-15,.cls-18,.cls-9{fill:#fff;}.cls-18,.cls-9{font-family:Montserrat-SemiBold, Montserrat;font-weight:700;}.cls-10{letter-spacing:-0.02em;}.cls-11{letter-spacing:-0.05em;}.cls-12{letter-spacing:-0.05em;}.cls-13{letter-spacing:-0.01em;}.cls-14{letter-spacing:-0.07em;}.cls-16{clip-path:url(#clip-path);}.cls-17{fill:url(#linear-gradient-3);}.cls-18{font-size:9.49px;}.cls-19{letter-spacing:-0.02em;}.cls-20{fill:url(#linear-gradient-4);}.cls-21{fill:#3a4fb8;}.cls-22{fill:url(#linear-gradient-5);}.cls-23{fill:url(#linear-gradient-7);}.cls-24{fill:#94fffc;}.cls-25{fill:#11a2cf;}.cls-26{clip-path:url(#clip-path-2);}.cls-27{fill:url(#linear-gradient-9);}.cls-28{fill:#fbb686;}.cls-29{fill:#1b181a;}.cls-30{fill:#e8c8a1;}.cls-31{fill:#775238;}.cls-32{fill:#845e40;}.cls-33{fill:#e9e5d9;}.cls-34{fill:#231f20;}.cls-35{fill:#bfb6a1;}.cls-36{fill:#51859b;}.cls-37{fill:#619aaf;}.cls-38{opacity:0.8;}.cls-39{clip-path:url(#clip-path-3);}.cls-40{opacity:0.3;}.cls-41{clip-path:url(#clip-path-4);}.cls-42{opacity:0.5;}.cls-43{clip-path:url(#clip-path-5);}.cls-44{opacity:0.4;}.cls-45{clip-path:url(#clip-path-6);}.cls-46{clip-path:url(#clip-path-7);}.cls-47{fill:#741ec7;}.cls-48{clip-path:url(#clip-path-9);}.cls-49{fill:#ff97f0;}.cls-50{fill:url(#linear-gradient-10);}.cls-51{fill:url(#linear-gradient-12);}.cls-52{fill:#8ad5a9;}.cls-53{fill:#5ec78f;}.cls-54{fill:#00b26e;}.cls-55{fill:#e3f9ea;}.cls-56{fill:#ffe0c3;}.cls-57{fill:#fffef0;}.cls-58{fill:#1d253f;}.cls-59{fill:#2d375e;}.cls-60{fill:#3d467c;}.cls-61{fill:#5961a9;}.cls-62{fill:#8c98cc;}.cls-63{fill:#4c5889;}.cls-64{fill:url(#linear-gradient-13);}.cls-65{clip-path:url(#clip-path-10);}.cls-66{fill:url(#linear-gradient-14);}.cls-67{clip-path:url(#clip-path-11);}.cls-68{fill:url(#linear-gradient-15);}.cls-69{clip-path:url(#clip-path-12);}.cls-70{fill:url(#linear-gradient-16);}.cls-71{clip-path:url(#clip-path-13);}.cls-72{fill:url(#linear-gradient-17);}.cls-73{clip-path:url(#clip-path-14);}.cls-74{fill:url(#linear-gradient-18);}.cls-75{clip-path:url(#clip-path-15);}.cls-76{fill:url(#linear-gradient-19);}.cls-77{clip-path:url(#clip-path-16);}.cls-78{fill:url(#linear-gradient-20);}.cls-79{clip-path:url(#clip-path-17);}.cls-80{fill:url(#linear-gradient-21);}.cls-81{clip-path:url(#clip-path-18);}.cls-82{fill:url(#linear-gradient-22);}.cls-83{clip-path:url(#clip-path-19);}.cls-84{fill:url(#linear-gradient-23);}.cls-85{clip-path:url(#clip-path-20);}.cls-86{fill:url(#linear-gradient-24);}.cls-87{clip-path:url(#clip-path-21);}.cls-88{fill:url(#linear-gradient-25);}.cls-89{clip-path:url(#clip-path-22);}.cls-90{fill:url(#linear-gradient-26);}.cls-91{clip-path:url(#clip-path-23);}.cls-92{fill:url(#linear-gradient-27);}.cls-93{clip-path:url(#clip-path-24);}.cls-94{fill:url(#linear-gradient-28);}.cls-95{clip-path:url(#clip-path-25);}.cls-96{fill:url(#linear-gradient-29);}.cls-97{clip-path:url(#clip-path-26);}.cls-98{fill:url(#linear-gradient-30);}.cls-99{clip-path:url(#clip-path-27);}.cls-100{fill:url(#linear-gradient-31);}.cls-101{clip-path:url(#clip-path-28);}.cls-102{fill:url(#linear-gradient-32);}.cls-103{clip-path:url(#clip-path-29);}.cls-104{fill:url(#linear-gradient-33);}.cls-105{clip-path:url(#clip-path-30);}.cls-106{fill:url(#linear-gradient-34);}.cls-107{fill:#92fcff;}.cls-108{fill:#5ce5e5;}.cls-109{opacity:0.8;}.cls-110{fill:#5dedf5;}.cls-111{fill:#56779c;}.cls-112{isolation:isolate;}.cls-113{clip-path:url(#clip-path-31);}.cls-114{clip-path:url(#clip-path-32);}.cls-115{fill:#425b78;}.cls-116{fill:#405874;}.cls-117{fill:#3e5671;}.cls-118{fill:#3c536d;}.cls-119{fill:#3a506a;}.cls-120{fill:#384e66;}.cls-121{fill:#364b63;}.cls-122{clip-path:url(#clip-path-33);}.cls-123{clip-path:url(#clip-path-34);}.cls-124{fill:#273544;}.cls-125{clip-path:url(#clip-path-35);}.cls-126{clip-path:url(#clip-path-36);}.cls-127{fill:#1b252f;}.cls-128{fill:#1a242e;}.cls-129{fill:#19232c;}.cls-130{fill:#18222b;}.cls-131{fill:#182029;}.cls-132{clip-path:url(#clip-path-37);}.cls-133{fill:#161e26;}.cls-134{clip-path:url(#clip-path-38);}.cls-135{clip-path:url(#clip-path-39);}.cls-136{clip-path:url(#clip-path-40);}.cls-137{clip-path:url(#clip-path-41);}.cls-138{clip-path:url(#clip-path-42);}.cls-139{fill:url(#linear-gradient-35);}.cls-140{clip-path:url(#clip-path-43);}.cls-141{clip-path:url(#clip-path-44);}.cls-142{fill:#4ae1e7;}.cls-143{clip-path:url(#clip-path-45);}.cls-144{clip-path:url(#clip-path-46);}.cls-145{clip-path:url(#clip-path-47);}.cls-146{opacity:0.1;}</style><linearGradient id="linear-gradient" x1="68.49" y1="19.07" x2="68.49" y2="102.27" gradientUnits="userSpaceOnUse"><stop offset="0" stop-color="#e558c8"/><stop offset="1" stop-color="#8d2cf7"/></linearGradient><linearGradient id="linear-gradient-2" x1="59.66" y1="284.2" x2="59.66" y2="336.2" gradientUnits="userSpaceOnUse"><stop offset="0" stop-color="#e256ca"/><stop offset="1" stop-color="#932ff4"/></linearGradient><clipPath id="clip-path"><path class="cls-1" d="M215.25,308.68a29.37,29.37,0,1,0,29.37-29.37,29.37,29.37,0,0,0-29.37,29.37"/></clipPath><linearGradient id="linear-gradient-3" x1="-723.13" y1="952.57" x2="-722.66" y2="952.57" gradientTransform="matrix(0, 131.08, 131.08, 0, -124620.02, 95064.61)" gradientUnits="userSpaceOnUse"><stop offset="0" stop-color="#4ae1e7"/><stop offset="0.18" stop-color="#45cee2"/><stop offset="1" stop-color="#307ecf"/></linearGradient><linearGradient id="linear-gradient-4" x1="59.32" y1="155.37" x2="59.32" y2="27.06" gradientUnits="userSpaceOnUse"><stop offset="0" stop-color="#4ae2e7"/><stop offset="0.04" stop-color="#4ae2e7" stop-opacity="0.95"/><stop offset="0.31" stop-color="#4ae2e7" stop-opacity="0.62"/><stop offset="0.55" stop-color="#4ae2e7" stop-opacity="0.35"/><stop offset="0.75" stop-color="#4ae2e7" stop-opacity="0.16"/><stop offset="0.91" stop-color="#4ae2e7" stop-opacity="0.04"/><stop offset="1" stop-color="#4ae2e7" stop-opacity="0"/></linearGradient><linearGradient id="linear-gradient-5" x1="-123.26" y1="146.43" x2="-123.26" y2="213.59" gradientTransform="translate(273.63 71.62) rotate(45)" gradientUnits="userSpaceOnUse"><stop offset="0" stop-color="#4ae2e7"/><stop offset="1" stop-color="#15a4dc"/></linearGradient><linearGradient id="linear-gradient-7" x1="22.6" y1="120.76" x2="22.6" y2="92.01" gradientUnits="userSpaceOnUse"><stop offset="0" stop-color="#4ae2e7"/><stop offset="0.32" stop-color="#4ae2e7" stop-opacity="0.64"/><stop offset="0.65" stop-color="#4ae2e7" stop-opacity="0.3"/><stop offset="0.88" stop-color="#4ae2e7" stop-opacity="0.08"/><stop offset="1" stop-color="#4ae2e7" stop-opacity="0"/></linearGradient><clipPath id="clip-path-2"><polygon class="cls-2" points="51.65 80.14 85.33 99.59 85.33 30.88 51.65 11.43 51.65 80.14"/></clipPath><linearGradient id="linear-gradient-9" x1="68.49" y1="19.07" x2="68.49" y2="102.27" gradientTransform="translate(24.94 -21.14) rotate(21.37)" xlink:href="#linear-gradient"/><clipPath id="clip-path-3"><rect class="cls-1" x="55.39" y="60.08" width="24.78" height="22.84"/></clipPath><clipPath id="clip-path-4"><rect class="cls-1" x="57.68" y="60.08" width="22.49" height="20.56"/></clipPath><clipPath id="clip-path-5"><rect class="cls-1" x="56.62" y="61.14" width="22.49" height="20.56"/></clipPath><clipPath id="clip-path-6"><rect class="cls-1" x="55.74" y="47.85" width="26.73" height="20.96"/></clipPath><clipPath id="clip-path-7"><rect class="cls-1" x="60.39" y="28.24" width="16.19" height="20.9"/></clipPath><clipPath id="clip-path-9"><rect class="cls-1" x="69.13" y="30.46" width="6.8" height="11.78"/></clipPath><linearGradient id="linear-gradient-10" x1="14.33" y1="3.74" x2="14.33" y2="79.28" xlink:href="#linear-gradient-5"/><linearGradient id="linear-gradient-12" x1="213.26" y1="121.24" x2="213.26" y2="88.91" xlink:href="#linear-gradient-7"/><linearGradient id="linear-gradient-13" x1="440.15" y1="151.95" x2="440.15" y2="23.64" xlink:href="#linear-gradient-4"/><clipPath id="clip-path-10"><path class="cls-1" d="M413.22,101.74a9.18,9.18,0,0,0-3.78,3.7h-.57v2.18c-.09,2.26,1.35,4.55,4.35,6.28,5.82,3.36,15.25,3.36,21.07,0,2.91-1.68,4.36-3.88,4.36-6.08v-2.38h-.59a9.2,9.2,0,0,0-3.78-3.7,23.28,23.28,0,0,0-21.07,0"/></clipPath><linearGradient id="linear-gradient-14" x1="-721.83" y1="940.13" x2="-721.36" y2="940.13" gradientTransform="matrix(-31.6, 0, 0, 31.6, -22376.18, -29597.93)" xlink:href="#linear-gradient-5"/><clipPath id="clip-path-11"><path class="cls-1" d="M413.22,99.36a9.21,9.21,0,0,0-3.78,3.69h-.56v2.09c-.14,2.3,1.3,4.63,4.34,6.38,5.82,3.36,15.25,3.36,21.07,0,2.91-1.68,4.36-3.88,4.36-6.08v-2.39h-.58a9.21,9.21,0,0,0-3.78-3.69,23.29,23.29,0,0,0-21.07,0"/></clipPath><linearGradient id="linear-gradient-15" x1="-720.49" y1="958.39" x2="-720.02" y2="958.39" gradientTransform="matrix(34.25, 0, 0, -34.25, 25098.52, 32934.53)" xlink:href="#linear-gradient-5"/><clipPath id="clip-path-12"><path class="cls-1" d="M413.22,97.21a9.19,9.19,0,0,0-3.78,3.7h-.57v2.18c-.09,2.27,1.35,4.55,4.35,6.28,5.82,3.36,15.25,3.36,21.07,0,2.91-1.68,4.36-3.88,4.36-6.08v-2.38h-.59a9.21,9.21,0,0,0-3.78-3.7,23.28,23.28,0,0,0-21.07,0"/></clipPath><linearGradient id="linear-gradient-16" x1="-721.83" y1="940.29" x2="-721.36" y2="940.29" gradientTransform="matrix(-31.6, 0, 0, 31.6, -22376.18, -29607.5)" xlink:href="#linear-gradient-5"/><clipPath id="clip-path-13"><path class="cls-1" d="M413.22,94.83a9.21,9.21,0,0,0-3.78,3.69h-.56v2.09c-.14,2.3,1.3,4.63,4.34,6.38,5.82,3.36,15.25,3.36,21.07,0,2.91-1.68,4.36-3.88,4.36-6.08V98.52h-.58a9.21,9.21,0,0,0-3.78-3.69,23.28,23.28,0,0,0-21.07,0"/></clipPath><linearGradient id="linear-gradient-17" x1="-720.49" y1="958.24" x2="-720.02" y2="958.24" gradientTransform="matrix(34.25, 0, 0, -34.25, 25098.52, 32925)" xlink:href="#linear-gradient-5"/><clipPath id="clip-path-14"><path class="cls-1" d="M413.23,92.47a9.21,9.21,0,0,0-3.78,3.7h-.57v2.18c-.09,2.27,1.35,4.55,4.35,6.28,5.82,3.36,15.25,3.36,21.07,0,2.91-1.68,4.36-3.88,4.36-6.08V96.17h-.59a9.2,9.2,0,0,0-3.78-3.7,23.29,23.29,0,0,0-21.07,0"/></clipPath><linearGradient id="linear-gradient-18" x1="-721.83" y1="940.45" x2="-721.36" y2="940.45" gradientTransform="matrix(-31.6, 0, 0, 31.6, -22376.15, -29617.46)" xlink:href="#linear-gradient-5"/><clipPath id="clip-path-15"><path class="cls-1" d="M413.23,90.09a9.2,9.2,0,0,0-3.77,3.69h-.56v2.09c-.14,2.3,1.3,4.63,4.34,6.38,5.82,3.36,15.25,3.36,21.07,0,2.91-1.68,4.36-3.88,4.36-6.08V93.78h-.58a9.2,9.2,0,0,0-3.78-3.69,23.28,23.28,0,0,0-21.07,0"/></clipPath><linearGradient id="linear-gradient-19" x1="-720.5" y1="958.09" x2="-720.02" y2="958.09" gradientTransform="matrix(34.25, 0, 0, -34.25, 25098.53, 32915)" xlink:href="#linear-gradient-5"/><clipPath id="clip-path-16"><path class="cls-1" d="M413.23,87.42a10.06,10.06,0,0,0-3.28,2.86h-1.06v2.95c-.13,2.29,1.31,4.61,4.34,6.36,5.82,3.36,15.25,3.36,21.07,0,2.85-1.65,4.3-3.79,4.36-6V90.54h-.92a9.8,9.8,0,0,0-3.44-3.11,23.28,23.28,0,0,0-21.07,0"/></clipPath><linearGradient id="linear-gradient-20" x1="-721.95" y1="939.42" x2="-721.48" y2="939.42" gradientTransform="matrix(-27.92, 0, 0, 27.92, -19722.24, -26130.16)" xlink:href="#linear-gradient-5"/><clipPath id="clip-path-17"><path class="cls-1" d="M413.23,84.67c-5.82,3.36-5.82,8.8,0,12.16s15.25,3.36,21.07,0,5.82-8.8,0-12.16a23.28,23.28,0,0,0-21.07,0"/></clipPath><linearGradient id="linear-gradient-21" x1="403.5" y1="91.17" x2="444.69" y2="91.17" gradientTransform="matrix(1, 0, 0, 1, 0, 0)" xlink:href="#linear-gradient-5"/><clipPath id="clip-path-18"><path class="cls-1" d="M445.92,110.28a9.22,9.22,0,0,0-3.78,3.7h-.57v2.19c-.09,2.27,1.35,4.55,4.35,6.28,5.82,3.36,15.25,3.36,21.07,0,2.91-1.68,4.36-3.88,4.36-6.08V114h-.59a9.21,9.21,0,0,0-3.78-3.7,23.28,23.28,0,0,0-21.07,0"/></clipPath><linearGradient id="linear-gradient-22" x1="-720.78" y1="940.03" x2="-720.31" y2="940.03" gradientTransform="matrix(-31.6, 0, 0, 31.6, -22310.37, -29586.37)" xlink:href="#linear-gradient-5"/><clipPath id="clip-path-19"><path class="cls-1" d="M445.92,107.9a9.2,9.2,0,0,0-3.78,3.69h-.56v2.09c-.14,2.3,1.29,4.63,4.34,6.38,5.82,3.36,15.25,3.36,21.07,0,2.91-1.68,4.36-3.88,4.36-6.08v-2.39h-.58A9.22,9.22,0,0,0,467,107.9a23.28,23.28,0,0,0-21.07,0"/></clipPath><linearGradient id="linear-gradient-23" x1="-721.46" y1="958.48" x2="-720.99" y2="958.48" gradientTransform="matrix(34.25, 0, 0, -34.25, 25164.34, 32946.18)" xlink:href="#linear-gradient-5"/><clipPath id="clip-path-20"><path class="cls-1" d="M445.92,105.75a9.22,9.22,0,0,0-3.78,3.7h-.57v2.19c-.09,2.27,1.35,4.55,4.35,6.28,5.82,3.36,15.25,3.36,21.07,0,2.91-1.68,4.36-3.88,4.36-6.08v-2.38h-.59a9.21,9.21,0,0,0-3.78-3.7,23.29,23.29,0,0,0-21.07,0"/></clipPath><linearGradient id="linear-gradient-24" x1="-720.78" y1="940.19" x2="-720.31" y2="940.19" gradientTransform="matrix(-31.6, 0, 0, 31.6, -22310.37, -29595.93)" xlink:href="#linear-gradient-5"/><clipPath id="clip-path-21"><path class="cls-1" d="M445.92,103.36a9.19,9.19,0,0,0-3.78,3.7h-.56v2.09c-.14,2.3,1.29,4.63,4.34,6.38,5.82,3.36,15.25,3.36,21.07,0,2.91-1.68,4.36-3.88,4.36-6.08v-2.39h-.58a9.22,9.22,0,0,0-3.78-3.7,23.29,23.29,0,0,0-21.07,0"/></clipPath><linearGradient id="linear-gradient-25" x1="-721.46" y1="958.33" x2="-720.99" y2="958.33" gradientTransform="matrix(34.25, 0, 0, -34.25, 25164.34, 32936.53)" xlink:href="#linear-gradient-5"/><clipPath id="clip-path-22"><path class="cls-1" d="M445.92,101a9.2,9.2,0,0,0-3.78,3.7h-.57v2.18c-.09,2.27,1.35,4.55,4.35,6.28,5.82,3.36,15.25,3.36,21.07,0,2.91-1.68,4.36-3.88,4.36-6.08V104.7h-.59A9.22,9.22,0,0,0,467,101a23.28,23.28,0,0,0-21.07,0"/></clipPath><linearGradient id="linear-gradient-26" x1="-720.78" y1="940.36" x2="-720.31" y2="940.36" gradientTransform="matrix(-31.6, 0, 0, 31.6, -22310.33, -29605.93)" xlink:href="#linear-gradient-5"/><clipPath id="clip-path-23"><path class="cls-1" d="M445.92,98.62a9.19,9.19,0,0,0-3.78,3.69h-.56v2.09c-.14,2.3,1.3,4.63,4.34,6.38,5.82,3.36,15.25,3.36,21.07,0,2.91-1.68,4.36-3.88,4.36-6.08v-2.39h-.58A9.21,9.21,0,0,0,467,98.62a23.28,23.28,0,0,0-21.07,0"/></clipPath><linearGradient id="linear-gradient-27" x1="441.44" y1="105.12" x2="471.35" y2="105.12" gradientTransform="matrix(1, 0, 0, 1, 0, 0)" xlink:href="#linear-gradient-5"/><clipPath id="clip-path-24"><path class="cls-1" d="M445.92,96a10.08,10.08,0,0,0-3.29,2.87h-1.05v2.95c-.13,2.29,1.31,4.61,4.34,6.36,5.82,3.36,15.25,3.36,21.07,0,2.85-1.65,4.3-3.79,4.36-6V99.07h-.92A9.76,9.76,0,0,0,467,96a23.28,23.28,0,0,0-21.07,0"/></clipPath><linearGradient id="linear-gradient-28" x1="-720.76" y1="939.31" x2="-720.29" y2="939.31" gradientTransform="matrix(-27.92, 0, 0, 27.92, -19656.41, -26118.59)" xlink:href="#linear-gradient-5"/><clipPath id="clip-path-25"><path class="cls-1" d="M445.92,93.21c-5.82,3.36-5.82,8.81,0,12.16s15.25,3.36,21.07,0,5.82-8.8,0-12.16a23.29,23.29,0,0,0-21.07,0"/></clipPath><linearGradient id="linear-gradient-29" x1="-721.25" y1="945.02" x2="-720.77" y2="945.02" gradientTransform="translate(44902.69 -58155.61) scale(61.64)" xlink:href="#linear-gradient-5"/><clipPath id="clip-path-26"><path class="cls-1" d="M423,119.76a9.2,9.2,0,0,0-3.77,3.69h-.56v2.09c-.14,2.3,1.3,4.62,4.34,6.38,5.82,3.36,15.25,3.36,21.07,0,2.91-1.68,4.36-3.88,4.36-6.08v-2.39h-.58a9.21,9.21,0,0,0-3.78-3.69,23.29,23.29,0,0,0-21.07,0"/></clipPath><linearGradient id="linear-gradient-30" x1="418.55" y1="126.27" x2="448.46" y2="126.27" gradientTransform="matrix(1, 0, 0, 1, 0, 0)" xlink:href="#linear-gradient-5"/><clipPath id="clip-path-27"><path class="cls-1" d="M423,117.41a9.21,9.21,0,0,0-3.78,3.7h-.57v2.19c-.09,2.27,1.35,4.55,4.35,6.28,5.82,3.36,15.25,3.36,21.07,0,2.91-1.68,4.37-3.88,4.37-6.08V121.1h-.59a9.21,9.21,0,0,0-3.78-3.7,23.29,23.29,0,0,0-21.07,0"/></clipPath><linearGradient id="linear-gradient-31" x1="-721.36" y1="939.4" x2="-720.89" y2="939.4" gradientTransform="matrix(-31.6, 0, 0, 31.6, -22351.51, -29559.25)" xlink:href="#linear-gradient-5"/><clipPath id="clip-path-28"><path class="cls-1" d="M423,115a9.19,9.19,0,0,0-3.77,3.69h-.56v2.09c-.14,2.3,1.3,4.63,4.34,6.38,5.82,3.36,15.25,3.36,21.07,0,2.91-1.68,4.37-3.88,4.37-6.08v-2.39h-.58A9.18,9.18,0,0,0,444.1,115,23.26,23.26,0,0,0,423,115"/></clipPath><linearGradient id="linear-gradient-32" x1="-720.93" y1="959.06" x2="-720.45" y2="959.06" gradientTransform="matrix(34.25, 0, 0, -34.25, 25123.2, 32973.21)" xlink:href="#linear-gradient-5"/><clipPath id="clip-path-29"><path class="cls-1" d="M423,112.35a10.09,10.09,0,0,0-3.28,2.87h-1.06v2.95c-.13,2.29,1.31,4.61,4.34,6.36,5.82,3.36,15.25,3.36,21.07,0,2.85-1.65,4.3-3.79,4.36-6v-3.09h-.92a9.79,9.79,0,0,0-3.44-3.11,23.29,23.29,0,0,0-21.07,0"/></clipPath><linearGradient id="linear-gradient-33" x1="-721.42" y1="938.23" x2="-720.94" y2="938.23" gradientTransform="matrix(-27.92, 0, 0, 27.92, -19697.58, -26071.91)" xlink:href="#linear-gradient-5"/><clipPath id="clip-path-30"><path class="cls-1" d="M423,109.61c-5.82,3.36-5.82,8.8,0,12.16s15.25,3.36,21.07,0,5.82-8.81,0-12.16a23.29,23.29,0,0,0-21.07,0"/></clipPath><linearGradient id="linear-gradient-34" x1="-720.95" y1="944.53" x2="-720.47" y2="944.53" gradientTransform="translate(44861.39 -58108.99) scale(61.64)" xlink:href="#linear-gradient-5"/><clipPath id="clip-path-31"><path class="cls-3" d="M473.93,324.35a1.21,1.21,0,0,1,0,2.29L437.12,348a4.36,4.36,0,0,1-3.95,0l-57.69-33.31a1.21,1.21,0,0,1,0-2.28L412.29,291a4.36,4.36,0,0,1,3.94,0Z"/></clipPath><clipPath id="clip-path-32"><path class="cls-1" d="M374.65,315.34c0-1.29,0-.47,0-1.76a1.39,1.39,0,0,0,.82,1.15v1.76A1.4,1.4,0,0,1,374.65,315.34Z"/></clipPath><clipPath id="clip-path-33"><path class="cls-4" d="M474.75,325.5q0,1.93,0,3.86a1.38,1.38,0,0,1-.81,1.13v-3.86A1.38,1.38,0,0,0,474.75,325.5Z"/></clipPath><clipPath id="clip-path-34"><path class="cls-4" d="M437.12,348v1.77a4.39,4.39,0,0,1-3.95,0V348A4.36,4.36,0,0,0,437.12,348Z"/></clipPath><clipPath id="clip-path-35"><path class="cls-5" d="M464.8,321.63a1,1,0,0,1,0,1.86L443.25,336a3.52,3.52,0,0,1-3.2,0l-46.81-27a1,1,0,0,1,0-1.85l21.55-12.53a3.52,3.52,0,0,1,3.2,0Z"/></clipPath><clipPath id="clip-path-36"><path class="cls-1" d="M392.57,309.6v-1.54a1.15,1.15,0,0,0,.67.94v1.54A1.13,1.13,0,0,1,392.57,309.6Z"/></clipPath><clipPath id="clip-path-37"><path class="cls-1" d="M465.47,322.56v1.54a1.13,1.13,0,0,1-.66.92v-1.54A1.14,1.14,0,0,0,465.47,322.56Z"/></clipPath><clipPath id="clip-path-38"><path class="cls-4" d="M443.25,336v1.55a3.51,3.51,0,0,1-3.2,0V336A3.52,3.52,0,0,0,443.25,336Z"/></clipPath><clipPath id="clip-path-39"><path class="cls-4" d="M415.36,244.05c1.11-.65.45-.28,1.56-.92a1.4,1.4,0,0,1,1.41.13l-1.56.92A1.39,1.39,0,0,0,415.36,244.05Z"/></clipPath><clipPath id="clip-path-40"><path class="cls-4" d="M479.07,322.82l-3.34,1.94a1.38,1.38,0,0,0,.58-1.27l3.34-1.94A1.38,1.38,0,0,1,479.07,322.82Z"/></clipPath><clipPath id="clip-path-41"><path class="cls-4" d="M474.46,277.49l1.56-.92a4.35,4.35,0,0,1,2,3.42l-1.56.92A4.36,4.36,0,0,0,474.46,277.49Z"/></clipPath><clipPath id="clip-path-42"><path class="cls-6" d="M474.46,277.49a4.36,4.36,0,0,1,2,3.42l-.12,42.58c0,1.25-.89,1.77-2,1.13l-57.69-33.3a4.37,4.37,0,0,1-2-3.42l.12-42.58c0-1.25.89-1.76,2-1.13Z"/></clipPath><linearGradient id="linear-gradient-35" x1="445.57" y1="249.57" x2="445.57" y2="319.27" xlink:href="#linear-gradient"/><clipPath id="clip-path-43"><rect class="cls-1" x="431.57" y="268.57" width="23.89" height="28.01"/></clipPath><clipPath id="clip-path-44"><rect class="cls-1" x="433.04" y="269.53" width="19.48" height="26.55"/></clipPath><clipPath id="clip-path-45"><rect class="cls-1" x="436.35" y="269.04" width="17.63" height="26.57"/></clipPath><clipPath id="clip-path-46"><rect class="cls-1" x="437.84" y="268.57" width="17.62" height="26.98"/></clipPath><clipPath id="clip-path-47"><rect class="cls-1" x="434.52" y="269.53" width="18" height="26.08"/></clipPath></defs><title>multi-crypto</title><g id="Layer_2" data-name="Layer 2"><g id="Layer_1-2" data-name="Layer 1"><path class="cls-7" d="M331.42,246.58c0,11-7.79,24.5-17.32,30L261.44,307c-9.53,5.5-25.11,5.5-34.64,0l-52.66-30.4c-9.53-5.5-17.32-19-17.32-30V185.78c0-11,7.79-24.5,17.32-30l52.66-30.4c9.53-5.5,25.11-5.5,34.64,0l52.66,30.4c9.53,5.5,17.32,19,17.32,30Z"/><rect class="cls-8" y="289.83" width="119.31" height="36.87" rx="7" ry="7"/><text class="cls-9" transform="translate(18.93 311.22)"><tspan class="cls-10">Y</tspan><tspan x="6.39" y="0">OUR BUSINESS</tspan></text><text class="cls-9" transform="translate(41.13 162.84)">BUYER</text><text class="cls-9" transform="translate(232.72 162.84)">BILLS</text><text class="cls-9" transform="translate(364.24 371.51)"><tspan class="cls-11">P</tspan><tspan class="cls-12" x="6.2" y="0">A</tspan><tspan x="13.17" y="0">YMENT </tspan><tspan class="cls-13" x="51.65" y="0">C</tspan><tspan x="58.38" y="0">ONFIRM</tspan><tspan class="cls-14" x="99.51" y="0">A</tspan><tspan x="106.29" y="0">TION</tspan></text><circle class="cls-15" cx="130.23" cy="110.57" r="1.24"/><circle class="cls-15" cx="135.56" cy="110.57" r="1.24"/><circle class="cls-15" cx="140.75" cy="110.57" r="1.24"/><circle class="cls-15" cx="146.3" cy="110.57" r="1.24"/><circle class="cls-15" cx="151.63" cy="110.57" r="1.24"/><circle class="cls-15" cx="156.83" cy="110.57" r="1.24"/><circle class="cls-15" cx="161.66" cy="110.57" r="1.24"/><path class="cls-15" d="M165.87,107.2c0-.55.35-.72.79-.38l4,3.13a.75.75,0,0,1,0,1.23l-4,3.13c-.43.34-.79.17-.79-.38Z"/><circle class="cls-15" cx="136.65" cy="309.29" r="1.24"/><circle class="cls-15" cx="141.98" cy="309.29" r="1.24"/><circle class="cls-15" cx="147.18" cy="309.29" r="1.24"/><circle class="cls-15" cx="152.73" cy="309.29" r="1.24"/><circle class="cls-15" cx="158.06" cy="309.29" r="1.24"/><circle class="cls-15" cx="163.25" cy="309.29" r="1.24"/><circle class="cls-15" cx="168.09" cy="309.29" r="1.24"/><path class="cls-15" d="M172.29,305.92c0-.55.35-.72.79-.38l4,3.13a.75.75,0,0,1,0,1.23l-4,3.13c-.43.34-.79.17-.79-.38Z"/><circle class="cls-15" cx="344.48" cy="110.57" r="1.24"/><circle class="cls-15" cx="349.81" cy="110.57" r="1.24"/><circle class="cls-15" cx="355" cy="110.57" r="1.24"/><circle class="cls-15" cx="360.56" cy="110.57" r="1.24"/><circle class="cls-15" cx="365.89" cy="110.57" r="1.24"/><circle class="cls-15" cx="371.08" cy="110.57" r="1.24"/><circle class="cls-15" cx="375.92" cy="110.57" r="1.24"/><path class="cls-15" d="M380.12,107.2c0-.55.35-.72.79-.38l4,3.13a.75.75,0,0,1,0,1.23l-4,3.13c-.43.34-.79.17-.79-.38Z"/><circle class="cls-15" cx="347.91" cy="311.31" r="1.24"/><circle class="cls-15" cx="342.58" cy="311.31" r="1.24"/><circle class="cls-15" cx="337.39" cy="311.31" r="1.24"/><circle class="cls-15" cx="331.83" cy="311.31" r="1.24"/><circle class="cls-15" cx="326.5" cy="311.31" r="1.24"/><circle class="cls-15" cx="321.31" cy="311.31" r="1.24"/><circle class="cls-15" cx="316.48" cy="311.31" r="1.24"/><path class="cls-15" d="M312.27,314.68c0,.55-.35.72-.79.38l-4-3.13a.75.75,0,0,1,0-1.23l4-3.13c.43-.34.79-.17.79.38Z"/><circle class="cls-15" cx="448.13" cy="176.35" r="1.24"/><circle class="cls-15" cx="448.13" cy="181.68" r="1.24"/><circle class="cls-15" cx="448.13" cy="186.88" r="1.24"/><circle class="cls-15" cx="448.13" cy="192.43" r="1.24"/><circle class="cls-15" cx="448.13" cy="197.76" r="1.24"/><circle class="cls-15" cx="448.13" cy="202.95" r="1.24"/><circle class="cls-15" cx="448.13" cy="207.79" r="1.24"/><path class="cls-15" d="M451.5,212c.55,0,.72.35.38.79l-3.13,4a.75.75,0,0,1-1.23,0l-3.13-4c-.34-.43-.17-.79.38-.79Z"/><g class="cls-16"><rect class="cls-17" x="215.25" y="279.3" width="58.75" height="58.75"/></g><text class="cls-18" transform="translate(226.81 312.68)"><tspan class="cls-19">A</tspan><tspan x="7.03" y="0">CTION</tspan></text><polyline class="cls-20" points="106.09 112.17 106.09 19.79 13.11 19.79 12.55 112.17"/><path class="cls-21" d="M64.43,139.75a11.36,11.36,0,0,1-10.37,0L14.55,116.63c-2.85-1.67-2.85-4.4,0-6.06L54.07,87.45a11.37,11.37,0,0,1,10.37,0L104,110.57c2.85,1.67,2.85,4.39,0,6.06Z"/><path class="cls-21" d="M64.43,139.75a11.36,11.36,0,0,1-10.37,0L14.55,116.63c-2.85-1.67-2.85-4.4,0-6.06L54.07,87.45a11.37,11.37,0,0,1,10.37,0L104,110.57c2.85,1.67,2.85,4.39,0,6.06Z"/><path class="cls-22" d="M64.43,137.84a11.37,11.37,0,0,1-10.37,0L14.55,114.73c-2.85-1.67-2.85-4.39,0-6.06L54.07,85.54a11.37,11.37,0,0,1,10.37,0L104,108.66c2.85,1.67,2.85,4.4,0,6.06Z"/><path class="cls-22" d="M64.43,137.84a11.37,11.37,0,0,1-10.37,0L14.55,114.73c-2.85-1.67-2.85-4.39,0-6.06L54.07,85.54a11.37,11.37,0,0,1,10.37,0L104,108.66c2.85,1.67,2.85,4.4,0,6.06Z"/><polyline class="cls-23" points="26.31 111.08 26.31 90.38 18.93 90.38 18.89 111.08"/><path class="cls-15" d="M25.23,112.61a5.71,5.71,0,0,1-5.22,0c-1.44-.84-1.44-2.21,0-3.05a5.7,5.7,0,0,1,5.22,0C26.67,110.4,26.67,111.76,25.23,112.61Z"/><polygon class="cls-24" points="70.93 126.45 69.41 125.56 70.55 124.88 72.06 125.78 70.93 126.45"/><polygon class="cls-24" points="73.13 127.75 71.62 126.85 72.75 126.18 74.27 127.08 73.13 127.75"/><polygon class="cls-24" points="69.31 127.4 67.8 126.51 68.93 125.84 70.45 126.73 69.31 127.4"/><polygon class="cls-24" points="71.52 128.7 70 127.81 71.14 127.14 72.65 128.03 71.52 128.7"/><polygon class="cls-24" points="67.68 128.36 66.17 127.47 67.31 126.8 68.82 127.69 67.68 128.36"/><polygon class="cls-24" points="69.89 129.66 68.37 128.77 69.51 128.1 71.02 128.99 69.89 129.66"/><polygon class="cls-24" points="66.07 129.31 64.56 128.42 65.69 127.75 67.21 128.64 66.07 129.31"/><polygon class="cls-24" points="68.28 130.61 66.76 129.72 67.9 129.05 69.41 129.94 68.28 130.61"/><polygon class="cls-24" points="64.44 130.28 62.92 129.38 64.06 128.71 65.57 129.61 64.44 130.28"/><polygon class="cls-24" points="66.64 131.58 65.13 130.68 66.26 130.01 67.78 130.91 66.64 131.58"/><polygon class="cls-24" points="62.82 131.23 61.31 130.34 62.44 129.67 63.96 130.56 62.82 131.23"/><polygon class="cls-24" points="65.02 132.53 63.51 131.64 64.64 130.97 66.16 131.86 65.02 132.53"/><polygon class="cls-24" points="61.19 132.19 59.68 131.3 60.81 130.63 62.33 131.52 61.19 132.19"/><polygon class="cls-24" points="63.4 133.49 61.88 132.6 63.02 131.93 64.53 132.82 63.4 133.49"/><polygon class="cls-24" points="59.58 133.14 58.07 132.25 59.2 131.58 60.72 132.47 59.58 133.14"/><polygon class="cls-24" points="61.79 134.44 60.27 133.55 61.41 132.88 62.92 133.77 61.79 134.44"/><polyline class="cls-25" points="50.06 1.81 50.06 1.81 50.06 1.8 50.06 1.81"/><path class="cls-4" d="M87.89,107V26.41a6.47,6.47,0,0,0-2.7-5.16L51.79,2a2.16,2.16,0,0,0-2.56,1c.3-1.4,1.1-2.16,2.81-2.61C52.57.19,53.31.21,55,1L86.49,19.08a7.15,7.15,0,0,1,3.58,5.28,5.44,5.44,0,0,1,0,.67v80.6a4.3,4.3,0,0,1-.69,2.57c-1.16,1.62-1.78,1.42-3.47,1.15l1-.15a2.37,2.37,0,0,0,1-2.19"/><path class="cls-3" d="M51.79,89.77l33.4,19.28c1.49.86,2.7-.05,2.7-2V26.41a6.47,6.47,0,0,0-2.7-5.16L51.79,2c-1.49-.86-2.7.05-2.7,2V84.61a6.47,6.47,0,0,0,2.7,5.16"/><polygon class="cls-2" points="51.65 80.14 85.33 99.59 85.33 30.88 51.65 11.43 51.65 80.14"/><g class="cls-26"><rect class="cls-27" x="36.74" y="8.32" width="63.49" height="94.37" transform="translate(-15.52 28.77) rotate(-21.37)"/></g><path class="cls-21" d="M65.18,16l6.42,3.71c.24.14.43,0,.43-.33v-.23a.46.46,0,0,0-.23-.4L65.38,15c-.24-.14-.43,0-.43.33v.23a.46.46,0,0,0,.23.4"/><path class="cls-21" d="M64.95,92.87c0-.32.19-.46.43-.32l6.42,3.71a.46.46,0,0,1,.23.4v.23c0,.32-.19.46-.43.32l-6.42-3.71a.46.46,0,0,1-.23-.4Z"/><path class="cls-21" d="M60.68,12.8a2,2,0,0,0,.93,1.6c.51.3.93.06.93-.53a2,2,0,0,0-.93-1.6c-.51-.3-.93-.06-.93.53"/><path class="cls-28" d="M55.25,72.86c-.29,0-2.87.62-2.87.62l-7.51,2A3.59,3.59,0,0,0,43.6,76c-.15.11-.88-.29-1.07-.31a1.42,1.42,0,0,0-1.22.44,1.83,1.83,0,0,0,0,1.81c.66,1.46,1.78,1.59,3.21,1.77h.23l.14,0h0c2.18-.76,8.08-4.12,8.35-4.14,0,0,1,.39,1.37.12a2,2,0,0,1,.89-.46c.26,0,1.27.13,1.54.1s1.44-1,1.2-1.43c0,0-.9-.46-1.16-.58a6.53,6.53,0,0,0-1.84-.4"/><path class="cls-29" d="M43.95,120.58s3.62-1,4.4-.65.18,1.89-1.5,2.85a17.36,17.36,0,0,1-3.49,1.79c-.89.23-2.29.26-2.5-.62a3.89,3.89,0,0,1,.13-2.33c.23-.39,3-1,3-1"/><path class="cls-30" d="M44.27,120.35v.8a1.63,1.63,0,0,1-1.62,1.13c-1.49,0-1.52-.79-1.52-.79l0-1.12"/><path class="cls-29" d="M49.11,123.73s4.06-1.16,4.94-.73.2,2.12-1.69,3.2a19.6,19.6,0,0,1-3.91,2c-1,.26-2.57.29-2.8-.7a4.38,4.38,0,0,1,.15-2.62c.26-.44,3.32-1.16,3.32-1.16"/><path class="cls-30" d="M49.11,123.27v1.45s-.18,1-1.6,1-1.71-.87-1.71-.87v-1.13l2.15-.33Z"/><path class="cls-31" d="M40.87,94c-.39,1.86.71,4,.76,4.82s-.54,6.86-.89,11.16,0,11.19,0,11.19a2,2,0,0,0,2,.64,5,5,0,0,0,2.16-.93s1-14.5,1.25-16.18.79-8.43.83-9.47-5.27-5-6.07-1.21"/><path class="cls-32" d="M52.23,95.82a92.65,92.65,0,0,1-1,13.75C51.11,110.33,50,124,50,124s-1.18,2.67-4.9.67c0,0,.38-12.56.45-14.69s.41-6.55.27-8.76-1.38-2.79-1.52-5.69c0,0,.49-2.67,4-2.44s4,2.69,4,2.69"/><path class="cls-33" d="M53.47,79.7c.42-2.52-1-3.92-4-5.71-1.26-.74-6-4-8.28-1.09s.13,9.33,0,13-.7,8.45-.7,8.45,1.18,2.4,5.45,2.79a15.36,15.36,0,0,0,7-.79,85.15,85.15,0,0,1,.57-16.65"/><path class="cls-28" d="M50.55,65.27S51,67,51.1,67.33a3.32,3.32,0,0,1,0,1.08c0,.23.38.87.32,1.16a6,6,0,0,1-.87,2.53,2.17,2.17,0,0,1-1.57.32,11.45,11.45,0,0,1,0,1.74,6.29,6.29,0,0,1-3.46-.55c-1-.58-.64-2.15-.64-2.15l2.53-6.19Z"/><path class="cls-34" d="M50.55,65.27a5.31,5.31,0,0,0-.26-1.37C50,63,48,62.83,47.18,63.09S43.43,64.25,43.25,65a1.68,1.68,0,0,0-.07.93,3.23,3.23,0,0,0-.48,1.52,36.74,36.74,0,0,0,2.18,4.05s1.33.17,1.8-.22.91-1.92,1.52-2.09.83,1,.83,1l.39-.3a3.76,3.76,0,0,1,0-1.7,3.88,3.88,0,0,1,.66-.79L49.76,66Z"/><path class="cls-28" d="M58.05,97.06c-.08-.28-1-2.77-1-2.77l-2.87-7.21a3.57,3.57,0,0,0-.74-1.19,49.39,49.39,0,0,0-.54-7.56s-2.6-1.8-3.44,1.29c0,0,.3,4.8.38,6.84h0v.22c0,.25,0,.45,0,.56a.66.66,0,0,0,0,.18h0v0a.76.76,0,0,0,.07.14v0h0c1,2.07,4.85,7.73,4.9,8,0,0-.19,1,.13,1.31s.67.4.73.67,0,1.28.09,1.54,1.16,1.3,1.57,1c0,0,.35-1,.43-1.22a6.5,6.5,0,0,0,.17-1.88"/><path class="cls-35" d="M53.28,77.47c.76.88.55,5.84.61,7.2s-1.4,2-2.76,1.89l-1.37-.15s-.32-2.9-.46-5.4,1.54-6.36,4-3.54"/><path class="cls-36" d="M50.6,65.6s1.84-.9,2-1.69-3.07-2-5.07,0c-2.29,2.35,3,1.69,3,1.69"/><path class="cls-37" d="M43.34,68.94s.93.59,3.38-.21a8.13,8.13,0,0,0,3.89-3.12,3.52,3.52,0,0,0-1.89-2.91,4.57,4.57,0,0,0-5,1.07,5.92,5.92,0,0,0-1.23,3.49,3.07,3.07,0,0,0,.87,1.69"/><g class="cls-38"><g class="cls-39"><g class="cls-40"><g class="cls-41"><path class="cls-15" d="M78.93,80.48l-20-11.55a3,3,0,0,1-1.24-2.37v-5.4c0-.91.55-1.33,1.24-.94l20,11.55a3,3,0,0,1,1.24,2.37v5.4c0,.91-.55,1.33-1.24.94"/></g></g><g class="cls-42"><g class="cls-43"><path class="cls-15" d="M77.87,81.54,57.86,70a3,3,0,0,1-1.24-2.37v-5.4c0-.91.56-1.33,1.24-.94l20,11.55a3,3,0,0,1,1.24,2.37v5.4c0,.91-.56,1.33-1.24.94"/></g></g><path class="cls-15" d="M76.64,82.77l-20-11.55a3,3,0,0,1-1.24-2.37v-5.4c0-.91.56-1.33,1.24-.94l20,11.55a3,3,0,0,1,1.24,2.37v5.4c0,.91-.56,1.33-1.24.94"/></g></g><g class="cls-44"><g class="cls-45"><polygon class="cls-15" points="74.04 58.41 55.73 47.85 55.73 48.84 74.04 59.41 74.04 58.41"/><polygon class="cls-15" points="82.47 64.98 55.73 49.54 55.73 50.54 82.47 65.97 82.47 64.98"/><polygon class="cls-15" points="79.62 65.03 55.73 51.24 55.73 52.24 79.62 66.03 79.62 65.03"/><polygon class="cls-15" points="81.48 67.81 55.73 52.94 55.73 53.94 81.48 68.8 81.48 67.81"/></g></g><g class="cls-46"><g class="cls-38"><g class="cls-46"><path class="cls-47" d="M76.58,43.36c0,5.16-3.62,7.25-8.09,4.67s-8.09-8.86-8.09-14,3.63-7.25,8.09-4.67v9.35Z"/></g></g><g class="cls-48"><path class="cls-49" d="M75.94,42.25l-6.8-3.93V30.46a15,15,0,0,1,6.8,11.78"/></g></g><path class="cls-21" d="M260.31,142.6a12.79,12.79,0,0,1-11.66,0l-44.45-26c-3.21-1.87-3.21-4.94,0-6.82l44.45-26a12.79,12.79,0,0,1,11.66,0l44.45,26c3.21,1.87,3.21,4.94,0,6.82Z"/><path class="cls-21" d="M260.31,142.6a12.79,12.79,0,0,1-11.66,0l-44.45-26c-3.21-1.87-3.21-4.94,0-6.82l44.45-26a12.79,12.79,0,0,1,11.66,0l44.45,26c3.21,1.87,3.21,4.94,0,6.82Z"/><path class="cls-50" d="M260.31,140.46a12.79,12.79,0,0,1-11.66,0l-44.45-26c-3.21-1.88-3.21-4.94,0-6.82l44.45-26a12.79,12.79,0,0,1,11.66,0l44.45,26c3.21,1.88,3.21,4.95,0,6.82Z"/><path class="cls-50" d="M260.31,140.46a12.79,12.79,0,0,1-11.66,0l-44.45-26c-3.21-1.88-3.21-4.94,0-6.82l44.45-26a12.79,12.79,0,0,1,11.66,0l44.45,26c3.21,1.88,3.21,4.95,0,6.82Z"/><polyline class="cls-51" points="217.43 110.36 217.43 87.08 209.13 87.08 209.08 110.36"/><path class="cls-15" d="M216.22,112.07a6.41,6.41,0,0,1-5.87,0c-1.62-.95-1.62-2.49,0-3.43a6.41,6.41,0,0,1,5.87,0C217.84,109.59,217.84,111.13,216.22,112.07Z"/><polygon class="cls-24" points="266.07 129.11 264.55 128.21 265.69 127.54 267.2 128.44 266.07 129.11"/><polygon class="cls-24" points="268.27 130.41 266.76 129.51 267.89 128.84 269.41 129.74 268.27 130.41"/><polygon class="cls-24" points="264.45 130.06 262.93 129.17 264.07 128.5 265.58 129.39 264.45 130.06"/><polygon class="cls-24" points="266.65 131.36 265.14 130.47 266.27 129.8 267.79 130.69 266.65 131.36"/><polygon class="cls-24" points="262.82 131.02 261.31 130.13 262.44 129.46 263.96 130.35 262.82 131.02"/><polygon class="cls-24" points="265.02 132.32 263.51 131.43 264.65 130.76 266.16 131.65 265.02 132.32"/><polygon class="cls-24" points="261.21 131.97 259.69 131.08 260.83 130.41 262.35 131.3 261.21 131.97"/><polygon class="cls-24" points="263.41 133.27 261.9 132.38 263.04 131.71 264.55 132.6 263.41 133.27"/><polygon class="cls-24" points="259.57 132.94 258.06 132.04 259.2 131.37 260.71 132.27 259.57 132.94"/><polygon class="cls-24" points="261.78 134.24 260.26 133.34 261.4 132.67 262.92 133.57 261.78 134.24"/><polygon class="cls-24" points="257.96 133.89 256.44 133 257.58 132.32 259.09 133.22 257.96 133.89"/><polygon class="cls-24" points="260.16 135.19 258.65 134.3 259.78 133.63 261.3 134.52 260.16 135.19"/><polygon class="cls-24" points="256.33 134.85 254.82 133.96 255.95 133.29 257.47 134.18 256.33 134.85"/><polygon class="cls-24" points="258.54 136.15 257.02 135.26 258.16 134.59 259.67 135.48 258.54 136.15"/><polygon class="cls-24" points="254.72 135.8 253.21 134.91 254.34 134.24 255.86 135.13 254.72 135.8"/><polygon class="cls-24" points="256.92 137.1 255.41 136.21 256.54 135.54 258.06 136.43 256.92 137.1"/><polygon class="cls-52" points="246.56 89.04 234.82 95.82 256.11 108.19 267.85 101.41 246.56 89.04"/><polygon class="cls-53" points="256.11 108.19 234.82 95.82 234.85 101.73 256.14 114.11 256.11 108.19"/><polygon class="cls-54" points="267.85 101.41 256.11 108.19 256.14 114.11 267.88 107.33 267.85 101.41"/><path class="cls-55" d="M239,97l15.14,8.83a4.45,4.45,0,0,1,4,0l5.53-3.19a1.24,1.24,0,0,1,0-2.34l-15.14-8.83a4.45,4.45,0,0,1-4,0L239,94.64A1.24,1.24,0,0,1,239,97Z"/><path class="cls-52" d="M258.26,103.46h0a2.41,2.41,0,0,0,1.17-.28.8.8,0,0,0,.47-.64.79.79,0,0,0-.46-.64,2.57,2.57,0,0,0-2.33,0,.67.67,0,0,0,0,1.28A2.4,2.4,0,0,0,258.26,103.46Z"/><path class="cls-52" d="M244.11,95.28h0a2.4,2.4,0,0,0,1.17-.28.8.8,0,0,0,.47-.64.79.79,0,0,0-.46-.64,2.37,2.37,0,0,0-1.16-.28,2.4,2.4,0,0,0-1.17.28.8.8,0,0,0-.47.64.79.79,0,0,0,.46.64A2.39,2.39,0,0,0,244.11,95.28Z"/><polygon class="cls-56" points="242.7 100.4 242.7 106.3 247.48 109.08 247.48 103.18 242.7 100.4"/><path class="cls-52" d="M251,101.73h0a8.39,8.39,0,0,0,4.09-1,2.78,2.78,0,0,0,1.62-2.24A2.81,2.81,0,0,0,255,96.26a9.05,9.05,0,0,0-8.19,0,2.78,2.78,0,0,0-1.62,2.24,2.82,2.82,0,0,0,1.65,2.25A8.48,8.48,0,0,0,251,101.73Zm-1.92-3.47.19-.11,1,.55-.23.14a2.59,2.59,0,0,0-.45.29s0,.09,0,.14a.35.35,0,0,0,.21,0,.57.57,0,0,0,.24-.08,1.85,1.85,0,0,0,.41-.29q.09-.11,0-.35a3.43,3.43,0,0,1-.19-.58.53.53,0,0,1,.09-.37,1.11,1.11,0,0,1,.41-.37,1.79,1.79,0,0,1,.91-.25,2.47,2.47,0,0,1,1,.25l.3-.18.44.25-.3.18c.26.19.38.38.37.55s-.16.35-.44.51l-.19.1-1-.55.16-.09a1,1,0,0,0,.29-.21s0-.08-.06-.13a.31.31,0,0,0-.2,0,.67.67,0,0,0-.24.09c-.15.09-.22.16-.22.23a1.8,1.8,0,0,0,.17.5,2,2,0,0,1,.16.48.48.48,0,0,1-.11.32,1.34,1.34,0,0,1-.44.36,2.28,2.28,0,0,1-1,.32,2.41,2.41,0,0,1-1.09-.22l-.36.21-.44-.25.37-.21a.77.77,0,0,1-.38-.56C248.43,98.74,248.64,98.51,249.06,98.27Z"/><polygon class="cls-57" points="254.44 93.61 242.7 100.39 247.48 103.19 259.22 96.41 254.44 93.61"/><polygon class="cls-52" points="246.56 82.75 234.82 89.53 256.11 101.9 267.85 95.12 246.56 82.75"/><polygon class="cls-53" points="256.11 101.9 234.82 89.53 234.85 95.44 256.14 107.81 256.11 101.9"/><polygon class="cls-54" points="267.85 95.12 256.11 101.9 256.14 107.81 267.88 101.04 267.85 95.12"/><path class="cls-55" d="M239,90.69l15.14,8.83a4.45,4.45,0,0,1,4,0l5.53-3.19a1.24,1.24,0,0,1,0-2.34l-15.14-8.83a4.45,4.45,0,0,1-4,0L239,88.35A1.24,1.24,0,0,1,239,90.69Z"/><path class="cls-52" d="M258.26,97.17h0a2.4,2.4,0,0,0,1.17-.28.8.8,0,0,0,.47-.64.79.79,0,0,0-.46-.64,2.58,2.58,0,0,0-2.33,0,.67.67,0,0,0,0,1.28A2.39,2.39,0,0,0,258.26,97.17Z"/><path class="cls-52" d="M244.11,89h0a2.4,2.4,0,0,0,1.17-.28.67.67,0,0,0,0-1.28,2.39,2.39,0,0,0-1.16-.28,2.42,2.42,0,0,0-1.17.28.8.8,0,0,0-.47.64.79.79,0,0,0,.46.64A2.38,2.38,0,0,0,244.11,89Z"/><polygon class="cls-56" points="242.7 94.11 242.7 100.01 247.48 102.79 247.48 96.89 242.7 94.11"/><path class="cls-52" d="M251,95.44h0a8.39,8.39,0,0,0,4.09-1,2.78,2.78,0,0,0,1.62-2.24A2.81,2.81,0,0,0,255,90a9.05,9.05,0,0,0-8.19,0,2.78,2.78,0,0,0-1.62,2.24,2.82,2.82,0,0,0,1.65,2.25A8.47,8.47,0,0,0,251,95.44ZM249.06,92l.19-.11,1,.55-.23.14a2.54,2.54,0,0,0-.45.29s0,.09,0,.14a.34.34,0,0,0,.21,0,.58.58,0,0,0,.24-.08,1.83,1.83,0,0,0,.41-.29c.06-.07.06-.19,0-.35a3.44,3.44,0,0,1-.19-.58.53.53,0,0,1,.09-.37,1.11,1.11,0,0,1,.41-.37,1.79,1.79,0,0,1,.91-.25,2.47,2.47,0,0,1,1,.25l.3-.18.44.25-.3.18c.26.19.38.38.37.55s-.16.35-.44.51l-.19.1-1-.55.16-.09a1,1,0,0,0,.29-.21s0-.08-.06-.13a.31.31,0,0,0-.2,0,.65.65,0,0,0-.24.09c-.15.09-.22.16-.22.23a1.8,1.8,0,0,0,.17.5,2,2,0,0,1,.16.48.48.48,0,0,1-.11.32,1.36,1.36,0,0,1-.44.36,2.28,2.28,0,0,1-1,.32,2.43,2.43,0,0,1-1.09-.22l-.36.21-.44-.25.37-.21a.77.77,0,0,1-.38-.56C248.43,92.45,248.64,92.22,249.06,92Z"/><polygon class="cls-57" points="254.44 87.33 242.7 94.11 247.48 96.9 259.22 90.12 254.44 87.33"/><polygon class="cls-58" points="246.56 76.46 234.82 83.24 256.11 95.61 267.85 88.83 246.56 76.46"/><polygon class="cls-59" points="256.11 95.61 234.82 83.24 234.85 89.15 256.14 101.52 256.11 95.61"/><polygon class="cls-60" points="267.85 88.83 256.11 95.61 256.14 101.52 267.88 94.75 267.85 88.83"/><path class="cls-55" d="M239,84.4l15.14,8.83a4.45,4.45,0,0,1,4,0L263.69,90a1.24,1.24,0,0,1,0-2.34l-15.14-8.83a4.46,4.46,0,0,1-4,0L239,82.06A1.24,1.24,0,0,1,239,84.4Z"/><path class="cls-52" d="M258.26,90.88h0a2.4,2.4,0,0,0,1.17-.28.67.67,0,0,0,0-1.28,2.58,2.58,0,0,0-2.33,0,.67.67,0,0,0,0,1.28A2.38,2.38,0,0,0,258.26,90.88Z"/><path class="cls-52" d="M244.11,82.7h0a2.41,2.41,0,0,0,1.17-.28.8.8,0,0,0,.47-.64.79.79,0,0,0-.46-.64,2.38,2.38,0,0,0-1.16-.28,2.41,2.41,0,0,0-1.17.28.8.8,0,0,0-.47.64.79.79,0,0,0,.46.64A2.39,2.39,0,0,0,244.11,82.7Z"/><polygon class="cls-56" points="242.7 87.82 242.7 93.72 247.48 96.5 247.48 90.6 242.7 87.82"/><path class="cls-52" d="M251,89.15h0a8.39,8.39,0,0,0,4.09-1,2.78,2.78,0,0,0,1.62-2.24A2.81,2.81,0,0,0,255,83.68a9.05,9.05,0,0,0-8.19,0,2.78,2.78,0,0,0-1.62,2.24,2.82,2.82,0,0,0,1.65,2.25A8.46,8.46,0,0,0,251,89.15Zm-1.92-3.47.19-.11,1,.55-.23.13a2.57,2.57,0,0,0-.45.29s0,.09,0,.14a.35.35,0,0,0,.21,0,.59.59,0,0,0,.24-.08,1.87,1.87,0,0,0,.41-.29c.06-.07.06-.19,0-.35a3.47,3.47,0,0,1-.19-.58.53.53,0,0,1,.09-.37,1.11,1.11,0,0,1,.41-.37,1.78,1.78,0,0,1,.91-.25,2.46,2.46,0,0,1,1,.25l.3-.18.44.25-.3.18c.26.19.38.38.37.55s-.16.35-.44.51l-.19.1-1-.55.16-.09a1,1,0,0,0,.29-.21s0-.08-.06-.13a.31.31,0,0,0-.2,0,.65.65,0,0,0-.24.09c-.15.09-.22.16-.22.23a1.8,1.8,0,0,0,.17.5,2,2,0,0,1,.16.48.48.48,0,0,1-.11.32,1.35,1.35,0,0,1-.44.36,2.28,2.28,0,0,1-1,.32,2.42,2.42,0,0,1-1.09-.22l-.36.21-.44-.25.37-.21a.77.77,0,0,1-.38-.56C248.43,86.16,248.64,85.93,249.06,85.68Z"/><polygon class="cls-57" points="254.44 81.03 242.7 87.81 247.48 90.61 259.22 83.83 254.44 81.03"/><polygon class="cls-61" points="246.56 70.17 234.82 76.95 256.11 89.32 267.85 82.54 246.56 70.17"/><polygon class="cls-59" points="256.11 89.32 234.82 76.95 234.85 82.86 256.14 95.23 256.11 89.32"/><polygon class="cls-60" points="267.85 82.54 256.11 89.32 256.14 95.23 267.88 88.45 267.85 82.54"/><path class="cls-62" d="M239,78.11l15.14,8.83a4.45,4.45,0,0,1,4,0l5.53-3.19a1.24,1.24,0,0,1,0-2.34l-15.14-8.83a4.46,4.46,0,0,1-4,0L239,75.76A1.24,1.24,0,0,1,239,78.11Z"/><path class="cls-61" d="M258.26,84.58h0a2.39,2.39,0,0,0,1.17-.28.67.67,0,0,0,0-1.28,2.58,2.58,0,0,0-2.33,0,.67.67,0,0,0,0,1.28A2.38,2.38,0,0,0,258.26,84.58Z"/><path class="cls-61" d="M244.11,76.41h0a2.41,2.41,0,0,0,1.17-.28.8.8,0,0,0,.47-.64.79.79,0,0,0-.46-.64,2.37,2.37,0,0,0-1.16-.28,2.41,2.41,0,0,0-1.17.28.8.8,0,0,0-.47.64.79.79,0,0,0,.46.64A2.39,2.39,0,0,0,244.11,76.41Z"/><polygon class="cls-56" points="242.7 81.53 242.7 87.43 247.48 90.21 247.48 84.31 242.7 81.53"/><path class="cls-61" d="M251,82.86h0a8.39,8.39,0,0,0,4.09-1,2.78,2.78,0,0,0,1.62-2.24A2.81,2.81,0,0,0,255,77.39a9.05,9.05,0,0,0-8.19,0,2.78,2.78,0,0,0-1.62,2.24,2.82,2.82,0,0,0,1.65,2.25A8.46,8.46,0,0,0,251,82.86Zm-1.92-3.47.19-.11,1,.55L250,80a2.57,2.57,0,0,0-.45.29s0,.09,0,.14a.35.35,0,0,0,.21,0,.58.58,0,0,0,.24-.08,1.87,1.87,0,0,0,.41-.29c.06-.07.06-.19,0-.35a3.44,3.44,0,0,1-.19-.58.53.53,0,0,1,.09-.37,1.11,1.11,0,0,1,.41-.37,1.8,1.8,0,0,1,.91-.25,2.46,2.46,0,0,1,1,.25l.3-.18.44.25-.3.18c.26.19.38.38.37.55s-.16.35-.44.51l-.19.1-1-.55.16-.09a1,1,0,0,0,.29-.21s0-.08-.06-.13a.31.31,0,0,0-.2,0,.68.68,0,0,0-.24.09c-.15.09-.22.16-.22.23a1.8,1.8,0,0,0,.17.5,2,2,0,0,1,.16.48.48.48,0,0,1-.11.32,1.36,1.36,0,0,1-.44.36,2.27,2.27,0,0,1-1,.32,2.41,2.41,0,0,1-1.09-.22l-.36.21-.44-.25.37-.21a.77.77,0,0,1-.38-.56C248.43,79.87,248.64,79.64,249.06,79.39Z"/><polygon class="cls-57" points="254.44 74.74 242.7 81.52 247.48 84.32 259.22 77.54 254.44 74.74"/><polygon class="cls-58" points="255.48 108.79 234.19 96.42 222.45 103.2 243.74 115.57 255.48 108.79"/><polygon class="cls-63" points="243.74 115.57 222.45 103.2 222.48 109.11 243.76 121.48 243.74 115.57"/><polygon class="cls-60" points="255.48 108.79 243.74 115.57 243.76 121.48 255.51 114.7 255.48 108.79"/><path class="cls-55" d="M226.61,104.35l15.14,8.83a4.45,4.45,0,0,1,4,0l5.53-3.19a1.24,1.24,0,0,1,0-2.34l-15.14-8.83a4.45,4.45,0,0,1-4,0L226.62,102A1.24,1.24,0,0,1,226.61,104.35Z"/><path class="cls-52" d="M245.88,110.83h0a2.4,2.4,0,0,0,1.17-.28.67.67,0,0,0,0-1.28,2.58,2.58,0,0,0-2.33,0,.8.8,0,0,0-.47.64.79.79,0,0,0,.46.64A2.38,2.38,0,0,0,245.88,110.83Z"/><path class="cls-52" d="M231.74,102.66h0a2.41,2.41,0,0,0,1.17-.28.8.8,0,0,0,.47-.64.79.79,0,0,0-.46-.64,2.38,2.38,0,0,0-1.16-.28,2.4,2.4,0,0,0-1.17.28.67.67,0,0,0,0,1.28A2.4,2.4,0,0,0,231.74,102.66Z"/><polygon class="cls-56" points="235.11 110.56 230.33 107.78 230.33 113.68 235.11 116.46 235.11 110.56"/><path class="cls-52" d="M238.61,109.11h0a8.39,8.39,0,0,0,4.09-1,2.36,2.36,0,0,0,0-4.49,9.05,9.05,0,0,0-8.19,0,2.78,2.78,0,0,0-1.62,2.24,2.81,2.81,0,0,0,1.65,2.25A8.45,8.45,0,0,0,238.61,109.11Zm-1.92-3.47.19-.11,1,.55-.23.14a2.59,2.59,0,0,0-.45.29s0,.09,0,.14a.35.35,0,0,0,.21,0,.58.58,0,0,0,.24-.08,1.82,1.82,0,0,0,.41-.29c.06-.07.06-.19,0-.35a3.33,3.33,0,0,1-.19-.58.54.54,0,0,1,.09-.37,1.1,1.1,0,0,1,.41-.37,1.79,1.79,0,0,1,.91-.25,2.47,2.47,0,0,1,1,.25l.3-.18.44.25-.3.18c.26.19.38.38.37.55s-.16.35-.44.51l-.19.1-1-.55.16-.09a1.08,1.08,0,0,0,.29-.21s0-.08-.06-.13a.31.31,0,0,0-.2,0,.67.67,0,0,0-.24.09c-.15.09-.22.16-.22.23a1.84,1.84,0,0,0,.17.5,1.94,1.94,0,0,1,.16.48.48.48,0,0,1-.1.32,1.34,1.34,0,0,1-.44.36,2.27,2.27,0,0,1-1,.32,2.44,2.44,0,0,1-1.09-.22l-.36.21-.44-.25.37-.21a.78.78,0,0,1-.38-.56C236.06,106.12,236.27,105.89,236.69,105.64Z"/><polygon class="cls-57" points="246.85 103.79 242.07 100.99 230.33 107.77 235.11 110.57 246.85 103.79"/><polygon class="cls-58" points="255.48 102.5 234.19 90.13 222.45 96.91 243.74 109.28 255.48 102.5"/><polygon class="cls-63" points="243.74 109.28 222.45 96.91 222.48 102.82 243.76 115.19 243.74 109.28"/><polygon class="cls-60" points="255.48 102.5 243.74 109.28 243.76 115.19 255.51 108.41 255.48 102.5"/><path class="cls-55" d="M226.61,98.06l15.14,8.83a4.45,4.45,0,0,1,4,0l5.53-3.19a1.24,1.24,0,0,1,0-2.34l-15.14-8.83a4.45,4.45,0,0,1-4,0l-5.53,3.19A1.24,1.24,0,0,1,226.61,98.06Z"/><path class="cls-52" d="M245.88,104.54h0a2.41,2.41,0,0,0,1.17-.28.8.8,0,0,0,.47-.64.79.79,0,0,0-.46-.64,2.58,2.58,0,0,0-2.33,0,.8.8,0,0,0-.47.64.79.79,0,0,0,.46.64A2.38,2.38,0,0,0,245.88,104.54Z"/><path class="cls-52" d="M231.74,96.37h0a2.42,2.42,0,0,0,1.17-.28.8.8,0,0,0,.47-.64.79.79,0,0,0-.46-.64,2.38,2.38,0,0,0-1.16-.28,2.41,2.41,0,0,0-1.17.28.67.67,0,0,0,0,1.28A2.4,2.4,0,0,0,231.74,96.37Z"/><polygon class="cls-56" points="235.11 104.27 230.33 101.49 230.33 107.39 235.11 110.17 235.11 104.27"/><path class="cls-52" d="M238.61,102.82h0a8.39,8.39,0,0,0,4.09-1,2.78,2.78,0,0,0,1.62-2.24,2.81,2.81,0,0,0-1.64-2.25,9.05,9.05,0,0,0-8.19,0,2.78,2.78,0,0,0-1.62,2.24,2.81,2.81,0,0,0,1.65,2.25A8.45,8.45,0,0,0,238.61,102.82Zm-1.92-3.47.19-.11,1,.55-.23.14a2.62,2.62,0,0,0-.45.29s0,.09,0,.14a.35.35,0,0,0,.21,0,.57.57,0,0,0,.24-.09,1.81,1.81,0,0,0,.41-.29c.06-.07.06-.19,0-.35a3.36,3.36,0,0,1-.19-.58.54.54,0,0,1,.09-.37,1.09,1.09,0,0,1,.41-.37,1.78,1.78,0,0,1,.91-.25,2.47,2.47,0,0,1,1,.25l.3-.18.44.25-.3.18c.26.19.38.38.37.55s-.16.35-.44.51l-.19.1-1-.55.16-.09a1.06,1.06,0,0,0,.29-.21s0-.08-.06-.13a.31.31,0,0,0-.2,0,.68.68,0,0,0-.24.09c-.15.09-.22.16-.22.23a1.86,1.86,0,0,0,.17.5,1.93,1.93,0,0,1,.16.48.48.48,0,0,1-.1.32,1.34,1.34,0,0,1-.44.36,2.26,2.26,0,0,1-1,.32,2.41,2.41,0,0,1-1.09-.22l-.36.21-.44-.25.37-.21a.78.78,0,0,1-.38-.56C236.06,99.82,236.27,99.6,236.69,99.35Z"/><polygon class="cls-57" points="246.85 97.5 242.07 94.7 230.33 101.48 235.11 104.28 246.85 97.5"/><polygon class="cls-58" points="255.48 96.21 234.19 83.84 222.45 90.62 243.74 102.99 255.48 96.21"/><polygon class="cls-63" points="243.74 102.99 222.45 90.62 222.48 96.53 243.76 108.9 243.74 102.99"/><polygon class="cls-60" points="255.48 96.21 243.74 102.99 243.76 108.9 255.51 102.12 255.48 96.21"/><path class="cls-55" d="M226.61,91.77l15.14,8.83a4.45,4.45,0,0,1,4,0l5.53-3.19a1.24,1.24,0,0,1,0-2.34l-15.14-8.83a4.45,4.45,0,0,1-4,0l-5.53,3.19A1.24,1.24,0,0,1,226.61,91.77Z"/><path class="cls-52" d="M245.88,98.25h0a2.41,2.41,0,0,0,1.17-.28.67.67,0,0,0,0-1.28,2.58,2.58,0,0,0-2.33,0,.8.8,0,0,0-.47.64.79.79,0,0,0,.46.64A2.38,2.38,0,0,0,245.88,98.25Z"/><path class="cls-52" d="M231.74,90.08h0a2.4,2.4,0,0,0,1.17-.28.8.8,0,0,0,.47-.64.79.79,0,0,0-.46-.64,2.38,2.38,0,0,0-1.16-.28,2.41,2.41,0,0,0-1.17.28.67.67,0,0,0,0,1.28A2.39,2.39,0,0,0,231.74,90.08Z"/><polygon class="cls-56" points="235.11 97.98 230.33 95.2 230.33 101.1 235.11 103.88 235.11 97.98"/><path class="cls-52" d="M238.61,96.53h0a8.39,8.39,0,0,0,4.09-1,2.36,2.36,0,0,0,0-4.49,9.05,9.05,0,0,0-8.19,0,2.78,2.78,0,0,0-1.62,2.24,2.81,2.81,0,0,0,1.65,2.25A8.45,8.45,0,0,0,238.61,96.53Zm-1.92-3.47.19-.11,1,.55-.23.14a2.64,2.64,0,0,0-.45.29s0,.09,0,.14a.35.35,0,0,0,.21,0,.57.57,0,0,0,.24-.08,1.82,1.82,0,0,0,.41-.29c.06-.07.06-.19,0-.35a3.32,3.32,0,0,1-.19-.58.54.54,0,0,1,.09-.37,1.11,1.11,0,0,1,.41-.37,1.79,1.79,0,0,1,.91-.25,2.47,2.47,0,0,1,1,.25l.3-.18.44.25-.3.18c.26.19.38.38.37.55s-.16.35-.44.51l-.19.1-1-.55.16-.09a1.06,1.06,0,0,0,.29-.21s0-.08-.06-.13a.31.31,0,0,0-.2,0,.65.65,0,0,0-.24.09c-.15.09-.22.16-.22.23a1.87,1.87,0,0,0,.17.5,1.93,1.93,0,0,1,.16.48.48.48,0,0,1-.1.32,1.34,1.34,0,0,1-.44.36,2.27,2.27,0,0,1-1,.32,2.42,2.42,0,0,1-1.09-.22l-.36.21-.44-.25.37-.21a.78.78,0,0,1-.38-.56C236.06,93.53,236.27,93.31,236.69,93.06Z"/><polygon class="cls-57" points="246.85 91.21 242.07 88.41 230.33 95.19 235.11 97.99 246.85 91.21"/><polygon class="cls-61" points="255.48 89.92 234.19 77.55 222.45 84.33 243.74 96.7 255.48 89.92"/><polygon class="cls-63" points="243.74 96.7 222.45 84.33 222.48 90.24 243.76 102.61 243.74 96.7"/><polygon class="cls-60" points="255.48 89.92 243.74 96.7 243.76 102.61 255.51 95.83 255.48 89.92"/><path class="cls-62" d="M226.61,85.48l15.14,8.83a4.46,4.46,0,0,1,4,0l5.53-3.19a1.24,1.24,0,0,1,0-2.34l-15.14-8.83a4.45,4.45,0,0,1-4,0l-5.53,3.19A1.24,1.24,0,0,1,226.61,85.48Z"/><path class="cls-61" d="M245.88,92h0a2.4,2.4,0,0,0,1.17-.28.8.8,0,0,0,.47-.64.79.79,0,0,0-.46-.64,2.39,2.39,0,0,0-1.17-.28,2.42,2.42,0,0,0-1.17.28.8.8,0,0,0-.47.64.79.79,0,0,0,.46.64A2.38,2.38,0,0,0,245.88,92Z"/><path class="cls-61" d="M231.74,83.79h0a2.41,2.41,0,0,0,1.17-.28.8.8,0,0,0,.47-.64.79.79,0,0,0-.46-.64,2.39,2.39,0,0,0-1.16-.28,2.42,2.42,0,0,0-1.17.28.67.67,0,0,0,0,1.28A2.39,2.39,0,0,0,231.74,83.79Z"/><polygon class="cls-56" points="235.11 91.69 230.33 88.91 230.33 94.81 235.11 97.59 235.11 91.69"/><path class="cls-61" d="M238.61,90.24h0a8.39,8.39,0,0,0,4.09-1,2.36,2.36,0,0,0,0-4.49,9,9,0,0,0-8.19,0A2.78,2.78,0,0,0,232.87,87a2.81,2.81,0,0,0,1.65,2.25A8.46,8.46,0,0,0,238.61,90.24Zm-1.92-3.47.19-.11,1,.55-.23.14a2.68,2.68,0,0,0-.45.29s0,.09,0,.14a.34.34,0,0,0,.21,0,.59.59,0,0,0,.24-.08,1.82,1.82,0,0,0,.41-.29c.06-.07.06-.19,0-.35a3.36,3.36,0,0,1-.19-.58.54.54,0,0,1,.09-.37,1.1,1.1,0,0,1,.41-.37,1.78,1.78,0,0,1,.91-.25,2.47,2.47,0,0,1,1,.25l.3-.18.44.25-.3.18c.26.19.38.38.37.55s-.16.35-.44.51l-.19.1-1-.55.16-.09a1.06,1.06,0,0,0,.29-.21s0-.08-.06-.13a.31.31,0,0,0-.2,0,.66.66,0,0,0-.24.09c-.15.09-.22.16-.22.23a1.86,1.86,0,0,0,.17.5,1.92,1.92,0,0,1,.16.48.48.48,0,0,1-.1.32,1.34,1.34,0,0,1-.44.36,2.27,2.27,0,0,1-1,.32,2.42,2.42,0,0,1-1.09-.22l-.36.21-.44-.25.37-.21a.78.78,0,0,1-.38-.56C236.06,87.24,236.27,87,236.69,86.77Z"/><polygon class="cls-57" points="246.85 84.92 242.07 82.12 230.33 88.9 235.11 91.69 246.85 84.92"/><polygon class="cls-58" points="267.03 104.85 245.74 117.22 257.48 124 278.77 111.63 267.03 104.85"/><polygon class="cls-60" points="278.77 111.63 257.48 124 257.46 129.91 278.75 117.54 278.77 111.63"/><polygon class="cls-63" points="245.74 117.22 245.72 123.13 257.46 129.91 257.48 124 245.74 117.22"/><path class="cls-55" d="M274.6,110.44l-5.53-3.19a4.46,4.46,0,0,1-4,0l-15.14,8.83a1.24,1.24,0,0,1,0,2.34l5.53,3.19a4.46,4.46,0,0,1,4,0l15.14-8.83A1.24,1.24,0,0,1,274.6,110.44Z"/><path class="cls-52" d="M262.43,117.48h0a8.38,8.38,0,0,0,4.08-1,2.77,2.77,0,0,0,1.62-2.23,2.8,2.8,0,0,0-1.64-2.25,9,9,0,0,0-8.18,0,2.78,2.78,0,0,0-1.62,2.23,2.81,2.81,0,0,0,1.64,2.25A8.45,8.45,0,0,0,262.43,117.48ZM260,113.09l.44-.25.31.18a2.18,2.18,0,0,1,1-.21,1.82,1.82,0,0,1,.88.26l.17.11-.95.55-.16-.09a1.67,1.67,0,0,0-.36-.17.29.29,0,0,0-.22,0c-.06,0-.08.07-.06.11a.34.34,0,0,0,.16.14.83.83,0,0,0,.4.13,8.2,8.2,0,0,0,.86-.1c.39-.06.67-.09.83-.09a2.16,2.16,0,0,1,.55.06,2.3,2.3,0,0,1,.62.26c.34.2.53.4.56.6s-.09.42-.37.63l.36.21-.44.25-.37-.21a2.35,2.35,0,0,1-1,.22,2.25,2.25,0,0,1-1.18-.35l-.19-.11.95-.55.24.14a3.2,3.2,0,0,0,.51.26.28.28,0,0,0,.24,0c.06,0,.09-.08.08-.12s-.06-.09-.15-.14a2.56,2.56,0,0,0-.5-.24,1.6,1.6,0,0,0-.61,0c-.47.06-.8.1-1,.11a2.49,2.49,0,0,1-.63-.05,2.06,2.06,0,0,1-.64-.24c-.29-.16-.43-.34-.43-.53s.14-.38.42-.59Z"/><path class="cls-52" d="M255.34,119.26h0a2.39,2.39,0,0,0,1.17-.28.67.67,0,0,0,0-1.28,2.57,2.57,0,0,0-2.33,0,.79.79,0,0,0-.46.64.8.8,0,0,0,.47.64A2.39,2.39,0,0,0,255.34,119.26Z"/><path class="cls-52" d="M269.49,111.09h0a2.39,2.39,0,0,0,1.16-.28.79.79,0,0,0,.46-.64.8.8,0,0,0-.47-.64,2.58,2.58,0,0,0-2.33,0,.67.67,0,0,0,0,1.28A2.41,2.41,0,0,0,269.49,111.09Z"/><polygon class="cls-57" points="259.16 109.42 254.37 112.22 266.11 119 270.9 116.2 259.16 109.42"/><polygon class="cls-56" points="266.11 118.99 266.11 124.89 270.9 122.11 270.9 116.21 266.11 118.99"/><polygon class="cls-58" points="267.03 98.56 245.74 110.93 257.48 117.71 278.77 105.34 267.03 98.56"/><polygon class="cls-60" points="278.77 105.34 257.48 117.71 257.46 123.62 278.75 111.25 278.77 105.34"/><polygon class="cls-63" points="245.74 110.93 245.72 116.84 257.46 123.62 257.48 117.71 245.74 110.93"/><path class="cls-55" d="M274.6,104.15,269.07,101a4.46,4.46,0,0,1-4,0l-15.14,8.83a1.24,1.24,0,0,1,0,2.34l5.53,3.19a4.46,4.46,0,0,1,4,0l15.14-8.83A1.24,1.24,0,0,1,274.6,104.15Z"/><path class="cls-52" d="M262.43,111.19h0a8.38,8.38,0,0,0,4.08-1,2.77,2.77,0,0,0,1.62-2.23,2.8,2.8,0,0,0-1.64-2.25,9,9,0,0,0-8.18,0,2.78,2.78,0,0,0-1.62,2.23,2.81,2.81,0,0,0,1.64,2.25A8.45,8.45,0,0,0,262.43,111.19ZM260,106.8l.44-.25.31.18a2.19,2.19,0,0,1,1-.21,1.84,1.84,0,0,1,.88.26l.17.11-.95.55-.16-.09a1.69,1.69,0,0,0-.36-.17.29.29,0,0,0-.22,0c-.06,0-.08.07-.06.11a.34.34,0,0,0,.16.14.84.84,0,0,0,.4.13,8.26,8.26,0,0,0,.86-.1c.39-.06.67-.09.83-.09a2.11,2.11,0,0,1,.55.06,2.3,2.3,0,0,1,.62.26c.34.2.53.4.56.6s-.09.42-.37.63l.36.21-.44.25-.37-.21a2.34,2.34,0,0,1-1,.22,2.25,2.25,0,0,1-1.18-.35l-.19-.11.95-.55.24.14a3.19,3.19,0,0,0,.51.26.29.29,0,0,0,.24,0c.06,0,.09-.08.08-.12s-.06-.09-.15-.14a2.52,2.52,0,0,0-.5-.24,1.61,1.61,0,0,0-.61,0c-.47.06-.8.1-1,.11a2.49,2.49,0,0,1-.63-.05,2,2,0,0,1-.64-.24q-.43-.25-.43-.53c0-.19.14-.38.42-.59Z"/><path class="cls-52" d="M255.34,113h0a2.39,2.39,0,0,0,1.17-.28.67.67,0,0,0,0-1.28,2.58,2.58,0,0,0-2.33,0,.79.79,0,0,0-.46.64.8.8,0,0,0,.47.64A2.39,2.39,0,0,0,255.34,113Z"/><path class="cls-52" d="M269.49,104.8h0a2.39,2.39,0,0,0,1.16-.28.79.79,0,0,0,.46-.64.8.8,0,0,0-.47-.64,2.58,2.58,0,0,0-2.33,0,.67.67,0,0,0,0,1.28A2.41,2.41,0,0,0,269.49,104.8Z"/><polygon class="cls-57" points="259.16 103.13 254.37 105.93 266.11 112.71 270.9 109.91 259.16 103.13"/><polygon class="cls-56" points="266.11 112.7 266.11 118.6 270.9 115.82 270.9 109.92 266.11 112.7"/><polygon class="cls-61" points="267.03 92.27 245.74 104.64 257.48 111.42 278.77 99.05 267.03 92.27"/><polygon class="cls-60" points="278.77 99.05 257.48 111.42 257.46 117.33 278.75 104.96 278.77 99.05"/><polygon class="cls-63" points="245.74 104.64 245.72 110.55 257.46 117.33 257.48 111.42 245.74 104.64"/><path class="cls-62" d="M274.6,97.86l-5.53-3.19a4.46,4.46,0,0,1-4,0l-15.14,8.83a1.24,1.24,0,0,1,0,2.34l5.53,3.19a4.46,4.46,0,0,1,4,0l15.14-8.83A1.24,1.24,0,0,1,274.6,97.86Z"/><path class="cls-61" d="M262.43,104.9h0a8.38,8.38,0,0,0,4.08-1,2.36,2.36,0,0,0,0-4.49,9,9,0,0,0-8.18,0,2.78,2.78,0,0,0-1.62,2.23,2.81,2.81,0,0,0,1.64,2.25A8.44,8.44,0,0,0,262.43,104.9ZM260,100.51l.44-.25.31.18a2.18,2.18,0,0,1,1-.21,1.82,1.82,0,0,1,.88.26l.17.11-.95.55-.16-.09a1.69,1.69,0,0,0-.36-.17.29.29,0,0,0-.22,0c-.06,0-.08.07-.06.11a.34.34,0,0,0,.16.14.83.83,0,0,0,.4.13,8.41,8.41,0,0,0,.86-.1c.39-.06.67-.09.83-.09a2.11,2.11,0,0,1,.55.06,2.27,2.27,0,0,1,.62.26c.34.2.53.4.56.6s-.09.42-.37.63l.36.21-.44.25-.37-.21a2.37,2.37,0,0,1-1,.22,2.25,2.25,0,0,1-1.18-.35l-.19-.11.95-.55.24.14a3.16,3.16,0,0,0,.51.26.28.28,0,0,0,.24,0c.06,0,.09-.08.08-.12s-.06-.09-.15-.14a2.54,2.54,0,0,0-.5-.24,1.59,1.59,0,0,0-.61,0c-.47.06-.8.1-1,.11a2.49,2.49,0,0,1-.63-.05,2,2,0,0,1-.64-.24q-.43-.25-.43-.53c0-.19.14-.38.42-.59Z"/><path class="cls-61" d="M255.34,106.68h0a2.4,2.4,0,0,0,1.17-.28.67.67,0,0,0,0-1.28,2.58,2.58,0,0,0-2.33,0,.79.79,0,0,0-.46.64.8.8,0,0,0,.47.64A2.41,2.41,0,0,0,255.34,106.68Z"/><path class="cls-61" d="M269.49,98.51h0a2.39,2.39,0,0,0,1.16-.28.79.79,0,0,0,.46-.64.8.8,0,0,0-.47-.64,2.57,2.57,0,0,0-2.33,0,.67.67,0,0,0,0,1.28A2.4,2.4,0,0,0,269.49,98.51Z"/><polygon class="cls-57" points="259.16 96.84 254.37 99.64 266.11 106.42 270.9 103.62 259.16 96.84"/><polygon class="cls-56" points="266.11 106.41 266.11 112.31 270.9 109.53 270.9 103.63 266.11 106.41"/><polyline class="cls-64" points="471.35 108.75 471.35 16.37 409.07 16.37 408.96 108.75"/><g class="cls-65"><rect class="cls-66" x="408.79" y="99.22" width="29.87" height="18.04"/></g><g class="cls-67"><rect class="cls-68" x="408.75" y="96.84" width="29.91" height="18.04"/></g><g class="cls-69"><rect class="cls-70" x="408.79" y="94.69" width="29.87" height="18.04"/></g><g class="cls-71"><rect class="cls-72" x="408.75" y="92.31" width="29.91" height="18.04"/></g><g class="cls-73"><rect class="cls-74" x="408.79" y="89.95" width="29.87" height="18.04"/></g><g class="cls-75"><rect class="cls-76" x="408.75" y="87.57" width="29.91" height="18.04"/></g><g class="cls-77"><rect class="cls-78" x="408.76" y="84.9" width="29.9" height="18.04"/></g><g class="cls-79"><rect class="cls-80" x="407.41" y="82.15" width="32.7" height="18.04"/></g><g class="cls-81"><rect class="cls-82" x="441.48" y="107.76" width="29.87" height="18.04"/></g><g class="cls-83"><rect class="cls-84" x="441.44" y="105.38" width="29.91" height="18.04"/></g><g class="cls-85"><rect class="cls-86" x="441.48" y="103.23" width="29.87" height="18.04"/></g><g class="cls-87"><rect class="cls-88" x="441.44" y="100.84" width="29.91" height="18.04"/></g><g class="cls-89"><rect class="cls-90" x="441.48" y="98.49" width="29.87" height="18.04"/></g><g class="cls-91"><rect class="cls-92" x="441.44" y="96.1" width="29.91" height="18.04"/></g><g class="cls-93"><rect class="cls-94" x="441.45" y="93.44" width="29.9" height="18.04"/></g><g class="cls-95"><rect class="cls-96" x="440.1" y="90.69" width="32.7" height="18.04"/></g><polygon class="cls-15" points="452.88 96.75 453.93 96.14 454.98 96.75 453.93 97.36 452.88 96.75"/><polygon class="cls-15" points="454.98 97.96 456.04 97.36 457.09 97.96 456.04 98.57 454.98 97.96"/><path class="cls-15" d="M448.13,93.4,452.3,102l12.49,1L463,95.81Zm13.68,8.5-6-.49,3.71-.83Zm-4.73-2.73,1.29.75-5,1.11-2.69-5.55,1.14.66,1.05-.61-1.15-.66,9.62,1.55-1.92,2.89-1.29-.75Zm5.78,2.12L460.58,100,462,97.84Z"/><path class="cls-15" d="M426.12,88.23c.36-.74-.12-1.54-1.21-2-1.63-.72-3.9,0-5.37.67l-2.17-1.25-1.34.77,2.15,1.24-.9.52L415.14,87l-1.34.77L415.95,89l-2.69,1.55,1.38.8,1-.58a1.07,1.07,0,0,1,1.17-.1l5.95,3.43c.5.29.4.52.13.67l-1,.59,1.41.82,2.6-1.5,2.2,1.27,1.35-.78-2.2-1.27.9-.52,2.2,1.27,1.31-.76-2.2-1.27.29-.17c2.75-1.59,2.32-2.89.49-4a5.35,5.35,0,0,0-4.09-.25m-7.36.81,1-.55c.67-.39,2.1-1.08,3.19-.45.75.38.86,1,.25,1.5l-1.77,1Zm8.35,3.11h0l-1.48.85-2.86-1.65,1.72-1c.4-.23,2-1,3.11-.41s1,1.38-.48,2.2"/><g class="cls-97"><rect class="cls-98" x="418.55" y="117.25" width="29.91" height="18.04"/></g><g class="cls-99"><rect class="cls-100" x="418.6" y="114.89" width="29.87" height="18.04"/></g><g class="cls-101"><rect class="cls-102" x="418.55" y="112.5" width="29.91" height="18.04"/></g><g class="cls-103"><rect class="cls-104" x="418.56" y="109.84" width="29.9" height="18.04"/></g><g class="cls-105"><rect class="cls-106" x="417.21" y="107.09" width="32.7" height="18.04"/></g><polygon class="cls-15" points="430.18 117.81 432.2 117.42 433.34 118.08 435.67 117.63 432.96 116.06 428.61 116.9 430.18 117.81"/><polygon class="cls-15" points="435.33 119.23 430.6 120.15 427.45 118.33 429.43 117.95 427.86 117.05 423.52 117.88 429.81 121.51 439.25 119.7 436.17 117.92 433.84 118.37 435.33 119.23"/><polygon class="cls-15" points="436.72 117.02 437.51 115.66 436.37 115 437.03 113.86 435.46 112.95 434.01 115.46 436.72 117.02"/><polygon class="cls-15" points="435.71 112.51 437.28 113.42 437.94 112.28 441.09 114.09 439.51 116.82 438.01 115.95 437.23 117.31 440.3 119.09 443.44 113.64 437.15 110.01 435.71 112.51"/><path class="cls-15" d="M428,115l-1.58.3.38-.66a6.82,6.82,0,0,1-2-.19l-1.54,2.67,3.94-.76Z"/><path class="cls-15" d="M434.54,112.14l1.31-2.27-4.62.89a1.52,1.52,0,0,1,.34,1.15l1.14-.22-.53.91Z"/><polygon class="cls-15" points="431.93 113.03 431.14 114.41 428.75 114.87 427.97 116.23 432.71 115.31 434.29 112.58 431.93 113.03"/><path class="cls-15" d="M425.09,110.91c-1.32.76-1.46,1.91-.32,2.57.76.44,2.94.47,4.3.44l.68,0,.46,0s0-.1,0-.26,0-.24,0-.39c.05-.78,0-2-.76-2.48A4.94,4.94,0,0,0,425.09,110.91Zm2.9,1.67a2,2,0,0,1-1.84.08c-.47-.27-.41-.75.13-1.06a2,2,0,0,1,1.84-.08C428.59,111.8,428.53,112.27,428,112.59Z"/><circle class="cls-15" cx="417.57" cy="72.62" r="0.81"/><circle class="cls-107" cx="433.54" cy="51.81" r="0.62"/><circle class="cls-107" cx="442.2" cy="40.69" r="0.62"/><circle class="cls-108" cx="437.9" cy="33.14" r="0.37"/><circle class="cls-15" cx="456.45" cy="79.49" r="0.62"/><g class="cls-109"><path class="cls-110" d="M422.47,53.72s0,.33.1.9.13,1.39.19,2.37c.13,2,.21,4.58.21,7.2s-.09,5.24-.21,7.2c-.06,1-.15,1.8-.19,2.37s-.1.9-.1.9,0-.33-.1-.9-.13-1.39-.19-2.37c-.13-2-.21-4.58-.21-7.2s.09-5.24.21-7.2c.06-1,.15-1.8.19-2.37S422.47,53.72,422.47,53.72Z"/></g><g class="cls-109"><path class="cls-110" d="M450.9,36.72,451,38c0,.78.14,1.9.18,3.24s.13,2.9.16,4.58,0,3.46.06,5.25,0,3.57-.06,5.25-.12,3.24-.16,4.58S451,63.3,451,64.08l-.1,1.23-.1-1.23c0-.78-.14-1.9-.18-3.24s-.13-2.9-.16-4.58,0-3.46-.06-5.25,0-3.57.06-5.25.12-3.24.16-4.58.14-2.46.18-3.24Z"/></g><path class="cls-111" d="M473.93,328.21a1.21,1.21,0,0,1,0,2.29l-36.82,19.3a4.39,4.39,0,0,1-3.95,0l-57.69-33.31a1.21,1.21,0,0,1,0-2.29l36.82-19.29a4.35,4.35,0,0,1,3.94,0Z"/><g class="cls-112"><path class="cls-3" d="M473.93,324.35a1.21,1.21,0,0,1,0,2.29L437.12,348a4.36,4.36,0,0,1-3.95,0l-57.69-33.31a1.21,1.21,0,0,1,0-2.28L412.29,291a4.36,4.36,0,0,1,3.94,0Z"/><g class="cls-113"><path class="cls-5" d="M419.72,328.23l-10-5.78a2.18,2.18,0,0,0-2,0l-6.91,4a.61.61,0,0,0,0,1.15l10,5.79a2.21,2.21,0,0,0,2,0l6.91-4c.55-.32.54-.83,0-1.15Z"/></g></g><g class="cls-112"><g class="cls-114"><g class="cls-112"><path class="cls-115" d="M375.49,314.72v1.76l-.26-.18v-1.76a2.14,2.14,0,0,0,.26.17Z"/><path class="cls-116" d="M375.22,314.55v1.76a2,2,0,0,1-.23-.21v-1.76a1.76,1.76,0,0,0,.23.21Z"/><path class="cls-117" d="M375,314.34v1.76l-.14-.18v-1.76l.15.18Z"/><path class="cls-118" d="M374.85,314.16v1.76a1.08,1.08,0,0,1-.1-.18V314l.1.18Z"/><path class="cls-119" d="M374.75,314v1.76a.94.94,0,0,1-.06-.18V313.8a.88.88,0,0,0,.06.18Z"/><path class="cls-120" d="M374.69,313.8v1.76a1.16,1.16,0,0,1,0-.18v-1.76a.89.89,0,0,0,0,.19Z"/><path class="cls-121" d="M374.67,313.61v0Z"/></g></g></g><path class="cls-4" d="M474.75,325.5q0,1.93,0,3.86a1.38,1.38,0,0,1-.81,1.13v-3.86A1.38,1.38,0,0,0,474.75,325.5Z"/><g class="cls-122"><g class="cls-112"><path class="cls-4" d="M474.75,325.5v3.86a1.38,1.38,0,0,1-.81,1.13v-3.86a1.38,1.38,0,0,0,.81-1.13Z"/></g></g><polygon class="cls-4" points="473.94 326.63 473.93 330.5 437.11 349.8 437.12 348.03 473.94 326.63"/><polygon class="cls-4" points="433.18 348.03 433.16 349.8 375.48 316.49 375.49 314.72 433.18 348.03"/><path class="cls-4" d="M437.12,348v1.77a4.39,4.39,0,0,1-3.95,0V348A4.36,4.36,0,0,0,437.12,348Z"/><g class="cls-123"><g class="cls-112"><path class="cls-4" d="M437.12,348v1.77l-.32.16v-1.76a2.09,2.09,0,0,0,.32-.16Z"/><path class="cls-4" d="M436.8,348.19V350l-.36.13v-1.76l.36-.13Z"/><path class="cls-4" d="M436.44,348.32v1.76l-.32.08V348.4l.31-.08Z"/><path class="cls-4" d="M436.13,348.4v1.76l-.31.05v-1.76l.31-.05Z"/><path class="cls-4" d="M435.82,348.46v1.76l-.31,0v-1.76l.31,0Z"/><path class="cls-4" d="M435.51,348.49v1.76h-.33V348.5Z"/><path class="cls-4" d="M435.19,348.5v1.76h-.36v-1.76Z"/><path class="cls-4" d="M434.83,348.49v1.76l-.43,0v-1.76l.43,0Z"/><path class="cls-4" d="M434.41,348.45v1.76a3.67,3.67,0,0,1-1.23-.41V348a3.67,3.67,0,0,0,1.23.41Z"/></g></g><path class="cls-124" d="M464.8,323.17a1,1,0,0,1,0,1.86l-21.55,12.53a3.52,3.52,0,0,1-3.2,0l-46.81-27a1,1,0,0,1,0-1.85l21.55-12.53a3.53,3.53,0,0,1,3.2,0Z"/><g class="cls-112"><path class="cls-5" d="M464.8,321.63a1,1,0,0,1,0,1.86L443.25,336a3.52,3.52,0,0,1-3.2,0l-46.81-27a1,1,0,0,1,0-1.85l21.55-12.53a3.52,3.52,0,0,1,3.2,0Z"/><g class="cls-125"><path class="cls-4" d="M403.82,306.86l5.27-3.06,4.08,2.35-5.27,3.06-4.08-2.35Zm5.1,2.94,5.27-3.06,4.08,2.36L413,312.16l-4.09-2.36Zm5.11,2.95,5.27-3.06,4.08,2.35-5.27,3.06L414,312.75Zm5.1,2.95,5.27-3.06,4.08,2.36-5.27,3.06-4.08-2.36Zm5.11,2.95,5.27-3.06,4.08,2.35L428.32,321l-4.08-2.36Zm5.1,2.95,5.27-3.06,4.08,2.36L433.43,324l-4.08-2.36Zm5.11,3,5.27-3.06,4.08,2.36-5.27,3.06-4.08-2.35Zm5.1,2.94,5.27-3.06,4.09,2.36-5.27,3.06-4.09-2.36ZM410,303.26l5.26-3.06,4.08,2.35-5.26,3.06L410,303.26Zm5.1,2.95,5.26-3.06,4.08,2.36-5.26,3.06-4.08-2.35Zm5.11,2.94,5.26-3.06,4.08,2.35-5.26,3.06-4.08-2.36Zm5.1,2.95,5.26-3.06,4.08,2.36-5.26,3.06-4.09-2.36Zm5.11,2.95,5.26-3.05,4.08,2.35-5.26,3.06L430.43,315Zm5.1,2.95,5.26-3.06,4.08,2.36-5.26,3.06L435.53,318Zm5.11,3,5.26-3.06,4.08,2.35-5.26,3.06-4.08-2.35Zm5.1,2.94,5.26-3.06,4.08,2.36-5.26,3.05-4.08-2.36Zm16.56-3.71-1-.59L456,322.65l-4.08-2.36,5.26-3.06-1-.59-5.27,3.06-4.08-2.36,5.27-3.06-1-.59-5.27,3.06-4.08-2.36,5.27-3.06-1-.59-5.27,3.06-4.08-2.35,5.27-3.06-1-.59-5.27,3.06-4.08-2.36,5.27-3.06-1-.59-5.27,3.06-4.08-2.36,5.26-3.06-1-.59L425.39,305l-4.09-2.36,5.27-3.06-1-.59L420.28,302l-4.08-2.36,5.27-3.06-1-.59-5.27,3.06-4.08-2.36-.92.54,4.08,2.36L409,302.67l-4.08-2.36-.93.54,4.09,2.36-5.27,3.06-4.09-2.36-.92.53,4.09,2.36-6.19,3.6,1,.59,6.19-3.59,4.08,2.36-6.19,3.6,1,.59,6.19-3.6,4.08,2.36-6.18,3.59,1,.59,6.19-3.6,4.08,2.35-6.19,3.6,1,.59,6.19-3.6,4.08,2.36-6.19,3.6,1,.59,6.19-3.6,4.08,2.36-6.19,3.59,1,.59,6.19-3.6,4.08,2.36-6.19,3.59,1,.59,6.19-3.59,4.08,2.36L431.42,331l1,.59,6.19-3.6,4.09,2.36-6.18,3.6,1,.59,6.19-3.59,4.09,2.36.05,0,.92-.54-.05,0-4.09-2.36,5.27-3.06,4.08,2.36.05,0,.93-.54-.05,0-4.08-2.36,5.26-3.06,4.08,2.36.06,0,.93-.54-.06,0L457,323.24l5.27-3.06Z"/></g></g><g class="cls-112"><g class="cls-126"><g class="cls-112"><path class="cls-127" d="M393.24,309v1.54a1.91,1.91,0,0,1-.33-.24v-1.54a2.08,2.08,0,0,0,.33.24Z"/><path class="cls-128" d="M392.91,308.75v1.54a1.18,1.18,0,0,1-.17-.2v-1.54a1.46,1.46,0,0,0,.17.2Z"/><path class="cls-129" d="M392.74,308.55v1.54a1,1,0,0,1-.1-.18v-1.54a.81.81,0,0,0,.1.18Z"/><path class="cls-130" d="M392.64,308.37v1.54a.76.76,0,0,1-.05-.18v-1.54a.92.92,0,0,0,.06.18Z"/><path class="cls-131" d="M392.58,308.19v1.54a.73.73,0,0,1,0-.14v-1.54a.86.86,0,0,0,0,.14Z"/></g></g></g><g class="cls-112"><g class="cls-132"><g class="cls-112"><path class="cls-133" d="M465.47,322.56v1.54a1.13,1.13,0,0,1-.66.92v-1.54a1.14,1.14,0,0,0,.66-.92Z"/></g></g></g><polygon class="cls-4" points="464.81 323.49 464.8 325.03 443.25 337.56 443.25 336.01 464.81 323.49"/><polygon class="cls-4" points="440.06 336.01 440.05 337.56 393.24 310.53 393.24 308.99 440.06 336.01"/><path class="cls-4" d="M443.25,336v1.55a3.51,3.51,0,0,1-3.2,0V336A3.52,3.52,0,0,0,443.25,336Z"/><g class="cls-134"><g class="cls-112"><path class="cls-4" d="M443.25,336v1.55a3,3,0,0,1-.35.17v-1.55a2.41,2.41,0,0,0,.35-.16Z"/><path class="cls-4" d="M442.9,336.18v1.55l-.34.11v-1.54l.34-.11Z"/><path class="cls-4" d="M442.56,336.29v1.54l-.31.06v-1.54l.31-.06Z"/><path class="cls-4" d="M442.25,336.35v1.54l-.31,0v-1.55l.31,0Z"/><path class="cls-4" d="M441.94,336.38v1.55h-.33v-1.55Z"/><path class="cls-4" d="M441.61,336.39v1.55l-.38,0v-1.54l.38,0Z"/><path class="cls-4" d="M441.23,336.37v1.54a3.57,3.57,0,0,1-.57-.11v-1.55a3.7,3.7,0,0,0,.57.11Z"/><path class="cls-4" d="M440.66,336.26v1.55a3,3,0,0,1-.54-.21V336a2.78,2.78,0,0,0,.54.22Z"/><path class="cls-4" d="M440.12,336v1.55l-.06,0V336l.07,0Z"/></g></g><path class="cls-4" d="M415.36,244.05c1.11-.65.45-.28,1.56-.92a1.4,1.4,0,0,1,1.41.13l-1.56.92A1.39,1.39,0,0,0,415.36,244.05Z"/><g class="cls-135"><g class="cls-112"><path class="cls-4" d="M415.36,244.05l1.56-.92h0l-1.56.92Z"/><path class="cls-4" d="M415.37,244l1.56-.92.09,0-1.56.92-.09,0Z"/><path class="cls-4" d="M415.46,244l1.56-.92.1,0-1.56.92-.1,0Z"/><path class="cls-4" d="M415.56,244l1.56-.92.1,0-1.56.92-.1,0Z"/><path class="cls-4" d="M415.66,243.94l1.56-.92.1,0-1.56.92-.11,0Z"/><path class="cls-4" d="M415.76,243.92l1.56-.92h.11l-1.56.92Z"/><path class="cls-4" d="M415.88,243.92l1.56-.92h.12l-1.56.92Z"/><path class="cls-4" d="M416,243.92l1.56-.92.13,0-1.56.92-.13,0Z"/><path class="cls-4" d="M416.13,243.94l1.56-.92.15,0-1.56.92-.15,0Z"/><path class="cls-4" d="M416.28,244l1.56-.92.19.06-1.56.92-.19-.06Z"/><path class="cls-4" d="M416.47,244l1.56-.92.28.14-1.56.92-.28-.14Z"/><path class="cls-4" d="M416.75,244.18l1.56-.92h0l-1.56.92Z"/></g></g><path class="cls-4" d="M479.07,322.82l-3.34,1.94a1.38,1.38,0,0,0,.58-1.27l3.34-1.94A1.38,1.38,0,0,1,479.07,322.82Z"/><g class="cls-136"><g class="cls-112"><path class="cls-4" d="M476.31,323.49l3.34-1.94a1.38,1.38,0,0,1-.58,1.27l-3.34,1.94a1.38,1.38,0,0,0,.58-1.27Z"/></g></g><polygon class="cls-4" points="476.43 280.91 477.99 279.99 479.65 321.55 476.31 323.49 476.43 280.91"/><polygon class="cls-4" points="416.77 244.19 418.33 243.26 476.02 276.57 474.46 277.49 416.77 244.19"/><path class="cls-4" d="M474.46,277.49l1.56-.92a4.35,4.35,0,0,1,2,3.42l-1.56.92A4.36,4.36,0,0,0,474.46,277.49Z"/><g class="cls-137"><g class="cls-112"><path class="cls-4" d="M474.46,277.49l1.56-.92a3.4,3.4,0,0,1,.56.42l-1.56.92a3.34,3.34,0,0,0-.56-.42Z"/><path class="cls-4" d="M475,277.91l1.56-.92.26.27-1.56.92-.26-.27Z"/><path class="cls-4" d="M475.29,278.18l1.56-.92.17.2-1.56.92-.17-.2Z"/><path class="cls-4" d="M475.46,278.38l1.56-.92.13.18-1.56.92-.13-.17Z"/><path class="cls-4" d="M475.59,278.55l1.56-.92.11.16-1.56.92-.11-.16Z"/><path class="cls-4" d="M475.7,278.72l1.56-.92.1.16-1.56.92-.1-.16Z"/><path class="cls-4" d="M475.8,278.87l1.56-.92.09.16-1.56.92-.09-.16Z"/><path class="cls-4" d="M475.89,279l1.56-.92.08.15-1.56.93-.08-.15Z"/><path class="cls-4" d="M476,279.18l1.56-.93.08.16-1.56.92-.08-.15Z"/><path class="cls-4" d="M476,279.34l1.56-.92.07.16-1.56.92-.07-.16Z"/><path class="cls-4" d="M476.12,279.49l1.56-.92.06.16-1.56.92a1.39,1.39,0,0,0-.06-.16Z"/><path class="cls-4" d="M476.18,279.65l1.56-.92.06.17-1.56.92-.06-.16Z"/><path class="cls-4" d="M476.24,279.81l1.56-.92.05.17-1.56.92-.05-.18Z"/><path class="cls-4" d="M476.29,280l1.56-.92,0,.19-1.56.92c0-.06,0-.12-.05-.19Z"/><path class="cls-4" d="M476.34,280.18l1.56-.92c0,.07,0,.14,0,.21l-1.56.92,0-.21Z"/><path class="cls-4" d="M476.39,280.39l1.56-.92a2.3,2.3,0,0,1,0,.26l-1.56.93c0-.09,0-.18,0-.26Z"/><path class="cls-4" d="M476.42,280.65l1.56-.93c0,.09,0,.17,0,.26l-1.56.92c0-.08,0-.17,0-.25Z"/></g></g><g class="cls-112"><path class="cls-6" d="M474.46,277.49a4.36,4.36,0,0,1,2,3.42l-.12,42.58c0,1.25-.89,1.77-2,1.13l-57.69-33.3a4.37,4.37,0,0,1-2-3.42l.12-42.58c0-1.25.89-1.76,2-1.13Z"/><g class="cls-138"><path class="cls-3" d="M419.75,289.28a3.78,3.78,0,0,1-1.72-3l.1-35.5c0-1.1.78-1.54,1.73-1l51.54,29.76a3.79,3.79,0,0,1,1.72,3L473,318c0,1.09-.78,1.53-1.73,1l-51.54-29.76Zm54.71-11.79-57.68-33.3c-1.09-.63-2-.13-2,1.13l-.12,42.58a4.35,4.35,0,0,0,2,3.42l57.68,33.3c1.09.63,2,.12,2-1.14l.12-42.58a4.34,4.34,0,0,0-2-3.42Z"/><path class="cls-3" d="M423.09,287.34a3.78,3.78,0,0,1-1.72-3l.1-35.5c0-1.1.78-1.54,1.73-1l51.54,29.76a3.77,3.77,0,0,1,1.72,3l-.1,35.5c0,1.09-.78,1.54-1.73,1l-51.54-29.76Z"/><path class="cls-139" d="M471.4,279.57l-51.54-29.76c-1-.55-1.73-.11-1.73,1l-.1,35.5a3.78,3.78,0,0,0,1.72,3L471.29,319c1,.55,1.73.11,1.73-1l.1-35.5A3.79,3.79,0,0,0,471.4,279.57Z"/></g></g><path class="cls-4" d="M419.71,284.9l.1-35.08c-.94-.51-1.68-.07-1.68,1l-.1,35.51a3.79,3.79,0,0,0,1.72,3l51.54,29.76c.95.55,1.73.1,1.73-1V318l-51.33-29.64A4.37,4.37,0,0,1,419.71,284.9Z"/><g class="cls-140"><g class="cls-42"><g class="cls-141"><path class="cls-142" d="M433,276.52c0,6.68,4.69,14.8,10.47,18.14a8.62,8.62,0,0,0,5.7,1.35,5.08,5.08,0,0,0,1.41-.45,4.9,4.9,0,0,1-.77.06c1.66-1.18,2.66-3.42,2.66-6.51,0-6.67-4.69-14.8-10.47-18.14a9.32,9.32,0,0,0-4.88-1.43,4.47,4.47,0,0,0-.82.08c-2,1-3.31,3.43-3.31,6.9"/></g></g><g class="cls-42"><g class="cls-143"><path class="cls-142" d="M436.35,269.61a4.47,4.47,0,0,1,.82-.08A9.32,9.32,0,0,1,442,271c5.78,3.33,10.47,11.46,10.47,18.14,0,3.09-1,5.33-2.66,6.51a4.9,4.9,0,0,0,.77-.06c2.06-1,3.36-3.43,3.36-6.94,0-6.68-4.69-14.8-10.47-18.14a8.63,8.63,0,0,0-5.67-1.35,5.1,5.1,0,0,0-1.5.5"/></g></g><g class="cls-40"><g class="cls-144"><path class="cls-142" d="M450.62,295.55c2.91-.48,4.84-3.13,4.84-7.41,0-6.67-4.69-14.79-10.47-18.13-2.76-1.59-5.28-1.81-7.15-.88a8.63,8.63,0,0,1,5.67,1.35c5.78,3.34,10.47,11.46,10.47,18.14,0,3.51-1.3,5.92-3.36,6.94"/></g></g><g class="cls-42"><g class="cls-145"><path class="cls-142" d="M434.52,276c0,6.68,4.68,14.79,10.47,18.14a9.33,9.33,0,0,0,4.86,1.43c1.66-1.18,2.66-3.42,2.66-6.51,0-6.68-4.69-14.8-10.47-18.14a9.32,9.32,0,0,0-4.88-1.43c-1.65,1.19-2.64,3.43-2.64,6.51"/></g></g><path class="cls-142" d="M431.57,277c0,6.68,4.68,14.8,10.47,18.14,2.78,1.6,5.29,1.81,7.17.85a4,4,0,0,0,.64-.39c1.66-1.18,2.66-3.42,2.66-6.51,0-6.68-4.69-14.8-10.47-18.14a9.32,9.32,0,0,0-4.88-1.43,4.47,4.47,0,0,0-.82.08c-2.88.49-4.78,3.13-4.78,7.39"/></g><polygon class="cls-15" points="435.33 280.5 438.1 284.95 449.63 282.96 438.1 287.89 435.33 280.5"/><g class="cls-146"><path class="cls-15" d="M367.21,244.69H114.28v-1H367.21a9.51,9.51,0,0,0,9.5-9.5V202.43a9.51,9.51,0,0,0-9.5-9.5H114.28v-1H367.21a10.51,10.51,0,0,1,10.5,10.5v31.75A10.51,10.51,0,0,1,367.21,244.69Z"/></g></g></g></svg>