<?xml version="1.0" encoding="utf-8"?>
<!-- Generator: Adobe Illustrator 16.0.0, SVG Export Plug-In . SVG Version: 6.00 Build 0)  -->
<!DOCTYPE svg PUBLIC "-//W3C//DTD SVG 1.1//EN" "http://www.w3.org/Graphics/SVG/1.1/DTD/svg11.dtd">
<svg version="1.1" id="Layer_1" xmlns="http://www.w3.org/2000/svg" xmlns:xlink="http://www.w3.org/1999/xlink" x="0px" y="0px"
	 width="50px" height="50px" viewBox="0 0 50 50" enable-background="new 0 0 50 50" xml:space="preserve">
<path fill="#BAB7C7" d="M46.411,19.988C43.641,8.162,31.814,0.829,19.989,3.587C8.164,6.36,0.83,18.199,3.588,30.014
	C6.36,41.839,18.186,49.171,30.012,46.413C41.838,43.643,49.172,31.803,46.411,19.988z M29.232,43.082
	C19.251,45.416,9.256,39.217,6.92,29.234C4.585,19.25,10.785,9.255,20.767,6.919c9.984-2.335,19.98,3.865,22.313,13.847
	C45.417,30.749,39.216,40.745,29.232,43.082z"/>
<path fill="#BAB7C7" d="M21.846,22.883h6.87c-0.097,0.136-0.245,0.286-0.382,0.409c-0.656,0.532-1.628,0.806-2.883,0.806H21.86
	L21.846,22.883z"/>
<path fill="#BAB7C7" d="M28.716,18.909l-6.87,0.014v-1.202h3.605c1.255,0,2.227,0.246,2.883,0.779
	C28.471,18.623,28.619,18.745,28.716,18.909z"/>
<path fill="#BAB7C7" d="M29.289,20.452c0.04,0.123,0.04,0.273,0.04,0.41c0,0.163,0,0.328-0.04,0.477h-7.443v-0.873L29.289,20.452z"
	/>
<path fill="#BAB7C7" d="M25,9.391C16.384,9.391,9.392,16.383,9.392,25c0,8.616,6.992,15.609,15.608,15.609S40.607,33.616,40.607,25
	C40.607,16.383,33.617,9.391,25,9.391z M32.195,22.87c-0.285,0.997-0.789,1.843-1.528,2.498c-1.187,1.108-2.866,1.64-5.024,1.64
	H21.86v8.166h-3.305V22.883h-5.244l-0.013-1.544h5.257v-0.873h-5.257v-1.543h5.244v-4.097h7.103c2.146-0.013,3.821,0.52,5.023,1.557
	c0.766,0.656,1.283,1.502,1.559,2.526h4.465v1.543H32.46v0.328c0,0.177,0,0.369-0.015,0.559l4.246-0.013l0.015,1.543L32.195,22.87
	L32.195,22.87z"/>
<path fill="#BAB7C7" d="M136.411,19.988c-2.771-11.826-14.597-19.159-26.422-16.401C98.164,6.36,90.83,18.199,93.588,30.014
	c2.771,11.825,14.598,19.157,26.424,16.399C131.838,43.643,139.172,31.803,136.411,19.988z M119.232,43.082
	c-9.981,2.334-19.977-3.865-22.313-13.848c-2.335-9.984,3.865-19.979,13.848-22.315c9.983-2.335,19.979,3.865,22.313,13.847
	C135.417,30.749,129.216,40.745,119.232,43.082z"/>
<path fill="#BAB7C7" d="M111.846,22.883h6.87c-0.097,0.136-0.245,0.286-0.382,0.409c-0.656,0.532-1.628,0.806-2.883,0.806h-3.592
	L111.846,22.883z"/>
<path fill="#BAB7C7" d="M118.716,18.909l-6.87,0.014v-1.202h3.605c1.255,0,2.227,0.246,2.883,0.779
	C118.471,18.623,118.619,18.745,118.716,18.909z"/>
<path fill="#BAB7C7" d="M119.289,20.452c0.04,0.123,0.04,0.273,0.04,0.41c0,0.163,0,0.328-0.04,0.477h-7.443v-0.873L119.289,20.452z
	"/>
<path fill="#BAB7C7" d="M115,9.391c-8.616,0-15.607,6.992-15.607,15.609c0,8.616,6.991,15.609,15.607,15.609
	S130.607,33.616,130.607,25C130.607,16.383,123.617,9.391,115,9.391z M122.195,22.87c-0.285,0.997-0.789,1.843-1.528,2.498
	c-1.187,1.108-2.866,1.64-5.024,1.64h-3.783v8.166h-3.305V22.883h-5.244l-0.013-1.544h5.257v-0.873h-5.257v-1.543h5.244v-4.097
	h7.103c2.146-0.013,3.821,0.52,5.023,1.557c0.766,0.656,1.283,1.502,1.559,2.526h4.465v1.543h-4.231v0.328
	c0,0.177,0,0.369-0.015,0.559l4.246-0.013l0.015,1.543L122.195,22.87L122.195,22.87z"/>
<path fill="#231F20" d="M-31.171,9.324c-8.656,2.027-14.032,10.691-12.005,19.347c2.027,8.655,10.69,14.031,19.347,12.005
	c8.656-2.027,14.031-10.691,12.006-19.346C-13.851,12.674-22.515,7.297-31.171,9.324z M-24.399,38.241
	c-7.312,1.712-14.63-2.828-16.342-10.142c-1.712-7.313,2.829-14.629,10.141-16.344c7.313-1.712,14.631,2.83,16.342,10.142
	C-12.546,29.211-17.087,36.529-24.399,38.241z"/>
<circle fill="#231F20" cx="-27.5" cy="25" r="11.426"/>
<path fill="#2E3192" d="M-22.037,21.671l3.102-0.002V20.54l-3.27,0.001c-0.207-0.755-0.59-1.367-1.146-1.852
	c-0.875-0.763-2.107-1.145-3.683-1.143l-5.193,0.003l0.002,2.998l-3.842,0.003l0.001,1.129l3.841-0.002v0.644l-3.842,0.003
	l0.001,1.129l3.842-0.002l0.005,9.002l2.418-0.001l-0.004-5.979l2.776-0.004c1.575,0,2.807-0.391,3.682-1.203
	c0.531-0.477,0.904-1.098,1.111-1.821l3.301-0.002l-0.002-1.13l-3.117,0.003c0.016-0.136,0.018-0.271,0.016-0.406L-22.037,21.671
	L-22.037,21.671z M-29.808,19.672l2.641-0.002c0.916-0.001,1.623,0.182,2.107,0.571c0.105,0.087,0.209,0.183,0.279,0.302
	l-5.026,0.004L-29.808,19.672z M-25.057,23.748c-0.486,0.39-1.193,0.59-2.108,0.591l-2.64,0.001l-0.001-0.891l5.027-0.004
	C-24.852,23.55-24.955,23.661-25.057,23.748z M-24.357,22.316l-5.449,0.004v-0.645l5.447-0.004c0.033,0.088,0.031,0.199,0.031,0.303
	C-24.326,22.095-24.328,22.213-24.357,22.316z"/>
</svg>
