<?xml version="1.0" encoding="utf-8"?>
<!-- Generator: Adobe Illustrator 21.0.0, SVG Export Plug-In . SVG Version: 6.00 Build 0)  -->
<svg version="1.1" id="Layer_1" xmlns="http://www.w3.org/2000/svg" xmlns:xlink="http://www.w3.org/1999/xlink" x="0px" y="0px"
	 viewBox="0 0 50 50" style="enable-background:new 0 0 50 50;" xml:space="preserve">
<style type="text/css">
	.st0{fill:#FFFFFF;}
</style>
<g>
	<g>
		<g>
			<path class="st0" d="M47.7,2.9c0-0.4-0.4-0.7-0.8-0.8c-3.6-0.4-7.2-0.1-10.6,1.1C33,4.5,29.8,6.4,27.3,9l-5.8,5.8l-8.4,1.1
				c-0.2,0-0.4,0.1-0.5,0.2l-8.1,8.1c-0.2,0.2-0.3,0.6-0.2,0.9c0.1,0.3,0.4,0.5,0.7,0.6l6.1,1.1l1.2,1.2l-2.6,1.4
				c-0.2,0.1-0.4,0.4-0.4,0.6c0,0.3,0.1,0.5,0.2,0.7l9.7,9.7c0.2,0.2,0.4,0.3,0.6,0.3c0,0,0.1,0,0.1,0c0.3,0,0.5-0.2,0.6-0.4
				l1.4-2.6l1.2,1.2l1.1,6.1c0.1,0.3,0.3,0.6,0.6,0.7c0.1,0,0.2,0,0.3,0c0.2,0,0.4-0.1,0.6-0.3l8.1-8.1c0.1-0.1,0.2-0.3,0.2-0.5
				l1.1-8.4l5.8-5.8c2.5-2.5,4.5-5.7,5.7-9.1C47.8,10.2,48.2,6.5,47.7,2.9z M11.2,25l-4.3-0.8l6.7-6.7l5.8-0.8L11.2,25z M19.6,38.3
				l-8-8l2-1.1l7.1,7.1L19.6,38.3z M32.4,36.3L25.7,43l-0.8-4.3l8.2-8.2L32.4,36.3z M39.7,21.4L24,37.2L12.8,25.9l15.7-15.7
				c2.3-2.3,5.1-4.1,8.1-5.2c0.4,2,1.4,3.9,2.9,5.4c1.5,1.5,3.4,2.5,5.4,2.9C43.8,16.3,42,19.1,39.7,21.4z M45.4,11.6
				c-1.8-0.3-3.4-1.1-4.7-2.4c-1.3-1.3-2.1-2.9-2.4-4.7c2.5-0.7,5.2-0.9,7.8-0.7C46.3,6.4,46.1,9.1,45.4,11.6z"/>
			<path class="st0" d="M27.7,14.8c-2.1,2.1-2.1,5.4,0,7.5c1,1,2.4,1.5,3.7,1.5c1.4,0,2.7-0.5,3.7-1.5h0c2.1-2.1,2.1-5.4,0-7.5
				C33.1,12.7,29.7,12.7,27.7,14.8z M33.9,21c-1.4,1.4-3.6,1.4-5,0c-1.4-1.4-1.4-3.6,0-5c0.7-0.7,1.6-1,2.5-1c0.9,0,1.8,0.3,2.5,1
				C35.3,17.4,35.3,19.7,33.9,21z"/>
			<path class="st0" d="M13.4,36.7c-0.3-0.3-0.9-0.3-1.2,0l-7.5,7.5c-0.3,0.3-0.3,0.9,0,1.2c0.2,0.2,0.4,0.3,0.6,0.3
				c0.2,0,0.4-0.1,0.6-0.3l7.5-7.5C13.7,37.6,13.7,37,13.4,36.7z"/>
			<path class="st0" d="M14.5,39.1l-3.4,3.4c-0.3,0.3-0.3,0.9,0,1.2c0.2,0.2,0.4,0.3,0.6,0.3c0.2,0,0.4-0.1,0.6-0.3l3.4-3.4
				c0.3-0.3,0.3-0.9,0-1.2C15.4,38.7,14.9,38.7,14.5,39.1z"/>
			<path class="st0" d="M10,44c-0.4,0-0.7,0.2-0.8,0.6c-0.1,0.3,0,0.7,0.3,1c0.3,0.2,0.7,0.2,1,0c0.3-0.2,0.5-0.7,0.3-1
				C10.7,44.2,10.4,44,10,44z"/>
			<path class="st0" d="M10.8,44.5C10.8,44.5,10.8,44.4,10.8,44.5L10.8,44.5z"/>
			<path class="st0" d="M7.6,46.1l-0.5,0.5c-0.3,0.3-0.3,0.9,0,1.2C7.3,47.9,7.5,48,7.7,48c0.2,0,0.4-0.1,0.6-0.3l0.5-0.5
				c0.3-0.3,0.3-0.9,0-1.2C8.4,45.7,7.9,45.7,7.6,46.1z"/>
			<path class="st0" d="M6.9,38.4c-0.3-0.3-0.9-0.3-1.2,0l-3.4,3.4C2,42.1,2,42.7,2.3,43c0.2,0.2,0.4,0.3,0.6,0.3
				c0.2,0,0.4-0.1,0.6-0.3l3.4-3.4C7.3,39.3,7.3,38.7,6.9,38.4z"/>
			<path class="st0" d="M8.3,38.1C8.7,38,8.9,37.7,9,37.3c0-0.4-0.2-0.7-0.5-0.9c-0.3-0.2-0.8-0.1-1,0.2c-0.3,0.3-0.3,0.7-0.1,1.1
				c0,0,0,0,0,0c0,0,0,0,0,0C7.6,38,8,38.2,8.3,38.1z"/>
			<path class="st0" d="M10.6,36l0.5-0.5c0.3-0.3,0.3-0.9,0-1.2c-0.3-0.3-0.9-0.3-1.2,0l-0.5,0.5C9,35.1,9,35.7,9.3,36
				c0.2,0.2,0.4,0.3,0.6,0.3C10.2,36.2,10.4,36.2,10.6,36z"/>
		</g>
	</g>
</g>
</svg>
