<?xml version="1.0" encoding="utf-8"?>
<!-- Generator: Adobe Illustrator 21.0.0, SVG Export Plug-In . SVG Version: 6.00 Build 0)  -->
<svg version="1.1" id="Layer_1" xmlns="http://www.w3.org/2000/svg" xmlns:xlink="http://www.w3.org/1999/xlink" x="0px" y="0px"
	 viewBox="0 0 150 150" style="enable-background:new 0 0 150 150;" xml:space="preserve">
<style type="text/css">
	.st0{fill:#FFFFFF;}
	.st1{fill:#BF0A30;}
	.st2{fill:#002868;}
</style>
<path class="st0" d="M150,75c0,1.8-0.1,3.7-0.2,5.5c-2.2,30.5-22.6,55.9-50.4,65.5c-7.6,2.6-15.9,4.1-24.4,4.1
	c-39.6,0-72-30.7-74.8-69.5C0.1,78.7,0,76.8,0,75C0,33.6,33.6,0,75,0c8.5,0,16.8,1.4,24.4,4.1C128.8,14.2,150,42.1,150,75z"/>
<path class="st0" d="M150,75c0,1.8-0.1,3.7-0.2,5.5c-2.2,30.5-22.6,55.9-50.4,65.5c-7.6,2.6-15.9,4.1-24.4,4.1
	c-39.6,0-72-30.7-74.8-69.5C0.1,78.7,0,76.8,0,75C0,33.6,33.6,0,75,0c8.5,0,16.8,1.4,24.4,4.1C128.8,14.2,150,42.1,150,75z"/>
<path class="st1" d="M149.8,80.5c-2.2,30.5-22.6,55.9-50.4,65.5c-7.6,2.6-15.9,4.1-24.4,4.1c-39.6,0-72-30.7-74.8-69.5H149.8z"/>
<path class="st2" d="M99.4,4.1v141.9c-7.6,2.6-15.9,4.1-24.4,4.1c-39.6,0-72-30.7-74.8-69.5C0.1,78.7,0,76.8,0,75
	C0,33.6,33.6,0,75,0C83.5,0,91.8,1.4,99.4,4.1z"/>
<g>
	<g>
		<g>
			<g>
				<g transform="translate(180,360)">
					<g id="c_4_">
						<polygon class="st0" points="-134.4,-278.7 -129.4,-263.2 -142.5,-272.8 -155.6,-263.2 -150.6,-278.7 -163.7,-288.2 
							-147.5,-288.2 -142.5,-303.6 -137.5,-288.2 -121.3,-288.2 						"/>
					</g>
				</g>
			</g>
		</g>
	</g>
</g>
<path class="st0" d="M150,75c0,1.8-0.1,3.7-0.2,5.5H75V0c8.5,0,16.8,1.4,24.4,4.1C128.8,14.2,150,42.1,150,75z"/>
<path class="st1" d="M149.8,80.5c-2.2,30.5-22.6,55.9-50.4,65.5c-7.6,2.6-15.9,4.1-24.4,4.1V80.5H149.8z"/>
</svg>
