<?xml version="1.0" encoding="utf-8"?>
<!-- Generator: Adobe Illustrator 21.0.0, SVG Export Plug-In . SVG Version: 6.00 Build 0)  -->
<svg version="1.1" id="Layer_1" xmlns="http://www.w3.org/2000/svg" xmlns:xlink="http://www.w3.org/1999/xlink" x="0px" y="0px"
	 viewBox="0 0 50 50" style="enable-background:new 0 0 50 50;" xml:space="preserve">
<style type="text/css">
	.st0{fill:#FFFFFF;}
</style>
<g>
	<path class="st0" d="M37.1,8.1c-7.2,0-12.9,3-12.9,6.8v1.2c-1.6,0.1-3.1,0.5-4.4,1.1c-2-0.7-4.3-1-6.9-1C5.7,16.2,0,19.2,0,23v4
		v4.1v4c0,3.8,5.7,6.8,12.9,6.8c2.6,0,5-0.4,7-1.1c1.6,0.7,3.3,1.1,5.1,1.1s3.5-0.4,5.1-1.1c2,0.7,4.4,1.1,7,1.1
		c7.2,0,12.9-3,12.9-6.8v-4V27v-4v-4.1v-4C50,11.1,44.3,8.1,37.1,8.1z M28.9,11.4c2.2-1.1,5.1-1.7,8.2-1.7c3.1,0,6,0.6,8.2,1.7
		c2,1,3.1,2.3,3.1,3.6c0,1.3-1.1,2.6-3.1,3.6c-2.2,1.1-5.1,1.7-8.2,1.7c-1,0-1.9-0.1-2.8-0.2c-2.1-2.2-5-3.7-8.2-3.9
		c-0.2-0.4-0.3-0.8-0.3-1.2C25.8,13.7,26.9,12.4,28.9,11.4z M25,40.3c-1,0-2.1-0.1-3-0.4c-0.7-0.2-1.4-0.5-2-0.8
		c-0.9-0.5-1.7-1-2.5-1.7c-0.5-0.4-0.9-0.9-1.3-1.3c-0.6-0.7-1.1-1.5-1.5-2.4c-0.2-0.5-0.4-1-0.6-1.5c-0.2-0.8-0.4-1.6-0.4-2.4
		c0-0.3,0-0.6,0-0.8c0-0.2,0-0.5,0-0.7c0.3-4.1,2.7-7.6,6.2-9.4c0.6-0.3,1.3-0.6,2-0.8c0.8-0.2,1.5-0.4,2.3-0.4c0.3,0,0.5,0,0.8,0
		c0.1,0,0.2,0,0.2,0c0.2,0,0.4,0,0.5,0c0.8,0.1,1.5,0.2,2.2,0.4c1.1,0.3,2.1,0.8,3,1.4c0.9,0.6,1.8,1.3,2.5,2.1
		c0.7,0.8,1.3,1.7,1.7,2.6c0.2,0.5,0.4,1,0.6,1.6c0.2,0.8,0.4,1.7,0.5,2.5c0,0.2,0,0.5,0,0.7c0,0.3,0,0.6,0,0.8
		c-0.1,0.8-0.2,1.6-0.4,2.4c-0.2,0.5-0.3,1-0.6,1.5c-0.4,0.8-0.9,1.6-1.5,2.4c-0.4,0.5-0.8,0.9-1.3,1.3c-0.7,0.7-1.6,1.2-2.5,1.7
		c-0.6,0.3-1.3,0.6-2,0.8C27.1,40.2,26,40.3,25,40.3z M4.7,19.4c2.2-1.1,5.1-1.7,8.2-1.7c1.8,0,3.4,0.2,5,0.5
		c-3.3,2.2-5.5,5.8-5.7,10c-2.8-0.1-5.5-0.7-7.5-1.7c-2-1-3.1-2.3-3.1-3.6C1.5,21.7,2.7,20.4,4.7,19.4z M12.1,29.8
		c0.1,0.8,0.2,1.7,0.4,2.5c-3,0-5.8-0.6-7.9-1.7c-2-1-3.1-2.3-3.1-3.6v-0.7C3.6,28.3,7.5,29.7,12.1,29.8z M12.9,33.8
		c0.1,0,0.1,0,0.2,0c0.4,0.9,0.8,1.7,1.3,2.5c-0.5,0-1,0-1.5,0c-3.1,0-6-0.6-8.2-1.7c-2-1-3.1-2.3-3.1-3.6v-0.8
		C3.7,32.4,7.9,33.8,12.9,33.8z M12.9,40.3c-3.1,0-6-0.6-8.2-1.7c-2-1-3.1-2.3-3.1-3.6v-0.7c2.2,2.1,6.4,3.5,11.3,3.5
		c0.9,0,1.8,0,2.7-0.1c0.7,0.8,1.5,1.4,2.4,2C16.4,40.1,14.7,40.3,12.9,40.3z M48.5,35c0,1.3-1.1,2.6-3.1,3.6
		c-2.2,1.1-5.1,1.7-8.2,1.7c-1.8,0-3.5-0.2-5.1-0.6c0.9-0.6,1.7-1.3,2.4-2c0.9,0.1,1.8,0.1,2.7,0.1c5,0,9.2-1.4,11.3-3.5V35z
		 M48.5,31.1c0,1.3-1.1,2.6-3.1,3.6c-2.2,1.1-5.1,1.7-8.2,1.7c-0.5,0-1,0-1.5,0c0.5-0.8,1-1.6,1.3-2.5c0.1,0,0.1,0,0.2,0
		c5,0,9.2-1.4,11.3-3.5L48.5,31.1L48.5,31.1z M48.5,27c0,1.3-1.1,2.6-3.1,3.6c-2.1,1.1-4.9,1.6-7.9,1.7c0.2-0.8,0.3-1.6,0.4-2.5
		c4.6-0.1,8.5-1.5,10.6-3.5V27z M48.5,23c0,1.3-1.1,2.6-3.1,3.6c-2,1-4.6,1.6-7.5,1.7c0-0.9-0.2-1.7-0.4-2.5c4.8-0.1,8.9-1.5,11-3.5
		L48.5,23L48.5,23z M48.5,18.9c0,1.3-1.1,2.6-3.1,3.6c-2.2,1.1-5.1,1.7-8.2,1.7c0,0-0.1,0-0.1,0c-0.4-0.9-0.8-1.7-1.3-2.5
		c0.5,0,1,0,1.5,0c5,0,9.2-1.4,11.3-3.5V18.9z"/>
	<polygon class="st0" points="21.6,30.3 22.9,31.1 22.9,32.4 24.5,33.3 24.5,30.1 21.6,28.5 	"/>
	<polygon class="st0" points="22.9,34.7 19.7,32.9 19.7,29.2 21,30 21,28.2 18.1,26.5 18.1,33.8 24.5,37.5 24.5,33.9 22.9,33 	"/>
	<polygon class="st0" points="25.5,33.3 27.1,32.4 27.1,31.1 28.4,30.3 28.4,28.5 25.5,30.1 	"/>
	<polygon class="st0" points="29,28.2 29,30 30.3,29.2 30.3,32.9 27.1,34.7 27.1,33 25.5,33.9 25.5,37.5 31.9,33.8 31.9,26.5 	"/>
	<path class="st0" d="M22.9,26.2l-1.1-0.6l0.8-0.4c-0.4-0.4-0.7-0.8-0.8-1.3l-3.1,1.8l2.6,1.5L22.9,26.2z"/>
	<path class="st0" d="M28.7,27.1l2.6-1.5l-3.1-1.8c-0.2,0.5-0.5,1-0.8,1.3l0.8,0.4l-1.1,0.6L28.7,27.1z"/>
	<polygon class="st0" points="26.6,26.5 25,27.4 23.4,26.5 21.8,27.4 25,29.2 28.2,27.4 	"/>
	<g>
		<path class="st0" d="M25,20.4c-1.3,0-2.4,1.1-2.4,2.4c0,0.9,1.1,2.2,1.8,2.9c0.1,0.1,0.3,0.3,0.4,0.4c0.2,0.2,0.2,0.2,0.2,0.2
			s0.1-0.1,0.3-0.2c0.1-0.1,0.2-0.2,0.4-0.4c0.7-0.8,1.8-2.1,1.8-2.9C27.4,21.5,26.3,20.4,25,20.4z M25,23.8c-0.5,0-1-0.4-1-1
			c0-0.5,0.4-1,1-1c0.5,0,1,0.4,1,1C26,23.3,25.5,23.8,25,23.8z"/>
	</g>
</g>
</svg>
