<svg xmlns="http://www.w3.org/2000/svg" xmlns:xlink="http://www.w3.org/1999/xlink" viewBox="0 0 454.78 338.05"><defs><style>.cls-1,.cls-37,.cls-52{fill:none;}.cls-2{fill:url(#linear-gradient);}.cls-3{fill:#9932f1;}.cls-4{fill:#11a2cf;}.cls-5{fill:#fff;}.cls-6{fill:#92fcff;}.cls-7{fill:#5ce5e5;}.cls-8{opacity:0.8;}.cls-9{fill:#5dedf5;}.cls-10{fill:url(#linear-gradient-2);}.cls-11{fill:url(#linear-gradient-3);}.cls-12{fill:#3a4fb8;}.cls-13{fill:#148ddc;}.cls-14{fill:url(#linear-gradient-4);}.cls-15{fill:url(#linear-gradient-6);}.cls-16{fill:url(#linear-gradient-8);}.cls-17{fill:url(#linear-gradient-10);}.cls-18{fill:url(#linear-gradient-12);}.cls-19{fill:#5afafa;}.cls-20{fill:#47dee5;}.cls-21{fill:#42c7d1;}.cls-22{fill:url(#linear-gradient-13);}.cls-23{fill:url(#linear-gradient-14);}.cls-24{fill:url(#linear-gradient-15);}.cls-25{fill:url(#linear-gradient-16);}.cls-26{fill:url(#linear-gradient-17);}.cls-27{fill:url(#linear-gradient-18);}.cls-28{fill:url(#linear-gradient-19);}.cls-29{fill:url(#linear-gradient-20);}.cls-30{fill:url(#linear-gradient-21);}.cls-31{fill:url(#linear-gradient-22);}.cls-32{fill:url(#linear-gradient-23);}.cls-33{fill:url(#linear-gradient-24);}.cls-34{fill:url(#linear-gradient-25);}.cls-35{fill:url(#linear-gradient-26);}.cls-36{fill:url(#linear-gradient-27);}.cls-37,.cls-52{stroke-miterlimit:10;}.cls-37{stroke-width:0.3px;stroke:url(#New_Pattern_Swatch_8);}.cls-38{fill:url(#New_Pattern_Swatch_5);}.cls-39{fill:url(#linear-gradient-28);}.cls-40{fill:url(#linear-gradient-29);}.cls-41,.cls-45,.cls-46,.cls-96{opacity:0.5;}.cls-41{fill:url(#linear-gradient-30);}.cls-42{fill:url(#linear-gradient-31);}.cls-43{fill:url(#linear-gradient-32);}.cls-44{fill:#ddc9ff;}.cls-45{fill:#741ec7;}.cls-46,.cls-97{fill:#e357c9;}.cls-47{fill:url(#linear-gradient-33);}.cls-48{fill:url(#linear-gradient-34);}.cls-49{fill:url(#linear-gradient-35);}.cls-50{opacity:0.71;fill:url(#linear-gradient-36);}.cls-51{opacity:0.6;}.cls-52{stroke:#f2f2f2;stroke-width:0.39px;}.cls-53{clip-path:url(#clip-path);}.cls-54{fill:url(#linear-gradient-37);}.cls-55{clip-path:url(#clip-path-2);}.cls-56{fill:url(#linear-gradient-38);}.cls-57{clip-path:url(#clip-path-3);}.cls-58{fill:url(#linear-gradient-39);}.cls-59{clip-path:url(#clip-path-4);}.cls-60{fill:url(#linear-gradient-40);}.cls-61{clip-path:url(#clip-path-5);}.cls-62{fill:url(#linear-gradient-41);}.cls-63{clip-path:url(#clip-path-6);}.cls-64{fill:url(#linear-gradient-42);}.cls-65{clip-path:url(#clip-path-7);}.cls-66{fill:url(#linear-gradient-43);}.cls-67{clip-path:url(#clip-path-8);}.cls-68{fill:url(#linear-gradient-44);}.cls-69{fill:url(#linear-gradient-45);}.cls-70{fill:url(#linear-gradient-47);}.cls-71{fill:url(#linear-gradient-49);}.cls-72{fill:url(#linear-gradient-51);}.cls-73{fill:url(#linear-gradient-53);}.cls-74{fill:url(#linear-gradient-54);}.cls-75{fill:url(#linear-gradient-55);}.cls-76{fill:url(#linear-gradient-56);}.cls-77{fill:url(#linear-gradient-57);}.cls-78{fill:url(#linear-gradient-58);}.cls-79{fill:url(#linear-gradient-60);}.cls-80{fill:#94fffc;}.cls-81{fill:#090222;}.cls-82{fill:#23175e;}.cls-83{clip-path:url(#clip-path-9);}.cls-84{fill:url(#linear-gradient-62);}.cls-85{fill:#fbb686;}.cls-86{fill:#1b181a;}.cls-87{fill:#e8c8a1;}.cls-88{fill:#775238;}.cls-89{fill:#845e40;}.cls-90{fill:#e9e5d9;}.cls-91{fill:#231f20;}.cls-92{fill:#bfb6a1;}.cls-93{fill:#51859b;}.cls-94{fill:#619aaf;}.cls-95{opacity:0.85;}</style><linearGradient id="linear-gradient" x1="695.99" y1="103.44" x2="695.99" y2="201.78" gradientTransform="matrix(-1, 0, 0, 1, 1084.48, 0)" gradientUnits="userSpaceOnUse"><stop offset="0" stop-color="#e558c8"/><stop offset="1" stop-color="#8d2cf7"/></linearGradient><linearGradient id="linear-gradient-2" x1="73.45" y1="309.03" x2="73.45" y2="221.44" gradientUnits="userSpaceOnUse"><stop offset="0" stop-color="#4ae2e7"/><stop offset="0.04" stop-color="#4ae2e7" stop-opacity="0.95"/><stop offset="0.31" stop-color="#4ae2e7" stop-opacity="0.62"/><stop offset="0.55" stop-color="#4ae2e7" stop-opacity="0.35"/><stop offset="0.75" stop-color="#4ae2e7" stop-opacity="0.16"/><stop offset="0.91" stop-color="#4ae2e7" stop-opacity="0.04"/><stop offset="1" stop-color="#4ae2e7" stop-opacity="0"/></linearGradient><linearGradient id="linear-gradient-3" x1="314.85" y1="319.77" x2="314.85" y2="232.18" xlink:href="#linear-gradient-2"/><linearGradient id="linear-gradient-4" x1="1324.26" y1="-486.65" x2="1324.26" y2="-441.36" gradientTransform="translate(-945.95 -558.4) rotate(45)" gradientUnits="userSpaceOnUse"><stop offset="0" stop-color="#4ae2e7"/><stop offset="1" stop-color="#15a4dc"/></linearGradient><linearGradient id="linear-gradient-6" x1="1314.59" y1="-496.33" x2="1314.59" y2="-451.03" xlink:href="#linear-gradient-4"/><linearGradient id="linear-gradient-8" x1="1304.35" y1="-506.57" x2="1304.35" y2="-461.27" xlink:href="#linear-gradient-4"/><linearGradient id="linear-gradient-10" x1="1303.25" y1="-497.46" x2="1303.25" y2="-472.83" gradientTransform="translate(-945.95 -558.4) rotate(45)" gradientUnits="userSpaceOnUse"><stop offset="0" stop-color="#2db1e1"/><stop offset="1" stop-color="#1f9add"/></linearGradient><linearGradient id="linear-gradient-12" x1="329.36" y1="23.46" x2="329.36" y2="0.85" gradientUnits="userSpaceOnUse"><stop offset="0" stop-color="#4ae2e7"/><stop offset="1" stop-color="#4ae2e7" stop-opacity="0"/></linearGradient><linearGradient id="linear-gradient-13" x1="347.13" y1="-149.63" x2="338.22" y2="-149.63" gradientTransform="matrix(0.87, -0.5, 0, 1.15, 42.85, 376.63)" xlink:href="#linear-gradient-4"/><linearGradient id="linear-gradient-14" x1="347.13" y1="-137.1" x2="338.22" y2="-137.1" gradientTransform="matrix(0.87, -0.5, 0, 1.15, 42.85, 376.63)" xlink:href="#linear-gradient-4"/><linearGradient id="linear-gradient-15" x1="347.13" y1="-125.38" x2="338.22" y2="-125.38" gradientTransform="matrix(0.87, -0.5, 0, 1.15, 42.85, 376.63)" xlink:href="#linear-gradient-4"/><linearGradient id="linear-gradient-16" x1="293.53" y1="-366.63" x2="269.03" y2="-370.63" xlink:href="#linear-gradient-4"/><linearGradient id="linear-gradient-17" x1="246.43" y1="281.71" x2="198.1" y2="289.71" gradientTransform="matrix(1, 0, 0, 1, 0, 0)" xlink:href="#linear-gradient-4"/><linearGradient id="linear-gradient-18" x1="190.57" y1="268" x2="172.57" y2="268" gradientTransform="matrix(1, 0, 0, 1, 0, 0)" xlink:href="#linear-gradient-4"/><linearGradient id="linear-gradient-19" x1="164.5" y1="240.75" x2="187.11" y2="240.75" gradientTransform="matrix(1, 0, 0, 1, 0, 0)" xlink:href="#linear-gradient-4"/><linearGradient id="linear-gradient-20" x1="160.53" y1="306.88" x2="151.53" y2="286.88" gradientTransform="matrix(1, 0, 0, 1, 0, 0)" xlink:href="#linear-gradient-4"/><linearGradient id="linear-gradient-21" x1="141.88" y1="282.51" x2="164.5" y2="282.51" gradientTransform="matrix(1, 0, 0, 1, 0, 0)" xlink:href="#linear-gradient-4"/><linearGradient id="linear-gradient-22" x1="213.11" y1="289.65" x2="183.86" y2="286.4" gradientTransform="matrix(1, 0, 0, 1, 0, 0)" xlink:href="#linear-gradient-4"/><linearGradient id="linear-gradient-23" x1="187.11" y1="272.86" x2="209.72" y2="272.86" gradientTransform="matrix(1, 0, 0, 1, 0, 0)" xlink:href="#linear-gradient-4"/><linearGradient id="linear-gradient-24" x1="186.65" y1="293.01" x2="165.4" y2="291.51" gradientTransform="matrix(1, 0, 0, 1, 0, 0)" xlink:href="#linear-gradient-4"/><linearGradient id="linear-gradient-25" x1="159.96" y1="269.48" x2="182.58" y2="269.48" gradientTransform="matrix(1, 0, 0, 1, 0, 0)" xlink:href="#linear-gradient-4"/><linearGradient id="linear-gradient-26" x1="79.33" y1="113.54" x2="126.14" y2="113.54" gradientTransform="matrix(1, 0, 0, 1, 0, 0)" xlink:href="#linear-gradient-4"/><linearGradient id="linear-gradient-27" x1="125.65" y1="109.22" x2="79.66" y2="109.22" gradientTransform="matrix(1, 0, 0, 1, 0, 0)" xlink:href="#linear-gradient-4"/><pattern id="New_Pattern_Swatch_8" data-name="New Pattern Swatch 8" width="24.33" height="24.33" patternUnits="userSpaceOnUse" viewBox="0 0 24.33 24.33"><rect class="cls-1" width="24.33" height="24.33"/><rect class="cls-4" width="24.33" height="24.33"/></pattern><pattern id="New_Pattern_Swatch_5" data-name="New Pattern Swatch 5" width="24.33" height="24.33" patternTransform="translate(136.77 22.89) scale(1.7)" patternUnits="userSpaceOnUse" viewBox="0 0 24.33 24.33"><rect class="cls-1" width="24.33" height="24.33"/><rect class="cls-3" width="24.33" height="24.33"/></pattern><linearGradient id="linear-gradient-28" x1="173.56" y1="129.33" x2="62.69" y2="193.56" gradientTransform="matrix(1, 0, 0, 1, 0, 0)" xlink:href="#linear-gradient-4"/><linearGradient id="linear-gradient-29" x1="30.52" y1="184.73" x2="150.81" y2="136.04" gradientTransform="matrix(1, 0, 0, 1, 0, 0)" xlink:href="#linear-gradient-4"/><linearGradient id="linear-gradient-30" x1="68.98" y1="116.14" x2="136.58" y2="116.14" gradientUnits="userSpaceOnUse"><stop offset="0" stop-color="#2fe1e7"/><stop offset="0.49" stop-color="#fff" stop-opacity="0.6"/><stop offset="0.56" stop-color="#f2f7fc" stop-opacity="0.62"/><stop offset="0.66" stop-color="#cde0f5" stop-opacity="0.68"/><stop offset="0.79" stop-color="#92bae9" stop-opacity="0.78"/><stop offset="0.93" stop-color="#4087d9" stop-opacity="0.92"/><stop offset="1" stop-color="#1169cf"/></linearGradient><linearGradient id="linear-gradient-31" x1="171.38" y1="35.49" x2="69.32" y2="75.89" gradientTransform="matrix(1, 0, 0, 1, 0, 0)" xlink:href="#linear-gradient-4"/><linearGradient id="linear-gradient-32" x1="51.85" y1="119.71" x2="117.09" y2="36.81" gradientTransform="matrix(1, 0, 0, 1, 0, 0)" xlink:href="#linear-gradient-4"/><linearGradient id="linear-gradient-33" x1="102.78" y1="61.14" x2="102.78" y2="3.81" xlink:href="#linear-gradient-12"/><linearGradient id="linear-gradient-34" x1="231.51" y1="204.42" x2="313.55" y2="204.42" gradientUnits="userSpaceOnUse"><stop offset="0" stop-color="#2fb6f8"/><stop offset="0.39" stop-color="#468ad8"/><stop offset="1" stop-color="#6c40a1"/></linearGradient><linearGradient id="linear-gradient-35" x1="283.03" y1="196.69" x2="247.64" y2="226.82" gradientTransform="matrix(1, 0, 0, 1, 0, 0)" xlink:href="#linear-gradient-4"/><linearGradient id="linear-gradient-36" x1="282.11" y1="163.46" x2="217.11" y2="278.13" gradientUnits="userSpaceOnUse"><stop offset="0" stop-color="#2fb6f8" stop-opacity="0"/><stop offset="1" stop-color="#4ae1e7"/></linearGradient><clipPath id="clip-path"><path class="cls-1" d="M59.22,273.43a12.42,12.42,0,0,0-5.1,5h-.77v2.95c-.12,3.06,1.83,6.15,5.87,8.48,7.86,4.54,20.6,4.54,28.46,0,3.93-2.27,5.89-5.24,5.89-8.22v-3.22h-.79a12.45,12.45,0,0,0-5.1-5A29.08,29.08,0,0,0,73.45,270a29.08,29.08,0,0,0-14.23,3.4"/></clipPath><linearGradient id="linear-gradient-37" x1="-553.3" y1="-784.74" x2="-552.65" y2="-784.74" gradientTransform="matrix(-31.6, 0, 0, 31.6, -17398.14, 25078.53)" xlink:href="#linear-gradient-4"/><clipPath id="clip-path-2"><path class="cls-1" d="M59.22,270.2a12.42,12.42,0,0,0-5.1,5h-.76V278c-.19,3.11,1.75,6.25,5.86,8.62,7.86,4.54,20.6,4.54,28.46,0,3.93-2.27,5.89-5.24,5.89-8.21v-3.23h-.78a12.44,12.44,0,0,0-5.1-5,29.08,29.08,0,0,0-14.23-3.4,29.08,29.08,0,0,0-14.23,3.4"/></clipPath><linearGradient id="linear-gradient-38" x1="53.17" y1="278.99" x2="93.57" y2="278.99" gradientTransform="matrix(1, 0, 0, 1, 0, 0)" xlink:href="#linear-gradient-4"/><clipPath id="clip-path-3"><path class="cls-1" d="M59.22,266.6a13.61,13.61,0,0,0-4.44,3.87H53.36v4c-.17,3.1,1.76,6.23,5.86,8.59,7.86,4.54,20.6,4.54,28.46,0,3.85-2.22,5.81-5.12,5.89-8v-4.18H92.32a13.19,13.19,0,0,0-4.64-4.2,29.08,29.08,0,0,0-14.23-3.4,29.08,29.08,0,0,0-14.23,3.4"/></clipPath><linearGradient id="linear-gradient-39" x1="-551.05" y1="-777.66" x2="-550.41" y2="-777.66" gradientTransform="matrix(-27.92, 0, 0, 27.92, -15299.18, 21984)" xlink:href="#linear-gradient-4"/><clipPath id="clip-path-4"><path class="cls-1" d="M59.22,262.89c-7.86,4.54-7.86,11.89,0,16.43s20.6,4.54,28.46,0,7.86-11.89,0-16.43a29.09,29.09,0,0,0-14.23-3.4,29.09,29.09,0,0,0-14.23,3.4"/></clipPath><linearGradient id="linear-gradient-40" x1="-579.3" y1="-810.39" x2="-578.66" y2="-810.39" gradientTransform="translate(35764.2 50227.32) scale(61.64)" xlink:href="#linear-gradient-4"/><clipPath id="clip-path-5"><path class="cls-1" d="M300.62,288.94a12.42,12.42,0,0,0-5.1,5h-.77v2.95c-.12,3.06,1.83,6.15,5.87,8.48,7.86,4.54,20.6,4.54,28.46,0,3.93-2.27,5.89-5.24,5.89-8.22v-3.22h-.79a12.45,12.45,0,0,0-5.1-5,31.44,31.44,0,0,0-28.46,0"/></clipPath><linearGradient id="linear-gradient-41" x1="-560.94" y1="-784.25" x2="-560.29" y2="-784.25" gradientTransform="matrix(-31.6, 0, 0, 31.6, -17398.14, 25078.53)" xlink:href="#linear-gradient-4"/><clipPath id="clip-path-6"><path class="cls-1" d="M300.62,285.72a12.42,12.42,0,0,0-5.1,5h-.76v2.82c-.19,3.11,1.75,6.25,5.86,8.62,7.86,4.54,20.6,4.54,28.46,0,3.93-2.27,5.89-5.24,5.89-8.21v-3.23h-.78a12.44,12.44,0,0,0-5.1-5,31.44,31.44,0,0,0-28.46,0"/></clipPath><linearGradient id="linear-gradient-42" x1="294.57" y1="294.5" x2="334.97" y2="294.5" gradientTransform="matrix(1, 0, 0, 1, 0, 0)" xlink:href="#linear-gradient-4"/><clipPath id="clip-path-7"><path class="cls-1" d="M300.62,282.12a13.61,13.61,0,0,0-4.44,3.87h-1.42v4c-.17,3.1,1.76,6.23,5.86,8.59,7.86,4.54,20.6,4.54,28.46,0,3.85-2.22,5.81-5.12,5.89-8v-4.18h-1.25a13.19,13.19,0,0,0-4.64-4.2,31.44,31.44,0,0,0-28.46,0"/></clipPath><linearGradient id="linear-gradient-43" x1="-559.7" y1="-777.11" x2="-559.06" y2="-777.11" gradientTransform="matrix(-27.92, 0, 0, 27.92, -15299.18, 21984)" xlink:href="#linear-gradient-4"/><clipPath id="clip-path-8"><path class="cls-1" d="M300.62,278.41c-7.86,4.54-7.86,11.89,0,16.43s20.6,4.54,28.46,0,7.86-11.89,0-16.43a31.45,31.45,0,0,0-28.46,0"/></clipPath><linearGradient id="linear-gradient-44" x1="-575.38" y1="-810.13" x2="-574.74" y2="-810.13" gradientTransform="translate(35764.2 50227.32) scale(61.64)" xlink:href="#linear-gradient-4"/><linearGradient id="linear-gradient-45" x1="1312.96" y1="-443.51" x2="1312.96" y2="-398.22" xlink:href="#linear-gradient-4"/><linearGradient id="linear-gradient-47" x1="1303.29" y1="-453.19" x2="1303.29" y2="-407.89" xlink:href="#linear-gradient-4"/><linearGradient id="linear-gradient-49" x1="1293.05" y1="-463.43" x2="1293.05" y2="-418.13" xlink:href="#linear-gradient-4"/><linearGradient id="linear-gradient-51" x1="1291.95" y1="-454.32" x2="1291.95" y2="-429.69" xlink:href="#linear-gradient-10"/><linearGradient id="linear-gradient-53" x1="280.17" y1="41.97" x2="280.17" y2="19.36" xlink:href="#linear-gradient-12"/><linearGradient id="linear-gradient-54" x1="294.41" y1="-149.11" x2="285.5" y2="-149.11" gradientTransform="matrix(0.87, -0.5, 0, 1.15, 42.85, 376.63)" xlink:href="#linear-gradient-4"/><linearGradient id="linear-gradient-55" x1="293.36" y1="-136.84" x2="284.45" y2="-136.84" gradientTransform="matrix(0.87, -0.5, 0, 1.15, 42.85, 376.63)" xlink:href="#linear-gradient-4"/><linearGradient id="linear-gradient-56" x1="293.36" y1="-125.12" x2="284.45" y2="-125.12" gradientTransform="matrix(0.87, -0.5, 0, 1.15, 42.85, 376.63)" xlink:href="#linear-gradient-4"/><linearGradient id="linear-gradient-57" x1="685.15" y1="264.56" x2="685.15" y2="112.88" gradientTransform="matrix(-1, 0, 0, 1, 1084.48, 0)" xlink:href="#linear-gradient-2"/><linearGradient id="linear-gradient-58" x1="1698.74" y1="-647.51" x2="1698.74" y2="-568.12" gradientTransform="matrix(-0.71, 0.71, 0.71, 0.71, 2030.43, -558.4)" xlink:href="#linear-gradient-4"/><linearGradient id="linear-gradient-60" x1="641.75" y1="223.65" x2="641.75" y2="189.66" gradientTransform="matrix(-1, 0, 0, 1, 1084.48, 0)" gradientUnits="userSpaceOnUse"><stop offset="0" stop-color="#4ae2e7"/><stop offset="0.32" stop-color="#4ae2e7" stop-opacity="0.64"/><stop offset="0.65" stop-color="#4ae2e7" stop-opacity="0.3"/><stop offset="0.88" stop-color="#4ae2e7" stop-opacity="0.08"/><stop offset="1" stop-color="#4ae2e7" stop-opacity="0"/></linearGradient><clipPath id="clip-path-9"><polygon class="cls-2" points="408.4 175.63 368.58 198.62 368.58 117.39 408.4 94.4 408.4 175.63"/></clipPath><linearGradient id="linear-gradient-62" x1="695.99" y1="103.44" x2="695.99" y2="201.78" gradientTransform="matrix(-0.36, -0.93, -0.93, 0.36, 778.54, 741.26)" xlink:href="#linear-gradient"/></defs><title>token-exchange</title><g id="Layer_2" data-name="Layer 2"><g id="Layer_2-2" data-name="Layer 2"><circle class="cls-5" cx="55.87" cy="258.43" r="0.81"/><circle class="cls-6" cx="71.85" cy="237.63" r="0.62"/><circle class="cls-6" cx="80.5" cy="226.51" r="0.62"/><circle class="cls-7" cx="76.21" cy="218.96" r="0.37"/><g class="cls-8"><path class="cls-9" d="M60.77,239.54a97.38,97.38,0,0,1,.5,10.47,96.24,96.24,0,0,1-.5,10.47,96.22,96.22,0,0,1-.5-10.47A97.36,97.36,0,0,1,60.77,239.54Z"/></g><g class="cls-8"><path class="cls-9" d="M89.21,222.54c.21,2.38.3,4.76.38,7.15s.1,4.76.12,7.15,0,4.76-.12,7.15l-.14,3.57c-.08,1.19-.13,2.38-.25,3.57-.11-1.19-.16-2.38-.25-3.57L88.82,244c-.09-2.38-.1-4.76-.12-7.15s0-4.76.12-7.15S89,224.92,89.21,222.54Z"/></g><polyline class="cls-10" points="93.58 279.54 93.58 216.47 53.4 216.47 53.33 279.54"/><circle class="cls-5" cx="331.26" cy="274.14" r="0.81"/><circle class="cls-6" cx="315.28" cy="253.34" r="0.62"/><circle class="cls-6" cx="306.63" cy="242.21" r="0.62"/><circle class="cls-7" cx="310.92" cy="234.67" r="0.37"/><g class="cls-8"><path class="cls-9" d="M326.36,255.25a97.39,97.39,0,0,1,.5,10.47,96.24,96.24,0,0,1-.5,10.47,96.21,96.21,0,0,1-.5-10.47A97.36,97.36,0,0,1,326.36,255.25Z"/></g><g class="cls-8"><path class="cls-9" d="M297.92,238.25c.21,2.38.3,4.76.38,7.15s.1,4.76.12,7.15,0,4.76-.12,7.15l-.14,3.57c-.08,1.19-.13,2.38-.25,3.57-.11-1.19-.16-2.38-.25-3.57l-.14-3.57c-.09-2.38-.1-4.76-.12-7.15s0-4.76.12-7.15S297.71,240.63,297.92,238.25Z"/></g><polyline class="cls-11" points="334.97 290.29 334.97 227.22 294.79 227.22 294.72 290.29"/><polygon class="cls-12" points="286.98 49.85 286.98 56.38 292.51 53.04 286.98 49.85"/><polygon class="cls-12" points="350.15 49.85 350.15 56.38 344.62 53.04 350.15 49.85"/><path class="cls-12" d="M321.85,77.22a7.51,7.51,0,0,1-6.85,0L288.9,61.95c-1.88-1.1-1.88-2.9,0-4L315,42.68a7.5,7.5,0,0,1,6.84,0L348,57.94c1.88,1.1,1.88,2.9,0,4Z"/><path class="cls-12" d="M321.85,77.22a7.51,7.51,0,0,1-6.85,0L288.9,61.95c-1.88-1.1-1.88-2.9,0-4L315,42.68a7.5,7.5,0,0,1,6.84,0L348,57.94c1.88,1.1,1.88,2.9,0,4Z"/><path class="cls-13" d="M321.85,75.52a7.51,7.51,0,0,1-6.85,0l-26.1-15.27c-1.88-1.1-1.88-2.9,0-4L315,41a7.51,7.51,0,0,1,6.85,0L348,56.25c1.88,1.1,1.88,2.9,0,4Z"/><path class="cls-13" d="M321.85,75.52a7.51,7.51,0,0,1-6.85,0l-26.1-15.27c-1.88-1.1-1.88-2.9,0-4L315,41a7.51,7.51,0,0,1,6.85,0L348,56.25c1.88,1.1,1.88,2.9,0,4Z"/><path class="cls-12" d="M322.06,73.86a7.66,7.66,0,0,1-7,0L288.42,58.27c-1.92-1.13-1.92-3,0-4.09l26.65-15.59a7.67,7.67,0,0,1,7,0l26.65,15.59c1.92,1.12,1.92,3,0,4.09Z"/><path class="cls-12" d="M322.06,73.86a7.66,7.66,0,0,1-7,0L288.42,58.27c-1.92-1.13-1.92-3,0-4.09l26.65-15.59a7.67,7.67,0,0,1,7,0l26.65,15.59c1.92,1.12,1.92,3,0,4.09Z"/><path class="cls-14" d="M322.06,67.48a7.67,7.67,0,0,1-7,0L288.42,51.89c-1.92-1.12-1.92-3,0-4.09l26.65-15.59a7.66,7.66,0,0,1,7,0L348.71,47.8c1.92,1.13,1.92,3,0,4.09Z"/><path class="cls-14" d="M322.06,67.48a7.67,7.67,0,0,1-7,0L288.42,51.89c-1.92-1.12-1.92-3,0-4.09l26.65-15.59a7.66,7.66,0,0,1,7,0L348.71,47.8c1.92,1.13,1.92,3,0,4.09Z"/><polygon class="cls-12" points="286.98 36.17 286.98 42.7 292.51 39.36 286.98 36.17"/><polygon class="cls-12" points="350.15 36.17 350.15 42.7 344.62 39.36 350.15 36.17"/><path class="cls-12" d="M321.85,63.53a7.5,7.5,0,0,1-6.85,0L288.9,48.27c-1.88-1.1-1.88-2.9,0-4L315,29a7.51,7.51,0,0,1,6.84,0L348,44.26c1.88,1.1,1.88,2.9,0,4Z"/><path class="cls-12" d="M321.85,63.53a7.5,7.5,0,0,1-6.85,0L288.9,48.27c-1.88-1.1-1.88-2.9,0-4L315,29a7.51,7.51,0,0,1,6.84,0L348,44.26c1.88,1.1,1.88,2.9,0,4Z"/><path class="cls-13" d="M321.85,61.84a7.51,7.51,0,0,1-6.85,0l-26.1-15.27c-1.88-1.1-1.88-2.9,0-4L315,27.3a7.51,7.51,0,0,1,6.85,0L348,42.57c1.88,1.1,1.88,2.9,0,4Z"/><path class="cls-13" d="M321.85,61.84a7.51,7.51,0,0,1-6.85,0l-26.1-15.27c-1.88-1.1-1.88-2.9,0-4L315,27.3a7.51,7.51,0,0,1,6.85,0L348,42.57c1.88,1.1,1.88,2.9,0,4Z"/><path class="cls-12" d="M322.06,60.18a7.66,7.66,0,0,1-7,0L288.42,44.59c-1.92-1.12-1.92-3,0-4.09l26.65-15.59a7.66,7.66,0,0,1,7,0L348.71,40.5c1.92,1.12,1.92,3,0,4.09Z"/><path class="cls-12" d="M322.06,60.18a7.66,7.66,0,0,1-7,0L288.42,44.59c-1.92-1.12-1.92-3,0-4.09l26.65-15.59a7.66,7.66,0,0,1,7,0L348.71,40.5c1.92,1.12,1.92,3,0,4.09Z"/><path class="cls-15" d="M322.06,53.8a7.67,7.67,0,0,1-7,0L288.42,38.21c-1.92-1.13-1.92-3,0-4.09l26.65-15.59a7.66,7.66,0,0,1,7,0l26.65,15.59c1.92,1.12,1.92,3,0,4.09Z"/><path class="cls-15" d="M322.06,53.8a7.67,7.67,0,0,1-7,0L288.42,38.21c-1.92-1.13-1.92-3,0-4.09l26.65-15.59a7.66,7.66,0,0,1,7,0l26.65,15.59c1.92,1.12,1.92,3,0,4.09Z"/><polygon class="cls-12" points="286.98 21.69 286.98 28.21 292.51 24.88 286.98 21.69"/><polygon class="cls-12" points="350.15 21.69 350.15 28.21 344.62 24.88 350.15 21.69"/><path class="cls-12" d="M321.85,49.05a7.51,7.51,0,0,1-6.85,0L288.9,33.79c-1.88-1.1-1.88-2.9,0-4L315,14.51a7.52,7.52,0,0,1,6.84,0L348,29.78c1.88,1.1,1.88,2.9,0,4Z"/><path class="cls-12" d="M321.85,49.05a7.51,7.51,0,0,1-6.85,0L288.9,33.79c-1.88-1.1-1.88-2.9,0-4L315,14.51a7.52,7.52,0,0,1,6.84,0L348,29.78c1.88,1.1,1.88,2.9,0,4Z"/><path class="cls-13" d="M321.85,47.36a7.51,7.51,0,0,1-6.85,0l-26.1-15.27c-1.88-1.1-1.88-2.9,0-4L315,12.82a7.51,7.51,0,0,1,6.85,0L348,28.08c1.88,1.1,1.88,2.9,0,4Z"/><path class="cls-13" d="M321.85,47.36a7.51,7.51,0,0,1-6.85,0l-26.1-15.27c-1.88-1.1-1.88-2.9,0-4L315,12.82a7.51,7.51,0,0,1,6.85,0L348,28.08c1.88,1.1,1.88,2.9,0,4Z"/><path class="cls-12" d="M322.06,45.7a7.66,7.66,0,0,1-7,0L288.42,30.11c-1.92-1.13-1.92-3,0-4.09l26.65-15.59a7.66,7.66,0,0,1,7,0L348.71,26c1.92,1.13,1.92,3,0,4.09Z"/><path class="cls-12" d="M322.06,45.7a7.66,7.66,0,0,1-7,0L288.42,30.11c-1.92-1.13-1.92-3,0-4.09l26.65-15.59a7.66,7.66,0,0,1,7,0L348.71,26c1.92,1.13,1.92,3,0,4.09Z"/><path class="cls-16" d="M322.06,39.32a7.67,7.67,0,0,1-7,0L288.42,23.73c-1.92-1.13-1.92-3,0-4.09L315.07,4a7.67,7.67,0,0,1,7,0l26.65,15.59c1.92,1.13,1.92,3,0,4.09Z"/><path class="cls-16" d="M322.06,39.32a7.67,7.67,0,0,1-7,0L288.42,23.73c-1.92-1.13-1.92-3,0-4.09L315.07,4a7.67,7.67,0,0,1,7,0l26.65,15.59c1.92,1.13,1.92,3,0,4.09Z"/><path class="cls-12" d="M320.54,30.63a4.17,4.17,0,0,1-3.8,0l-14.49-8.48a1.18,1.18,0,0,1,0-2.22l14.49-8.48a4.16,4.16,0,0,1,3.8,0L335,19.93a1.18,1.18,0,0,1,0,2.22Z"/><path class="cls-12" d="M320.54,30.63a4.17,4.17,0,0,1-3.8,0l-14.49-8.48a1.18,1.18,0,0,1,0-2.22l14.49-8.48a4.16,4.16,0,0,1,3.8,0L335,19.93a1.18,1.18,0,0,1,0,2.22Z"/><path class="cls-17" d="M320.54,29.65a4.16,4.16,0,0,1-3.8,0l-14.49-8.48a1.18,1.18,0,0,1,0-2.22l14.49-8.48a4.16,4.16,0,0,1,3.8,0L335,19a1.18,1.18,0,0,1,0,2.22Z"/><path class="cls-17" d="M320.54,29.65a4.16,4.16,0,0,1-3.8,0l-14.49-8.48a1.18,1.18,0,0,1,0-2.22l14.49-8.48a4.16,4.16,0,0,1,3.8,0L335,19a1.18,1.18,0,0,1,0,2.22Z"/><polyline class="cls-18" points="332.82 20.51 332.82 0 325.94 0 325.9 20.51"/><path class="cls-5" d="M331.81,21.38a5.34,5.34,0,0,1-4.89,0c-1.35-.79-1.35-2.07,0-2.86a5.34,5.34,0,0,1,4.89,0C333.16,19.31,333.16,20.59,331.81,21.38Z"/><polygon class="cls-19" points="313.19 15.93 312.28 16.46 313.19 16.99 314.1 16.46 313.19 15.93"/><polygon class="cls-19" points="311 17.21 311.92 17.74 312.83 17.21 311.92 16.67 311 17.21"/><polygon class="cls-20" points="309.73 17.95 310.64 18.49 311.55 17.95 310.64 17.42 309.73 17.95"/><polygon class="cls-20" points="308.45 18.7 309.36 19.23 310.27 18.7 309.36 18.17 308.45 18.7"/><polygon class="cls-21" points="307.18 19.45 308.08 19.98 309 19.45 308.08 18.92 307.18 19.45"/><polygon class="cls-21" points="305.9 20.2 306.81 20.73 307.72 20.2 306.81 19.66 305.9 20.2"/><polygon class="cls-19" points="311.02 15.72 311.93 16.25 312.84 15.72 311.93 15.19 311.02 15.72"/><polygon class="cls-19" points="309.74 16.47 310.65 17 311.56 16.47 310.65 15.93 309.74 16.47"/><polygon class="cls-20" points="308.46 17.21 309.37 17.75 310.28 17.21 309.37 16.68 308.46 17.21"/><polygon class="cls-20" points="307.19 17.96 308.1 18.49 309.01 17.96 308.1 17.43 307.19 17.96"/><polygon class="cls-21" points="305.9 18.71 306.81 19.24 307.73 18.71 306.81 18.18 305.9 18.71"/><polygon class="cls-21" points="304.63 19.45 305.54 19.99 306.45 19.45 305.54 18.92 304.63 19.45"/><polygon class="cls-21" points="304.63 20.94 305.54 21.47 306.45 20.94 305.54 20.4 304.63 20.94"/><polygon class="cls-21" points="303.36 20.2 304.27 20.73 305.18 20.2 304.27 19.66 303.36 20.2"/><polygon class="cls-22" points="343.53 30.75 335.82 35.2 335.82 34.2 343.53 29.75 343.53 30.75"/><polygon class="cls-19" points="347.39 28.52 344.69 30.07 344.69 29.08 347.39 27.52 347.39 28.52"/><polygon class="cls-23" points="343.53 45.22 335.82 49.67 335.82 48.67 343.53 44.22 343.53 45.22"/><polygon class="cls-19" points="347.39 42.99 344.69 44.55 344.69 43.55 347.39 41.99 347.39 42.99"/><polygon class="cls-24" points="343.53 58.75 335.82 63.2 335.82 62.2 343.53 57.76 343.53 58.75"/><polygon class="cls-19" points="347.39 56.53 344.69 58.08 344.69 57.08 347.39 55.53 347.39 56.53"/><polygon class="cls-21" points="291.52 58.09 290.44 57.47 290.44 56.23 291.52 56.85 291.52 58.09"/><polygon class="cls-21" points="293.07 58.99 291.99 58.36 291.99 57.12 293.07 57.74 293.07 58.99"/><polygon class="cls-20" points="294.58 59.86 293.51 59.24 293.51 57.99 294.58 58.62 294.58 59.86"/><polygon class="cls-20" points="296.04 60.7 294.96 60.08 294.96 58.84 296.04 59.46 296.04 60.7"/><polygon class="cls-19" points="297.52 61.56 296.44 60.94 296.44 59.69 297.52 60.31 297.52 61.56"/><polygon class="cls-19" points="299.04 62.43 297.96 61.81 297.96 60.57 299.04 61.19 299.04 62.43"/><polygon class="cls-21" points="291.52 44.13 290.44 43.51 290.44 42.27 291.52 42.89 291.52 44.13"/><polygon class="cls-21" points="293.07 45.02 291.99 44.4 291.99 43.16 293.07 43.78 293.07 45.02"/><polygon class="cls-20" points="294.58 45.9 293.51 45.28 293.51 44.03 294.58 44.66 294.58 45.9"/><polygon class="cls-20" points="296.04 46.74 294.96 46.12 294.96 44.87 296.04 45.5 296.04 46.74"/><polygon class="cls-19" points="297.52 47.6 296.44 46.98 296.44 45.73 297.52 46.35 297.52 47.6"/><polygon class="cls-19" points="299.04 48.47 297.96 47.85 297.96 46.61 299.04 47.23 299.04 48.47"/><path class="cls-12" d="M177.2,326.23a13,13,0,0,1-11.85,0L120.15,299.8c-3.26-1.91-3.26-5,0-6.93l45.19-26.44a13,13,0,0,1,11.85,0l45.19,26.44c3.26,1.91,3.26,5,0,6.93Z"/><path class="cls-12" d="M177.2,326.23a13,13,0,0,1-11.85,0L120.15,299.8c-3.26-1.91-3.26-5,0-6.93l45.19-26.44a13,13,0,0,1,11.85,0l45.19,26.44c3.26,1.91,3.26,5,0,6.93Z"/><path class="cls-25" d="M177.2,324.06a13,13,0,0,1-11.85,0l-45.19-26.43c-3.26-1.91-3.26-5,0-6.94l45.19-26.44a13,13,0,0,1,11.85,0l45.19,26.44c3.26,1.91,3.26,5,0,6.94Z"/><path class="cls-26" d="M177.2,324.06a13,13,0,0,1-11.85,0l-45.19-26.43c-3.26-1.91-3.26-5,0-6.94l45.19-26.44a13,13,0,0,1,11.85,0l45.19,26.44c3.26,1.91,3.26,5,0,6.94Z"/><path class="cls-27" d="M187.11,288.71v-48H164.5v48h0c0,1.67,1.1,3.34,3.31,4.62a17.67,17.67,0,0,0,16,0C186,292.06,187.11,290.38,187.11,288.71Z"/><path class="cls-28" d="M183.8,236.14c4.42,2.55,4.42,6.68,0,9.23a17.67,17.67,0,0,1-16,0c-4.42-2.55-4.42-6.68,0-9.23A17.67,17.67,0,0,1,183.8,236.14Z"/><path class="cls-29" d="M164.5,297.78V282.51H141.88v15.27h0c0,1.67,1.1,3.34,3.31,4.62a17.67,17.67,0,0,0,16,0C163.39,301.12,164.5,299.45,164.5,297.78Z"/><path class="cls-30" d="M161.18,277.89c4.42,2.55,4.42,6.68,0,9.23a17.67,17.67,0,0,1-16,0c-4.42-2.55-4.42-6.68,0-9.23A17.67,17.67,0,0,1,161.18,277.89Z"/><path class="cls-31" d="M209.72,297.78V272.86H187.11v24.92h0c0,1.67,1.1,3.34,3.31,4.62a17.67,17.67,0,0,0,16,0C208.62,301.12,209.72,299.45,209.72,297.78Z"/><path class="cls-32" d="M206.41,268.24c4.42,2.55,4.42,6.68,0,9.23a17.67,17.67,0,0,1-16,0c-4.42-2.55-4.42-6.68,0-9.23A17.67,17.67,0,0,1,206.41,268.24Z"/><path class="cls-33" d="M182.58,308.6V269.48H160V308.6h0c0,1.67,1.1,3.34,3.31,4.62a17.67,17.67,0,0,0,16,0C181.47,311.94,182.58,310.27,182.58,308.6Z"/><path class="cls-34" d="M179.27,264.86c4.42,2.55,4.42,6.68,0,9.23a17.67,17.67,0,0,1-16,0c-4.42-2.55-4.42-6.68,0-9.23A17.67,17.67,0,0,1,179.27,264.86Z"/><path class="cls-35" d="M126.13,113.1v-4.63h-1.66a15.83,15.83,0,0,0-5.16-4.5c-9.15-5.28-24-5.28-33.12,0a15.35,15.35,0,0,0-5.4,4.89H79.33v4.87c.09,3.39,2.37,6.77,6.86,9.36,9.15,5.28,24,5.28,33.12,0C124.08,120.35,126.34,116.7,126.13,113.1Z"/><path class="cls-36" d="M119.31,99.65c9.15,5.28,9.15,13.84,0,19.12s-24,5.28-33.12,0-9.15-13.84,0-19.12S110.16,94.37,119.31,99.65Z"/><path class="cls-37" d="M117.19,100.88c8,4.61,8,12.07,0,16.68s-20.91,4.61-28.89,0-8-12.07,0-16.68S109.21,96.27,117.19,100.88Z"/><path class="cls-5" d="M108.27,110.4a5.53,5.53,0,0,0,4.12-.84c1.49-1.13.09-2.69-1.39-3.7l2.59-1.49-1.6-.92-2.57,1.48-1.07-.62,2.57-1.48-1.6-.92-2.57,1.48-3.22-1.86-1.65,1,1.2.69c.54.31.64.55.21.8l-7.1,4.1a1.34,1.34,0,0,1-1.39.09l-1.22-.7-1.69,1,3.1,1.79-2.62,1.51,1.61.93,2.62-1.51,1.07.62L95,113.3l1.56.9,2.62-1.51.34.2c3.28,1.9,6,1.6,8.17.34C109,112.46,109.23,111.3,108.27,110.4Zm-1.68-5.08,1.14.66c.8.46,2.23,1.45.93,2.2a3.55,3.55,0,0,1-3.1.17l-2.11-1.22Zm-6.44,5.76h0l-1.77-1,3.42-2,2.05,1.18c.48.28,2.12,1.41.84,2.15A4.41,4.41,0,0,1,100.15,111.08Z"/><path class="cls-38" d="M133.63,156H71.87c.52-.35,1.06-.67,1.62-1,16.17-9.33,42.37-9.33,58.53,0C132.57,155.33,133.11,155.65,133.63,156Z"/><path class="cls-39" d="M146.44,172.27c0,6.45-4.27,12.92-12.8,17.84-17.06,9.85-44.72,9.85-61.79,0-8.52-4.93-12.79-11.39-12.79-17.84,0-.28,0-.58,0-.86a39.08,39.08,0,0,1,4.31-15.92h78.71S146.74,163.89,146.44,172.27Z"/><path class="cls-40" d="M130.58,171.56c-15.37,8.87-40.29,8.87-55.66,0s-15.37-23.26,0-32.13,40.29-8.87,55.66,0S145.95,162.69,130.58,171.56Z"/><path class="cls-13" d="M127.18,168.6c-12.54,7.24-36.26,7.24-48.8,0s-12.54-19,0-26.21,36.26-7.24,48.8,0S139.71,161.36,127.18,168.6Z"/><path class="cls-41" d="M69,58.26V156h0c.22,4.57,3.34,9.11,9.38,12.6,12.54,7.24,36.26,7.24,48.8,0,6-3.49,9.16-8,9.38-12.6h0V58.26Z"/><path class="cls-42" d="M146.86,55h-2c-2.06-3.8-5.68-7.38-10.9-10.39-17.23-9.95-45.16-9.95-62.39,0-5.21,3-8.84,6.59-10.9,10.39h-2v7.62h0c0,6.52,4.31,13,12.92,18,17.23,9.95,45.16,9.95,62.39,0,8.64-5,12.95-11.54,12.92-18.08Z"/><path class="cls-43" d="M133.94,73C116.71,83,88.78,83,71.56,73S54.33,47,71.56,37s45.16-9.95,62.39,0S151.17,63.1,133.94,73Z"/><path class="cls-44" d="M136.1,178.27a5.47,5.47,0,0,1-2.48,4.29c-1.37.79-2.48.15-2.48-1.43a5.47,5.47,0,0,1,2.48-4.29C135,176,136.1,176.69,136.1,178.27Z"/><path class="cls-44" d="M76.82,182c0,1.58-1.11,2.22-2.48,1.43a5.47,5.47,0,0,1-2.48-4.29c0-1.58,1.11-2.22,2.48-1.43A5.47,5.47,0,0,1,76.82,182Z"/><path class="cls-45" d="M92.88,51.57c5.47-3.16,14.33-3.16,19.79,0a8.13,8.13,0,0,1,3.78,4c1-2.59-.3-5.39-3.78-7.4-5.47-3.16-14.33-3.16-19.79,0-3.48,2-4.74,4.81-3.78,7.4A8.14,8.14,0,0,1,92.88,51.57Z"/><path class="cls-46" d="M92.88,59.62c5.47,3.16,14.33,3.16,19.79,0a8.14,8.14,0,0,0,3.78-4,8.13,8.13,0,0,0-3.78-4c-5.47-3.16-14.33-3.16-19.79,0a8.14,8.14,0,0,0-3.78,4A8.13,8.13,0,0,0,92.88,59.62Z"/><g class="cls-8"><path class="cls-5" d="M98,40.62c0,1.39-1,2-2.18,1.26a4.82,4.82,0,0,1-2.18-3.78c0-1.39,1-2,2.18-1.26A4.82,4.82,0,0,1,98,40.62Z"/><path class="cls-5" d="M102.78,23.74c0,1.39-1,2-2.18,1.26a4.82,4.82,0,0,1-2.18-3.78c0-1.39,1-2,2.18-1.26A4.82,4.82,0,0,1,102.78,23.74Z"/><path class="cls-5" d="M110.89,45.87a6.32,6.32,0,0,1-2.86,5c-1.58.91-2.86.17-2.86-1.65a6.32,6.32,0,0,1,2.86-5C109.61,43.31,110.89,44,110.89,45.87Z"/><path class="cls-5" d="M108,30.75a3.67,3.67,0,0,1-1.66,2.88c-.92.53-1.66.1-1.66-1a3.67,3.67,0,0,1,1.66-2.88C107.28,29.26,108,29.69,108,30.75Z"/></g><path class="cls-47" d="M88.78,3.74V54.68h.06c.3,1.8,1.64,3.56,4,4.94,5.47,3.16,14.33,3.16,19.79,0,2.39-1.38,3.74-3.14,4-4.94h.06V3.74Z"/><path class="cls-44" d="M302.05,198.44c0,3.42-2.4,4.81-5.36,3.1a11.85,11.85,0,0,1-5.36-9.29c0-3.42,2.4-4.81,5.36-3.1A11.85,11.85,0,0,1,302.05,198.44Z"/><path class="cls-5" d="M300.87,199c0,3.42-2.4,4.81-5.36,3.1a11.85,11.85,0,0,1-5.36-9.29c0-3.42,2.4-4.81,5.36-3.1A11.85,11.85,0,0,1,300.87,199Z"/><path class="cls-44" d="M278.48,190c0,3.42-2.4,4.81-5.36,3.1a11.85,11.85,0,0,1-5.36-9.29c0-3.42,2.4-4.81,5.36-3.1A11.85,11.85,0,0,1,278.48,190Z"/><path class="cls-5" d="M277.3,190.62c0,3.42-2.4,4.81-5.36,3.1a11.85,11.85,0,0,1-5.36-9.29c0-3.42,2.4-4.81,5.36-3.1A11.85,11.85,0,0,1,277.3,190.62Z"/><path class="cls-44" d="M259.75,166.84c0,3.42-2.4,4.81-5.36,3.1a11.85,11.85,0,0,1-5.36-9.29c0-3.42,2.4-4.81,5.36-3.1A11.85,11.85,0,0,1,259.75,166.84Z"/><path class="cls-5" d="M258.58,167.42c0,3.42-2.4,4.81-5.36,3.1a11.85,11.85,0,0,1-5.36-9.29c0-3.42,2.4-4.81,5.36-3.1A11.85,11.85,0,0,1,258.58,167.42Z"/><path class="cls-48" d="M310.51,226.35c-.21.13-.43.24-.65.35a12.76,12.76,0,0,1-2.72,1,14.91,14.91,0,0,1-3.64.44,10.88,10.88,0,0,1-5.39-1.24l-64.48-37.23a5.15,5.15,0,0,1-1.43-1.18,3.39,3.39,0,0,1-.6-1.16c-.44-1.62.56-3.45,2.92-4.81a14.39,14.39,0,0,1,7-1.75,10.88,10.88,0,0,1,5.39,1.24l64.48,37.23C314.58,221,314.18,224.24,310.51,226.35Z"/><path class="cls-49" d="M307.14,227.66a14.91,14.91,0,0,1-3.64.44,10.88,10.88,0,0,1-5.39-1.24l-64.48-37.23a5.15,5.15,0,0,1-1.43-1.18,15,15,0,0,1,3.65-.44,10.88,10.88,0,0,1,5.39,1.24l64.48,37.23A5.06,5.06,0,0,1,307.14,227.66Z"/><path class="cls-50" d="M314.32,185.4l-82.79-47.8v48.71a2.88,2.88,0,0,0,.08,1,3.39,3.39,0,0,0,.6,1.16,5.15,5.15,0,0,0,1.43,1.18l64.48,37.23a10.88,10.88,0,0,0,5.39,1.24,14.91,14.91,0,0,0,3.64-.44,12.76,12.76,0,0,0,2.72-1c.22-.11.44-.22.65-.35,1.93-1.11,2.93-2.52,3-3.88h0Z"/><g class="cls-51"><path class="cls-52" d="M249.71,213.47l-42.35,24.45a2,2,0,0,1-2,0l-33-19.07a2,2,0,0,0-2,0l-65.33,38.37"/><path class="cls-52" d="M59.39,201,36,215.22a2,2,0,0,0,0,3.36L65.3,235.44a2,2,0,0,1,0,3.38l-64.13,37a2,2,0,0,0,0,3.38l101.07,58.36a2,2,0,0,0,2,0l23.27-13.44"/><path class="cls-52" d="M63.62,198.42a1.33,1.33,0,0,1,0,2.51,4.81,4.81,0,0,1-4.35,0,1.33,1.33,0,0,1,0-2.51A4.81,4.81,0,0,1,63.62,198.42Z"/><path class="cls-52" d="M222.11,323.57l21.48,12.91a3.09,3.09,0,0,0,3.14,0l31.87-18.4a3.09,3.09,0,0,1,3.09,0l31.9,18.42a3.09,3.09,0,0,0,3.09,0l63.84-36.82a3.09,3.09,0,0,0,0-5.36L325,262a3.09,3.09,0,0,1,0-5.36l30.36-17.53"/><path class="cls-52" d="M222,321.23a1.33,1.33,0,0,1,0,2.51,4.81,4.81,0,0,1-4.35,0,1.33,1.33,0,0,1,0-2.51A4.81,4.81,0,0,1,222,321.23Z"/><path class="cls-52" d="M266.26,23l-21-12.18a1.65,1.65,0,0,0-1.62,0L177.55,49.78a1.65,1.65,0,0,0,0,2.86L207.68,70a1.65,1.65,0,0,1,0,2.86L143,110.21a1.65,1.65,0,0,0,0,2.85l29.72,17.56a1.65,1.65,0,0,1,0,2.85l-18,10.37"/><path class="cls-52" d="M270.59,26a5.39,5.39,0,0,1-4.88,0c-1.35-.78-1.35-2,0-2.81a5.39,5.39,0,0,1,4.88,0C271.94,24,271.94,25.27,270.59,26Z"/></g><g class="cls-53"><rect class="cls-54" x="53.23" y="270.02" width="40.35" height="24.37"/></g><g class="cls-55"><rect class="cls-56" x="53.17" y="266.8" width="40.4" height="24.37"/></g><g class="cls-57"><rect class="cls-58" x="53.19" y="263.2" width="40.38" height="24.37"/></g><g class="cls-59"><rect class="cls-60" x="51.36" y="259.49" width="44.18" height="24.37"/></g><path class="cls-5" d="M79.19,272.63a5.73,5.73,0,0,0,4.26-.87c1.55-1.17.09-2.78-1.44-3.83l2.68-1.55-1.65-1L80.38,267l-1.11-.64,2.66-1.53-1.65-1-2.66,1.53-3.33-1.92-1.71,1,1.24.72c.56.32.66.57.21.83l-7.36,4.25a1.39,1.39,0,0,1-1.44.1L64,269.59l-1.75,1,3.21,1.85L62.71,274l1.67,1,2.72-1.57,1.11.64-2.72,1.57,1.62.93L69.82,275l.35.2c3.4,2,6.2,1.66,8.47.35C80,274.76,80.18,273.56,79.19,272.63Zm-1.74-5.26,1.18.68c.83.48,2.31,1.5,1,2.28a3.68,3.68,0,0,1-3.21.18l-2.18-1.26Zm-6.67,6h0L69,272.27l3.54-2,2.13,1.23c.5.29,2.2,1.46.87,2.22A4.57,4.57,0,0,1,70.78,273.34Z"/><g class="cls-61"><rect class="cls-62" x="294.62" y="285.54" width="40.35" height="24.37"/></g><g class="cls-63"><rect class="cls-64" x="294.57" y="282.32" width="40.4" height="24.37"/></g><g class="cls-65"><rect class="cls-66" x="294.58" y="278.71" width="40.38" height="24.37"/></g><g class="cls-67"><rect class="cls-68" x="292.76" y="275" width="44.18" height="24.37"/></g><polygon class="cls-5" points="311.13 284.84 311.69 286.06 310.38 286.81 311.04 288.22 314.15 286.42 312.93 283.8 311.13 284.84"/><polygon class="cls-5" points="308.09 288.14 306.75 285.28 310.36 283.19 310.92 284.39 312.72 283.34 311.51 280.73 304.29 284.9 306.93 290.59 310.46 288.56 309.81 287.15 308.09 288.14"/><polygon class="cls-5" points="312.08 288.83 314.55 289.21 315.86 288.45 317.94 288.77 319.74 287.73 315.2 287.03 312.08 288.83"/><polygon class="cls-5" points="320.53 287.85 318.73 288.89 320.79 289.21 317.18 291.3 312.25 290.54 313.97 289.54 311.5 289.16 307.98 291.2 317.84 292.72 325.06 288.55 320.53 287.85"/><path class="cls-5" d="M316.49,283.28l-.44-1,1.19.18a1.88,1.88,0,0,1,.51-1.24l-4.83-.75,1.1,2.38Z"/><path class="cls-5" d="M321.31,287.1l4.12.64-1.3-2.79a7.71,7.71,0,0,1-2.15.3l.32.69-1.65-.26Z"/><polygon class="cls-5" points="319.86 285.56 317.37 285.17 316.7 283.73 314.23 283.35 315.56 286.21 320.52 286.98 319.86 285.56"/><path class="cls-5" d="M324.31,281.16a5.23,5.23,0,0,0-4.73,0c-.88.51-1.09,1.86-1.14,2.69,0,.16,0,.31,0,.42s0,.28,0,.28h1.21c1.45,0,3.79-.15,4.66-.66C325.62,283.14,325.62,281.92,324.31,281.16ZM321,283.08a.6.6,0,0,1,0-1.13,2.16,2.16,0,0,1,2,0,.6.6,0,0,1,0,1.13A2.16,2.16,0,0,1,321,283.08Z"/><polygon class="cls-12" points="248.48 72.36 248.48 78.89 254.02 75.55 248.48 72.36"/><polygon class="cls-12" points="311.66 72.36 311.66 78.89 306.13 75.55 311.66 72.36"/><path class="cls-12" d="M283.36,99.73a7.51,7.51,0,0,1-6.85,0l-26.1-15.27c-1.88-1.1-1.88-2.9,0-4l26.1-15.27a7.5,7.5,0,0,1,6.84,0l26.1,15.27c1.88,1.1,1.88,2.9,0,4Z"/><path class="cls-12" d="M283.36,99.73a7.51,7.51,0,0,1-6.85,0l-26.1-15.27c-1.88-1.1-1.88-2.9,0-4l26.1-15.27a7.5,7.5,0,0,1,6.84,0l26.1,15.27c1.88,1.1,1.88,2.9,0,4Z"/><path class="cls-13" d="M283.36,98a7.51,7.51,0,0,1-6.85,0l-26.1-15.27c-1.88-1.1-1.88-2.9,0-4l26.1-15.27a7.51,7.51,0,0,1,6.85,0l26.1,15.27c1.88,1.1,1.88,2.9,0,4Z"/><path class="cls-13" d="M283.36,98a7.51,7.51,0,0,1-6.85,0l-26.1-15.27c-1.88-1.1-1.88-2.9,0-4l26.1-15.27a7.51,7.51,0,0,1,6.85,0l26.1,15.27c1.88,1.1,1.88,2.9,0,4Z"/><path class="cls-12" d="M283.57,96.38a7.66,7.66,0,0,1-7,0L249.92,80.79c-1.92-1.13-1.92-3,0-4.09L276.57,61.1a7.67,7.67,0,0,1,7,0L310.22,76.7c1.92,1.12,1.92,3,0,4.09Z"/><path class="cls-12" d="M283.57,96.38a7.66,7.66,0,0,1-7,0L249.92,80.79c-1.92-1.13-1.92-3,0-4.09L276.57,61.1a7.67,7.67,0,0,1,7,0L310.22,76.7c1.92,1.12,1.92,3,0,4.09Z"/><path class="cls-69" d="M283.57,90a7.67,7.67,0,0,1-7,0L249.92,74.41c-1.92-1.12-1.92-3,0-4.09l26.65-15.59a7.66,7.66,0,0,1,7,0l26.65,15.59c1.92,1.13,1.92,3,0,4.09Z"/><path class="cls-69" d="M283.57,90a7.67,7.67,0,0,1-7,0L249.92,74.41c-1.92-1.12-1.92-3,0-4.09l26.65-15.59a7.66,7.66,0,0,1,7,0l26.65,15.59c1.92,1.13,1.92,3,0,4.09Z"/><polygon class="cls-12" points="248.48 58.68 248.48 65.21 254.02 61.87 248.48 58.68"/><polygon class="cls-12" points="311.66 58.68 311.66 65.21 306.13 61.87 311.66 58.68"/><path class="cls-12" d="M283.36,86a7.5,7.5,0,0,1-6.85,0l-26.1-15.27c-1.88-1.1-1.88-2.9,0-4l26.1-15.27a7.51,7.51,0,0,1,6.84,0l26.1,15.27c1.88,1.1,1.88,2.9,0,4Z"/><path class="cls-12" d="M283.36,86a7.5,7.5,0,0,1-6.85,0l-26.1-15.27c-1.88-1.1-1.88-2.9,0-4l26.1-15.27a7.51,7.51,0,0,1,6.84,0l26.1,15.27c1.88,1.1,1.88,2.9,0,4Z"/><path class="cls-13" d="M283.36,84.35a7.51,7.51,0,0,1-6.85,0l-26.1-15.27c-1.88-1.1-1.88-2.9,0-4l26.1-15.27a7.51,7.51,0,0,1,6.85,0l26.1,15.27c1.88,1.1,1.88,2.9,0,4Z"/><path class="cls-13" d="M283.36,84.35a7.51,7.51,0,0,1-6.85,0l-26.1-15.27c-1.88-1.1-1.88-2.9,0-4l26.1-15.27a7.51,7.51,0,0,1,6.85,0l26.1,15.27c1.88,1.1,1.88,2.9,0,4Z"/><path class="cls-12" d="M283.57,82.69a7.66,7.66,0,0,1-7,0L249.92,67.1c-1.92-1.12-1.92-3,0-4.09l26.65-15.59a7.66,7.66,0,0,1,7,0L310.22,63c1.92,1.12,1.92,3,0,4.09Z"/><path class="cls-12" d="M283.57,82.69a7.66,7.66,0,0,1-7,0L249.92,67.1c-1.92-1.12-1.92-3,0-4.09l26.65-15.59a7.66,7.66,0,0,1,7,0L310.22,63c1.92,1.12,1.92,3,0,4.09Z"/><path class="cls-70" d="M283.57,76.32a7.67,7.67,0,0,1-7,0L249.92,60.72c-1.92-1.13-1.92-3,0-4.09L276.57,41a7.66,7.66,0,0,1,7,0l26.65,15.59c1.92,1.12,1.92,3,0,4.09Z"/><path class="cls-70" d="M283.57,76.32a7.67,7.67,0,0,1-7,0L249.92,60.72c-1.92-1.13-1.92-3,0-4.09L276.57,41a7.66,7.66,0,0,1,7,0l26.65,15.59c1.92,1.12,1.92,3,0,4.09Z"/><polygon class="cls-12" points="248.48 44.2 248.48 50.73 254.02 47.39 248.48 44.2"/><polygon class="cls-12" points="311.66 44.2 311.66 50.73 306.13 47.39 311.66 44.2"/><path class="cls-12" d="M283.36,71.57a7.51,7.51,0,0,1-6.85,0L250.41,56.3c-1.88-1.1-1.88-2.9,0-4L276.51,37a7.52,7.52,0,0,1,6.84,0l26.1,15.27c1.88,1.1,1.88,2.9,0,4Z"/><path class="cls-12" d="M283.36,71.57a7.51,7.51,0,0,1-6.85,0L250.41,56.3c-1.88-1.1-1.88-2.9,0-4L276.51,37a7.52,7.52,0,0,1,6.84,0l26.1,15.27c1.88,1.1,1.88,2.9,0,4Z"/><path class="cls-13" d="M283.36,69.87a7.51,7.51,0,0,1-6.85,0L250.41,54.6c-1.88-1.1-1.88-2.9,0-4l26.1-15.27a7.51,7.51,0,0,1,6.85,0l26.1,15.27c1.88,1.1,1.88,2.9,0,4Z"/><path class="cls-13" d="M283.36,69.87a7.51,7.51,0,0,1-6.85,0L250.41,54.6c-1.88-1.1-1.88-2.9,0-4l26.1-15.27a7.51,7.51,0,0,1,6.85,0l26.1,15.27c1.88,1.1,1.88,2.9,0,4Z"/><path class="cls-12" d="M283.57,68.21a7.66,7.66,0,0,1-7,0L249.92,52.62c-1.92-1.13-1.92-3,0-4.09l26.65-15.59a7.66,7.66,0,0,1,7,0l26.65,15.59c1.92,1.13,1.92,3,0,4.09Z"/><path class="cls-12" d="M283.57,68.21a7.66,7.66,0,0,1-7,0L249.92,52.62c-1.92-1.13-1.92-3,0-4.09l26.65-15.59a7.66,7.66,0,0,1,7,0l26.65,15.59c1.92,1.13,1.92,3,0,4.09Z"/><path class="cls-71" d="M283.57,61.83a7.67,7.67,0,0,1-7,0L249.92,46.24c-1.92-1.13-1.92-3,0-4.09l26.65-15.59a7.67,7.67,0,0,1,7,0l26.65,15.59c1.92,1.13,1.92,3,0,4.09Z"/><path class="cls-71" d="M283.57,61.83a7.67,7.67,0,0,1-7,0L249.92,46.24c-1.92-1.13-1.92-3,0-4.09l26.65-15.59a7.67,7.67,0,0,1,7,0l26.65,15.59c1.92,1.13,1.92,3,0,4.09Z"/><path class="cls-12" d="M282,53.14a4.17,4.17,0,0,1-3.8,0l-14.49-8.48a1.18,1.18,0,0,1,0-2.22L278.25,34a4.16,4.16,0,0,1,3.8,0l14.49,8.48a1.18,1.18,0,0,1,0,2.22Z"/><path class="cls-12" d="M282,53.14a4.17,4.17,0,0,1-3.8,0l-14.49-8.48a1.18,1.18,0,0,1,0-2.22L278.25,34a4.16,4.16,0,0,1,3.8,0l14.49,8.48a1.18,1.18,0,0,1,0,2.22Z"/><path class="cls-72" d="M282,52.17a4.16,4.16,0,0,1-3.8,0l-14.49-8.48a1.18,1.18,0,0,1,0-2.22L278.25,33a4.16,4.16,0,0,1,3.8,0l14.49,8.48a1.18,1.18,0,0,1,0,2.22Z"/><path class="cls-72" d="M282,52.17a4.16,4.16,0,0,1-3.8,0l-14.49-8.48a1.18,1.18,0,0,1,0-2.22L278.25,33a4.16,4.16,0,0,1,3.8,0l14.49,8.48a1.18,1.18,0,0,1,0,2.22Z"/><polyline class="cls-73" points="283.63 39.02 283.63 18.51 276.75 18.51 276.71 39.02"/><path class="cls-5" d="M282.61,39.9a5.34,5.34,0,0,1-4.89,0c-1.35-.79-1.35-2.07,0-2.86a5.34,5.34,0,0,1,4.89,0C284,37.82,284,39.11,282.61,39.9Z"/><polygon class="cls-19" points="287.95 45.36 287.04 45.89 287.95 46.42 288.86 45.89 287.95 45.36"/><polygon class="cls-19" points="285.76 46.64 286.67 47.17 287.58 46.64 286.67 46.1 285.76 46.64"/><polygon class="cls-20" points="284.49 47.38 285.39 47.92 286.3 47.38 285.39 46.85 284.49 47.38"/><polygon class="cls-20" points="283.21 48.13 284.12 48.66 285.03 48.13 284.12 47.6 283.21 48.13"/><polygon class="cls-21" points="281.93 48.88 282.84 49.41 283.75 48.88 282.84 48.35 281.93 48.88"/><polygon class="cls-21" points="280.65 49.63 281.56 50.16 282.47 49.63 281.56 49.09 280.65 49.63"/><polygon class="cls-19" points="285.77 45.15 286.68 45.68 287.59 45.15 286.68 44.62 285.77 45.15"/><polygon class="cls-19" points="284.49 45.9 285.4 46.43 286.31 45.9 285.4 45.36 284.49 45.9"/><polygon class="cls-20" points="283.22 46.64 284.13 47.18 285.04 46.64 284.13 46.11 283.22 46.64"/><polygon class="cls-20" points="281.94 47.39 282.85 47.92 283.76 47.39 282.85 46.86 281.94 47.39"/><polygon class="cls-21" points="280.66 48.14 281.57 48.67 282.49 48.14 281.57 47.6 280.66 48.14"/><polygon class="cls-21" points="279.39 48.89 280.3 49.42 281.2 48.88 280.3 48.35 279.39 48.89"/><polygon class="cls-21" points="279.39 50.37 280.3 50.9 281.2 50.37 280.3 49.84 279.39 50.37"/><polygon class="cls-21" points="278.12 49.63 279.03 50.16 279.94 49.63 279.03 49.09 278.12 49.63"/><polygon class="cls-74" points="297.88 57.71 290.17 62.16 290.17 61.16 297.88 56.71 297.88 57.71"/><polygon class="cls-19" points="301.73 55.48 299.04 57.03 299.04 56.04 301.73 54.48 301.73 55.48"/><polygon class="cls-75" points="296.97 72.41 289.26 76.86 289.26 75.86 296.97 71.41 296.97 72.41"/><polygon class="cls-19" points="300.82 70.18 298.13 71.73 298.13 70.74 300.82 69.18 300.82 70.18"/><polygon class="cls-76" points="296.97 85.94 289.26 90.39 289.26 89.39 296.97 84.94 296.97 85.94"/><polygon class="cls-19" points="300.82 83.72 298.13 85.27 298.13 84.27 300.82 82.72 300.82 83.72"/><polygon class="cls-21" points="253.03 80.61 251.95 79.98 251.95 78.74 253.03 79.36 253.03 80.61"/><polygon class="cls-21" points="254.57 81.5 253.5 80.88 253.5 79.63 254.57 80.25 254.57 81.5"/><polygon class="cls-20" points="256.09 82.38 255.01 81.75 255.01 80.51 256.09 81.13 256.09 82.38"/><polygon class="cls-20" points="257.54 83.21 256.47 82.59 256.47 81.35 257.54 81.97 257.54 83.21"/><polygon class="cls-19" points="259.03 84.07 257.95 83.45 257.95 82.2 259.03 82.83 259.03 84.07"/><polygon class="cls-19" points="260.54 84.95 259.47 84.33 259.47 83.08 260.54 83.7 260.54 84.95"/><polygon class="cls-21" points="253.03 66.65 251.95 66.02 251.95 64.78 253.03 65.4 253.03 66.65"/><polygon class="cls-21" points="254.57 67.54 253.5 66.92 253.5 65.67 254.57 66.3 254.57 67.54"/><polygon class="cls-20" points="256.09 68.41 255.01 67.79 255.01 66.55 256.09 67.17 256.09 68.41"/><polygon class="cls-20" points="257.54 69.25 256.47 68.63 256.47 67.39 257.54 68.01 257.54 69.25"/><polygon class="cls-19" points="259.03 70.11 257.95 69.49 257.95 68.25 259.03 68.87 259.03 70.11"/><polygon class="cls-19" points="260.54 70.99 259.47 70.36 259.47 69.12 260.54 69.74 260.54 70.99"/><polyline class="cls-77" points="344.04 213.5 344.04 104.28 453.96 104.28 454.62 213.49"/><path class="cls-12" d="M393.28,246.09a13.43,13.43,0,0,0,12.25,0l46.72-27.33c3.37-2,3.37-5.2,0-7.17l-46.72-27.33a13.44,13.44,0,0,0-12.25,0L346.56,211.6c-3.37,2-3.37,5.2,0,7.17Z"/><path class="cls-12" d="M393.28,246.09a13.43,13.43,0,0,0,12.25,0l46.72-27.33c3.37-2,3.37-5.2,0-7.17l-46.72-27.33a13.44,13.44,0,0,0-12.25,0L346.56,211.6c-3.37,2-3.37,5.2,0,7.17Z"/><path class="cls-78" d="M393.28,243.84a13.45,13.45,0,0,0,12.25,0l46.72-27.33c3.37-2,3.37-5.2,0-7.17L405.54,182a13.44,13.44,0,0,0-12.25,0l-46.72,27.33c-3.37,2-3.37,5.2,0,7.17Z"/><path class="cls-78" d="M393.28,243.84a13.45,13.45,0,0,0,12.25,0l46.72-27.33c3.37-2,3.37-5.2,0-7.17L405.54,182a13.44,13.44,0,0,0-12.25,0l-46.72,27.33c-3.37,2-3.37,5.2,0,7.17Z"/><polyline class="cls-79" points="438.35 212.21 438.35 187.73 447.07 187.73 447.12 212.2"/><path class="cls-5" d="M439.63,214a6.75,6.75,0,0,0,6.17,0c1.7-1,1.7-2.61,0-3.61a6.74,6.74,0,0,0-6.17,0C437.92,211.4,437.92,213,439.63,214Z"/><polygon class="cls-80" points="385.6 230.37 387.4 229.31 386.05 228.52 384.26 229.58 385.6 230.37"/><polygon class="cls-80" points="383 231.91 384.79 230.85 383.45 230.06 381.66 231.12 383 231.91"/><polygon class="cls-80" points="387.52 231.5 389.31 230.44 387.96 229.65 386.17 230.71 387.52 231.5"/><polygon class="cls-80" points="384.91 233.03 386.7 231.98 385.36 231.19 383.57 232.24 384.91 233.03"/><polygon class="cls-80" points="389.44 232.63 391.23 231.58 389.89 230.79 388.1 231.84 389.44 232.63"/><polygon class="cls-80" points="386.83 234.17 388.63 233.12 387.28 232.32 385.49 233.38 386.83 234.17"/><polygon class="cls-80" points="391.34 233.76 393.14 232.7 391.79 231.91 390 232.97 391.34 233.76"/><polygon class="cls-80" points="388.74 235.29 390.53 234.24 389.19 233.45 387.4 234.5 388.74 235.29"/><polygon class="cls-80" points="393.28 234.9 395.07 233.84 393.73 233.05 391.93 234.11 393.28 234.9"/><polygon class="cls-80" points="390.67 236.43 392.46 235.38 391.12 234.59 389.33 235.64 390.67 236.43"/><polygon class="cls-80" points="395.19 236.03 396.98 234.97 395.64 234.18 393.85 235.23 395.19 236.03"/><polygon class="cls-80" points="392.58 237.56 394.37 236.51 393.03 235.71 391.24 236.77 392.58 237.56"/><polygon class="cls-80" points="397.11 237.16 398.9 236.1 397.56 235.31 395.77 236.37 397.11 237.16"/><polygon class="cls-80" points="394.51 238.7 396.3 237.64 394.95 236.85 393.17 237.9 394.51 238.7"/><polygon class="cls-80" points="399.02 238.28 400.81 237.23 399.47 236.44 397.68 237.49 399.02 238.28"/><polygon class="cls-80" points="396.41 239.82 398.2 238.76 396.86 237.97 395.07 239.03 396.41 239.82"/><path class="cls-81" d="M365.56,207.39V112.11a7.65,7.65,0,0,1,3.19-6.1l39.48-22.79c.77-.44,2.76.13,3,1.15-.36-1.66-1.3-2.55-3.32-3.09-.63-.17-1.51-.14-3.55.74l-37.18,21.43a8.45,8.45,0,0,0-4.23,6.24,6.43,6.43,0,0,0-.05.8v95.28a5.08,5.08,0,0,0,.81,3c1.37,1.92,2.1,1.68,4.1,1.36l-1.15-.17a2.81,2.81,0,0,1-1.12-2.59"/><path class="cls-82" d="M408.23,187l-39.48,22.8c-1.76,1-3.19-.06-3.19-2.42V112.11a7.65,7.65,0,0,1,3.19-6.1l39.48-22.79c1.76-1,3.19.06,3.19,2.42v95.28a7.65,7.65,0,0,1-3.19,6.1"/><polygon class="cls-2" points="408.4 175.63 368.58 198.62 368.58 117.39 408.4 94.4 408.4 175.63"/><g class="cls-83"><rect class="cls-84" x="332.71" y="108.98" width="111.57" height="75.06" transform="translate(110.49 454.9) rotate(-68.63)"/></g><path class="cls-12" d="M392.68,190.67c0-.37-.23-.55-.51-.38l-7.59,4.38a.54.54,0,0,0-.27.47v.27c0,.37.23.54.51.38l7.59-4.38a.54.54,0,0,0,.27-.47Z"/><path class="cls-85" d="M404.14,167c.34.06,3.39.73,3.39.73l8.87,2.31a4.25,4.25,0,0,1,1.51.69c.17.13,1-.35,1.26-.37a1.68,1.68,0,0,1,1.45.52,2.16,2.16,0,0,1,0,2.15c-.78,1.73-2.11,1.88-3.79,2.09a.93.93,0,0,1-.23,0h0l-.17-.06h0c-2.58-.9-9.55-4.88-9.87-4.89,0,0-1.16.46-1.61.14a2.32,2.32,0,0,0-1.06-.55c-.31,0-1.5.15-1.82.12s-1.7-1.17-1.41-1.69c0,0,1.07-.55,1.37-.68a7.71,7.71,0,0,1,2.17-.48"/><path class="cls-86" d="M417.5,223.44s-4.28-1.22-5.2-.76-.21,2.24,1.78,3.37a20.52,20.52,0,0,0,4.12,2.11c1.05.28,2.71.31,3-.73a4.6,4.6,0,0,0-.15-2.76c-.28-.46-3.49-1.23-3.49-1.23"/><path class="cls-87" d="M417.12,223.16v.95a1.92,1.92,0,0,0,1.91,1.34c1.76,0,1.8-.93,1.8-.93l-.05-1.32"/><path class="cls-86" d="M411.4,227.16s-4.8-1.37-5.83-.86-.24,2.51,2,3.78a23.17,23.17,0,0,0,4.62,2.37c1.18.31,3,.34,3.31-.82a5.18,5.18,0,0,0-.17-3.09c-.31-.52-3.92-1.37-3.92-1.37"/><path class="cls-87" d="M411.4,226.61v1.72s.21,1.13,1.89,1.24,2-1,2-1V227.2l-2.54-.39Z"/><path class="cls-88" d="M421.13,192c.46,2.19-.83,4.73-.9,5.69s.64,8.11,1,13.19.06,13.22.06,13.22a2.31,2.31,0,0,1-2.36.76,5.89,5.89,0,0,1-2.55-1.1s-1.13-17.14-1.48-19.13-.94-10-1-11.2,6.24-5.94,7.17-1.44"/><path class="cls-89" d="M407.71,194.17a109.53,109.53,0,0,0,1.18,16.26c.14.89,1.48,17.1,1.48,17.1s1.4,3.16,5.8.79c0,0-.45-14.85-.54-17.37s-.49-7.74-.32-10.35,1.64-3.3,1.8-6.73c0,0-.57-3.16-4.71-2.89s-4.7,3.18-4.7,3.18"/><path class="cls-90" d="M406.25,175.1c-.49-3,1.12-4.63,4.74-6.75,1.49-.88,7.06-4.69,9.79-1.29s-.15,11,0,15.35.83,10,.83,10-1.39,2.83-6.44,3.3a18.15,18.15,0,0,1-8.24-.93s.77-10.92-.67-19.68"/><path class="cls-85" d="M409.7,158.05s-.55,2-.65,2.44a3.92,3.92,0,0,0,0,1.27c0,.27-.45,1-.38,1.37s.38,2.4,1,3a2.56,2.56,0,0,0,1.86.38,13.54,13.54,0,0,0,0,2.06c.1.24,2.92,0,4.09-.65s.76-2.54.76-2.54l-3-7.32Z"/><path class="cls-91" d="M409.7,158.05a6.27,6.27,0,0,1,.31-1.61c.31-1,2.7-1.27,3.67-1s4.43,1.37,4.64,2.2a2,2,0,0,1,.08,1.1,3.82,3.82,0,0,1,.57,1.8,43.43,43.43,0,0,1-2.58,4.79s-1.57.21-2.12-.26-1.07-2.27-1.79-2.47-1,1.13-1,1.13l-.46-.36a4.45,4.45,0,0,0-.05-2,4.58,4.58,0,0,0-.77-.93l.41-1.6Z"/><path class="cls-85" d="M400.82,195.62c.1-.33,1.15-3.27,1.15-3.27l3.39-8.52a4.22,4.22,0,0,1,.87-1.41,58.38,58.38,0,0,1,.64-8.94s3.08-2.12,4.07,1.52c0,0-.35,5.68-.45,8.08h0v.26c0,.3,0,.53,0,.66a.78.78,0,0,1,0,.22h0l0,0a.9.9,0,0,1-.08.16v0h0c-1.21,2.45-5.74,9.13-5.8,9.45,0,0,.22,1.14-.16,1.55s-.79.48-.86.79,0,1.51-.11,1.82-1.37,1.54-1.86,1.2c0,0-.41-1.13-.51-1.44a7.69,7.69,0,0,1-.21-2.22"/><path class="cls-92" d="M406.47,172.48c-.9,1-.65,6.9-.72,8.52s1.65,2.4,3.26,2.23l1.61-.17s.38-3.43.55-6.39-1.82-7.52-4.71-4.19"/><path class="cls-93" d="M409.63,158.44s-2.18-1.06-2.41-2,3.63-2.42,6,0c2.71,2.78-3.58,2-3.58,2"/><path class="cls-94" d="M418.21,162.39s-1.1.7-4-.25a9.61,9.61,0,0,1-4.59-3.69,4.16,4.16,0,0,1,2.23-3.44,5.4,5.4,0,0,1,5.92,1.26,7,7,0,0,1,1.46,4.13,3.63,3.63,0,0,1-1,2"/><g class="cls-95"><polygon class="cls-44" points="372.86 146.72 374.68 145.67 374.68 128.54 372.86 129.59 372.86 146.72"/><polygon class="cls-44" points="376.51 144.61 378.33 143.56 378.33 134.03 376.51 135.08 376.51 144.61"/><polygon class="cls-44" points="380.17 142.5 381.99 141.45 381.99 128.11 380.17 129.16 380.17 142.5"/><polygon class="cls-44" points="383.82 140.39 385.64 139.34 385.64 124.69 383.82 125.74 383.82 140.39"/></g><g class="cls-96"><polygon class="cls-5" points="383.83 168.8 372.75 175.19 372.75 162.4 383.83 156 383.83 168.8"/><polygon class="cls-5" points="404.23 152.07 385.62 162.81 385.62 154.97 404.23 144.22 404.23 152.07"/><polygon class="cls-5" points="404.23 157.02 385.62 167.76 385.62 164.52 404.23 153.78 404.23 157.02"/><polygon class="cls-5" points="404.23 142.86 372.75 161.03 372.75 157.4 404.23 139.22 404.23 142.86"/><polygon class="cls-5" points="404.23 162.2 372.75 180.37 372.75 176.74 404.23 158.56 404.23 162.2"/></g><path class="cls-97" d="M403.58,123.58a13.69,13.69,0,0,1-1.93,6.26,13.52,13.52,0,0,1-4.66,4.93c-3.63,2.1-6.61.38-6.61-3.81A14.65,14.65,0,0,1,397,119.52v7.87Z"/><path class="cls-44" d="M403,123c0,.06,0,.13,0,.2l-5.36,3.1v-6.4A3.28,3.28,0,0,1,403,123Z"/></g></g></svg>